<?xml version="1.0" encoding="UTF-8" standalone="no"?><!DOCTYPE svg PUBLIC "-//W3C//DTD SVG 1.1//EN" "http://www.w3.org/Graphics/SVG/1.1/DTD/svg11.dtd"><svg width="100%" height="100%" viewBox="0 0 2500 2500" version="1.1" xmlns="http://www.w3.org/2000/svg" xmlns:xlink="http://www.w3.org/1999/xlink" xml:space="preserve" xmlns:serif="http://www.serif.com/" style="fill-rule:evenodd;clip-rule:evenodd;stroke-linejoin:round;stroke-miterlimit:2;"><rect id="Logo" x="0.085" y="0" width="2500" height="2500" style="fill:none;"/><g><circle cx="1250.09" cy="1250" r="1216.67" style="fill:white;"/><clipPath id="_clip1"><circle cx="1250.09" cy="1250" r="1216.67"/></clipPath><g clip-path="url(#_clip1)"><g><path d="M1688.4,2500.03c-8.96,-38.075 -25.982,-103.391 -37.792,-132.132c-3.171,-7.717 -6.379,-15.442 -9.534,-23.15c-53.414,-139.325 -117.859,-290.592 -204.179,-414.563c-30.628,-43.987 -65.699,-84.711 -98.877,-126.809c-32.487,-41.221 -71.844,-75.467 -71.844,-131.514c0,-118.891 64.941,-253.715 105.659,-361.324c29.685,-78.453 29.504,-77.865 70.973,-151.12c6.664,-11.773 14.111,-23.09 21.548,-34.391c38.738,-60.651 88.342,-114.127 146.02,-157.317c132.893,-92.37 235.827,-173.657 361.109,-279.862c62.537,-53.015 128.492,-103.68 180.554,-167.013c-68.134,11.302 -136.281,22.607 -204.115,35.586c-172.339,32.974 -171.042,35.338 -340.688,82.533c-105.934,29.47 -206.954,50.045 -316.865,39.115c-82.288,-8.184 -159.112,-37.327 -239.715,-51.484c-96.358,-16.923 -197.517,1.176 -286.595,40.144c-75.933,33.218 -109.697,55.167 -177.967,107.665c-108.637,83.54 -195.291,208.987 -230.659,341.424c-28.646,107.268 -29.086,223.702 -49.801,332.69c-21.099,111.01 -52.094,230.218 -88.391,336.632c-3.979,9.816 -8.146,19.766 -12.458,29.812c-60.007,139.785 -118.444,450.644 -134.085,685.078" style="fill:rgb(66,66,66);"/><path d="M1108.51,828.17c-61.187,68.208 -174.888,29.534 -186.738,-61.479c-18.278,8.442 -35.304,19.843 -50.73,32.782c-30.225,25.354 -45.247,48.114 -58.603,84.147c-8.709,23.495 4.673,50.201 28.912,56.832c14.861,4.066 30.14,7.385 45.539,7.923c64.19,2.244 128.009,-21.487 176.425,-63.128c17.275,-14.858 36.475,-35.231 45.195,-57.077" style="fill:rgb(117,117,117);"/><path d="M960.218,754.168c-4.81,23.364 2.55,47.874 19.703,64.822c10.011,9.891 22.867,16.739 36.544,19.467c4.923,0.982 14.99,1.45 14.99,1.45c35.902,-0.203 65.516,-26.295 70.907,-60.316l0.361,0.406c6.389,7.258 9.742,15.051 10.26,24.457c0.425,7.566 -1.225,15.558 -4.479,23.716c-19.633,21.89 -47.507,35.704 -78.57,35.919l-0.735,0.002c-54.979,0 -100.275,-42.421 -107.433,-97.4c0.775,-0.358 1.533,-0.741 2.313,-1.091c12.087,-5.388 23.563,-9.146 36.233,-11.88l-0.094,0.448" style="fill:white;"/><path d="M803.878,1745.84c43.796,0.666 102.683,79.468 177.821,79.692l1.112,-0.002c57.255,-0.42 87.617,-60.976 142.165,-60.942l1.166,0.01c58.015,0.937 111.068,73.596 139.476,113.745c49.101,69.397 95.274,140.98 137.957,214.499c55.502,95.601 86.45,209.737 127.6,310.933c13.624,33.506 23.504,77.533 28.705,96.26l-953.32,0c7.339,-33.189 26.406,-110.009 45.194,-223.86c24.166,-146.438 105.674,-270.366 115.415,-419.391c1.708,-26.139 -12.754,-110.825 36.062,-110.948l0.647,0.004" style="fill:white;fill-rule:nonzero;"/><path d="M1524.62,958.684c87.447,-61.436 174.897,-122.874 261.804,-185.071c43.119,-30.859 85.951,-62.13 128.261,-94.089c22.454,-16.961 44.007,-35.083 65.995,-52.643c24.409,-19.493 48.802,-39.005 73.195,-58.517c-45.313,10.314 -90.631,20.63 -135.731,31.837c-41.085,10.209 -82.116,20.698 -122.799,32.408c-177.727,51.156 -342.248,134.253 -515.938,196.425c-51.185,122.197 -159.427,206.929 -290.982,226.185c-30.459,4.458 -61.307,5.65 -91.965,8.429c-12.344,1.119 -25.434,-1.084 -37.04,3.265c-4.917,1.842 9.734,4.258 14.929,5.02c16.057,2.356 32.272,4.038 48.499,4.286c73.846,1.128 147.71,0.148 221.563,-0.16c39.911,-0.167 79.864,0.678 119.728,-1.267c106.702,-5.205 174.344,-54.661 260.481,-116.108" style="fill:white;fill-rule:nonzero;"/></g></g><path d="M1250.09,0.062c689.859,0 1249.94,560.078 1249.94,1249.94c0,689.86 -560.079,1249.94 -1249.94,1249.94c-689.86,0 -1249.94,-560.078 -1249.94,-1249.94c0,-689.86 560.078,-1249.94 1249.94,-1249.94Zm0.309,63.083c655.043,0 1186.86,531.812 1186.86,1186.86c0,655.043 -531.812,1186.86 -1186.86,1186.86c-655.043,0 -1186.86,-531.812 -1186.86,-1186.86c0,-655.043 531.812,-1186.86 1186.86,-1186.86Z" style="fill:rgb(66,66,66);"/></g></svg>