<?xml version="1.0" encoding="UTF-8" standalone="no"?><!DOCTYPE svg PUBLIC "-//W3C//DTD SVG 1.1//EN" "http://www.w3.org/Graphics/SVG/1.1/DTD/svg11.dtd"><svg width="100%" height="100%" viewBox="0 0 600 600" version="1.1" xmlns="http://www.w3.org/2000/svg" xmlns:xlink="http://www.w3.org/1999/xlink" xml:space="preserve" xmlns:serif="http://www.serif.com/" style="fill-rule:evenodd;clip-rule:evenodd;stroke-linejoin:round;stroke-miterlimit:2;"><rect id="Logo" x="0.02" y="0" width="600" height="600" style="fill:none;"/><g><circle cx="300.02" cy="300" r="292" style="fill:#fff;"/><clipPath id="_clip1"><circle cx="300.02" cy="300" r="292"/></clipPath><g clip-path="url(#_clip1)"><g><path d="M405.217,600.008c-2.15,-9.138 -6.236,-24.814 -9.07,-31.712c-0.761,-1.852 -1.531,-3.706 -2.288,-5.556c-12.819,-33.438 -28.286,-69.742 -49.003,-99.495c-7.351,-10.557 -15.768,-20.331 -23.731,-30.434c-7.796,-9.893 -17.242,-18.112 -17.242,-31.564c0,-28.533 15.586,-60.891 25.358,-86.718c7.125,-18.828 7.081,-18.687 17.034,-36.268c1.599,-2.826 3.386,-5.542 5.171,-8.254c9.297,-14.556 21.202,-27.391 35.045,-37.756c31.894,-22.169 56.598,-41.678 86.666,-67.167c15.009,-12.723 30.838,-24.883 43.333,-40.083c-16.352,2.712 -32.707,5.425 -48.988,8.54c-41.361,7.914 -41.05,8.482 -81.765,19.808c-25.424,7.073 -49.668,12.011 -76.047,9.388c-19.749,-1.964 -38.187,-8.958 -57.532,-12.356c-23.126,-4.062 -47.404,0.282 -68.783,9.634c-18.224,7.973 -26.327,13.24 -42.712,25.84c-26.073,20.05 -46.87,50.157 -55.358,81.942c-6.875,25.744 -6.981,53.688 -11.952,79.845c-5.064,26.643 -12.503,55.253 -21.214,80.792c-0.955,2.356 -1.955,4.744 -2.99,7.155c-14.402,33.548 -28.426,108.154 -32.18,164.419" style="fill:#424242;"/><path d="M266.041,198.761c-14.685,16.37 -41.973,7.088 -44.817,-14.755c-4.387,2.026 -8.473,4.762 -12.175,7.868c-7.254,6.084 -10.859,11.547 -14.065,20.195c-2.09,5.639 1.122,12.048 6.939,13.64c3.567,0.975 7.234,1.772 10.929,1.901c15.406,0.539 30.723,-5.157 42.342,-15.151c4.146,-3.566 8.754,-8.455 10.847,-13.698" style="fill:#757575;"/><path d="M230.452,181c-1.154,5.608 0.612,11.49 4.729,15.558c2.403,2.374 5.488,4.017 8.771,4.672c1.181,0.235 3.597,0.348 3.597,0.348c8.617,-0.049 15.724,-6.311 17.018,-14.476l0.086,0.097c1.534,1.742 2.339,3.613 2.463,5.87c0.102,1.816 -0.294,3.734 -1.075,5.692c-4.712,5.254 -11.402,8.569 -18.857,8.62l-0.176,0.001c-13.195,0 -24.066,-10.181 -25.784,-23.376c0.186,-0.086 0.368,-0.178 0.555,-0.262c2.901,-1.293 5.655,-2.195 8.696,-2.851l-0.023,0.107" style="fill:#fff;"/><path d="M192.931,419.001c10.511,0.16 24.644,19.072 42.677,19.126l0.267,-0.001c13.741,-0.1 21.028,-14.634 34.119,-14.626l0.28,0.003c13.924,0.225 26.656,17.663 33.474,27.299c11.785,16.655 22.866,33.835 33.11,51.479c13.321,22.945 20.748,50.337 30.624,74.624c3.27,8.042 5.641,18.608 6.889,23.103l-228.797,0c1.762,-7.966 6.338,-26.403 10.847,-53.727c5.8,-35.145 25.362,-64.887 27.7,-100.653c0.41,-6.274 -3.061,-26.599 8.655,-26.628l0.155,0.001" style="fill:#fff;fill-rule:nonzero;"/><path d="M365.908,230.084c20.987,-14.745 41.975,-29.49 62.833,-44.417c10.348,-7.406 20.628,-14.911 30.782,-22.581c5.389,-4.071 10.562,-8.42 15.839,-12.635c5.858,-4.678 11.713,-9.361 17.567,-14.044c-10.875,2.476 -21.751,4.951 -32.575,7.641c-9.861,2.45 -19.708,4.968 -29.472,7.778c-42.655,12.278 -82.14,32.221 -123.825,47.142c-12.285,29.327 -38.263,49.663 -69.836,54.285c-7.31,1.07 -14.714,1.355 -22.072,2.022c-2.962,0.269 -6.104,-0.26 -8.889,0.784c-1.18,0.442 2.336,1.022 3.583,1.205c3.854,0.565 7.745,0.969 11.64,1.028c17.723,0.271 35.45,0.036 53.175,-0.038c9.578,-0.04 19.167,0.163 28.734,-0.304c25.609,-1.249 41.843,-13.119 62.516,-27.866" style="fill:#fff;fill-rule:nonzero;"/></g></g><path d="M300.02,0.015c165.567,0 299.986,134.419 299.986,299.985c0,165.566 -134.419,299.985 -299.986,299.985c-165.566,0 -299.985,-134.419 -299.985,-299.985c0,-165.566 134.419,-299.985 299.985,-299.985Zm0.075,15.14c157.21,0 284.845,127.635 284.845,284.845c0,157.21 -127.635,284.845 -284.845,284.845c-157.211,0 -284.846,-127.635 -284.846,-284.845c0,-157.21 127.635,-284.845 284.846,-284.845Z" style="fill:#424242;"/></g></svg>