<?xml version="1.0" encoding="UTF-8" standalone="no"?><!DOCTYPE svg PUBLIC "-//W3C//DTD SVG 1.1//EN" "http://www.w3.org/Graphics/SVG/1.1/DTD/svg11.dtd"><svg width="100%" height="100%" viewBox="0 0 789 788" version="1.1" xmlns="http://www.w3.org/2000/svg" xmlns:xlink="http://www.w3.org/1999/xlink" xml:space="preserve" xmlns:serif="http://www.serif.com/" style="fill-rule:evenodd;clip-rule:evenodd;stroke-miterlimit:10;"><rect id="Sticker-Margin" serif:id="Sticker Margin" x="0.229" y="0" width="787.795" height="787.795" style="fill:none;"/><g><clipPath id="_clip1"><rect id="Logo-Safe" serif:id="Logo Safe" x="157.906" y="157.677" width="472.441" height="472.441"/></clipPath><g clip-path="url(#_clip1)"><rect id="Logo" x="157.922" y="157.677" width="472.441" height="472.441" style="fill:none;"/><g><path d="M394.142,624.279c-61.538,0 -119.392,-23.964 -162.905,-67.477c-43.513,-43.513 -67.477,-101.367 -67.477,-162.905c0,-61.537 23.964,-119.391 67.477,-162.904c43.513,-43.514 101.367,-67.477 162.905,-67.477c61.537,0 119.391,23.963 162.904,67.477c43.513,43.513 67.477,101.367 67.477,162.904c0,61.538 -23.964,119.392 -67.477,162.905c-43.513,43.513 -101.367,67.477 -162.904,67.477" style="fill:white;fill-rule:nonzero;"/><path d="M394.144,157.677c-130.462,0 -236.221,105.76 -236.221,236.221c0,43.813 11.935,84.831 32.722,120c30.856,52.202 81.221,91.504 141.067,107.865c4.181,1.142 8.408,2.173 12.678,3.089c2.455,0.527 4.929,1.001 7.412,1.451c13.739,2.491 27.884,3.815 42.342,3.815c6.058,0 12.061,-0.234 18.004,-0.684c5.705,-0.433 11.354,-1.065 16.939,-1.893c3.181,-0.472 6.336,-1.013 9.474,-1.611c12.338,-2.348 24.333,-5.665 35.911,-9.85c90.912,-32.872 155.892,-119.929 155.892,-222.182c0,-130.46 -105.76,-236.22 -236.22,-236.22l0,-0.001Zm-197.424,342.983c-17.208,-31.749 -26.986,-68.112 -26.986,-106.763c0,-123.938 100.471,-224.41 224.41,-224.41c123.937,0 224.409,100.472 224.409,224.41c0,97.331 -61.974,180.168 -148.606,211.257c-0.6,-1.459 -1.206,-2.919 -1.802,-4.375c-8.006,-20.884 -21.477,-52.329 -38.585,-78.343c-10.552,-16.046 -28.883,-34.123 -31.18,-41.201c-1.588,-4.892 -1.298,-9.695 0,-17.167c2.985,-17.197 8.051,-29.777 8.504,-30.902c12.49,-31.039 9.996,-29.437 15.589,-41.201c5.509,-11.582 12.276,-21.685 12.276,-21.685c3.466,-5.426 8.154,-11.752 14.406,-18.16c4.578,-4.692 9.095,-8.503 13.188,-11.569c17.958,-12.482 41.686,-30.029 68.241,-52.887c17.23,-14.83 34.52,-31.102 34.121,-31.562c-0.005,-0.005 -0.013,-0.007 -0.023,-0.007c-0.017,0 -0.04,0.006 -0.068,0.015c-53.656,4.443 -86.661,13.588 -107.416,21.693c-7.133,2.785 -18.247,7.507 -34.016,8.584c-2.336,0.16 -4.69,0.232 -7.038,0.232c-19.306,0 -38.385,-4.923 -46.819,-7.099c-8.442,-2.179 -7.957,-2.549 -12.755,-3.433c-5.015,-0.925 -9.758,-1.299 -14.184,-1.299c-12.166,0 -21.932,2.818 -28.335,4.732c-12.06,3.604 -39.515,13.953 -63.778,42.918c-6.43,7.676 -14.84,17.895 -21.26,34.334c-6.468,16.567 -6.844,29.023 -8.503,44.635c-0.305,2.877 -5.168,45.926 -21.436,93.619c-0.752,1.855 -1.539,3.735 -2.354,5.634Z" style="fill:rgb(66,66,66);fill-rule:nonzero;"/><path d="M367.5,314.182c-3.74,4.169 -9.061,6.788 -14.987,6.788c-10.391,0 -18.949,-8.017 -20.302,-18.406c-13.977,6.455 -23.984,21.496 -20.333,28.73c3.704,7.337 21.632,6.986 33.916,1.862c9.057,-3.78 18.814,-11.73 21.706,-18.974Z" style="fill:rgb(117,117,117);fill-rule:nonzero;"/><path d="M339.477,300.197c-0.18,0.875 -0.277,1.779 -0.277,2.706c0,7.454 6.116,13.497 13.66,13.497l0.079,0c6.785,-0.039 12.381,-4.969 13.4,-11.399l0.068,0.077c0.7,0.795 1.232,1.668 1.561,2.62c0.224,0.644 0.341,1.315 0.378,2.002c0.081,1.43 -0.231,2.94 -0.846,4.482c-3.71,4.136 -8.978,6.747 -14.848,6.788l-0.139,0c-10.39,0 -18.949,-8.017 -20.302,-18.406c0.146,-0.068 0.29,-0.14 0.437,-0.207c1.487,-0.663 3.017,-1.23 4.579,-1.678c0.741,-0.212 1.498,-0.4 2.268,-0.567l-0.018,0.085Z" style="fill:white;fill-rule:nonzero;"/><path d="M309.933,487.6c8.276,0.126 19.404,15.017 33.604,15.06l0.21,-0.001c1.612,-0.012 3.264,-0.216 4.955,-0.656c9.787,-2.545 13.073,-10.866 21.911,-10.86l0.22,0.002c0.443,0.007 0.9,0.035 1.372,0.085c5.587,0.596 9.176,3.991 15.397,9.875c7.673,7.257 10.062,12.43 23.503,33.217c9.386,14.515 9.28,13.628 12.156,18.853c4.476,8.125 7.366,15.403 12.968,29.625c5.486,13.931 6.251,17.095 11.146,29.134c-16.799,4.09 -34.333,6.304 -52.373,6.372l-0.86,0.002c-1.712,0 -3.418,-0.026 -5.122,-0.065c-0.484,-0.011 -0.967,-0.025 -1.451,-0.038c-1.383,-0.04 -2.764,-0.092 -4.142,-0.158c-0.359,-0.017 -0.721,-0.028 -1.081,-0.047c-1.557,-0.081 -3.109,-0.182 -4.657,-0.295c-0.702,-0.051 -1.401,-0.109 -2.101,-0.166c-0.894,-0.074 -1.787,-0.154 -2.679,-0.238c-3.298,-0.31 -6.574,-0.692 -9.829,-1.144c-0.175,-0.024 -0.352,-0.048 -0.527,-0.073c-29.326,-4.133 -56.827,-13.94 -81.368,-28.264c0.303,-1.837 0.653,-3.797 1.061,-5.918c6.439,-33.411 15.655,-36.016 19.451,-60.148c3.169,-20.149 -0.812,-29.647 4.863,-33.218c1.029,-0.648 2.113,-0.934 3.251,-0.937l0.122,0.001Z" style="fill:white;fill-rule:nonzero;"/><path d="M446.135,338.846c0,0 16.6,-11.843 49.474,-34.974c24.453,-17.206 42.417,-29.065 51.181,-35.827c1.634,-1.261 3.297,-2.487 4.971,-3.694c3.875,-2.797 -42.887,11.023 -69.301,20.448c-27.486,9.809 -55.188,19.711 -82.665,29.546c-2.317,5.532 -5.866,12.442 -11.338,19.019c-25.637,30.816 -68.088,23.805 -68.029,25.935c0.033,1.22 13.978,2.892 53.856,1.728c21.764,-0.636 26.761,0.573 35.432,-1.728c12.584,-3.341 20.082,-8.799 36.419,-20.453Z" style="fill:white;stroke:white;stroke-width:0.79px;"/></g></g><g id="Typography" transform="matrix(0.28354,-0.95896,0.95896,0.28354,193.924,502.309)"><g transform="matrix(0.764526,0.644592,-0.644592,0.764526,196.7,63.8957)"><path d="M31.37,301.924c-3.95,0 -7,-1.163 -9.15,-3.488c-2.15,-2.325 -3.225,-6.062 -3.225,-11.212l0,-18c0,-2.2 -0.613,-3.6 -1.838,-4.2c-1.225,-0.6 -2.662,-0.9 -4.312,-0.9l-0.225,0l0,-3.15l13.425,0l0,25.875c0,3.25 0.55,5.775 1.65,7.575c1.1,1.8 3.175,2.7 6.225,2.7c3.3,0 5.7,-1.113 7.2,-3.338c1.5,-2.225 2.25,-5.162 2.25,-8.812l0,-15.45c0,-2.35 -0.6,-3.838 -1.8,-4.463c-1.2,-0.625 -2.65,-0.937 -4.35,-0.937l-0.225,0l0,-3.15l13.425,0l0,32.025c0,2.2 0.612,3.587 1.837,4.162c1.225,0.575 2.663,0.863 4.313,0.863l0.225,0l0,3.15l-11.925,0l-0.975,-6.075l-0.375,0c-1.55,2.8 -3.35,4.637 -5.4,5.512c-2.05,0.875 -4.3,1.313 -6.75,1.313Z" style="fill:rgb(66,66,66);fill-rule:nonzero;"/></g><g transform="matrix(0.90567,0.423983,-0.423983,0.90567,147.008,9.45814)"><path d="M54.348,335.106l0,-3.15l0.6,0c1.7,0 3.15,-0.313 4.35,-0.938c1.2,-0.625 1.8,-2.112 1.8,-4.462l0,-23.4c0,-2.2 -0.587,-3.6 -1.762,-4.2c-1.175,-0.6 -2.588,-0.9 -4.238,-0.9l-0.375,0l0,-3.15l12.15,0l0.975,6.075l0.375,0c1.55,-2.8 3.288,-4.638 5.213,-5.513c1.925,-0.875 4.087,-1.312 6.487,-1.312c3.95,0 7.038,1.162 9.263,3.487c2.225,2.325 3.337,6.063 3.337,11.213l0,17.7c0,2.35 0.513,3.837 1.538,4.462c1.025,0.625 2.387,0.938 4.087,0.938l0.375,0l0,3.15l-13.05,0l0,-25.875c0,-3.25 -0.612,-5.775 -1.837,-7.575c-1.225,-1.8 -3.363,-2.7 -6.413,-2.7c-2.25,0 -4.037,0.562 -5.362,1.687c-1.325,1.125 -2.275,2.613 -2.85,4.463c-0.575,1.85 -0.863,3.85 -0.863,6l0,15.825c0,2.2 0.588,3.587 1.763,4.162c1.175,0.575 2.587,0.863 4.237,0.863l0.375,0l0,3.15l-20.175,0Z" style="fill:rgb(66,66,66);fill-rule:nonzero;"/></g><g transform="matrix(0.970125,0.242606,-0.242606,0.970125,89.1861,-13.3847)"><path d="M111.014,307.734c-1.2,0 -2.212,-0.35 -3.037,-1.05c-0.825,-0.7 -1.238,-1.9 -1.238,-3.6c0,-1.75 0.413,-2.962 1.238,-3.637c0.825,-0.675 1.837,-1.013 3.037,-1.013c1.15,0 2.15,0.338 3,1.013c0.85,0.675 1.275,1.887 1.275,3.637c0,1.7 -0.425,2.9 -1.275,3.6c-0.85,0.7 -1.85,1.05 -3,1.05Zm-10.35,47.7l0,-3.15l0.975,0c1.65,0 3.088,-0.287 4.313,-0.862c1.225,-0.575 1.837,-1.963 1.837,-4.163l0,-23.775c0,-2.2 -0.612,-3.6 -1.837,-4.2c-1.225,-0.6 -2.663,-0.9 -4.313,-0.9l-0.225,0l0,-3.15l13.425,0l0,31.65c0,2.35 0.6,3.838 1.8,4.463c1.2,0.625 2.65,0.937 4.35,0.937l0.975,0l0,3.15l-21.3,0Z" style="fill:rgb(66,66,66);fill-rule:nonzero;"/></g><g transform="matrix(0.997288,0.0736041,-0.0736041,0.997288,27.0072,-8.12421)"><path d="M124.106,362.365l0,-3.15l0.675,0c1.8,0 3.25,-0.325 4.35,-0.975c1.1,-0.65 2.375,-1.925 3.825,-3.825l9.45,-12.225l-9.45,-12.9c-1.1,-1.25 -2.162,-2.225 -3.187,-2.925c-1.025,-0.7 -2.113,-1.05 -3.263,-1.05l-0.975,0l0,-3.15l19.05,0l0,3.15l-0.225,0c-1.75,0 -2.9,0.213 -3.45,0.638c-0.55,0.425 -0.825,0.937 -0.825,1.537c0,0.55 0.15,1.063 0.45,1.538c0.3,0.475 0.725,1.112 1.275,1.912l4.95,6.75l3.9,-5.625c0.55,-0.85 1,-1.662 1.35,-2.437c0.35,-0.775 0.525,-1.488 0.525,-2.138c0,-0.9 -0.387,-1.487 -1.162,-1.762c-0.775,-0.275 -1.738,-0.413 -2.888,-0.413l-0.225,0l0,-3.15l16.425,0l0,3.15l-0.675,0c-1.45,0 -2.7,0.3 -3.75,0.9c-1.05,0.6 -2.325,1.9 -3.825,3.9l-7.725,10.275l11.025,14.85c1.1,1.45 2.138,2.475 3.113,3.075c0.975,0.6 1.937,0.9 2.887,0.9l0.975,0l0,3.15l-19.35,0l0,-3.15l0.375,0c3,0 4.5,-0.825 4.5,-2.475c0,-0.55 -0.187,-1.15 -0.562,-1.8c-0.375,-0.65 -1.138,-1.775 -2.288,-3.375l-5.025,-6.75l-5.25,7.35c-0.45,0.6 -0.9,1.338 -1.35,2.213c-0.45,0.875 -0.675,1.712 -0.675,2.512c0,0.85 0.363,1.45 1.088,1.8c0.725,0.35 1.912,0.525 3.562,0.525l0.225,0l0,3.15l-17.85,0Z" style="fill:rgb(66,66,66);fill-rule:nonzero;"/></g><g transform="matrix(0.970502,-0.241092,0.241092,0.970502,-83.3148,53.1257)"><path d="M204.847,367.039l-12.9,-42l-0.3,0c0.05,1 0.125,2.5 0.225,4.5c0.1,2 0.2,4.15 0.3,6.45c0.1,2.3 0.15,4.35 0.15,6.15l0,24.9l-10.125,0l0,-53.55l15.45,0l12.675,40.95l0.225,0l13.425,-40.95l15.45,0l0,53.55l-10.575,0l0,-25.35c0,-1.7 0.038,-3.65 0.113,-5.85c0.075,-2.2 0.15,-4.288 0.225,-6.263c0.075,-1.975 0.137,-3.462 0.187,-4.462l-0.3,0l-13.8,41.925l-10.425,0Z" style="fill:rgb(45,162,53);fill-rule:nonzero;"/></g><g transform="matrix(0.877158,-0.480202,0.480202,0.877158,-135.208,161.594)"><path d="M259.715,288.068c1.65,0 3.075,0.387 4.275,1.162c1.2,0.775 1.8,2.213 1.8,4.313c0,2.05 -0.6,3.475 -1.8,4.275c-1.2,0.8 -2.625,1.2 -4.275,1.2c-1.7,0 -3.137,-0.4 -4.312,-1.2c-1.175,-0.8 -1.763,-2.225 -1.763,-4.275c0,-2.1 0.588,-3.538 1.763,-4.313c1.175,-0.775 2.612,-1.162 4.312,-1.162Zm5.55,16.05l0,40.95l-11.175,0l0,-40.95l11.175,0Z" style="fill:rgb(45,162,53);fill-rule:nonzero;"/></g><g transform="matrix(0.764526,-0.644592,0.644592,0.764526,-151.123,253.634)"><path d="M278.341,280.111l16.65,0c7.1,0 12.488,1 16.163,3c3.675,2 5.512,5.525 5.512,10.575c0,3.05 -0.712,5.625 -2.137,7.725c-1.425,2.1 -3.463,3.375 -6.113,3.825l0,0.375c1.75,0.4 3.363,1.038 4.838,1.913c1.475,0.875 2.637,2.162 3.487,3.862c0.85,1.7 1.275,3.95 1.275,6.75c0,4.85 -1.762,8.65 -5.287,11.4c-3.525,2.75 -8.313,4.125 -14.363,4.125l-20.025,0l0,-53.55Zm11.325,21.225l6.6,0c3.3,0 5.588,-0.512 6.863,-1.537c1.275,-1.025 1.912,-2.563 1.912,-4.613c0,-2.05 -0.75,-3.525 -2.25,-4.425c-1.5,-0.9 -3.875,-1.35 -7.125,-1.35l-6,0l0,11.925Zm0,9l0,13.95l7.425,0c3.4,0 5.775,-0.662 7.125,-1.987c1.35,-1.325 2.025,-3.088 2.025,-5.288c0,-2 -0.687,-3.612 -2.062,-4.837c-1.375,-1.225 -3.863,-1.838 -7.463,-1.838l-7.05,0Z" style="fill:rgb(45,162,53);fill-rule:nonzero;"/></g></g></g></svg>