<?xml version="1.0" encoding="UTF-8" standalone="no"?><!DOCTYPE svg PUBLIC "-//W3C//DTD SVG 1.1//EN" "http://www.w3.org/Graphics/SVG/1.1/DTD/svg11.dtd"><svg width="100%" height="100%" viewBox="0 0 9225 2500" version="1.1" xmlns="http://www.w3.org/2000/svg" xmlns:xlink="http://www.w3.org/1999/xlink" xml:space="preserve" xmlns:serif="http://www.serif.com/" style="fill-rule:evenodd;clip-rule:evenodd;stroke-linejoin:round;stroke-miterlimit:2;"><rect id="Combination-Mark-Inverted" serif:id="Combination Mark Inverted" x="2.12" y="3.295" width="9220.83" height="2500" style="fill:none;"/><g><g><circle cx="1252.27" cy="1253.3" r="1216.67" style="fill:#fff;"/><clipPath id="_clip1"><circle cx="1252.27" cy="1253.3" r="1216.67"/></clipPath><g clip-path="url(#_clip1)"><clipPath id="_clip2"><rect id="Mascotte" x="2.052" y="3.295" width="2500.22" height="2500.03"/></clipPath><g clip-path="url(#_clip2)"><g><path d="M1690.59,2503.33c-8.961,-38.075 -25.983,-103.391 -37.793,-132.132c-3.171,-7.716 -6.379,-15.441 -9.533,-23.15c-53.415,-139.325 -117.86,-290.592 -204.18,-414.562c-30.628,-43.988 -65.699,-84.711 -98.877,-126.81c-32.487,-41.221 -71.843,-75.467 -71.843,-131.514c0,-118.891 64.941,-253.715 105.658,-361.324c29.686,-78.452 29.504,-77.865 70.973,-151.12c6.664,-11.772 14.112,-23.09 21.548,-34.391c38.738,-60.65 88.343,-114.127 146.021,-157.316c132.892,-92.371 235.826,-173.658 361.108,-279.863c62.537,-53.014 128.492,-103.68 180.554,-167.012c-68.133,11.302 -136.281,22.606 -204.115,35.585c-172.338,32.975 -171.042,35.338 -340.687,82.533c-105.935,29.471 -206.954,50.045 -316.866,39.115c-82.287,-8.183 -159.111,-37.326 -239.715,-51.483c-96.358,-16.924 -197.517,1.175 -286.595,40.143c-75.933,33.218 -109.697,55.167 -177.967,107.665c-108.637,83.54 -195.291,208.987 -230.659,341.424c-28.646,107.268 -29.086,223.703 -49.801,332.691c-21.099,111.01 -52.094,230.217 -88.391,336.631c-3.979,9.817 -8.146,19.767 -12.458,29.812c-60.007,139.785 -118.444,450.644 -134.085,685.078" style="fill:#424242;"/><path d="M1110.69,831.465c-61.187,68.208 -174.887,29.534 -186.737,-61.479c-18.279,8.442 -35.305,19.843 -50.73,32.782c-30.226,25.354 -45.248,48.114 -58.604,84.147c-8.709,23.496 4.674,50.201 28.912,56.833c14.861,4.066 30.14,7.384 45.539,7.923c64.19,2.244 128.01,-21.488 176.425,-63.129c17.275,-14.857 36.476,-35.23 45.195,-57.077" style="fill:#757575;"/><path d="M962.401,757.463c-4.811,23.364 2.55,47.874 19.702,64.822c10.011,9.892 22.867,16.739 36.544,19.467c4.923,0.982 14.991,1.45 14.991,1.45c35.901,-0.203 65.515,-26.295 70.906,-60.315l0.361,0.405c6.389,7.259 9.742,15.052 10.26,24.457c0.425,7.567 -1.225,15.558 -4.479,23.717c-19.633,21.89 -47.506,35.703 -78.57,35.918l-0.734,0.003c-54.98,0 -100.275,-42.421 -107.434,-97.4c0.775,-0.359 1.534,-0.742 2.313,-1.092c12.087,-5.388 23.564,-9.146 36.233,-11.879l-0.093,0.447" style="fill:#fff;"/><path d="M806.06,1749.13c43.796,0.666 102.683,79.468 177.821,79.693l1.112,-0.003c57.255,-0.42 87.617,-60.976 142.166,-60.941l1.165,0.009c58.015,0.938 111.068,73.596 139.476,113.746c49.102,69.396 95.275,140.979 137.957,214.498c55.503,95.601 86.45,209.737 127.6,310.933c13.625,33.506 23.504,77.533 28.705,96.26l-953.32,0c7.34,-33.188 26.406,-110.009 45.194,-223.86c24.166,-146.438 105.674,-270.365 115.415,-419.39c1.709,-26.14 -12.754,-110.826 36.063,-110.949l0.646,0.004" style="fill:#fff;fill-rule:nonzero;"/><path d="M1526.8,961.979c87.447,-61.436 174.897,-122.873 261.804,-185.071c43.119,-30.859 85.951,-62.13 128.261,-94.089c22.454,-16.961 44.007,-35.082 65.996,-52.642c24.408,-19.493 48.801,-39.005 73.194,-58.517c-45.313,10.314 -90.631,20.629 -135.731,31.836c-41.085,10.21 -82.116,20.698 -122.799,32.408c-177.727,51.156 -342.248,134.253 -515.938,196.425c-51.185,122.197 -159.427,206.93 -290.982,226.185c-30.459,4.459 -61.307,5.65 -91.965,8.429c-12.344,1.119 -25.433,-1.084 -37.04,3.265c-4.916,1.842 9.734,4.258 14.929,5.02c16.058,2.356 32.272,4.038 48.5,4.286c73.845,1.128 147.709,0.149 221.563,-0.16c39.911,-0.167 79.863,0.678 119.727,-1.267c106.702,-5.204 174.345,-54.661 260.481,-116.108" style="fill:#fff;fill-rule:nonzero;"/></g></g></g><path d="M1252.27,3.357c689.86,0 1249.94,560.079 1249.94,1249.94c0,689.86 -560.078,1249.94 -1249.94,1249.94c-689.86,0 -1249.94,-560.078 -1249.94,-1249.94c0,-689.859 560.078,-1249.94 1249.94,-1249.94Zm0.309,63.083c655.043,0 1186.86,531.812 1186.86,1186.86c0,655.043 -531.812,1186.86 -1186.86,1186.86c-655.043,0 -1186.86,-531.812 -1186.86,-1186.86c0,-655.043 531.812,-1186.86 1186.86,-1186.86Z" style="fill:#424242;"/></g><g><g transform="matrix(5.43541,0,0,5.63109,-3784.47,134.156)"><g transform="matrix(288.288,0,0,288.288,1226.64,306.851)"><path d="M0.273,0.01c-0.053,0 -0.093,-0.016 -0.122,-0.047c-0.029,-0.031 -0.043,-0.08 -0.043,-0.149l0,-0.24c0,-0.029 -0.008,-0.048 -0.025,-0.056c-0.016,-0.008 -0.035,-0.012 -0.057,-0.012l-0.003,0l0,-0.042l0.179,0l0,0.345c0,0.043 0.007,0.077 0.022,0.101c0.015,0.024 0.042,0.036 0.083,0.036c0.044,0 0.076,-0.015 0.096,-0.045c0.02,-0.029 0.03,-0.068 0.03,-0.117l0,-0.206c0,-0.031 -0.008,-0.051 -0.024,-0.059c-0.016,-0.009 -0.035,-0.013 -0.058,-0.013l-0.003,0l0,-0.042l0.179,0l0,0.427c0,0.029 0.008,0.048 0.024,0.056c0.017,0.007 0.036,0.011 0.058,0.011l0.003,0l0,0.042l-0.159,0l-0.013,-0.081l-0.005,0c-0.021,0.037 -0.045,0.062 -0.072,0.074c-0.027,0.011 -0.057,0.017 -0.09,0.017Z" style="fill:#fff;fill-rule:nonzero;"/></g><g transform="matrix(288.288,0,0,288.288,1409.7,306.851)"><path d="M0.028,0l0,-0.042l0.008,0c0.023,0 0.042,-0.004 0.058,-0.012c0.016,-0.009 0.024,-0.029 0.024,-0.06l0,-0.312c0,-0.029 -0.008,-0.048 -0.023,-0.056c-0.016,-0.008 -0.035,-0.012 -0.057,-0.012l-0.005,0l0,-0.042l0.162,0l0.013,0.081l0.005,0c0.021,-0.037 0.044,-0.062 0.069,-0.073c0.026,-0.012 0.055,-0.018 0.087,-0.018c0.053,0 0.094,0.016 0.123,0.047c0.03,0.031 0.045,0.08 0.045,0.149l0,0.236c0,0.031 0.007,0.051 0.02,0.06c0.014,0.008 0.032,0.012 0.055,0.012l0.005,0l0,0.042l-0.174,0l0,-0.345c0,-0.043 -0.008,-0.077 -0.025,-0.101c-0.016,-0.024 -0.044,-0.036 -0.085,-0.036c-0.03,0 -0.054,0.008 -0.072,0.023c-0.017,0.015 -0.03,0.034 -0.038,0.059c-0.007,0.025 -0.011,0.051 -0.011,0.08l0,0.211c0,0.029 0.008,0.048 0.023,0.056c0.016,0.007 0.035,0.011 0.057,0.011l0.005,0l0,0.042l-0.269,0Z" style="fill:#fff;fill-rule:nonzero;"/></g><g transform="matrix(288.288,0,0,288.288,1595.65,306.851)"><path d="M0.161,-0.636c-0.016,0 -0.029,-0.005 -0.041,-0.014c-0.01,-0.009 -0.016,-0.025 -0.016,-0.048c0,-0.023 0.006,-0.039 0.017,-0.048c0.011,-0.009 0.024,-0.014 0.04,-0.014c0.015,0 0.029,0.005 0.04,0.014c0.011,0.009 0.017,0.025 0.017,0.048c0,0.023 -0.006,0.039 -0.017,0.048c-0.011,0.009 -0.025,0.014 -0.04,0.014Zm-0.138,0.636l0,-0.042l0.013,0c0.022,0 0.041,-0.004 0.058,-0.011c0.016,-0.008 0.024,-0.027 0.024,-0.056l0,-0.317c0,-0.029 -0.008,-0.048 -0.024,-0.056c-0.017,-0.008 -0.036,-0.012 -0.058,-0.012l-0.003,0l0,-0.042l0.179,0l0,0.422c0,0.031 0.008,0.051 0.024,0.06c0.016,0.008 0.035,0.012 0.058,0.012l0.013,0l0,0.042l-0.284,0Z" style="fill:#fff;fill-rule:nonzero;"/></g><g transform="matrix(288.288,0,0,288.288,1687.9,306.851)"><path d="M0.005,0l0,-0.042l0.009,0c0.024,0 0.043,-0.004 0.058,-0.013c0.015,-0.009 0.032,-0.026 0.051,-0.051l0.126,-0.163l-0.126,-0.172c-0.015,-0.017 -0.029,-0.03 -0.042,-0.039c-0.014,-0.009 -0.029,-0.014 -0.044,-0.014l-0.013,0l0,-0.042l0.254,0l0,0.042l-0.003,0c-0.023,0 -0.039,0.003 -0.046,0.009c-0.007,0.005 -0.011,0.012 -0.011,0.02c0,0.007 0.002,0.014 0.006,0.021c0.004,0.006 0.01,0.014 0.017,0.025l0.066,0.09l0.052,-0.075c0.007,-0.011 0.013,-0.022 0.018,-0.033c0.005,-0.01 0.007,-0.019 0.007,-0.028c0,-0.012 -0.005,-0.02 -0.016,-0.024c-0.01,-0.003 -0.023,-0.005 -0.038,-0.005l-0.003,0l0,-0.042l0.219,0l0,0.042l-0.009,0c-0.019,0 -0.036,0.004 -0.05,0.012c-0.014,0.008 -0.031,0.025 -0.051,0.052l-0.103,0.137l0.147,0.198c0.015,0.019 0.028,0.033 0.041,0.041c0.013,0.008 0.026,0.012 0.039,0.012l0.013,0l0,0.042l-0.258,0l0,-0.042l0.005,0c0.04,0 0.06,-0.011 0.06,-0.033c0,-0.007 -0.003,-0.015 -0.008,-0.024c-0.005,-0.009 -0.015,-0.024 -0.03,-0.045l-0.067,-0.09l-0.07,0.098c-0.006,0.008 -0.012,0.018 -0.018,0.03c-0.006,0.011 -0.009,0.022 -0.009,0.033c0,0.011 0.005,0.019 0.014,0.024c0.01,0.005 0.026,0.007 0.048,0.007l0.003,0l0,0.042l-0.238,0Z" style="fill:#fff;fill-rule:nonzero;"/></g><g transform="matrix(288.288,0,0,288.288,1854.53,306.851)"><path d="M0.392,0l-0.172,-0.56l-0.004,0c0.001,0.013 0.002,0.033 0.003,0.06c0.001,0.027 0.003,0.055 0.004,0.086c0.001,0.031 0.002,0.058 0.002,0.082l0,0.332l-0.135,0l0,-0.714l0.206,0l0.169,0.546l0.003,0l0.179,-0.546l0.206,0l0,0.714l-0.141,0l0,-0.338c0,-0.023 0.001,-0.049 0.002,-0.078c0.001,-0.029 0.002,-0.057 0.003,-0.083c0.001,-0.027 0.001,-0.047 0.002,-0.06l-0.004,0l-0.184,0.559l-0.139,0Z" style="fill:#2da235;fill-rule:nonzero;"/></g><g transform="matrix(288.288,0,0,288.288,2126.39,306.851)"><path d="M0.153,-0.76c0.022,0 0.041,0.005 0.057,0.015c0.016,0.011 0.024,0.03 0.024,0.058c0,0.027 -0.008,0.046 -0.024,0.057c-0.016,0.011 -0.035,0.016 -0.057,0.016c-0.023,0 -0.042,-0.005 -0.057,-0.016c-0.016,-0.011 -0.024,-0.03 -0.024,-0.057c0,-0.028 0.008,-0.047 0.023,-0.058c0.016,-0.01 0.035,-0.015 0.058,-0.015Zm0.074,0.214l0,0.546l-0.149,0l0,-0.546l0.149,0Z" style="fill:#2da235;fill-rule:nonzero;"/></g><g transform="matrix(288.288,0,0,288.288,2214.32,306.851)"><path d="M0.09,-0.714l0.222,0c0.095,0 0.166,0.013 0.215,0.04c0.049,0.027 0.074,0.074 0.074,0.141c0,0.041 -0.009,0.075 -0.028,0.103c-0.019,0.028 -0.047,0.045 -0.082,0.051l0,0.005c0.023,0.005 0.045,0.014 0.065,0.025c0.019,0.012 0.035,0.029 0.046,0.052c0.011,0.023 0.017,0.053 0.017,0.09c0,0.065 -0.023,0.115 -0.071,0.152c-0.047,0.037 -0.11,0.055 -0.191,0.055l-0.267,0l0,-0.714Zm0.151,0.283l0.088,0c0.044,0 0.075,-0.007 0.091,-0.021c0.017,-0.013 0.026,-0.034 0.026,-0.061c0,-0.027 -0.01,-0.047 -0.03,-0.059c-0.02,-0.012 -0.052,-0.018 -0.095,-0.018l-0.08,0l0,0.159Zm0,0.12l0,0.186l0.099,0c0.045,0 0.077,-0.009 0.095,-0.027c0.018,-0.017 0.027,-0.041 0.027,-0.07c0,-0.027 -0.009,-0.048 -0.028,-0.065c-0.018,-0.016 -0.051,-0.024 -0.099,-0.024l-0.094,0Z" style="fill:#2da235;fill-rule:nonzero;"/></g></g></g></g></svg>