<?xml version="1.0" encoding="UTF-8"?>
<svg id="Layer_2" data-name="Layer 2" xmlns="http://www.w3.org/2000/svg" viewBox="0 0 473.56 494.77">
  <defs>
    <style>
      .cls-1, .cls-2, .cls-3 {
        fill: #fff;
      }

      .cls-4 {
        fill: #2da235;
      }

      .cls-5 {
        fill: #424242;
      }

      .cls-5, .cls-2, .cls-3 {
        fill-rule: evenodd;
      }

      .cls-6 {
        fill: none;
        stroke-width: 4px;
      }

      .cls-6, .cls-3 {
        stroke: #fff;
      }

      .cls-3 {
        stroke-miterlimit: 10;
      }
    </style>
  </defs>
  <g id="Layer_1-2" data-name="Layer 1">
    <path class="cls-1" d="M186.41,10.53L15.41,168.53l41,221,234,87,166-158-51-229L186.41,10.53Z"/>
    <g>
      <path class="cls-4" d="M81.56,393.14l-34.61-11.3L159.2,26.35l34.61,11.3L81.56,393.14Zm-31.03-13.16l29.2,9.53L190.24,39.51l-29.2-9.53L50.53,379.98Z"/>
      <path class="cls-4" d="M438.44,316.5L192.1,39.59l26.96-24.79,.95,1.07,245.39,275.84-26.96,24.79ZM196.11,39.79l242.53,272.62,22.74-20.91L218.85,18.88l-22.74,20.91Z"/>
      <path class="cls-4" d="M86.84,426.38l-7.69-36.11,358.94-79,7.69,36.11L86.84,426.38Zm-4.31-33.9l6.49,30.47,353.38-77.78-6.49-30.47L82.52,392.48Z"/>
    </g>
    <g>
      <g>
        <path class="cls-6" d="M187.48,14.68L21.8,176.24l44.62,231.29,218,69,172-158-51.16-229.04L187.48,14.68Zm235.04,230.21l3.35,15.88,10.41,49.47,.32,1.44,.24,1.19-38.93,35.74-9.36,8.6-59.87,54.98h0s-9.11,8.37-9.11,8.37l-38.91,35.73-49.91-16.4-12.48-4.1-71.95-23.65-16.02-5.27-49.92-16.41-10.98-52.12-1.47-7.01-18.05-85.69-2.58-12.26-10.98-52.13,38.91-35.73,9.89-9.07h.02s60.58-55.64,60.58-55.64l7.89-7.24,38.91-35.73,49.88,16.39,11.98,3.94,76.6,25.19,11.9,3.91,49.89,16.4,10.98,52.13,2.55,12.14,16.21,76.97Z"/>
        <path class="cls-6" d="M330.98,83.35l-45.15,9.75-37.73,8.15-80.14,17.29-36.41,7.86-46.42,10.03h-.02S15.41,176.53,15.41,176.53l34.46,69.11,33.07,37.34,23.51,26.55,55.25,62.38,27.09,30.59,29.48,33.28,62.15,35.74,48.26-59.32h0s14.17-44.63,14.17-44.63l12.08-38,25.77-81.07,11.76-37,13.85-43.57,2.11-75.4-77.43-9.18Zm35.64,99.47l-11.76,36.99-37.5,118-12.17,38.3-25.11,78.99-54.05-61.04-26.89-30.35-80.78-91.21-23.83-26.91-56.97-64.32,82.48-17.81,35.94-7.76,118.15-25.52,37.73-8.15,79.53-17.17-24.78,77.97Z"/>
      </g>
      <g>
        <path class="cls-4" d="M187.48,14.68L21.8,176.24l44.62,231.29,218,69,172-158-51.16-229.04L187.48,14.68Zm235.04,230.21l3.35,15.88,10.41,49.47,.32,1.44,.24,1.19-38.93,35.74-9.36,8.6-59.87,54.98h0s-9.11,8.37-9.11,8.37l-38.91,35.73-49.91-16.4-12.48-4.1-71.95-23.65-16.02-5.27-49.92-16.41-10.98-52.12-1.47-7.01-18.05-85.69-2.58-12.26-10.98-52.13,38.91-35.73,9.89-9.07h.02s60.58-55.64,60.58-55.64l7.89-7.24,38.91-35.73,49.88,16.39,11.98,3.94,76.6,25.19,11.9,3.91,49.89,16.4,10.98,52.13,2.55,12.14,16.21,76.97Z"/>
        <path class="cls-4" d="M330.98,83.35l-45.15,9.75-37.73,8.15-80.14,17.29-36.41,7.86-46.42,10.03h-.02S15.41,176.53,15.41,176.53l34.46,69.11,33.07,37.34,23.51,26.55,55.25,62.38,27.09,30.59,29.48,33.28,62.15,35.74,48.26-59.32h0s14.17-44.63,14.17-44.63l12.08-38,25.77-81.07,11.76-37,13.85-43.57,2.11-75.4-77.43-9.18Zm35.64,99.47l-11.76,36.99-37.5,118-12.17,38.3-25.11,78.99-54.05-61.04-26.89-30.35-80.78-91.21-23.83-26.91-56.97-64.32,82.48-17.81,35.94-7.76,118.15-25.52,37.73-8.15,79.53-17.17-24.78,77.97Z"/>
      </g>
    </g>
    <g id="Layer_2-2" data-name="Layer 2">
      <g>
        <path class="cls-4" d="M408.11,73.42l-11.67-3.83h-.01S209.17,8.05,209.17,8.05l-11.12-3.65-13.36-4.4-10.43,9.58-8.54,7.85L20.47,150.76l-10.06,9.23L0,169.56l2.95,13.99,2.55,12.07v.02s42.37,201.23,42.37,201.23l1.29,6.11,1.02,4.81v.02s1.92,9.15,1.92,9.15l8.77,2.89,4.61,1.51,17.07,5.61,180.28,59.23h.01s12.58,4.14,12.58,4.14l.09,.03,11.79,3.89,1.6,.52,10.43-9.58,9.12-8.37,146.18-134.23,8.5-7.8,10.44-9.59-2.94-13.96-3.54-16.77-40.12-190.56-2.56-12.13-2.94-13.98-13.35-4.39Zm14.61,171.8l3.35,15.88,10.41,49.47,.32,1.44,.24,1.19-38.93,35.74-9.36,8.6-59.87,54.98h0s-9.11,8.37-9.11,8.37l-38.91,35.73-49.91-16.4-12.48-4.1-71.95-23.65-16.02-5.27-49.92-16.41-10.98-52.12-1.47-7.01-18.05-85.69-2.58-12.26-10.98-52.13,38.91-35.73,9.89-9.07h.02s60.58-55.64,60.58-55.64l7.89-7.24,38.91-35.73,49.88,16.39,11.98,3.94,76.6,25.19,11.9,3.91,49.89,16.4,10.98,52.13,2.55,12.14,16.21,76.97Z"/>
        <path class="cls-4" d="M408.11,73.42l-11.67-3.83h-.01s-65.24,14.09-65.24,14.09l-45.15,9.75-37.73,8.15-80.14,17.29-36.41,7.86-46.42,10.03h-.02s-64.85,14-64.85,14l-10.06,9.23L0,169.56l2.95,13.99,2.55,12.07v.02s44.58,50.33,44.58,50.33l33.07,37.34,23.51,26.55,55.25,62.38,27.09,30.59,29.48,33.28,44.36,50.08h.01s12.58,4.14,12.58,4.14l.09,.03,11.79,3.89,1.6,.52,10.43-9.58,9.12-8.37,20.44-64.3h0s14.17-44.63,14.17-44.63l12.08-38,25.77-81.07,11.76-37,13.85-43.57,20.45-64.34-2.56-12.13-2.94-13.98-13.35-4.39Zm-41.28,109.73l-11.76,36.99-37.5,118-12.17,38.3-25.11,78.99-54.05-61.04-26.89-30.35-80.78-91.21-23.83-26.91-56.97-64.32,82.48-17.81,35.94-7.76,118.15-25.52,37.73-8.15,79.53-17.17-24.78,77.97Z"/>
      </g>
    </g>
    <g>
      <g>
        <path class="cls-6" d="M336.23,163.5c-5.54,6.85-12.56,12.32-19.22,18.06-13.33,11.48-24.27,20.28-38.42,30.26-6.14,4.67-11.41,10.46-15.53,17.01-.79,1.22-1.58,2.45-2.29,3.72-4.41,7.92-4.39,7.87-7.55,16.35-4.34,11.64-11.24,26.22-11.24,39.08,0,6.06,4.19,9.76,7.64,14.22,3.53,4.55,7.23,8.98,10.52,13.71h0c5.65,7.18,26.91,44.55,33.69,89.55,0,0-12.22,44.84-13.75,49.62l-167.09-56.14s-3.32-44.61,9.94-81.2c.4-1.11,7.82-18.86,8.25-19.92,3.86-11.51,6.36-21.99,8.61-34,2.2-11.8,2.24-24.38,5.29-35.98,3.76-14.33,12.98-27.89,24.54-36.93,7.26-5.68,10.85-8.06,18.93-11.65,9.48-4.21,20.24-6.17,30.49-4.34,8.58,1.53,16.75,4.69,25.51,5.58,11.69,1.17,22.44-1.05,33.71-4.24,18.05-5.1,17.91-5.35,36.25-8.93,7.22-1.41,14.46-2.63,21.72-3.84Z"/>
        <g>
          <ellipse class="cls-6" cx="220.07" cy="195.1" rx="3.21" ry="2.3" transform="translate(-64.53 120.94) rotate(-26.95)"/>
          <path class="cls-6" d="M318,174.97c-2.34,1.9-4.63,3.86-7.02,5.69-4.5,3.46-9.06,6.84-13.65,10.18-9.25,6.73-18.55,13.37-27.85,20.02-9.16,6.65-16.36,11.99-27.71,12.56-4.24,.21-8.49,.12-12.74,.14-7.86,.03-15.71,.14-23.57,.02-1.73-.03-3.45-.21-5.16-.46-.55-.08-2.11-.34-1.59-.54,1.23-.47,2.63-.23,3.94-.35,3.26-.3,6.54-.43,9.78-.91,14-2.08,25.51-11.25,30.96-24.46,18.48-6.72,35.98-15.71,54.89-21.24,4.33-1.27,8.69-2.4,13.06-3.51,4.8-1.21,9.62-2.33,14.44-3.44-2.59,2.11-5.19,4.22-7.79,6.33Z"/>
          <path class="cls-6" d="M193.55,203.08c1.42-3.9,3.02-6.36,6.23-9.1,1.64-1.4,4.01-3.31,7.73-4.22-6.54,12.39,11.03,14.7,17.54,7.32-.93,2.36-2.97,4.57-4.81,6.17-5.15,4.5-11.94,7.07-18.77,6.83-1.64-.06-3.26-.42-4.84-.86-2.58-.72-4-3.61-3.08-6.15Z"/>
          <path class="cls-6" d="M280.09,455.1l-125.5-42.31c-2.84-46.22,30.15-93.77,30.93-105.81,.19-2.82,.66-13.56,5.86-13.57h.07c1.71,.02,3.65,1.2,5.8,2.66,3.71,2.53,8.08,5.94,13.13,5.96h.12c6.09-.05,9.32-6.6,15.12-6.6h.12c6.17,.11,13.24,7.75,16.58,11.84,5.64,6.96,8.24,12.61,12.78,20.57,5.9,10.34,11.37,22.79,14.58,34.16,3.16,11.28,12.44,34.59,14.79,77.7l-4.38,15.39Z"/>
        </g>
      </g>
      <g>
        <path class="cls-5" d="M336.23,163.5c-5.54,6.85-12.56,12.32-19.22,18.06-13.33,11.48-24.27,20.28-38.42,30.26-6.14,4.67-11.41,10.46-15.53,17.01-.79,1.22-1.58,2.45-2.29,3.72-4.41,7.92-4.39,7.87-7.55,16.35-4.34,11.64-11.24,26.22-11.24,39.08,0,6.06,4.19,9.76,7.64,14.22,3.53,4.55,7.23,8.98,10.52,13.71h0c5.65,7.18,26.91,44.55,33.69,89.55,0,0-12.22,44.84-13.75,49.62l-167.09-56.14s-3.32-44.61,9.94-81.2c.4-1.11,7.82-18.86,8.25-19.92,3.86-11.51,6.36-21.99,8.61-34,2.2-11.8,2.24-24.38,5.29-35.98,3.76-14.33,12.98-27.89,24.54-36.93,7.26-5.68,10.85-8.06,18.93-11.65,9.48-4.21,20.24-6.17,30.49-4.34,8.58,1.53,16.75,4.69,25.51,5.58,11.69,1.17,22.44-1.05,33.71-4.24,18.05-5.1,17.91-5.35,36.25-8.93,7.22-1.41,14.46-2.63,21.72-3.84Z"/>
        <g>
          <ellipse class="cls-1" cx="220.07" cy="195.1" rx="3.21" ry="2.3" transform="translate(-64.53 120.94) rotate(-26.95)"/>
          <path class="cls-2" d="M318,174.97c-2.34,1.9-4.63,3.86-7.02,5.69-4.5,3.46-9.06,6.84-13.65,10.18-9.25,6.73-18.55,13.37-27.85,20.02-9.16,6.65-16.36,11.99-27.71,12.56-4.24,.21-8.49,.12-12.74,.14-7.86,.03-15.71,.14-23.57,.02-1.73-.03-3.45-.21-5.16-.46-.55-.08-2.11-.34-1.59-.54,1.23-.47,2.63-.23,3.94-.35,3.26-.3,6.54-.43,9.78-.91,14-2.08,25.51-11.25,30.96-24.46,18.48-6.72,35.98-15.71,54.89-21.24,4.33-1.27,8.69-2.4,13.06-3.51,4.8-1.21,9.62-2.33,14.44-3.44-2.59,2.11-5.19,4.22-7.79,6.33Z"/>
          <path class="cls-2" d="M193.55,203.08c1.42-3.9,3.02-6.36,6.23-9.1,1.64-1.4,4.01-3.31,7.73-4.22-6.54,12.39,11.03,14.7,17.54,7.32-.93,2.36-2.97,4.57-4.81,6.17-5.15,4.5-11.94,7.07-18.77,6.83-1.64-.06-3.26-.42-4.84-.86-2.58-.72-4-3.61-3.08-6.15Z"/>
          <path class="cls-3" d="M280.09,455.1l-125.5-42.31c-2.84-46.22,30.15-93.77,30.93-105.81,.19-2.82,.66-13.56,5.86-13.57h.07c1.71,.02,3.65,1.2,5.8,2.66,3.71,2.53,8.08,5.94,13.13,5.96h.12c6.09-.05,9.32-6.6,15.12-6.6h.12c6.17,.11,13.24,7.75,16.58,11.84,5.64,6.96,8.24,12.61,12.78,20.57,5.9,10.34,11.37,22.79,14.58,34.16,3.16,11.28,12.44,34.59,14.79,77.7l-4.38,15.39Z"/>
        </g>
      </g>
    </g>
  </g>
</svg>