<?xml version="1.0" encoding="UTF-8"?>
<svg id="Layer_2" data-name="Layer 2" xmlns="http://www.w3.org/2000/svg" viewBox="0 0 500.26 513.93">
  <defs>
    <style>
      .cls-1, .cls-2, .cls-3 {
        fill: #fff;
      }

      .cls-4 {
        fill: #2da235;
      }

      .cls-5, .cls-2, .cls-3 {
        fill-rule: evenodd;
      }

      .cls-5, .cls-6 {
        fill: #424242;
      }

      .cls-7 {
        fill: none;
        stroke-width: 4px;
      }

      .cls-7, .cls-3 {
        stroke: #fff;
      }

      .cls-3 {
        stroke-miterlimit: 10;
      }
    </style>
  </defs>
  <g id="Layer_1-2" data-name="Layer 1">
    <path class="cls-1" d="M431.16,76.33l-12.32-3.98h-.01S221.11,8.44,221.11,8.44l-11.75-3.79L195.26,.09l-11.02,9.95-9.02,8.15L21.88,156.66l-10.62,9.59L.26,176.18l3.11,14.53,2.69,12.53v.02s44.74,208.99,44.74,208.99l1.36,6.34,1.08,5v.02s2.03,9.5,2.03,9.5l9.26,3,4.86,1.57,18.02,5.82,190.35,61.51h.01s13.28,4.3,13.28,4.3l.09,.03,12.45,4.04,1.68,.54,11.02-9.95,9.63-8.69,154.34-139.4,8.98-8.1,11.02-9.96-3.11-14.5-3.73-17.41-42.36-197.91-2.7-12.59-3.1-14.52-14.09-4.56Z"/>
    <g>
      <path class="cls-4" d="M86.33,408.63l-36.54-11.73L168.31,27.7l36.54,11.73L86.33,408.63Zm-32.77-13.67l30.83,9.9L201.08,41.37l-30.83-9.9L53.56,394.96Z"/>
      <path class="cls-4" d="M463.14,329.03L203.04,41.45l28.46-25.74,1.01,1.11L491.6,303.29l-28.46,25.74ZM207.28,41.66L463.35,324.79l24.01-21.72L231.29,19.94l-24.01,21.72Z"/>
      <path class="cls-4" d="M91.9,443.16l-8.12-37.51,378.98-82.05,8.12,37.51L91.9,443.16Zm-4.55-35.21l6.85,31.64,373.11-80.78-6.85-31.64L87.35,407.95Z"/>
    </g>
    <g>
      <g>
        <path class="cls-7" d="M430.9,76.25l-12.32-3.98h-.01S220.85,8.36,220.85,8.36l-11.75-3.79-14.11-4.57-11.02,9.95-9.02,8.15L21.62,156.57l-10.62,9.59L0,176.09l3.11,14.53,2.69,12.53v.02s44.74,208.99,44.74,208.99l1.36,6.34,1.08,5v.02s2.03,9.5,2.03,9.5l9.26,3,4.86,1.57,18.02,5.82,190.35,61.51h.01s13.28,4.3,13.28,4.3l.09,.03,12.45,4.04,1.68,.54,11.02-9.95,9.63-8.69,154.34-139.4,8.98-8.1,11.02-9.96-3.11-14.5-3.73-17.41-42.36-197.91-2.7-12.59-3.1-14.52-14.09-4.56Zm15.43,178.42l3.53,16.49,10.99,51.37,.33,1.5,.26,1.24-41.11,37.12-9.88,8.93-63.21,57.1h0s-9.62,8.69-9.62,8.69l-41.09,37.11-52.69-17.04-13.17-4.26-75.97-24.56-16.91-5.47-52.71-17.04-11.6-54.13-1.55-7.28-19.06-89-2.73-12.74-11.59-54.14,41.09-37.11,10.45-9.42h.02s63.96-57.78,63.96-57.78l8.33-7.52,41.09-37.11,52.67,17.03,12.65,4.09,80.88,26.16,12.56,4.06,52.68,17.03,11.59,54.14,2.7,12.61,17.12,79.93Z"/>
        <path class="cls-7" d="M430.9,76.25l-12.32-3.98h-.01s-68.89,14.63-68.89,14.63l-47.67,10.13-39.84,8.46-84.61,17.96-38.44,8.17-49.01,10.41h-.02s-68.47,14.54-68.47,14.54l-10.62,9.59L0,176.09l3.11,14.53,2.69,12.53v.02s47.07,52.27,47.07,52.27l34.91,38.78,24.82,27.57,58.33,64.78,28.6,31.77,31.13,34.57,46.83,52.02h.01s13.28,4.3,13.28,4.3l.09,.03,12.45,4.04,1.68,.54,11.02-9.95,9.63-8.69,21.58-66.78h0s14.96-46.35,14.96-46.35l12.76-39.47,27.21-84.2,12.42-38.43,14.62-45.25,21.59-66.82-2.7-12.59-3.1-14.52-14.09-4.56Zm-43.59,113.96l-12.41,38.41-39.6,122.54-12.85,39.78-26.51,82.03-57.07-63.39-28.39-31.52-85.29-94.73-25.16-27.95-60.15-66.8,87.08-18.49,37.95-8.06,124.75-26.5,39.84-8.46,83.97-17.83-26.16,80.98Z"/>
      </g>
      <g>
        <path class="cls-4" d="M430.9,76.25l-12.32-3.98h-.01S220.85,8.36,220.85,8.36l-11.75-3.79-14.11-4.57-11.02,9.95-9.02,8.15L21.62,156.57l-10.62,9.59L0,176.09l3.11,14.53,2.69,12.53v.02s44.74,208.99,44.74,208.99l1.36,6.34,1.08,5v.02s2.03,9.5,2.03,9.5l9.26,3,4.86,1.57,18.02,5.82,190.35,61.51h.01s13.28,4.3,13.28,4.3l.09,.03,12.45,4.04,1.68,.54,11.02-9.95,9.63-8.69,154.34-139.4,8.98-8.1,11.02-9.96-3.11-14.5-3.73-17.41-42.36-197.91-2.7-12.59-3.1-14.52-14.09-4.56Zm15.43,178.42l3.53,16.49,10.99,51.37,.33,1.5,.26,1.24-41.11,37.12-9.88,8.93-63.21,57.1h0s-9.62,8.69-9.62,8.69l-41.09,37.11-52.69-17.04-13.17-4.26-75.97-24.56-16.91-5.47-52.71-17.04-11.6-54.13-1.55-7.28-19.06-89-2.73-12.74-11.59-54.14,41.09-37.11,10.45-9.42h.02s63.96-57.78,63.96-57.78l8.33-7.52,41.09-37.11,52.67,17.03,12.65,4.09,80.88,26.16,12.56,4.06,52.68,17.03,11.59,54.14,2.7,12.61,17.12,79.93Z"/>
        <path class="cls-4" d="M430.9,76.25l-12.32-3.98h-.01s-68.89,14.63-68.89,14.63l-47.67,10.13-39.84,8.46-84.61,17.96-38.44,8.17-49.01,10.41h-.02s-68.47,14.54-68.47,14.54l-10.62,9.59L0,176.09l3.11,14.53,2.69,12.53v.02s47.07,52.27,47.07,52.27l34.91,38.78,24.82,27.57,58.33,64.78,28.6,31.77,31.13,34.57,46.83,52.02h.01s13.28,4.3,13.28,4.3l.09,.03,12.45,4.04,1.68,.54,11.02-9.95,9.63-8.69,21.58-66.78h0s14.96-46.35,14.96-46.35l12.76-39.47,27.21-84.2,12.42-38.43,14.62-45.25,21.59-66.82-2.7-12.59-3.1-14.52-14.09-4.56Zm-43.59,113.96l-12.41,38.41-39.6,122.54-12.85,39.78-26.51,82.03-57.07-63.39-28.39-31.52-85.29-94.73-25.16-27.95-60.15-66.8,87.08-18.49,37.95-8.06,124.75-26.5,39.84-8.46,83.97-17.83-26.16,80.98Z"/>
      </g>
    </g>
    <g id="Layer_2-2" data-name="Layer 2">
      <polygon class="cls-1" points="165.53 161.89 413.48 109.23 295.95 472.97 126.2 284.43 165.53 161.89"/>
    </g>
    <g>
      <g>
        <path class="cls-7" d="M278.08,467.02l-190.55-62.35s-3.51-46.33,10.49-84.33c.42-1.15,8.26-19.59,8.71-20.69,4.08-11.95,6.72-22.84,9.09-35.31,2.32-12.25,2.37-25.32,5.59-37.37,3.97-14.88,13.71-28.97,25.91-38.35,7.67-5.9,11.46-8.37,19.99-12.1,10.01-4.37,21.37-6.41,32.19-4.51,9.06,1.59,17.69,4.87,26.93,5.79,12.34,1.22,23.69-1.09,35.59-4.4,19.06-5.3,18.91-5.56,38.27-9.27,7.62-1.46,15.27-2.73,22.93-3.99-5.85,7.11-13.26,12.8-20.29,18.76-14.07,11.92-25.63,21.06-40.56,31.43-6.48,4.85-12.05,10.86-16.4,17.67-.83,1.27-1.67,2.54-2.42,3.86-4.66,8.23-4.64,8.17-7.97,16.98-4.58,12.09-11.87,27.23-11.87,40.59,0,6.29,4.42,10.14,8.07,14.77,3.73,4.73,7.67,9.3,11.11,14.24,9.69,13.93,16.93,30.92,22.93,46.57,.36,.86,4.02,10.65,5.88,19.19,3.61,16.56,7.99,77.85,6.38,82.82h0Z"/>
        <g>
          <ellipse class="cls-7" cx="200.57" cy="192.95" rx="3.38" ry="2.39" transform="translate(-63.99 106.54) rotate(-25.8)"/>
          <path class="cls-7" d="M303.97,172.04c-2.47,1.97-4.89,4.01-7.41,5.91-4.75,3.59-9.56,7.1-14.41,10.57-9.76,6.99-19.58,13.89-29.41,20.79-9.68,6.9-17.27,12.46-29.26,13.04-4.48,.22-8.97,.12-13.45,.14-8.3,.03-16.59,.14-24.89,.02-1.82-.03-3.64-.22-5.45-.48-.58-.09-2.23-.36-1.68-.56,1.3-.49,2.77-.24,4.16-.37,3.44-.31,6.91-.45,10.33-.95,14.78-2.16,26.94-11.68,32.68-25.41,19.51-6.98,37.99-16.32,57.95-22.06,4.57-1.32,9.18-2.49,13.79-3.64,5.07-1.26,10.16-2.42,15.25-3.58-2.74,2.19-5.48,4.38-8.22,6.57Z"/>
          <path class="cls-7" d="M172.58,201.24c1.5-4.05,3.19-6.6,6.58-9.45,1.73-1.45,4.23-3.44,8.16-4.38-6.91,12.87,11.64,15.27,18.51,7.6-.98,2.45-3.14,4.74-5.08,6.41-5.44,4.68-12.61,7.34-19.82,7.09-1.73-.06-3.45-.43-5.12-.89-2.72-.75-4.23-3.74-3.25-6.38Z"/>
          <path class="cls-7" d="M265.35,462.85l-133.91-43.81c-3-48,31.84-97.39,32.66-109.89,.2-2.93,.7-14.08,6.19-14.09h.07c1.81,.02,3.85,1.25,6.12,2.76,3.92,2.63,8.53,6.17,13.86,6.19h.13c6.43-.05,9.84-6.85,15.96-6.85h.13c6.51,.11,13.98,8.05,17.51,12.3,5.95,7.23,8.7,13.1,13.49,21.36,6.23,10.74,12,23.67,15.39,35.48,3.34,11.71,8.16,24.79,10.64,69.57l1.76,26.98Z"/>
        </g>
      </g>
      <g>
        <path class="cls-5" d="M278.08,467.02l-190.55-62.35s-3.51-46.33,10.49-84.33c.42-1.15,8.26-19.59,8.71-20.69,4.08-11.95,6.72-22.84,9.09-35.31,2.32-12.25,2.37-25.32,5.59-37.37,3.97-14.88,13.71-28.97,25.91-38.35,7.67-5.9,11.46-8.37,19.99-12.1,10.01-4.37,21.37-6.41,32.19-4.51,9.06,1.59,17.69,4.87,26.93,5.79,12.34,1.22,23.69-1.09,35.59-4.4,19.06-5.3,18.91-5.56,38.27-9.27,7.62-1.46,15.27-2.73,22.93-3.99-5.85,7.11-13.26,12.8-20.29,18.76-14.07,11.92-25.63,21.06-40.56,31.43-6.48,4.85-12.05,10.86-16.4,17.67-.83,1.27-1.67,2.54-2.42,3.86-4.66,8.23-4.64,8.17-7.97,16.98-4.58,12.09-11.87,27.23-11.87,40.59,0,6.29,4.42,10.14,8.07,14.77,3.73,4.73,7.67,9.3,11.11,14.24,9.69,13.93,16.93,30.92,22.93,46.57,.36,.86,4.02,10.65,5.88,19.19,3.61,16.56,7.99,77.85,6.38,82.82h0Z"/>
        <g>
          <ellipse class="cls-1" cx="200.57" cy="192.95" rx="3.38" ry="2.39" transform="translate(-63.99 106.54) rotate(-25.8)"/>
          <path class="cls-2" d="M303.97,172.04c-2.47,1.97-4.89,4.01-7.41,5.91-4.75,3.59-9.56,7.1-14.41,10.57-9.76,6.99-19.58,13.89-29.41,20.79-9.68,6.9-17.27,12.46-29.26,13.04-4.48,.22-8.97,.12-13.45,.14-8.3,.03-16.59,.14-24.89,.02-1.82-.03-3.64-.22-5.45-.48-.58-.09-2.23-.36-1.68-.56,1.3-.49,2.77-.24,4.16-.37,3.44-.31,6.91-.45,10.33-.95,14.78-2.16,26.94-11.68,32.68-25.41,19.51-6.98,37.99-16.32,57.95-22.06,4.57-1.32,9.18-2.49,13.79-3.64,5.07-1.26,10.16-2.42,15.25-3.58-2.74,2.19-5.48,4.38-8.22,6.57Z"/>
          <path class="cls-2" d="M172.58,201.24c1.5-4.05,3.19-6.6,6.58-9.45,1.73-1.45,4.23-3.44,8.16-4.38-6.91,12.87,11.64,15.27,18.51,7.6-.98,2.45-3.14,4.74-5.08,6.41-5.44,4.68-12.61,7.34-19.82,7.09-1.73-.06-3.45-.43-5.12-.89-2.72-.75-4.23-3.74-3.25-6.38Z"/>
          <path class="cls-3" d="M265.35,462.85l-133.91-43.81c-3-48,31.84-97.39,32.66-109.89,.2-2.93,.7-14.08,6.19-14.09h.07c1.81,.02,3.85,1.25,6.12,2.76,3.92,2.63,8.53,6.17,13.86,6.19h.13c6.43-.05,9.84-6.85,15.96-6.85h.13c6.51,.11,13.98,8.05,17.51,12.3,5.95,7.23,8.7,13.1,13.49,21.36,6.23,10.74,12,23.67,15.39,35.48,3.34,11.71,8.16,24.79,10.64,69.57l1.76,26.98Z"/>
        </g>
      </g>
    </g>
    <g id="Text">
      <g>
        <g>
          <path class="cls-7" d="M319.29,373.18c-1.02,3.18-2.87,5.24-5.5,6.32-2.64,1.07-6.19,.86-10.82-.62l-16.09-5.17c-1.94-.62-3.37-.55-4.24,.3-.84,.79-1.48,1.84-1.9,3.17l-.06,.18-2.82-.9,3.45-10.75,23.13,7.43c2.88,.93,5.3,1.24,7.2,.85,1.9-.38,3.22-1.75,4.01-4.21,.85-2.64,.46-4.89-1.17-6.73-1.56-1.83-3.98-3.27-7.27-4.32l-13.81-4.43c-2.08-.67-3.57-.62-4.42,.17-.91,.77-1.55,1.82-1.99,3.2l-.06,.18-2.82-.9,3.45-10.75,28.63,9.19c1.94,.62,3.37,.55,4.22-.24,.8-.87,1.43-1.93,1.86-3.25l.06-.18,2.82,.9-3.07,9.55-5.68-.96-.1,.3c2.08,2.06,3.29,4.04,3.57,5.92,.22,1.86,.04,3.79-.6,5.77h0Z"/>
          <path class="cls-7" d="M326.14,349.54l-2.82-.9,.15-.48c.44-1.38,.54-2.61,.31-3.74-.29-1.15-1.48-2.07-3.56-2.73l-20.92-6.71c-1.94-.62-3.37-.55-4.2,.18-.84,.79-1.48,1.84-1.9,3.17l-.1,.3-2.82-.9,3.12-9.73,5.68,.96,.1-.3c-2.08-2.06-3.31-3.98-3.56-5.72-.3-1.82-.15-3.69,.47-5.61,1.02-3.18,2.89-5.3,5.52-6.38,2.66-1.13,6.23-.98,10.86,.5l15.82,5.08c2.08,.67,3.55,.68,4.41,.09,.81-.67,1.42-1.66,1.87-3.05l.1-.3,2.82,.9-3.36,10.45-23.13-7.43c-2.88-.93-5.32-1.18-7.25-.67-1.92,.44-3.26,1.87-4.05,4.33-.58,1.8-.5,3.42,.15,4.82,.68,1.34,1.7,2.53,3.22,3.55,1.54,.96,3.21,1.76,5.15,2.38l14.15,4.54c1.94,.62,3.37,.55,4.2-.18,.78-.81,1.41-1.87,1.84-3.19l.1-.3,2.82,.9-5.19,16.16h0Z"/>
          <path class="cls-7" d="M298.5,289.12c-.31,.96-.89,1.63-1.73,2.16-.8,.41-1.98,.42-3.53-.07s-2.5-1.2-2.89-2.05c-.39-.85-.48-1.74-.17-2.7,.29-.9,.89-1.63,1.71-2.1,.82-.47,2-.48,3.55,.01s2.5,1.2,2.89,2.05,.46,1.8,.17,2.7Zm39.98,21.98l-2.82-.9,.25-.78c.42-1.32,.52-2.55,.38-3.72-.23-1.13-1.35-2.02-3.29-2.65l-21.25-6.82c-1.94-.62-3.37-.55-4.22,.24-.86,.85-1.5,1.9-1.92,3.23l-.06,.18-2.82-.9,3.45-10.75,28.29,9.08c2.08,.67,3.57,.62,4.49-.15,.84-.79,1.48-1.84,1.92-3.23l.25-.78,2.82,.9-5.48,17.06h0Z"/>
          <path class="cls-7" d="M344.3,292.96l-2.82-.9,.17-.54c.46-1.44,.56-2.67,.25-3.76-.31-1.09-1.13-2.48-2.44-4.16l-8.5-11.08-13.96,3.87c-1.43,.54-2.57,1.1-3.42,1.68-.87,.65-1.5,1.44-1.79,2.34l-.25,.78-2.82-.9,4.9-15.26,2.82,.9-.06,.18c-.44,1.38-.55,2.41-.28,2.96,.2,.53,.59,.92,1.13,1.09,.47,.15,.98,.18,1.52,.09,.48-.11,1.13-.3,2-.48l7.31-2.03-4.03-4.74c-.6-.66-1.22-1.25-1.87-1.79-.57-.52-1.14-.83-1.74-1.02-.8-.26-1.44-.13-1.92,.44-.39,.54-.78,1.27-1.07,2.17l-.06,.18-2.82-.9,4.22-13.15,2.82,.9-.17,.54c-.37,1.14-.43,2.25-.16,3.26s1.08,2.4,2.5,4.18l7.2,9.14,16.11-4.57c1.56-.49,2.75-.97,3.54-1.58s1.31-1.3,1.56-2.08l.25-.78,2.82,.9-4.97,15.5-2.82-.9,.1-.3c.77-2.4,.42-3.84-1.06-4.31-.47-.15-1.06-.14-1.76-.04-.7,.11-1.9,.38-3.6,.83l-7.33,2.09,5.22,6.31c.42,.53,.98,1.11,1.66,1.73,.62,.6,1.3,1.01,2.04,1.25s1.37,.11,1.88-.32c.53-.49,.97-1.41,1.39-2.73l.06-.18,2.82,.9-4.59,14.3h0Z"/>
          <path class="cls-7" d="M362.91,234.99l-40.86-1.72-.08,.24c.89,.22,2.25,.59,4.08,1.11s3.75,1,5.84,1.61c2.1,.61,3.93,1.13,5.54,1.64l22.26,7.15-2.6,8.11-47.87-15.37,3.97-12.37,39.86,1.6,.06-.18-33.15-22.5,3.97-12.37,47.87,15.37-2.72,8.47-22.66-7.27c-1.54-.5-3.27-1.11-5.19-1.8-1.92-.68-3.78-1.35-5.51-1.97-1.79-.64-3.13-1.07-3.98-1.41l-.08,.24,33.93,23.08-2.68,8.35h0Z"/>
          <path class="cls-7" d="M325.53,176.35c.42-1.32,1.13-2.36,2.1-3.1,1.05-.72,2.47-.8,4.35-.19s2.93,1.47,3.36,2.67,.4,2.45-.03,3.77-1.15,2.42-2.17,3.08c-1.05,.72-2.47,.8-4.28,.21s-3-1.49-3.44-2.63c-.36-1.18-.33-2.43,.11-3.81Zm15.77,.16l36.6,11.75-2.87,8.95-36.6-11.75,2.87-8.95Z"/>
          <path class="cls-7" d="M333.28,162.8l4.28-13.33c1.83-5.71,4.07-9.69,6.83-12.05,2.75-2.36,6.39-2.85,10.88-1.41,2.75,.88,4.85,2.15,6.37,3.9s2.11,3.79,1.84,6.02l.34,.11c.78-1.27,1.81-2.4,2.93-3.37,1.17-.88,2.62-1.48,4.37-1.64,1.75-.17,3.88,.12,6.36,.92,4.36,1.4,7.27,3.86,8.82,7.54,1.57,3.62,1.57,7.79,0,12.66l-5.15,16.04-47.87-15.37h0Zm21.88-2.98l1.7-5.29c.85-2.64,.98-4.66,.35-5.92-.54-1.3-1.78-2.29-3.59-2.87s-3.34-.41-4.53,.53c-1.19,.94-2.21,2.74-3.04,5.32l-1.54,4.81,10.66,3.42h0Zm8.04,2.58l12.47,4,1.91-5.95c.87-2.7,.88-4.82,.02-6.29-.79-1.45-2.23-2.5-4.17-3.13-1.81-.58-3.39-.49-4.9,.28-1.42,.74-2.59,2.55-3.52,5.43l-1.81,5.65h0Z"/>
        </g>
        <g>
          <path class="cls-6" d="M319.29,373.18c-1.02,3.18-2.87,5.24-5.5,6.32-2.64,1.07-6.19,.86-10.82-.62l-16.09-5.17c-1.94-.62-3.37-.55-4.24,.3-.84,.79-1.48,1.84-1.9,3.17l-.06,.18-2.82-.9,3.45-10.75,23.13,7.43c2.88,.93,5.3,1.24,7.2,.85,1.9-.38,3.22-1.75,4.01-4.21,.85-2.64,.46-4.89-1.17-6.73-1.56-1.83-3.98-3.27-7.27-4.32l-13.81-4.43c-2.08-.67-3.57-.62-4.42,.17-.91,.77-1.55,1.82-1.99,3.2l-.06,.18-2.82-.9,3.45-10.75,28.63,9.19c1.94,.62,3.37,.55,4.22-.24,.8-.87,1.43-1.93,1.86-3.25l.06-.18,2.82,.9-3.07,9.55-5.68-.96-.1,.3c2.08,2.06,3.29,4.04,3.57,5.92,.22,1.86,.04,3.79-.6,5.77h0Z"/>
          <path class="cls-6" d="M326.14,349.54l-2.82-.9,.15-.48c.44-1.38,.54-2.61,.31-3.74-.29-1.15-1.48-2.07-3.56-2.73l-20.92-6.71c-1.94-.62-3.37-.55-4.2,.18-.84,.79-1.48,1.84-1.9,3.17l-.1,.3-2.82-.9,3.12-9.73,5.68,.96,.1-.3c-2.08-2.06-3.31-3.98-3.56-5.72-.3-1.82-.15-3.69,.47-5.61,1.02-3.18,2.89-5.3,5.52-6.38,2.66-1.13,6.23-.98,10.86,.5l15.82,5.08c2.08,.67,3.55,.68,4.41,.09,.81-.67,1.42-1.66,1.87-3.05l.1-.3,2.82,.9-3.36,10.45-23.13-7.43c-2.88-.93-5.32-1.18-7.25-.67-1.92,.44-3.26,1.87-4.05,4.33-.58,1.8-.5,3.42,.15,4.82,.68,1.34,1.7,2.53,3.22,3.55,1.54,.96,3.21,1.76,5.15,2.38l14.15,4.54c1.94,.62,3.37,.55,4.2-.18,.78-.81,1.41-1.87,1.84-3.19l.1-.3,2.82,.9-5.19,16.16h0Z"/>
          <path class="cls-6" d="M298.5,289.12c-.31,.96-.89,1.63-1.73,2.16-.8,.41-1.98,.42-3.53-.07s-2.5-1.2-2.89-2.05c-.39-.85-.48-1.74-.17-2.7,.29-.9,.89-1.63,1.71-2.1,.82-.47,2-.48,3.55,.01s2.5,1.2,2.89,2.05,.46,1.8,.17,2.7Zm39.98,21.98l-2.82-.9,.25-.78c.42-1.32,.52-2.55,.38-3.72-.23-1.13-1.35-2.02-3.29-2.65l-21.25-6.82c-1.94-.62-3.37-.55-4.22,.24-.86,.85-1.5,1.9-1.92,3.23l-.06,.18-2.82-.9,3.45-10.75,28.29,9.08c2.08,.67,3.57,.62,4.49-.15,.84-.79,1.48-1.84,1.92-3.23l.25-.78,2.82,.9-5.48,17.06h0Z"/>
          <path class="cls-6" d="M344.3,292.96l-2.82-.9,.17-.54c.46-1.44,.56-2.67,.25-3.76-.31-1.09-1.13-2.48-2.44-4.16l-8.5-11.08-13.96,3.87c-1.43,.54-2.57,1.1-3.42,1.68-.87,.65-1.5,1.44-1.79,2.34l-.25,.78-2.82-.9,4.9-15.26,2.82,.9-.06,.18c-.44,1.38-.55,2.41-.28,2.96,.2,.53,.59,.92,1.13,1.09,.47,.15,.98,.18,1.52,.09,.48-.11,1.13-.3,2-.48l7.31-2.03-4.03-4.74c-.6-.66-1.22-1.25-1.87-1.79-.57-.52-1.14-.83-1.74-1.02-.8-.26-1.44-.13-1.92,.44-.39,.54-.78,1.27-1.07,2.17l-.06,.18-2.82-.9,4.22-13.15,2.82,.9-.17,.54c-.37,1.14-.43,2.25-.16,3.26s1.08,2.4,2.5,4.18l7.2,9.14,16.11-4.57c1.56-.49,2.75-.97,3.54-1.58s1.31-1.3,1.56-2.08l.25-.78,2.82,.9-4.97,15.5-2.82-.9,.1-.3c.77-2.4,.42-3.84-1.06-4.31-.47-.15-1.06-.14-1.76-.04-.7,.11-1.9,.38-3.6,.83l-7.33,2.09,5.22,6.31c.42,.53,.98,1.11,1.66,1.73,.62,.6,1.3,1.01,2.04,1.25s1.37,.11,1.88-.32c.53-.49,.97-1.41,1.39-2.73l.06-.18,2.82,.9-4.59,14.3h0Z"/>
          <path class="cls-4" d="M362.91,234.99l-40.86-1.72-.08,.24c.89,.22,2.25,.59,4.08,1.11s3.75,1,5.84,1.61c2.1,.61,3.93,1.13,5.54,1.64l22.26,7.15-2.6,8.11-47.87-15.37,3.97-12.37,39.86,1.6,.06-.18-33.15-22.5,3.97-12.37,47.87,15.37-2.72,8.47-22.66-7.27c-1.54-.5-3.27-1.11-5.19-1.8-1.92-.68-3.78-1.35-5.51-1.97-1.79-.64-3.13-1.07-3.98-1.41l-.08,.24,33.93,23.08-2.68,8.35h0Z"/>
          <path class="cls-4" d="M325.53,176.35c.42-1.32,1.13-2.36,2.1-3.1,1.05-.72,2.47-.8,4.35-.19s2.93,1.47,3.36,2.67,.4,2.45-.03,3.77-1.15,2.42-2.17,3.08c-1.05,.72-2.47,.8-4.28,.21s-3-1.49-3.44-2.63c-.36-1.18-.33-2.43,.11-3.81Zm15.77,.16l36.6,11.75-2.87,8.95-36.6-11.75,2.87-8.95Z"/>
          <path class="cls-4" d="M333.28,162.8l4.28-13.33c1.83-5.71,4.07-9.69,6.83-12.05,2.75-2.36,6.39-2.85,10.88-1.41,2.75,.88,4.85,2.15,6.37,3.9s2.11,3.79,1.84,6.02l.34,.11c.78-1.27,1.81-2.4,2.93-3.37,1.17-.88,2.62-1.48,4.37-1.64,1.75-.17,3.88,.12,6.36,.92,4.36,1.4,7.27,3.86,8.82,7.54,1.57,3.62,1.57,7.79,0,12.66l-5.15,16.04-47.87-15.37h0Zm21.88-2.98l1.7-5.29c.85-2.64,.98-4.66,.35-5.92-.54-1.3-1.78-2.29-3.59-2.87s-3.34-.41-4.53,.53c-1.19,.94-2.21,2.74-3.04,5.32l-1.54,4.81,10.66,3.42h0Zm8.04,2.58l12.47,4,1.91-5.95c.87-2.7,.88-4.82,.02-6.29-.79-1.45-2.23-2.5-4.17-3.13-1.81-.58-3.39-.49-4.9,.28-1.42,.74-2.59,2.55-3.52,5.43l-1.81,5.65h0Z"/>
        </g>
      </g>
    </g>
  </g>
</svg>