<?xml version="1.0" encoding="UTF-8"?>
<svg id="Layer_2" data-name="Layer 2" xmlns="http://www.w3.org/2000/svg" viewBox="0 0 1516.41 495">
  <defs>
    <style>
      .cls-1, .cls-2, .cls-3 {
        fill: #fff;
      }

      .cls-4 {
        fill: #2da235;
      }

      .cls-5 {
        fill: #424242;
      }

      .cls-5, .cls-2, .cls-3 {
        fill-rule: evenodd;
      }

      .cls-6 {
        fill: none;
        stroke-width: 4px;
      }

      .cls-6, .cls-3 {
        stroke: #fff;
      }

      .cls-3 {
        stroke-miterlimit: 10;
      }
    </style>
  </defs>
  <g id="Layer_1-2" data-name="Layer 1">
    <path class="cls-1" d="M408.16,73.42l-11.67-3.83h-.01S209.21,8.05,209.21,8.05l-11.12-3.65-13.36-4.4-10.43,9.58-8.54,7.85L20.52,150.76l-10.06,9.23L.04,169.56l2.95,13.99,2.55,12.07v.02s42.37,201.23,42.37,201.23l1.29,6.11,1.02,4.81v.02s1.92,9.15,1.92,9.15l8.77,2.89,4.61,1.51,17.07,5.61,180.28,59.23h.01s12.58,4.14,12.58,4.14l.09,.03,11.79,3.89,1.6,.52,10.43-9.58,9.12-8.37,146.18-134.23,8.5-7.8,10.44-9.59-2.94-13.96-3.54-16.77-40.12-190.56-2.56-12.13-2.94-13.98-13.35-4.39Z"/>
    <g>
      <path class="cls-4" d="M81.56,393.37l-34.61-11.3L159.2,26.59l34.61,11.3L81.56,393.37Zm-31.03-13.16l29.2,9.53L190.24,39.75l-29.2-9.53L50.53,380.21Z"/>
      <path class="cls-4" d="M438.44,316.73L192.1,39.82l26.96-24.79,.95,1.07,245.39,275.84-26.96,24.79ZM196.11,40.03l242.53,272.62,22.74-20.91L218.85,19.12l-22.74,20.91Z"/>
      <path class="cls-4" d="M86.84,426.62l-7.69-36.11,358.94-79,7.69,36.11L86.84,426.62Zm-4.31-33.9l6.49,30.47,353.38-77.78-6.49-30.47L82.52,392.72Z"/>
    </g>
    <g>
      <g>
        <path class="cls-6" d="M391.91,85.33l-11.67-3.83-6.83-8.74L211.97,22.96l-11.12-3.65-13.36-4.4-10.43,9.58-8.54,7.85L42.27,157.67l-10.06,9.23-10.42,9.57,2.95,13.99-2.33,10.3h0l43.26,187.02,1.29,6.11,1.02,4.81-1.56,9.06,3.48,.1,8.77,2.89,4.61,1.51,17.07,5.61,161.1,53.23,2.98,1.65,11,4v-10l5,5h4l11-4,9-5,133-121,5-12,14-11-1-10-2-17-42.66-175.94-2.56-12.13-2.94-13.98-13.35-4.39Zm30.61,159.8l3.35,15.88,10.41,49.47,.32,1.44,.24,1.19-38.93,35.74-9.36,8.6-59.87,54.98h0s-9.11,8.37-9.11,8.37l-38.91,35.73-49.91-16.4-12.48-4.1-71.95-23.65-16.02-5.27-49.92-16.41-10.98-52.12-1.47-7.01-18.05-85.69-2.58-12.26-10.98-52.13,38.91-35.73,9.89-9.07h.02s60.58-55.64,60.58-55.64l7.89-7.24,38.91-35.73,49.88,16.39,11.98,3.94,76.6,25.19,11.9,3.91,49.89,16.4,10.98,52.13,2.55,12.14,16.21,76.97Z"/>
        <path class="cls-6" d="M391.91,85.33l-11.67-3.83-2.83-1.74-46.43,3.82-45.15,9.75-37.73,8.15-80.14,17.29-36.41,7.86-46.42,10.03h-.02s-46.71,30.1-46.71,30.1l-13,7-10,3,9,6-2,11-6,1,33.46,51.11,33.07,37.34,23.51,26.55,55.25,62.38,27.09,30.59,29.48,33.28,40.15,29.74,3.22,3.35,10.78,5.65,1.88-1.49,10.12-1.51,3.27,5.92,10.73-6.92,8.82-11.03,21.44-47.3h0s14.17-44.63,14.17-44.63l12.08-38,25.77-81.07,11.76-37,13.85-43.57,4.45-52.34-2.56-12.13-2.94-13.98-13.35-4.39Zm-25.28,97.73l-11.76,36.99-37.5,118-12.17,38.3-25.11,78.99-54.05-61.04-26.89-30.35-80.78-91.21-23.83-26.91-56.97-64.32,82.48-17.81,35.94-7.76,118.15-25.52,37.73-8.15,79.53-17.17-24.78,77.97Z"/>
      </g>
      <g>
        <path class="cls-4" d="M391.91,85.33l-11.67-3.83-6.83-8.74L211.97,22.96l-11.12-3.65-13.36-4.4-10.43,9.58-8.54,7.85L42.27,157.67l-10.06,9.23-10.42,9.57,2.95,13.99-2.33,10.3h0l43.26,187.02,1.29,6.11,1.02,4.81-1.56,9.06,3.48,.1,8.77,2.89,4.61,1.51,17.07,5.61,161.1,53.23,2.98,1.65,11,4v-10l5,5h4l11-4,9-5,133-121,5-12,14-11-1-10-2-17-42.66-175.94-2.56-12.13-2.94-13.98-13.35-4.39Zm30.61,159.8l3.35,15.88,10.41,49.47,.32,1.44,.24,1.19-38.93,35.74-9.36,8.6-59.87,54.98h0s-9.11,8.37-9.11,8.37l-38.91,35.73-49.91-16.4-12.48-4.1-71.95-23.65-16.02-5.27-49.92-16.41-10.98-52.12-1.47-7.01-18.05-85.69-2.58-12.26-10.98-52.13,38.91-35.73,9.89-9.07h.02s60.58-55.64,60.58-55.64l7.89-7.24,38.91-35.73,49.88,16.39,11.98,3.94,76.6,25.19,11.9,3.91,49.89,16.4,10.98,52.13,2.55,12.14,16.21,76.97Z"/>
        <path class="cls-4" d="M391.91,85.33l-11.67-3.83-2.83-1.74-46.43,3.82-45.15,9.75-37.73,8.15-80.14,17.29-36.41,7.86-46.42,10.03h-.02s-46.71,30.1-46.71,30.1l-13,7-10,3,9,6-2,11-6,1,33.46,51.11,33.07,37.34,23.51,26.55,55.25,62.38,27.09,30.59,29.48,33.28,40.15,29.74,3.22,3.35,10.78,5.65,1.88-1.49,10.12-1.51,3.27,5.92,10.73-6.92,8.82-11.03,21.44-47.3h0s14.17-44.63,14.17-44.63l12.08-38,25.77-81.07,11.76-37,13.85-43.57,4.45-52.34-2.56-12.13-2.94-13.98-13.35-4.39Zm-25.28,97.73l-11.76,36.99-37.5,118-12.17,38.3-25.11,78.99-54.05-61.04-26.89-30.35-80.78-91.21-23.83-26.91-56.97-64.32,82.48-17.81,35.94-7.76,118.15-25.52,37.73-8.15,79.53-17.17-24.78,77.97Z"/>
      </g>
    </g>
    <g id="Layer_2-2" data-name="Layer 2">
      <g>
        <path class="cls-4" d="M408.11,73.65l-11.67-3.83h-.01S209.17,8.28,209.17,8.28l-11.12-3.65L184.68,.24l-10.43,9.58-8.54,7.85L20.47,150.99l-10.06,9.23L0,169.79l2.95,13.99,2.55,12.07v.02s42.37,201.23,42.37,201.23l1.29,6.11,1.02,4.81v.02s1.92,9.15,1.92,9.15l8.77,2.89,4.61,1.51,17.07,5.61,180.28,59.23h.01s12.58,4.14,12.58,4.14l.09,.03,11.79,3.89,1.6,.52,10.43-9.58,9.12-8.37,146.18-134.23,8.5-7.8,10.44-9.59-2.94-13.96-3.54-16.77-40.12-190.56-2.56-12.13-2.94-13.98-13.35-4.39Zm14.61,171.8l3.35,15.88,10.41,49.47,.32,1.44,.24,1.19-38.93,35.74-9.36,8.6-59.87,54.98h0s-9.11,8.37-9.11,8.37l-38.91,35.73-49.91-16.4-12.48-4.1-71.95-23.65-16.02-5.27-49.92-16.41-10.98-52.12-1.47-7.01-18.05-85.69-2.58-12.26-10.98-52.13,38.91-35.73,9.89-9.07h.02s60.58-55.64,60.58-55.64l7.89-7.24,38.91-35.73,49.88,16.39,11.98,3.94,76.6,25.19,11.9,3.91,49.89,16.4,10.98,52.13,2.55,12.14,16.21,76.97Z"/>
        <path class="cls-4" d="M408.11,73.65l-11.67-3.83h-.01s-65.24,14.09-65.24,14.09l-45.15,9.75-37.73,8.15-80.14,17.29-36.41,7.86-46.42,10.03h-.02s-64.85,14-64.85,14l-10.06,9.23L0,169.79l2.95,13.99,2.55,12.07v.02s44.58,50.33,44.58,50.33l33.07,37.34,23.51,26.55,55.25,62.38,27.09,30.59,29.48,33.28,44.36,50.08h.01s12.58,4.14,12.58,4.14l.09,.03,11.79,3.89,1.6,.52,10.43-9.58,9.12-8.37,20.44-64.3h0s14.17-44.63,14.17-44.63l12.08-38,25.77-81.07,11.76-37,13.85-43.57,20.45-64.34-2.56-12.13-2.94-13.98-13.35-4.39Zm-41.28,109.73l-11.76,36.99-37.5,118-12.17,38.3-25.11,78.99-54.05-61.04-26.89-30.35-80.78-91.21-23.83-26.91-56.97-64.32,82.48-17.81,35.94-7.76,118.15-25.52,37.73-8.15,79.53-17.17-24.78,77.97Z"/>
      </g>
    </g>
    <g>
      <g>
        <path class="cls-6" d="M336.23,163.74c-5.54,6.85-12.56,12.32-19.22,18.06-13.33,11.48-24.27,20.28-38.42,30.26-6.14,4.67-11.41,10.46-15.53,17.01-.79,1.22-1.58,2.45-2.29,3.72-4.41,7.92-4.39,7.87-7.55,16.35-4.34,11.64-11.24,26.22-11.24,39.08,0,6.06,4.19,9.76,7.64,14.22,3.53,4.55,7.23,8.98,10.52,13.71h0c5.65,7.18,26.91,44.55,33.69,89.55,0,0-12.22,44.84-13.75,49.62l-167.09-56.14s-3.32-44.61,9.94-81.2c.4-1.11,7.82-18.86,8.25-19.92,3.86-11.51,6.36-21.99,8.61-34,2.2-11.8,2.24-24.38,5.29-35.98,3.76-14.33,12.98-27.89,24.54-36.93,7.26-5.68,10.85-8.06,18.93-11.65,9.48-4.21,20.24-6.17,30.49-4.34,8.58,1.53,16.75,4.69,25.51,5.58,11.69,1.17,22.44-1.05,33.71-4.24,18.05-5.1,17.91-5.35,36.25-8.93,7.22-1.41,14.46-2.63,21.72-3.84Z"/>
        <g>
          <ellipse class="cls-6" cx="220.07" cy="195.33" rx="3.21" ry="2.3" transform="translate(-64.63 120.97) rotate(-26.95)"/>
          <path class="cls-6" d="M318,175.2c-2.34,1.9-4.63,3.86-7.02,5.69-4.5,3.46-9.06,6.84-13.65,10.18-9.25,6.73-18.55,13.37-27.85,20.02-9.16,6.65-16.36,11.99-27.71,12.56-4.24,.21-8.49,.12-12.74,.14-7.86,.03-15.71,.14-23.57,.02-1.73-.03-3.45-.21-5.16-.46-.55-.08-2.11-.34-1.59-.54,1.23-.47,2.63-.23,3.94-.35,3.26-.3,6.54-.43,9.78-.91,14-2.08,25.51-11.25,30.96-24.46,18.48-6.72,35.98-15.71,54.89-21.24,4.33-1.27,8.69-2.4,13.06-3.51,4.8-1.21,9.62-2.33,14.44-3.44-2.59,2.11-5.19,4.22-7.79,6.33Z"/>
          <path class="cls-6" d="M193.55,203.32c1.42-3.9,3.02-6.36,6.23-9.1,1.64-1.4,4.01-3.31,7.73-4.22-6.54,12.39,11.03,14.7,17.54,7.32-.93,2.36-2.97,4.57-4.81,6.17-5.15,4.5-11.94,7.07-18.77,6.83-1.64-.06-3.26-.42-4.84-.86-2.58-.72-4-3.61-3.08-6.15Z"/>
          <path class="cls-6" d="M280.09,455.33l-125.5-42.31c-2.84-46.22,30.15-93.77,30.93-105.81,.19-2.82,.66-13.56,5.86-13.57h.07c1.71,.02,3.65,1.2,5.8,2.66,3.71,2.53,8.08,5.94,13.13,5.96h.12c6.09-.05,9.32-6.6,15.12-6.6h.12c6.17,.11,13.24,7.75,16.58,11.84,5.64,6.96,8.24,12.61,12.78,20.57,5.9,10.34,11.37,22.79,14.58,34.16,3.16,11.28,12.44,34.59,14.79,77.7l-4.38,15.39Z"/>
        </g>
      </g>
      <g>
        <path class="cls-5" d="M336.23,163.74c-5.54,6.85-12.56,12.32-19.22,18.06-13.33,11.48-24.27,20.28-38.42,30.26-6.14,4.67-11.41,10.46-15.53,17.01-.79,1.22-1.58,2.45-2.29,3.72-4.41,7.92-4.39,7.87-7.55,16.35-4.34,11.64-11.24,26.22-11.24,39.08,0,6.06,4.19,9.76,7.64,14.22,3.53,4.55,7.23,8.98,10.52,13.71h0c5.65,7.18,26.91,44.55,33.69,89.55,0,0-12.22,44.84-13.75,49.62l-167.09-56.14s-3.32-44.61,9.94-81.2c.4-1.11,7.82-18.86,8.25-19.92,3.86-11.51,6.36-21.99,8.61-34,2.2-11.8,2.24-24.38,5.29-35.98,3.76-14.33,12.98-27.89,24.54-36.93,7.26-5.68,10.85-8.06,18.93-11.65,9.48-4.21,20.24-6.17,30.49-4.34,8.58,1.53,16.75,4.69,25.51,5.58,11.69,1.17,22.44-1.05,33.71-4.24,18.05-5.1,17.91-5.35,36.25-8.93,7.22-1.41,14.46-2.63,21.72-3.84Z"/>
        <g>
          <ellipse class="cls-1" cx="220.07" cy="195.33" rx="3.21" ry="2.3" transform="translate(-64.63 120.97) rotate(-26.95)"/>
          <path class="cls-2" d="M318,175.2c-2.34,1.9-4.63,3.86-7.02,5.69-4.5,3.46-9.06,6.84-13.65,10.18-9.25,6.73-18.55,13.37-27.85,20.02-9.16,6.65-16.36,11.99-27.71,12.56-4.24,.21-8.49,.12-12.74,.14-7.86,.03-15.71,.14-23.57,.02-1.73-.03-3.45-.21-5.16-.46-.55-.08-2.11-.34-1.59-.54,1.23-.47,2.63-.23,3.94-.35,3.26-.3,6.54-.43,9.78-.91,14-2.08,25.51-11.25,30.96-24.46,18.48-6.72,35.98-15.71,54.89-21.24,4.33-1.27,8.69-2.4,13.06-3.51,4.8-1.21,9.62-2.33,14.44-3.44-2.59,2.11-5.19,4.22-7.79,6.33Z"/>
          <path class="cls-2" d="M193.55,203.32c1.42-3.9,3.02-6.36,6.23-9.1,1.64-1.4,4.01-3.31,7.73-4.22-6.54,12.39,11.03,14.7,17.54,7.32-.93,2.36-2.97,4.57-4.81,6.17-5.15,4.5-11.94,7.07-18.77,6.83-1.64-.06-3.26-.42-4.84-.86-2.58-.72-4-3.61-3.08-6.15Z"/>
          <path class="cls-3" d="M280.09,455.33l-125.5-42.31c-2.84-46.22,30.15-93.77,30.93-105.81,.19-2.82,.66-13.56,5.86-13.57h.07c1.71,.02,3.65,1.2,5.8,2.66,3.71,2.53,8.08,5.94,13.13,5.96h.12c6.09-.05,9.32-6.6,15.12-6.6h.12c6.17,.11,13.24,7.75,16.58,11.84,5.64,6.96,8.24,12.61,12.78,20.57,5.9,10.34,11.37,22.79,14.58,34.16,3.16,11.28,12.44,34.59,14.79,77.7l-4.38,15.39Z"/>
        </g>
      </g>
    </g>
    <g>
      <path class="cls-1" d="M591.86,326.72c-12.99,0-22.79-4.18-29.89-12.27-7.1-8.09-10.52-20.86-10.51-38.85l.05-62.57c0-7.56-1.95-12.52-6.12-14.6-3.92-2.09-8.58-3.13-13.97-3.13h-.74s0-10.95,0-10.95l43.87,.02-.07,89.95c0,11.21,1.7,20.08,5.37,26.33,3.67,6.26,10.29,9.39,20.34,9.39,10.78,0,18.63-3.9,23.54-11.72,4.91-7.56,7.37-17.73,7.38-30.5l.04-53.71c0-8.08-1.95-13.3-5.87-15.38-3.92-2.35-8.58-3.39-14.21-3.4h-.74s0-10.95,0-10.95l43.87,.02-.08,111.32c0,7.56,1.95,12.52,5.87,14.6,4.17,1.83,8.82,2.87,14.21,2.87h.74s0,10.95,0,10.95l-38.97-.02-3.17-21.12h-1.23c-5.15,9.64-11.04,16.16-17.66,19.28-6.62,2.86-13.97,4.43-22.06,4.42h0Z"/>
      <path class="cls-1" d="M687.44,324.16v-10.95s1.97,0,1.97,0c5.64,0,10.29-1.04,14.22-3.12,3.92-2.34,5.89-7.56,5.89-15.64l.06-81.34c0-7.56-1.95-12.52-5.63-14.6-3.92-2.09-8.58-3.13-13.97-3.13h-1.23s0-10.95,0-10.95l39.71,.02,3.17,21.12h1.23c5.15-9.64,10.8-16.16,16.93-19.02,6.37-3.13,13.48-4.69,21.33-4.68,12.99,0,23.04,4.18,30.14,12.27,7.35,8.09,11.01,20.86,11,38.85l-.04,61.53c0,8.08,1.71,13.3,4.89,15.64,3.43,2.09,7.84,3.13,13.48,3.13h1.23s0,10.95,0,10.95l-42.65-.02,.07-89.95c0-11.21-1.95-20.08-6.11-26.33-3.92-6.26-10.78-9.39-20.83-9.4-7.35,0-13.24,2.08-17.65,5.99-4.17,3.91-7.36,8.86-9.32,15.38-1.72,6.52-2.71,13.3-2.71,20.86l-.04,55.01c0,7.56,1.95,12.52,5.63,14.6,3.92,1.83,8.58,2.87,13.97,2.87h1.23s0,10.95,0,10.95l-65.93-.03h0Z"/>
      <path class="cls-1" d="M878.25,158.44c-3.92,0-7.11-1.31-10.05-3.65-2.45-2.35-3.92-6.52-3.91-12.52,0-6,1.48-10.17,4.18-12.51,2.7-2.35,5.88-3.65,9.81-3.65,3.68,0,7.11,1.31,9.8,3.65,2.69,2.35,4.16,6.52,4.16,12.52,0,6-1.48,10.17-4.18,12.51-2.7,2.35-6.13,3.65-9.81,3.65Zm-33.94,165.8v-10.95s3.19,0,3.19,0c5.39,0,10.05-1.04,14.22-2.86,3.92-2.08,5.89-7.04,5.89-14.6l.06-82.65c0-7.56-1.95-12.52-5.87-14.6-4.17-2.09-8.82-3.13-14.21-3.14h-.74s0-10.95,0-10.95l43.87,.02-.08,110.02c0,8.08,1.95,13.3,5.87,15.65,3.92,2.09,8.58,3.13,14.21,3.14h3.19s0,10.95,0,10.95l-69.61-.03h0Z"/>
      <path class="cls-1" d="M918.33,324.27v-10.95s2.21,0,2.21,0c5.88,0,10.54-1.04,14.22-3.38,3.68-2.34,7.85-6.77,12.51-13.29l30.91-42.48-30.85-44.86c-3.67-4.43-7.1-7.82-10.29-10.17-3.43-2.35-7.11-3.65-10.78-3.65h-3.19s0-10.95,0-10.95l62.25,.03v10.95s-.74,0-.74,0c-5.64,0-9.56,.78-11.28,2.34-1.72,1.3-2.7,3.13-2.7,5.21,0,1.82,.49,3.65,1.47,5.48,.98,1.56,2.45,3.65,4.16,6.52l16.16,23.47,12.76-19.55c1.72-2.87,3.19-5.73,4.42-8.6,1.23-2.61,1.72-4.95,1.72-7.3,0-3.13-1.22-5.21-3.92-6.26-2.45-.78-5.64-1.31-9.31-1.31h-.74s0-10.95,0-10.95l53.68,.02v10.95s-2.21,0-2.21,0c-4.66,0-8.82,1.04-12.26,3.12-3.43,2.08-7.6,6.51-12.51,13.55l-25.27,35.71,35.99,51.64c3.67,4.96,6.86,8.61,10.04,10.69,3.18,2.09,6.37,3.13,9.56,3.13h3.19s0,10.95,0,10.95l-63.24-.03v-10.95s1.23,0,1.23,0c9.8,0,14.71-2.86,14.71-8.6,0-1.82-.73-3.91-1.96-6.26-1.22-2.35-3.67-6.26-7.34-11.74l-16.4-23.47-17.18,25.54c-1.47,2.09-2.94,4.69-4.42,7.82-1.47,2.87-2.21,5.73-2.21,8.6,0,2.87,1.22,4.95,3.43,6.26,2.45,1.3,6.37,1.83,11.76,1.83h.74s0,10.95,0,10.95l-58.33-.03h0Z"/>
      <path class="cls-4" d="M1154.85,324.38l-42.05-146.02h-.98c.24,3.39,.48,8.6,.72,15.64,.24,7.04,.72,14.34,.96,22.42,.24,8.08,.48,15.12,.47,21.38l-.06,86.56-33.09-.02,.14-186.15,50.49,.02,41.32,142.37h.74s43.98-142.33,43.98-142.33l50.49,.02-.14,186.15-34.56-.02,.06-88.12c0-6,.25-12.77,.5-20.34,.25-7.56,.5-14.86,.75-21.64,.25-7.04,.25-12.25,.5-15.64h-.98s-45.2,145.72-45.2,145.72l-34.07-.02h0Z"/>
      <path class="cls-4" d="M1327.54,126.31c5.39,0,10.05,1.31,13.97,3.92,3.92,2.87,5.88,7.82,5.87,15.12,0,7.04-1.97,11.99-5.89,14.86s-8.58,4.17-13.97,4.16-10.29-1.31-13.97-4.18c-3.92-2.87-5.88-7.82-5.87-14.86,0-7.3,1.97-12.25,5.65-15.12,3.92-2.61,8.58-3.91,14.22-3.9Zm18.1,55.8l-.1,142.35-36.52-.02,.1-142.35,36.52,.02Z"/>
      <path class="cls-4" d="M1386.85,138.33l54.41,.03c23.28,.01,40.68,3.41,52.69,10.45,12,7.04,18.12,19.3,18.11,36.77,0,10.69-2.22,19.55-6.88,26.85-4.66,7.3-11.53,11.73-20.11,13.29v1.3c5.64,1.31,11.03,3.66,15.93,6.53,4.65,3.13,8.57,7.56,11.26,13.56,2.69,6,4.16,13.82,4.15,23.47-.01,16.95-5.66,29.98-17.43,39.62-11.53,9.64-26.97,14.33-46.82,14.32l-65.44-.03,.14-186.15h0Zm36.96,73.8h21.57c10.78,.01,18.38-1.81,22.31-5.45,4.17-3.39,6.38-8.86,6.38-15.9,0-7.04-2.44-12.25-7.34-15.39-4.9-3.13-12.74-4.7-23.28-4.7h-19.61s-.03,41.44-.03,41.44h0Zm-.02,31.29l-.04,48.49h24.26c11.03,.02,18.87-2.33,23.29-7.02,4.41-4.43,6.63-10.69,6.63-18.25,0-7.04-2.2-12.52-6.85-16.95-4.41-4.17-12.5-6.26-24.26-6.27h-23.04s0-.01,0-.01Z"/>
    </g>
  </g>
</svg>