<?xml version="1.0" encoding="UTF-8"?>
<svg id="Layer_2" data-name="Layer 2" xmlns="http://www.w3.org/2000/svg" viewBox="0 0 595.87 595.87">
  <defs>
    <style>
      .cls-1, .cls-2 {
        fill: #fff;
      }

      .cls-3, .cls-4 {
        fill: #2da235;
      }

      .cls-4, .cls-2 {
        fill-rule: evenodd;
      }

      .cls-5 {
        fill: none;
      }
    </style>
  </defs>
  <g id="Layer_1-2" data-name="Layer 1">
    <rect class="cls-3" width="595.87" height="595.87"/>
    <rect class="cls-5" x="11.75" y="14.31" width="572.37" height="553.84"/>
    <path class="cls-1" d="M133.8,449.65l-36.54-11.73L215.78,68.72l36.54,11.73-118.52,369.2Zm-32.77-12.67l29.83,8.9L247.55,82.39l-28.83-7.9L101.03,436.98Zm409.57-66.93L250.51,82.46l28.46-25.74,1.01,1.11,259.09,286.47-28.46,25.74ZM255.53,82.12l259.29,286.69,22.01-21.72L280.76,63.96l-25.23,18.16Zm-116.16,402.05l-8.12-37.51,378.98-82.05,8.12,37.51-378.98,82.05Zm-3.55-34.21l4.85,29.64,373.11-80.78-4.85-29.64-373.11,80.78Z"/>
    <g>
      <g>
        <path class="cls-1" d="M478.37,117.26l-12.32-3.98h-.01s-197.72-63.91-197.72-63.91l-11.75-3.79-14.11-4.57-11.02,9.95-9.02,8.15L69.09,197.59l-10.62,9.59-11,9.94,3.11,14.53,2.69,12.53v.02s44.74,208.99,44.74,208.99l1.36,6.34,1.08,5v.02s2.03,9.5,2.03,9.5l9.26,3,4.86,1.57,18.02,5.82,190.35,61.51h.01s13.28,4.3,13.28,4.3l.09,.03,12.45,4.04,1.68,.54,11.02-9.95,9.63-8.69,154.34-139.4,8.98-8.1,11.02-9.96-3.11-14.5-3.73-17.41-42.36-197.91-2.7-12.59-3.1-14.52-14.09-4.56Zm15.43,178.42l3.53,16.49,10.99,51.37,.33,1.5,.26,1.24-41.11,37.12-9.88,8.93-63.21,57.1h0s-9.62,8.69-9.62,8.69l-41.09,37.11-52.69-17.04-13.17-4.26-75.97-24.56-16.91-5.47-52.71-17.04-11.6-54.13-1.55-7.28-19.06-89-2.73-12.74-11.59-54.14,41.09-37.11,10.45-9.42h.02s63.96-57.78,63.96-57.78l8.33-7.52,41.09-37.11,52.67,17.03,12.65,4.09,80.88,26.16,12.56,4.06,52.68,17.03,11.59,54.14,2.7,12.61,17.12,79.93Z"/>
        <path class="cls-1" d="M478.37,117.26l-12.32-3.98h-.01s-68.89,14.63-68.89,14.63l-47.67,10.13-39.84,8.46-84.61,17.96-38.44,8.17-49.01,10.41h-.02s-68.47,14.54-68.47,14.54l-10.62,9.59-11,9.94,3.11,14.53,2.69,12.53v.02s47.07,52.27,47.07,52.27l34.91,38.78,24.82,27.57,58.33,64.78,28.6,31.77,31.13,34.57,46.83,52.02h.01s13.28,4.3,13.28,4.3l.09,.03,12.45,4.04,1.68,.54,11.02-9.95,9.63-8.69,21.58-66.78h0s14.96-46.35,14.96-46.35l12.76-39.47,27.21-84.2,12.42-38.43,14.62-45.25,21.59-66.82-2.7-12.59-3.1-14.52-14.09-4.56Zm-43.59,113.96l-12.41,38.41-39.6,122.54-12.85,39.78-26.51,82.03-57.07-63.39-28.39-31.52-85.29-94.73-25.16-27.95-60.15-66.8,87.08-18.49,37.95-8.06,124.75-26.5,39.84-8.46,83.97-17.83-26.16,80.98Z"/>
      </g>
      <g>
        <path class="cls-1" d="M478.37,117.26l-12.32-3.98h-.01s-197.72-63.91-197.72-63.91l-11.75-3.79-14.11-4.57-11.02,9.95-9.02,8.15L69.09,197.59l-10.62,9.59-11,9.94,3.11,14.53,2.69,12.53v.02s44.74,208.99,44.74,208.99l1.36,6.34,1.08,5v.02s2.03,9.5,2.03,9.5l9.26,3,4.86,1.57,18.02,5.82,190.35,61.51h.01s13.28,4.3,13.28,4.3l.09,.03,12.45,4.04,1.68,.54,11.02-9.95,9.63-8.69,154.34-139.4,8.98-8.1,11.02-9.96-3.11-14.5-3.73-17.41-42.36-197.91-2.7-12.59-3.1-14.52-14.09-4.56Zm15.43,178.42l3.53,16.49,10.99,51.37,.33,1.5,.26,1.24-41.11,37.12-9.88,8.93-63.21,57.1h0s-9.62,8.69-9.62,8.69l-41.09,37.11-52.69-17.04-13.17-4.26-75.97-24.56-16.91-5.47-52.71-17.04-11.6-54.13-1.55-7.28-19.06-89-2.73-12.74-11.59-54.14,41.09-37.11,10.45-9.42h.02s63.96-57.78,63.96-57.78l8.33-7.52,41.09-37.11,52.67,17.03,12.65,4.09,80.88,26.16,12.56,4.06,52.68,17.03,11.59,54.14,2.7,12.61,17.12,79.93Z"/>
        <path class="cls-1" d="M478.37,117.26l-12.32-3.98h-.01s-68.89,14.63-68.89,14.63l-47.67,10.13-39.84,8.46-84.61,17.96-38.44,8.17-49.01,10.41h-.02s-68.47,14.54-68.47,14.54l-10.62,9.59-11,9.94,3.11,14.53,2.69,12.53v.02s47.07,52.27,47.07,52.27l34.91,38.78,24.82,27.57,58.33,64.78,28.6,31.77,31.13,34.57,46.83,52.02h.01s13.28,4.3,13.28,4.3l.09,.03,12.45,4.04,1.68,.54,11.02-9.95,9.63-8.69,21.58-66.78h0s14.96-46.35,14.96-46.35l12.76-39.47,27.21-84.2,12.42-38.43,14.62-45.25,21.59-66.82-2.7-12.59-3.1-14.52-14.09-4.56Zm-43.59,113.96l-12.41,38.41-39.6,122.54-12.85,39.78-26.51,82.03-57.07-63.39-28.39-31.52-85.29-94.73-25.16-27.95-60.15-66.8,87.08-18.49,37.95-8.06,124.75-26.5,39.84-8.46,83.97-17.83-26.16,80.98Z"/>
      </g>
    </g>
    <g>
      <path class="cls-2" d="M403.69,215.15c-5.85,7.11-13.26,12.8-20.29,18.76-14.07,11.92-25.63,21.06-40.56,31.43-6.48,4.85-12.05,10.86-16.4,17.67-.83,1.27-1.67,2.54-2.42,3.86-4.66,8.23-4.64,8.17-7.97,16.98-4.58,12.09-11.87,27.23-11.87,40.59,0,6.29,4.42,10.14,8.07,14.77,3.73,4.73,7.64,9.32,11.11,14.24h0c5.96,7.45,28.42,46.27,35.57,93,0,0-12.9,46.57-14.51,51.54l-176.42-58.31s-3.51-46.33,10.49-84.33c.42-1.15,8.26-19.59,8.71-20.69,4.08-11.95,6.72-22.84,9.09-35.31,2.32-12.25,2.37-25.32,5.59-37.37,3.97-14.88,13.71-28.97,25.91-38.35,7.67-5.9,11.46-8.37,19.99-12.1,10.01-4.37,21.37-6.41,32.19-4.51,9.06,1.59,17.69,4.87,26.93,5.79,12.34,1.22,23.69-1.09,35.59-4.4,19.06-5.3,18.91-5.56,38.27-9.27,7.62-1.46,15.27-2.73,22.93-3.99Z"/>
      <path class="cls-4" d="M284.08,246.5c.57,1.19-.32,2.81-2,3.62s-3.5,.51-4.08-.68,.32-2.81,2-3.62,3.5-.51,4.08,.68Zm108.58-26.01c-5.09,1.16-10.18,2.32-15.25,3.58-4.62,1.15-9.22,2.33-13.79,3.64-19.96,5.75-38.44,15.08-57.95,22.06-5.75,13.73-17.91,23.24-32.68,25.41-3.42,.5-6.89,.63-10.33,.95-1.39,.13-2.86-.12-4.16,.37-.55,.21,1.09,.48,1.68,.56,1.8,.26,3.62,.45,5.45,.48,8.29,.13,16.59,.02,24.89-.02,4.48-.02,8.97,.08,13.45-.14,11.99-.58,19.58-6.14,29.26-13.04,9.82-6.9,19.65-13.8,29.41-20.79,4.84-3.47,9.65-6.98,14.41-10.57,2.52-1.91,4.94-3.94,7.41-5.91,2.74-2.19,5.48-4.38,8.22-6.57Zm-136.36,42.15c1.67,.46,3.39,.83,5.12,.89,7.21,.25,14.38-2.41,19.82-7.09,1.94-1.67,4.1-3.96,5.08-6.41-6.87,7.66-25.42,5.27-18.51-7.6-3.92,.94-6.43,2.93-8.16,4.38-3.4,2.85-5.08,5.4-6.58,9.45-.98,2.64,.53,5.64,3.25,6.38Zm92.74,239.37c-2.48-44.78-12.28-68.99-15.62-80.7-3.39-11.81-9.16-24.74-15.39-35.48-4.79-8.26-7.54-14.13-13.49-21.36-3.53-4.25-11-12.19-17.51-12.3h-.13c-6.12,0-9.53,6.8-15.96,6.84h-.13c-5.33-.01-9.94-3.55-13.86-6.18-2.27-1.51-4.31-2.74-6.12-2.76h-.07c-5.49,.01-5.99,11.16-6.19,14.09-.82,12.5-35.66,61.89-32.66,109.89l132.51,43.94,4.62-15.98Z"/>
    </g>
  </g>
</svg>