<?xml version="1.0" encoding="UTF-8" standalone="no"?>
<svg
   xmlns:dc="http://purl.org/dc/elements/1.1/"
   xmlns:cc="http://creativecommons.org/ns#"
   xmlns:rdf="http://www.w3.org/1999/02/22-rdf-syntax-ns#"
   xmlns:svg="http://www.w3.org/2000/svg"
   xmlns="http://www.w3.org/2000/svg"
   id="svg8"
   version="1.1"
   viewBox="0 0 117.27717 64.803994"
   height="64.803993mm"
   width="117.27717mm">
  <defs
     id="defs2" />
  <metadata
     id="metadata5">
    <rdf:RDF>
      <cc:Work
         rdf:about="">
        <dc:format>image/svg+xml</dc:format>
        <dc:type
           rdf:resource="http://purl.org/dc/dcmitype/StillImage" />
        <dc:title></dc:title>
      </cc:Work>
    </rdf:RDF>
  </metadata>
  <g
     transform="translate(-27.960217,-30.736531)"
     id="layer1">
    <g
       transform="matrix(0.26458333,0,0,0.26458333,13.682739,71.423806)"
       id="g23">
      <g
         transform="matrix(1.1811024,0,0,1.1811024,54.464287,-91.085773)"
         id="g98">
        <path
           transform="matrix(0.84666665,0,0,0.84666665,-89.897859,-151.43689)"
           id="circle10"
           d="m 134.52539,178.86328 a 28.346457,28.346457 0 0 0 -28.34766,28.3457 28.346457,28.346457 0 0 0 28.34766,28.34571 28.346457,28.346457 0 0 0 28.3457,-28.34571 28.346457,28.346457 0 0 0 -28.3457,-28.3457 z m 2.24414,13.3457 h 4.60547 v 5.19727 h -3.30664 c -0.47244,0 -1.29883,0.23491 -1.29883,1.41602 v 3.07226 h 4.72461 l -0.47266,5.31445 h -4.25195 v 15 h -6.25976 v -15 h -2.95313 v -5.31445 h 2.95313 v -3.42578 c 0,-2.3622 1.06291,-6.25977 6.25976,-6.25977 z"
           style="fill:#000000;stroke-width:1.1811024" />
      </g>
      <g
         transform="matrix(0.93560306,0,0,0.95906324,-186.09374,-73.381318)"
         id="g94">
        <g
           id="g38">
	<path
   style="stroke-width:0.13817263"
   d="m 313.10959,127.53073 c -2.70929,-4.64205 -6.38427,-8.31717 -11.0259,-11.02618 -4.64232,-2.70915 -9.71036,-4.06338 -15.20769,-4.06338 -5.49665,0 -10.56634,1.35465 -15.2077,4.06338 -4.64204,2.70888 -8.31688,6.38413 -11.02617,11.02618 -2.70887,4.64191 -4.06338,9.71091 -4.06338,15.20686 0,6.60189 1.92613,12.53848 5.77935,17.81128 3.8528,5.27322 8.83006,8.92208 14.93134,10.947 0.71021,0.13182 1.23596,0.0391 1.5778,-0.27579 0.34197,-0.31531 0.51276,-0.71021 0.51276,-1.18303 0,-0.0789 -0.007,-0.78869 -0.0199,-2.13021 -0.0135,-1.34152 -0.0199,-2.51184 -0.0199,-3.51041 l -0.90738,0.15696 c -0.57853,0.10598 -1.30836,0.15088 -2.18949,0.13817 -0.88071,-0.0123 -1.795,-0.10459 -2.74162,-0.2762 -0.94703,-0.1701 -1.82788,-0.56458 -2.64324,-1.18262 -0.81494,-0.61805 -1.39347,-1.42705 -1.73545,-2.42576 l -0.39448,-0.9078 c -0.26294,-0.60436 -0.6769,-1.27574 -1.24244,-2.01165 -0.56554,-0.7366 -1.13744,-1.23596 -1.71597,-1.4989 l -0.27621,-0.19772 c -0.18404,-0.13141 -0.35482,-0.28989 -0.51276,-0.4738 -0.15779,-0.18391 -0.27593,-0.36795 -0.35482,-0.55227 -0.079,-0.18446 -0.0135,-0.33576 0.19717,-0.45445 0.21071,-0.11869 0.59152,-0.17631 1.14407,-0.17631 l 0.78869,0.11786 c 0.52602,0.10543 1.17668,0.42032 1.95279,0.94662 0.7757,0.52589 1.41337,1.20956 1.91314,2.05076 0.6052,1.07857 1.33433,1.90042 2.18948,2.46597 0.85446,0.56554 1.71597,0.84782 2.58369,0.84782 0.86773,0 1.61718,-0.0658 2.24862,-0.19662 0.63076,-0.13154 1.22256,-0.32926 1.77511,-0.59207 0.23669,-1.7628 0.88112,-3.11703 1.93276,-4.06365 -1.4989,-0.15752 -2.8465,-0.39476 -4.04349,-0.71021 -1.1963,-0.31586 -2.43253,-0.82848 -3.70786,-1.53924 -1.27602,-0.7098 -2.33456,-1.5912 -3.1759,-2.64269 -0.84147,-1.05205 -1.53205,-2.43322 -2.07079,-4.14228 -0.53901,-1.70975 -0.80859,-3.68202 -0.80859,-5.91738 0,-3.18281 1.03906,-5.89127 3.11676,-8.1269 -0.97328,-2.39287 -0.8814,-5.07536 0.27593,-8.04717 0.76272,-0.23697 1.8938,-0.0591 3.3927,0.53238 1.49917,0.59179 2.59681,1.09874 3.29403,1.51907 0.69722,0.42018 1.25585,0.77625 1.67673,1.06503 2.44634,-0.68354 4.97089,-1.02538 7.57434,-1.02538 2.60345,0 5.12855,0.34184 7.57504,1.02538 l 1.49903,-0.94634 c 1.02511,-0.63145 2.23564,-1.21012 3.62869,-1.73614 1.39389,-0.52575 2.45975,-0.67056 3.19649,-0.43359 1.18303,2.97196 1.28846,5.6543 0.31489,8.04717 2.07757,2.23564 3.11704,4.94479 3.11704,8.1269 0,2.23536 -0.27054,4.21385 -0.80872,5.93673 -0.53888,1.72315 -1.23541,3.10294 -2.08986,4.14228 -0.85543,1.03919 -1.92074,1.91369 -3.19608,2.62334 -1.27561,0.71021 -2.51225,1.22283 -3.70855,1.53869 -1.19685,0.31586 -2.54445,0.55324 -4.04334,0.71104 1.36708,1.18303 2.05075,3.05043 2.05075,5.60138 v 8.3231 c 0,0.47283 0.16443,0.86759 0.49356,1.18303 0.32871,0.3149 0.84782,0.40761 1.55803,0.27566 6.10212,-2.02464 11.07937,-5.67364 14.93204,-10.94686 3.85225,-5.27281 5.77907,-11.2094 5.77907,-17.81128 -0.001,-5.49527 -1.35658,-10.56385 -4.06421,-15.20576 z"
   id="path36" />

</g>
        <g
           id="g40">
</g>
        <g
           id="g42">
</g>
        <g
           id="g44">
</g>
        <g
           id="g46">
</g>
        <g
           id="g48">
</g>
        <g
           id="g50">
</g>
        <g
           id="g52">
</g>
        <g
           id="g54">
</g>
        <g
           id="g56">
</g>
        <g
           id="g58">
</g>
        <g
           id="g60">
</g>
        <g
           id="g62">
</g>
        <g
           id="g64">
</g>
        <g
           id="g66">
</g>
        <g
           id="g68">
</g>
      </g>
      <path
         style="stroke-width:0.11430023"
         d="m 82.81075,-153.77868 c -15.65913,0 -28.34646,12.68732 -28.34646,28.34645 0,15.65913 12.68733,28.346457 28.34646,28.346457 15.65913,0 28.34645,-12.687327 28.34645,-28.346457 0,-15.65913 -12.68732,-28.34645 -28.34645,-28.34645 z m 13.92176,19.41961 -4.65202,21.92278 c -0.3429,1.55448 -1.26873,1.93167 -2.56032,1.20015 l -7.08661,-5.22352 -3.41758,3.29185 c -0.37719,0.37719 -0.69723,0.69723 -1.42875,0.69723 l 0.50292,-7.21235 13.13309,-11.86436 c 0.5715,-0.50292 -0.12573,-0.78867 -0.88011,-0.28575 l -16.23063,10.21844 -6.99517,-2.18313 c -1.5202,-0.48006 -1.55449,-1.5202 0.32004,-2.25172 l 27.32918,-10.53848 c 1.26873,-0.4572 2.37745,0.30861 1.96596,2.22886 z"
         id="path100" />
      <g
         transform="matrix(0.05784974,0,0,0.05784974,53.383853,-28.81662)"
         id="g135">
        <g
           transform="matrix(0.1,0,0,-0.1,0,512)"
           id="g133">
          <path
             d="M 4525.6,5007.3 C 3371.8,4888.5 2338.8,4399.8 1528.1,3589 750,2810.9 286.1,1866.1 123.2,725.7 107.9,622.2 98.3,375 100.2,112.4 c 0,-358.4 7.7,-490.6 42.2,-709.1 86.2,-542.4 224.2,-979.4 465.7,-1464.3 477.2,-964 1238.1,-1724.9 2204,-2204 649.7,-323.9 1286,-484.9 2020.1,-511.7 795.4,-30.7 1558.2,130.3 2280.7,479.1 525.1,253 879.7,502.1 1291.8,902.7 446.6,435.1 718.7,808.8 988.9,1360.8 88.2,180.1 191.7,415.9 230,527.1 435.1,1266.8 354.6,2602.7 -228.1,3785.2 -260.6,525.1 -513.6,881.6 -918,1291.8 -764.7,772.4 -1692.3,1240 -2792.5,1410.6 -241.4,36.3 -914.1,53.6 -1159.4,26.7 z M 5298,3246 c 966,-101.6 1805.4,-613.3 2326.7,-1418.3 375.6,-578.8 559.6,-1295.6 498.3,-1945.3 -28.7,-308.6 -65.2,-483 -157.2,-759 -308.6,-927.6 -1044.5,-1663.6 -1972.1,-1972.1 -276,-92 -450.4,-128.4 -759,-157.2 -649.7,-61.3 -1366.5,122.7 -1945.3,498.3 -1420.2,920 -1855.2,2798.2 -983.2,4245.2 621,1035 1807.3,1633 2991.8,1508.4 z"
             id="path113" />
          <path
             d="m 4818.8,2807.1 c -159.1,-101.6 -322,-345 -456.1,-682.3 -65.2,-162.9 -210.8,-707.2 -210.8,-785.8 v -47.9 h 845.2 845.2 l -13.4,92 c -24.9,168.7 -139.9,590.3 -208.9,759 -239.6,596 -529,837.5 -801.2,665 z"
             id="path115" />
          <path
             d="M 4082.9,2711.3 C 3517.5,2512 3002,2101.8 2672.3,1588.2 c -51.7,-82.4 -149.5,-268.3 -149.5,-287.5 0,-5.8 274.1,-7.7 607.6,-5.8 l 607.5,5.8 17.2,86.2 c 93.9,502.1 270.2,1019.6 444.6,1299.4 26.8,44.1 47.9,80.5 44.1,80.5 -3.8,0.1 -74.7,-24.8 -160.9,-55.5 z"
             id="path117" />
          <path
             d="m 5790.5,2684.5 c 147.6,-235.7 318.1,-705.3 402.5,-1105.9 28.8,-132.2 53.7,-251.1 59.4,-262.6 5.8,-19.2 143.8,-24.9 611.4,-24.9 331.6,0 603.7,5.8 603.7,11.5 0,40.3 -164.8,314.3 -279.8,467.6 -343.1,456.1 -827.9,799.2 -1364.6,969.8 l -82.4,24.9 z"
             id="path119" />
          <path
             d="M 2352.2,863.7 C 2289,700.8 2264,484.2 2264,122 c 0,-362.2 24.9,-576.9 86.2,-737.9 l 19.2,-47.9 h 661.2 663.1 l -15.3,178.2 c -19.2,226.2 -19.2,964 0,1207.4 l 13.4,185.9 h -661.2 -661.2 z"
             id="path121" />
          <path
             d="m 4088.6,865.6 c -7.7,-24.9 -21.1,-201.2 -34.5,-392.9 -17.2,-270.2 -17.2,-431.2 0,-699.5 13.4,-193.6 26.8,-369.9 34.5,-392.9 l 9.6,-44.1 h 896.9 897 l 9.6,44.1 c 36.4,138 55.6,760.9 34.5,1090.5 -13.4,193.6 -26.8,369.9 -34.5,394.8 l -9.6,42.2 h -897 -896.9 z"
             id="path123" />
          <path
             d="m 6311.8,721.9 c 9.6,-103.5 15.3,-373.7 15.3,-599.9 0,-226.1 -5.7,-496.4 -15.3,-598 l -13.4,-187.8 h 661.2 661.2 l 17.3,44.1 c 63.3,162.9 88.2,379.5 88.2,741.7 0,362.2 -24.9,578.8 -88.2,741.7 l -17.3,44.1 h -661.2 -661.2 z"
             id="path125" />
          <path
             d="m 2522.8,-1056.7 c 0,-30.7 115,-230 218.5,-381.4 245.3,-362.2 607.6,-678.4 998.5,-877.8 222.3,-111.2 460,-203.1 479.1,-185.9 5.7,7.7 -19.2,63.2 -57.5,126.5 -141.8,239.6 -285.6,659.3 -379.5,1107.8 l -44.1,210.8 -607.5,5.7 c -333.5,2 -607.5,0.1 -607.5,-5.7 z"
             id="path127" />
          <path
             d="m 4161.4,-1137.2 c 23,-161 138,-584.6 201.2,-743.6 185.9,-471.5 415.9,-737.9 632.5,-737.9 216.6,0 446.6,266.4 632.5,737.9 63.3,159.1 178.3,582.6 201.2,743.6 l 13.4,90.1 H 4995.1 4148 Z"
             id="path129" />
          <path
             d="m 6252.4,-1070.1 c -5.7,-13.4 -30.7,-132.3 -59.4,-264.5 -84.3,-400.6 -254.9,-870.1 -400.5,-1105.9 l -49.8,-78.6 82.4,24.9 c 203.1,63.2 463.8,184 634.4,293.2 300.9,191.7 597.9,479.1 795.4,768.5 97.7,145.7 212.7,346.9 212.7,375.7 0,5.7 -272.1,9.6 -603.7,9.6 -467.8,0.1 -605.7,-5.6 -611.5,-22.9 z"
             id="path131" />
        </g>
      </g>
      <text
         id="text157"
         y="-112.01223"
         x="118.99963"
         style="font-style:normal;font-variant:normal;font-weight:normal;font-stretch:normal;font-size:40px;line-height:1.25;font-family:'Noto Sans';-inkscape-font-specification:'Noto Sans';letter-spacing:0px;word-spacing:0px;fill:#000000;fill-opacity:1;stroke:none"
         xml:space="preserve"><tspan
           y="-112.01223"
           x="118.99963"
           id="tspan155">@unixmib</tspan></text>
      <text
         xml:space="preserve"
         style="font-style:normal;font-variant:normal;font-weight:normal;font-stretch:normal;font-size:40px;line-height:1.25;font-family:'Noto Sans';-inkscape-font-specification:'Noto Sans';letter-spacing:0px;word-spacing:0px;fill:#000000;fill-opacity:1;stroke:none"
         x="120.8372"
         y="-49.319317"
         id="text3864"><tspan
           id="tspan3862"
           x="120.8372"
           y="-49.319317">unixMiB</tspan></text>
      <text
         id="text3868"
         y="10.508217"
         x="119.49505"
         style="font-style:normal;font-variant:normal;font-weight:normal;font-stretch:normal;font-size:40px;line-height:1.25;font-family:'Noto Sans';-inkscape-font-specification:'Noto Sans';letter-spacing:0px;word-spacing:0px;fill:#000000;fill-opacity:1;stroke:none"
         xml:space="preserve"><tspan
           y="10.508217"
           x="119.49505"
           id="tspan3866">unixmib.github.io</tspan></text>
      <text
         xml:space="preserve"
         style="font-style:normal;font-variant:normal;font-weight:normal;font-stretch:normal;font-size:40px;line-height:1.25;font-family:'Noto Sans';-inkscape-font-specification:'Noto Sans';letter-spacing:0px;word-spacing:0px;fill:#000000;fill-opacity:1;stroke:none"
         x="116.45504"
         y="73.203331"
         id="text3872"><tspan
           id="tspan3870"
           x="116.45504"
           y="73.203331">github.com/unixmib</tspan></text>
      <g
         id="g3878"
         transform="matrix(1.1811024,0,0,1.1811024,445.9226,193.92593)" />
    </g>
  </g>
</svg>
