<?xml version="1.0" encoding="UTF-8" standalone="no"?><!DOCTYPE svg PUBLIC "-//W3C//DTD SVG 1.1//EN" "http://www.w3.org/Graphics/SVG/1.1/DTD/svg11.dtd"><svg width="100%" height="100%" viewBox="0 0 56 13" version="1.1" xmlns="http://www.w3.org/2000/svg" xmlns:xlink="http://www.w3.org/1999/xlink" xml:space="preserve" xmlns:serif="http://www.serif.com/" style="fill-rule:evenodd;clip-rule:evenodd;stroke-linejoin:round;stroke-miterlimit:1.41421;"><rect id="Tavola-da-disegno1" serif:id="Tavola da disegno1" x="0" y="0" width="55.44" height="12.48" style="fill:none;"/><g transform="matrix(0.275686,0,0,0.275686,-23.0186,-44.5473)"><path d="M108.691,197.527c0,0.733 0.11,1.323 0.33,1.77c0.22,0.448 0.517,0.786 0.891,1.014c0.374,0.227 0.81,0.378 1.306,0.451c0.497,0.074 1.021,0.11 1.575,0.11l0.146,0l0,2.1l-7.934,0l-0.659,-4.053l-0.245,0c-0.504,0.944 -1.062,1.709 -1.672,2.295c-0.61,0.586 -1.257,1.046 -1.941,1.379c-0.683,0.334 -1.4,0.562 -2.148,0.684c-0.749,0.122 -1.53,0.183 -2.344,0.183c-1.318,0 -2.49,-0.187 -3.516,-0.561c-1.025,-0.375 -1.888,-0.961 -2.588,-1.758c-0.699,-0.798 -1.232,-1.815 -1.599,-3.052c-0.366,-1.237 -0.549,-2.71 -0.549,-4.419l0,-11.987c0,-0.733 -0.11,-1.323 -0.33,-1.77c-0.219,-0.448 -0.516,-0.794 -0.891,-1.038c-0.374,-0.244 -0.809,-0.407 -1.306,-0.488c-0.496,-0.082 -1.021,-0.122 -1.575,-0.122l-0.146,0l0,-2.1l8.96,0l0,17.261c0,1.09 0.085,2.059 0.256,2.905c0.171,0.846 0.456,1.563 0.855,2.149c0.399,0.586 0.936,1.029 1.611,1.33c0.676,0.301 1.518,0.452 2.527,0.452c1.107,0 2.055,-0.196 2.844,-0.586c0.79,-0.391 1.441,-0.94 1.953,-1.648c0.513,-0.708 0.891,-1.559 1.136,-2.551c0.244,-0.993 0.366,-2.092 0.366,-3.296l0,-10.303c0,-0.781 -0.11,-1.412 -0.33,-1.892c-0.219,-0.48 -0.512,-0.846 -0.879,-1.099c-0.366,-0.252 -0.797,-0.419 -1.294,-0.5c-0.496,-0.082 -1.029,-0.122 -1.599,-0.122l-0.146,0l0,-2.1l8.935,0l0,21.362Z" style="fill-rule:nonzero;"/><path d="M128.931,200.872l0,2.1l-13.453,0l0,-2.1l0.415,0c0.57,0 1.103,-0.041 1.6,-0.122c0.496,-0.081 0.927,-0.248 1.294,-0.5c0.366,-0.253 0.659,-0.615 0.878,-1.087c0.22,-0.472 0.33,-1.098 0.33,-1.88l0,-15.6c0,-0.733 -0.11,-1.323 -0.33,-1.77c-0.219,-0.448 -0.516,-0.794 -0.891,-1.038c-0.374,-0.244 -0.809,-0.407 -1.306,-0.488c-0.496,-0.082 -1.021,-0.122 -1.575,-0.122l-0.146,0l0,-2.1l8.081,0l0.659,4.053l0.244,0c0.521,-0.928 1.071,-1.689 1.648,-2.283c0.578,-0.594 1.188,-1.058 1.831,-1.391c0.643,-0.334 1.327,-0.562 2.051,-0.684c0.724,-0.122 1.485,-0.183 2.283,-0.183c1.318,0 2.494,0.191 3.528,0.574c1.033,0.382 1.912,0.968 2.636,1.757c0.725,0.79 1.278,1.803 1.661,3.04c0.382,1.237 0.573,2.71 0.573,4.419l0,11.816c0,0.782 0.094,1.408 0.281,1.88c0.187,0.472 0.452,0.834 0.794,1.087c0.341,0.252 0.748,0.419 1.22,0.5c0.472,0.081 0.985,0.122 1.538,0.122l0.171,0l0,2.1l-8.716,0l0,-17.261c0,-1.09 -0.097,-2.059 -0.293,-2.905c-0.195,-0.847 -0.508,-1.563 -0.94,-2.149c-0.431,-0.586 -0.996,-1.029 -1.696,-1.33c-0.7,-0.301 -1.555,-0.452 -2.564,-0.452c-1.139,0 -2.095,0.22 -2.868,0.659c-0.774,0.44 -1.396,1.034 -1.868,1.782c-0.472,0.749 -0.81,1.612 -1.013,2.588c-0.204,0.977 -0.305,2.002 -0.305,3.077l0,10.546c0,0.733 0.109,1.323 0.329,1.77c0.22,0.448 0.517,0.786 0.891,1.014c0.375,0.227 0.81,0.378 1.306,0.451c0.497,0.074 1.022,0.11 1.575,0.11l0.147,0Z" style="fill-rule:nonzero;"/><path d="M148.144,200.872c0.554,0 1.079,-0.036 1.575,-0.11c0.497,-0.073 0.932,-0.224 1.306,-0.451c0.375,-0.228 0.672,-0.566 0.891,-1.014c0.22,-0.447 0.33,-1.037 0.33,-1.77l0,-15.844c0,-0.733 -0.11,-1.323 -0.33,-1.77c-0.219,-0.448 -0.516,-0.794 -0.891,-1.038c-0.374,-0.244 -0.809,-0.407 -1.306,-0.488c-0.496,-0.082 -1.021,-0.122 -1.575,-0.122l-0.146,0l0,-2.1l8.936,0l0,21.118c0,0.782 0.109,1.408 0.329,1.88c0.22,0.472 0.513,0.834 0.879,1.087c0.366,0.252 0.802,0.419 1.306,0.5c0.505,0.081 1.034,0.122 1.587,0.122l0.659,0l0,2.1l-14.209,0l0,-2.1l0.659,0Zm3.394,-32.812c0,-0.586 0.073,-1.075 0.22,-1.465c0.146,-0.391 0.35,-0.708 0.61,-0.952c0.26,-0.244 0.562,-0.415 0.903,-0.513c0.342,-0.098 0.717,-0.147 1.123,-0.147c0.391,0 0.757,0.049 1.099,0.147c0.342,0.098 0.639,0.269 0.891,0.513c0.252,0.244 0.456,0.561 0.611,0.952c0.154,0.39 0.231,0.879 0.231,1.465c0,0.586 -0.077,1.074 -0.231,1.464c-0.155,0.391 -0.359,0.709 -0.611,0.953c-0.252,0.244 -0.549,0.419 -0.891,0.525c-0.342,0.105 -0.708,0.158 -1.099,0.158c-0.406,0 -0.781,-0.053 -1.123,-0.158c-0.341,-0.106 -0.643,-0.281 -0.903,-0.525c-0.26,-0.244 -0.464,-0.562 -0.61,-0.953c-0.147,-0.39 -0.22,-0.878 -0.22,-1.464Z" style="fill-rule:nonzero;"/><path d="M181.518,179.73c0,-0.603 -0.256,-0.997 -0.769,-1.185c-0.512,-0.187 -1.151,-0.28 -1.916,-0.28l-0.147,0l0,-2.1l10.938,0l0,2.1l-0.44,0c-0.488,0 -0.931,0.04 -1.33,0.122c-0.399,0.081 -0.789,0.236 -1.172,0.464c-0.382,0.228 -0.777,0.553 -1.184,0.976c-0.407,0.423 -0.863,0.969 -1.367,1.636l-5.152,6.86l7.349,9.888c0.732,0.977 1.428,1.664 2.087,2.063c0.66,0.399 1.298,0.598 1.917,0.598l0.659,0l0,2.1l-12.915,0l0,-2.1l0.244,0c2.002,0 3.003,-0.553 3.003,-1.66c0,-0.179 -0.024,-0.362 -0.073,-0.549c-0.049,-0.187 -0.147,-0.407 -0.293,-0.659c-0.147,-0.253 -0.342,-0.558 -0.586,-0.916c-0.244,-0.358 -0.562,-0.798 -0.952,-1.318l-3.345,-4.493l-3.491,4.883c-0.147,0.196 -0.301,0.423 -0.464,0.684c-0.163,0.26 -0.309,0.529 -0.439,0.805c-0.131,0.277 -0.236,0.558 -0.318,0.843c-0.081,0.285 -0.122,0.557 -0.122,0.818c0,0.569 0.236,0.972 0.708,1.208c0.472,0.236 1.27,0.354 2.393,0.354l0.146,0l0,2.1l-11.914,0l0,-2.1l0.464,0c0.602,0 1.131,-0.049 1.587,-0.146c0.456,-0.098 0.887,-0.269 1.294,-0.513c0.407,-0.244 0.814,-0.574 1.221,-0.989c0.406,-0.415 0.854,-0.932 1.342,-1.55l6.299,-8.154l-6.299,-8.594c-0.732,-0.863 -1.444,-1.522 -2.136,-1.978c-0.692,-0.455 -1.412,-0.683 -2.161,-0.683l-0.659,0l0,-2.1l12.696,0l0,2.1l-0.147,0c-0.57,0 -1.042,0.036 -1.416,0.11c-0.374,0.073 -0.667,0.179 -0.879,0.317c-0.211,0.138 -0.358,0.297 -0.439,0.476c-0.082,0.179 -0.122,0.366 -0.122,0.562c0,0.341 0.101,0.679 0.305,1.013c0.203,0.333 0.492,0.761 0.867,1.281l3.295,4.493l2.588,-3.736c0.375,-0.569 0.676,-1.106 0.904,-1.611c0.228,-0.505 0.341,-0.985 0.341,-1.44Z" style="fill-rule:nonzero;"/><path d="M210.84,202.972l-8.594,-28.003l-0.22,0c0.31,5.696 0.464,9.497 0.464,11.401l0,16.602l-6.763,0l0,-35.694l10.303,0l8.447,27.295l0.147,0l8.96,-27.295l10.303,0l0,35.694l-7.056,0l0,-16.895c0,-0.797 0.012,-1.717 0.037,-2.759c0.024,-1.041 0.134,-3.808 0.329,-8.3l-0.22,0l-9.204,27.954l-6.933,0Z" style="fill:#00c102;fill-rule:nonzero;"/><path d="M241.968,168.621c0,-2.425 1.351,-3.638 4.052,-3.638c2.702,0 4.053,1.213 4.053,3.638c0,1.156 -0.338,2.055 -1.013,2.698c-0.675,0.643 -1.689,0.964 -3.04,0.964c-2.701,0 -4.052,-1.22 -4.052,-3.662Zm7.763,34.351l-7.446,0l0,-27.295l7.446,0l0,27.295Z" style="fill:#00c102;fill-rule:nonzero;"/><path d="M258.13,167.278l11.108,0c5.062,0 8.736,0.721 11.023,2.161c2.287,1.44 3.43,3.731 3.43,6.873c0,2.132 -0.5,3.881 -1.501,5.249c-1.001,1.367 -2.332,2.189 -3.992,2.465l0,0.245c2.263,0.504 3.894,1.448 4.895,2.832c1.001,1.383 1.502,3.222 1.502,5.517c0,3.255 -1.176,5.794 -3.528,7.617c-2.352,1.823 -5.546,2.735 -9.583,2.735l-13.354,0l0,-35.694Zm7.568,14.136l4.395,0c2.05,0 3.536,-0.317 4.455,-0.952c0.92,-0.635 1.38,-1.685 1.38,-3.149c0,-1.368 -0.501,-2.348 -1.502,-2.942c-1.001,-0.594 -2.584,-0.891 -4.748,-0.891l-3.98,0l0,7.934Zm0,6.006l0,9.302l4.932,0c2.083,0 3.621,-0.399 4.614,-1.197c0.993,-0.797 1.489,-2.018 1.489,-3.662c0,-2.962 -2.116,-4.443 -6.347,-4.443l-4.688,0Z" style="fill:#00c102;fill-rule:nonzero;"/></g></svg>