<?xml version="1.0" encoding="UTF-8" standalone="no"?>
<!DOCTYPE svg PUBLIC "-//W3C//DTD SVG 1.1//EN" "http://www.w3.org/Graphics/SVG/1.1/DTD/svg11.dtd">
<svg width="100%" height="100%" viewBox="0 0 473 473" version="1.1" xmlns="http://www.w3.org/2000/svg" xmlns:xlink="http://www.w3.org/1999/xlink" xml:space="preserve" xmlns:serif="http://www.serif.com/" style="fill-rule:evenodd;clip-rule:evenodd;stroke-miterlimit:10;">
    <g id="Background" transform="matrix(1.69943,0,0,1.88976,-1351.05,-428.976)">
        <ellipse cx="934" cy="352" rx="139" ry="125" style="fill:white;"/>
        <path d="M934.449,227.001L934.898,227.003L935.347,227.006L935.795,227.01L936.243,227.016L936.691,227.023L937.138,227.031L937.585,227.041L938.032,227.052L938.478,227.064L938.924,227.077L939.37,227.092L939.815,227.108L940.26,227.125L940.704,227.143L941.148,227.163L941.592,227.184L942.036,227.206L942.479,227.229L942.921,227.254L943.364,227.28L943.805,227.307L944.247,227.335L944.688,227.365L945.129,227.396L945.569,227.428L946.009,227.461L946.449,227.495L946.888,227.531L947.327,227.568L947.765,227.606L948.203,227.646L948.641,227.687L949.078,227.728L949.515,227.771L949.952,227.816L950.388,227.861L950.823,227.908L951.258,227.956L951.693,228.005L952.128,228.055L952.562,228.107L952.995,228.16L953.428,228.214L953.861,228.269L954.293,228.325L954.725,228.383L955.156,228.441L955.587,228.501L956.018,228.562L956.448,228.625L956.878,228.688L957.307,228.753L957.736,228.819L958.164,228.886L958.592,228.954L959.019,229.023L959.446,229.094L959.873,229.165L960.299,229.238L960.725,229.312L961.15,229.388L961.574,229.464L961.999,229.541L962.422,229.62L962.846,229.7L963.268,229.781L963.691,229.863L964.113,229.946L964.534,230.031L964.955,230.116L965.375,230.203L965.795,230.291L966.215,230.38L966.634,230.47L967.052,230.562L967.47,230.654L967.888,230.748L968.305,230.842L968.721,230.938L969.137,231.035L969.553,231.133L969.968,231.232L970.382,231.333L970.796,231.434L971.209,231.537L971.622,231.641L972.035,231.745L972.447,231.851L972.858,231.958L973.269,232.066L973.679,232.176L974.089,232.286L974.498,232.397L974.907,232.51L975.315,232.624L975.723,232.738L976.13,232.854L976.537,232.971L976.943,233.089L977.348,233.208L977.753,233.329L978.158,233.45L978.561,233.572L978.965,233.696L979.368,233.82L979.77,233.946L980.171,234.073L980.572,234.2L980.973,234.329L981.373,234.459L981.772,234.59L982.171,234.722L982.569,234.855L982.967,234.989L983.364,235.125L983.761,235.261L984.157,235.398L984.552,235.537L984.947,235.676L985.341,235.817L985.734,235.958L986.127,236.101L986.52,236.245L986.912,236.389L987.303,236.535L987.693,236.682L988.083,236.83L988.473,236.978L988.862,237.128L989.25,237.279L989.637,237.431L990.024,237.584L990.411,237.738L990.796,237.893L991.181,238.049L991.566,238.206L991.95,238.364L992.333,238.524L992.716,238.684L993.098,238.845L993.479,239.007L993.86,239.17L994.24,239.334L994.619,239.499L994.998,239.666L995.376,239.833L995.754,240.001L996.131,240.17L996.507,240.34L996.882,240.511L997.257,240.684L997.632,240.857L998.005,241.031L998.378,241.206L998.75,241.382L999.122,241.559L999.493,241.737L999.863,241.916L1000.23,242.096L1000.6,242.277L1000.97,242.459L1001.34,242.642L1001.71,242.826L1002.07,243.011L1002.44,243.197L1002.8,243.383L1003.17,243.571L1003.53,243.76L1003.89,243.949L1004.25,244.14L1004.62,244.332L1004.98,244.524L1005.34,244.718L1005.7,244.912L1006.05,245.107L1006.41,245.304L1006.77,245.501L1007.13,245.699L1007.48,245.898L1007.84,246.098L1008.19,246.299L1008.54,246.501L1008.9,246.704L1009.25,246.908L1009.6,247.113L1009.95,247.318L1010.3,247.525L1010.65,247.732L1011,247.941L1011.35,248.15L1011.69,248.36L1012.04,248.571L1012.38,248.783L1012.73,248.996L1013.07,249.21L1013.42,249.425L1013.76,249.641L1014.1,249.857L1014.44,250.075L1014.78,250.293L1015.12,250.512L1015.46,250.733L1015.8,250.954L1016.14,251.176L1016.47,251.398L1016.81,251.622L1017.14,251.847L1017.48,252.072L1017.81,252.298L1018.14,252.526L1018.48,252.754L1018.81,252.983L1019.14,253.213L1019.47,253.443L1019.8,253.675L1020.12,253.907L1020.45,254.141L1020.78,254.375L1021.1,254.61L1021.43,254.846L1021.75,255.083L1022.07,255.32L1022.4,255.559L1022.72,255.798L1023.04,256.038L1023.36,256.279L1023.68,256.521L1024,256.764L1024.31,257.008L1024.63,257.252L1024.94,257.497L1025.26,257.743L1025.57,257.99L1025.89,258.238L1026.2,258.486L1026.51,258.736L1026.82,258.986L1027.13,259.237L1027.44,259.489L1027.75,259.742L1028.06,259.995L1028.36,260.249L1028.67,260.505L1028.97,260.761L1029.28,261.017L1029.58,261.275L1029.88,261.533L1030.18,261.792L1030.48,262.052L1030.78,262.313L1031.08,262.575L1031.38,262.837L1031.68,263.1L1031.97,263.364L1032.27,263.629L1032.56,263.895L1032.86,264.161L1033.15,264.428L1033.44,264.696L1033.73,264.965L1034.02,265.234L1034.31,265.504L1034.6,265.775L1034.89,266.047L1035.17,266.32L1035.46,266.593L1035.74,266.867L1036.03,267.142L1036.31,267.418L1036.59,267.694L1036.87,267.971L1037.15,268.249L1037.43,268.528L1037.71,268.807L1037.99,269.087L1038.26,269.368L1038.54,269.65L1038.81,269.932L1039.09,270.216L1039.36,270.5L1039.63,270.784L1039.9,271.07L1040.17,271.356L1040.44,271.643L1040.71,271.93L1040.98,272.219L1041.24,272.508L1041.51,272.797L1041.77,273.088L1042.04,273.379L1042.3,273.671L1042.56,273.964L1042.82,274.257L1043.08,274.551L1043.34,274.846L1043.6,275.142L1043.85,275.438L1044.11,275.735L1044.36,276.033L1044.62,276.331L1044.87,276.63L1045.12,276.93L1045.37,277.23L1045.62,277.532L1045.87,277.833L1046.12,278.136L1046.36,278.439L1046.61,278.743L1046.85,279.048L1047.1,279.353L1047.34,279.659L1047.58,279.966L1047.82,280.273L1048.06,280.581L1048.3,280.89L1048.54,281.199L1048.78,281.509L1049.01,281.82L1049.25,282.132L1049.48,282.444L1049.71,282.756L1049.95,283.07L1050.18,283.384L1050.41,283.699L1050.63,284.014L1050.86,284.33L1051.09,284.647L1051.32,284.964L1051.54,285.282L1051.76,285.601L1051.99,285.92L1052.21,286.24L1052.43,286.56L1052.65,286.882L1052.87,287.203L1053.08,287.526L1053.3,287.849L1053.51,288.173L1053.73,288.497L1053.94,288.822L1054.15,289.148L1054.36,289.474L1054.57,289.801L1054.78,290.128L1054.99,290.457L1055.2,290.785L1055.4,291.115L1055.61,291.445L1055.81,291.775L1056.01,292.106L1056.21,292.438L1056.41,292.77L1056.61,293.103L1056.81,293.437L1057.01,293.771L1057.2,294.106L1057.4,294.441L1057.59,294.777L1057.78,295.114L1057.97,295.451L1058.17,295.789L1058.36,296.127L1058.54,296.466L1058.73,296.806L1058.92,297.146L1059.1,297.486L1059.28,297.827L1059.47,298.169L1059.65,298.512L1059.83,298.855L1060.01,299.198L1060.19,299.542L1060.36,299.887L1060.54,300.232L1060.71,300.578L1060.89,300.924L1061.06,301.271L1061.23,301.618L1061.4,301.966L1061.57,302.315L1061.74,302.664L1061.9,303.014L1062.07,303.364L1062.23,303.715L1062.4,304.066L1062.56,304.418L1062.72,304.77L1062.88,305.123L1063.04,305.476L1063.2,305.83L1063.35,306.185L1063.51,306.54L1063.66,306.895L1063.81,307.251L1063.96,307.608L1064.12,307.965L1064.27,308.323L1064.41,308.681L1064.56,309.039L1064.7,309.398L1064.85,309.758L1064.99,310.118L1065.13,310.479L1065.28,310.84L1065.42,311.202L1065.55,311.564L1065.69,311.927L1065.83,312.29L1065.96,312.654L1066.1,313.018L1066.23,313.382L1066.36,313.748L1066.49,314.113L1066.62,314.479L1066.75,314.846L1066.87,315.213L1067,315.581L1067.12,315.949L1067.25,316.317L1067.37,316.686L1067.49,317.056L1067.61,317.426L1067.72,317.796L1067.84,318.167L1067.95,318.538L1068.07,318.91L1068.18,319.282L1068.29,319.655L1068.4,320.028L1068.51,320.402L1068.62,320.776L1068.73,321.151L1068.83,321.526L1068.94,321.901L1069.04,322.277L1069.14,322.653L1069.24,323.03L1069.34,323.407L1069.44,323.785L1069.53,324.163L1069.63,324.541L1069.72,324.92L1069.82,325.3L1069.91,325.679L1070,326.06L1070.09,326.44L1070.17,326.821L1070.26,327.203L1070.35,327.585L1070.43,327.967L1070.51,328.35L1070.59,328.733L1070.67,329.117L1070.75,329.501L1070.83,329.885L1070.9,330.27L1070.98,330.655L1071.05,331.041L1071.12,331.427L1071.19,331.813L1071.26,332.2L1071.33,332.587L1071.4,332.974L1071.46,333.362L1071.53,333.751L1071.59,334.139L1071.65,334.529L1071.71,334.918L1071.77,335.308L1071.83,335.698L1071.88,336.089L1071.94,336.48L1071.99,336.871L1072.04,337.263L1072.09,337.655L1072.14,338.047L1072.19,338.44L1072.24,338.834L1072.28,339.227L1072.33,339.621L1072.37,340.015L1072.41,340.41L1072.45,340.805L1072.49,341.2L1072.52,341.596L1072.56,341.992L1072.59,342.388L1072.63,342.785L1072.66,343.182L1072.69,343.58L1072.72,343.977L1072.75,344.375L1072.77,344.774L1072.8,345.173L1072.82,345.572L1072.84,345.971L1072.86,346.371L1072.88,346.771L1072.9,347.171L1072.91,347.572L1072.93,347.973L1072.94,348.374L1072.95,348.776L1072.96,349.178L1072.97,349.58L1072.98,349.983L1072.99,350.385L1072.99,350.789L1073,351.192L1073,351.596L1073,352L1073,352.404L1073,352.808L1072.99,353.211L1072.99,353.615L1072.98,354.017L1072.97,354.42L1072.96,354.822L1072.95,355.224L1072.94,355.626L1072.93,356.027L1072.91,356.428L1072.9,356.829L1072.88,357.229L1072.86,357.629L1072.84,358.029L1072.82,358.428L1072.8,358.827L1072.77,359.226L1072.75,359.625L1072.72,360.023L1072.69,360.42L1072.66,360.818L1072.63,361.215L1072.59,361.612L1072.56,362.008L1072.52,362.404L1072.49,362.8L1072.45,363.195L1072.41,363.59L1072.37,363.985L1072.33,364.379L1072.28,364.773L1072.24,365.166L1072.19,365.56L1072.14,365.953L1072.09,366.345L1072.04,366.737L1071.99,367.129L1071.94,367.52L1071.88,367.911L1071.83,368.302L1071.77,368.692L1071.71,369.082L1071.65,369.471L1071.59,369.861L1071.53,370.249L1071.46,370.638L1071.4,371.026L1071.33,371.413L1071.26,371.8L1071.19,372.187L1071.12,372.573L1071.05,372.959L1070.98,373.345L1070.9,373.73L1070.83,374.115L1070.75,374.499L1070.67,374.883L1070.59,375.267L1070.51,375.65L1070.43,376.033L1070.35,376.415L1070.26,376.797L1070.17,377.179L1070.09,377.56L1070,377.94L1069.91,378.321L1069.82,378.7L1069.72,379.08L1069.63,379.459L1069.53,379.837L1069.44,380.215L1069.34,380.593L1069.24,380.97L1069.14,381.347L1069.04,381.723L1068.94,382.099L1068.83,382.474L1068.73,382.849L1068.62,383.224L1068.51,383.598L1068.4,383.972L1068.29,384.345L1068.18,384.718L1068.07,385.09L1067.95,385.462L1067.84,385.833L1067.72,386.204L1067.61,386.574L1067.49,386.944L1067.37,387.314L1067.25,387.683L1067.12,388.051L1067,388.419L1066.87,388.787L1066.75,389.154L1066.62,389.521L1066.49,389.887L1066.36,390.252L1066.23,390.618L1066.1,390.982L1065.96,391.346L1065.83,391.71L1065.69,392.073L1065.55,392.436L1065.42,392.798L1065.28,393.16L1065.13,393.521L1064.99,393.882L1064.85,394.242L1064.7,394.602L1064.56,394.961L1064.41,395.319L1064.27,395.677L1064.12,396.035L1063.96,396.392L1063.81,396.749L1063.66,397.105L1063.51,397.46L1063.35,397.815L1063.2,398.17L1063.04,398.524L1062.88,398.877L1062.72,399.23L1062.56,399.582L1062.4,399.934L1062.23,400.285L1062.07,400.636L1061.9,400.986L1061.74,401.336L1061.57,401.685L1061.4,402.034L1061.23,402.382L1061.06,402.729L1060.89,403.076L1060.71,403.422L1060.54,403.768L1060.36,404.113L1060.19,404.458L1060.01,404.802L1059.83,405.145L1059.65,405.488L1059.47,405.831L1059.28,406.173L1059.1,406.514L1058.92,406.854L1058.73,407.194L1058.54,407.534L1058.36,407.873L1058.17,408.211L1057.97,408.549L1057.78,408.886L1057.59,409.223L1057.4,409.559L1057.2,409.894L1057.01,410.229L1056.81,410.563L1056.61,410.897L1056.41,411.23L1056.21,411.562L1056.01,411.894L1055.81,412.225L1055.61,412.555L1055.4,412.885L1055.2,413.215L1054.99,413.543L1054.78,413.872L1054.57,414.199L1054.36,414.526L1054.15,414.852L1053.94,415.178L1053.73,415.503L1053.51,415.827L1053.3,416.151L1053.08,416.474L1052.87,416.797L1052.65,417.118L1052.43,417.44L1052.21,417.76L1051.99,418.08L1051.76,418.399L1051.54,418.718L1051.32,419.036L1051.09,419.353L1050.86,419.67L1050.63,419.986L1050.41,420.301L1050.18,420.616L1049.95,420.93L1049.71,421.244L1049.48,421.556L1049.25,421.868L1049.01,422.18L1048.78,422.491L1048.54,422.801L1048.3,423.11L1048.06,423.419L1047.82,423.727L1047.58,424.034L1047.34,424.341L1047.1,424.647L1046.85,424.952L1046.61,425.257L1046.36,425.561L1046.12,425.864L1045.87,426.167L1045.62,426.468L1045.37,426.77L1045.12,427.07L1044.87,427.37L1044.62,427.669L1044.36,427.967L1044.11,428.265L1043.85,428.562L1043.6,428.858L1043.34,429.154L1043.08,429.449L1042.82,429.743L1042.56,430.036L1042.3,430.329L1042.04,430.621L1041.77,430.912L1041.51,431.203L1041.24,431.492L1040.98,431.781L1040.71,432.07L1040.44,432.357L1040.17,432.644L1039.9,432.93L1039.63,433.216L1039.36,433.5L1039.09,433.784L1038.81,434.068L1038.54,434.35L1038.26,434.632L1037.99,434.913L1037.71,435.193L1037.43,435.472L1037.15,435.751L1036.87,436.029L1036.59,436.306L1036.31,436.582L1036.03,436.858L1035.74,437.133L1035.46,437.407L1035.17,437.68L1034.89,437.953L1034.6,438.225L1034.31,438.496L1034.02,438.766L1033.73,439.035L1033.44,439.304L1033.15,439.572L1032.86,439.839L1032.56,440.105L1032.27,440.371L1031.97,440.636L1031.68,440.9L1031.38,441.163L1031.08,441.425L1030.78,441.687L1030.48,441.948L1030.18,442.208L1029.88,442.467L1029.58,442.725L1029.28,442.983L1028.97,443.239L1028.67,443.495L1028.36,443.751L1028.06,444.005L1027.75,444.258L1027.44,444.511L1027.13,444.763L1026.82,445.014L1026.51,445.264L1026.2,445.514L1025.89,445.762L1025.57,446.01L1025.26,446.257L1024.94,446.503L1024.63,446.748L1024.31,446.992L1024,447.236L1023.68,447.479L1023.36,447.721L1023.04,447.962L1022.72,448.202L1022.4,448.441L1022.07,448.68L1021.75,448.917L1021.43,449.154L1021.1,449.39L1020.78,449.625L1020.45,449.859L1020.12,450.093L1019.8,450.325L1019.47,450.557L1019.14,450.787L1018.81,451.017L1018.48,451.246L1018.14,451.474L1017.81,451.702L1017.48,451.928L1017.14,452.153L1016.81,452.378L1016.47,452.602L1016.14,452.824L1015.8,453.046L1015.46,453.267L1015.12,453.488L1014.78,453.707L1014.44,453.925L1014.1,454.143L1013.76,454.359L1013.42,454.575L1013.07,454.79L1012.73,455.004L1012.38,455.217L1012.04,455.429L1011.69,455.64L1011.35,455.85L1011,456.059L1010.65,456.268L1010.3,456.475L1009.95,456.682L1009.6,456.887L1009.25,457.092L1008.9,457.296L1008.54,457.499L1008.19,457.701L1007.84,457.902L1007.48,458.102L1007.13,458.301L1006.77,458.499L1006.41,458.696L1006.05,458.893L1005.7,459.088L1005.34,459.282L1004.98,459.476L1004.62,459.668L1004.25,459.86L1003.89,460.051L1003.53,460.24L1003.17,460.429L1002.8,460.617L1002.44,460.803L1002.07,460.989L1001.71,461.174L1001.34,461.358L1000.97,461.541L1000.6,461.723L1000.23,461.904L999.863,462.084L999.493,462.263L999.122,462.441L998.75,462.618L998.378,462.794L998.005,462.969L997.632,463.143L997.257,463.316L996.882,463.489L996.507,463.66L996.131,463.83L995.754,463.999L995.376,464.167L994.998,464.334L994.619,464.501L994.24,464.666L993.86,464.83L993.479,464.993L993.098,465.155L992.716,465.316L992.333,465.476L991.95,465.636L991.566,465.794L991.181,465.951L990.796,466.107L990.411,466.262L990.024,466.416L989.637,466.569L989.25,466.721L988.862,466.872L988.473,467.022L988.083,467.17L987.693,467.318L987.303,467.465L986.912,467.611L986.52,467.755L986.127,467.899L985.734,468.042L985.341,468.183L984.947,468.324L984.552,468.463L984.157,468.602L983.761,468.739L983.364,468.875L982.967,469.011L982.569,469.145L982.171,469.278L981.772,469.41L981.373,469.541L980.973,469.671L980.572,469.8L980.171,469.927L979.77,470.054L979.368,470.18L978.965,470.304L978.561,470.428L978.158,470.55L977.753,470.671L977.348,470.792L976.943,470.911L976.537,471.029L976.13,471.146L975.723,471.262L975.315,471.376L974.907,471.49L974.498,471.603L974.089,471.714L973.679,471.824L973.269,471.934L972.858,472.042L972.447,472.149L972.035,472.255L971.622,472.359L971.209,472.463L970.796,472.566L970.382,472.667L969.968,472.768L969.553,472.867L969.137,472.965L968.721,473.062L968.305,473.158L967.888,473.252L967.47,473.346L967.052,473.438L966.634,473.53L966.215,473.62L965.795,473.709L965.375,473.797L964.955,473.884L964.534,473.969L964.113,474.054L963.691,474.137L963.268,474.219L962.846,474.3L962.422,474.38L961.999,474.459L961.574,474.536L961.15,474.612L960.725,474.688L960.299,474.762L959.873,474.835L959.446,474.906L959.019,474.977L958.592,475.046L958.164,475.114L957.736,475.181L957.307,475.247L956.878,475.312L956.448,475.375L956.018,475.438L955.587,475.499L955.156,475.559L954.725,475.617L954.293,475.675L953.861,475.731L953.428,475.786L952.995,475.84L952.562,475.893L952.128,475.945L951.693,475.995L951.258,476.044L950.823,476.092L950.388,476.139L949.952,476.184L949.515,476.229L949.078,476.272L948.641,476.313L948.203,476.354L947.765,476.394L947.327,476.432L946.888,476.469L946.449,476.505L946.009,476.539L945.569,476.572L945.129,476.604L944.688,476.635L944.247,476.665L943.805,476.693L943.364,476.72L942.921,476.746L942.479,476.771L942.036,476.794L941.592,476.816L941.148,476.837L940.704,476.857L940.26,476.875L939.815,476.892L939.37,476.908L938.924,476.923L938.478,476.936L938.032,476.948L937.585,476.959L937.138,476.969L936.691,476.977L936.243,476.984L935.795,476.99L935.347,476.994L934.898,476.997L934.449,476.999L934,477L933.551,476.999L933.102,476.997L932.653,476.994L932.205,476.99L931.757,476.984L931.309,476.977L930.862,476.969L930.415,476.959L929.968,476.948L929.522,476.936L929.076,476.923L928.63,476.908L928.185,476.892L927.74,476.875L927.296,476.857L926.852,476.837L926.408,476.816L925.964,476.794L925.521,476.771L925.079,476.746L924.636,476.72L924.195,476.693L923.753,476.665L923.312,476.635L922.871,476.604L922.431,476.572L921.991,476.539L921.551,476.505L921.112,476.469L920.673,476.432L920.235,476.394L919.797,476.354L919.359,476.313L918.922,476.272L918.485,476.229L918.048,476.184L917.612,476.139L917.177,476.092L916.742,476.044L916.307,475.995L915.872,475.945L915.438,475.893L915.005,475.84L914.572,475.786L914.139,475.731L913.707,475.675L913.275,475.617L912.844,475.559L912.413,475.499L911.982,475.438L911.552,475.375L911.122,475.312L910.693,475.247L910.264,475.181L909.836,475.114L909.408,475.046L908.981,474.977L908.554,474.906L908.127,474.835L907.701,474.762L907.275,474.688L906.85,474.612L906.426,474.536L906.001,474.459L905.578,474.38L905.154,474.3L904.732,474.219L904.309,474.137L903.887,474.054L903.466,473.969L903.045,473.884L902.625,473.797L902.205,473.709L901.785,473.62L901.366,473.53L900.948,473.438L900.53,473.346L900.112,473.252L899.695,473.158L899.279,473.062L898.863,472.965L898.447,472.867L898.032,472.768L897.618,472.667L897.204,472.566L896.791,472.463L896.378,472.359L895.965,472.255L895.553,472.149L895.142,472.042L894.731,471.934L894.321,471.824L893.911,471.714L893.502,471.603L893.093,471.49L892.685,471.376L892.277,471.262L891.87,471.146L891.463,471.029L891.057,470.911L890.652,470.792L890.247,470.671L889.842,470.55L889.439,470.428L889.035,470.304L888.632,470.18L888.23,470.054L887.829,469.927L887.428,469.8L887.027,469.671L886.627,469.541L886.228,469.41L885.829,469.278L885.431,469.145L885.033,469.011L884.636,468.875L884.239,468.739L883.843,468.602L883.448,468.463L883.053,468.324L882.659,468.183L882.266,468.042L881.873,467.899L881.48,467.755L881.088,467.611L880.697,467.465L880.307,467.318L879.917,467.17L879.527,467.022L879.138,466.872L878.75,466.721L878.363,466.569L877.976,466.416L877.589,466.262L877.204,466.107L876.819,465.951L876.434,465.794L876.05,465.636L875.667,465.476L875.284,465.316L874.902,465.155L874.521,464.993L874.14,464.83L873.76,464.666L873.381,464.501L873.002,464.334L872.624,464.167L872.246,463.999L871.869,463.83L871.493,463.66L871.118,463.489L870.743,463.316L870.368,463.143L869.995,462.969L869.622,462.794L869.25,462.618L868.878,462.441L868.507,462.263L868.137,462.084L867.767,461.904L867.398,461.723L867.03,461.541L866.662,461.358L866.295,461.174L865.929,460.989L865.564,460.803L865.199,460.617L864.835,460.429L864.471,460.24L864.108,460.051L863.746,459.86L863.385,459.668L863.024,459.476L862.664,459.282L862.305,459.088L861.946,458.893L861.588,458.696L861.231,458.499L860.875,458.301L860.519,458.102L860.164,457.902L859.81,457.701L859.456,457.499L859.103,457.296L858.751,457.092L858.4,456.887L858.049,456.682L857.699,456.475L857.35,456.268L857.001,456.059L856.653,455.85L856.306,455.64L855.96,455.429L855.615,455.217L855.27,455.004L854.926,454.79L854.582,454.575L854.24,454.359L853.898,454.143L853.557,453.925L853.217,453.707L852.877,453.488L852.538,453.267L852.2,453.046L851.863,452.824L851.527,452.602L851.191,452.378L850.856,452.153L850.522,451.928L850.189,451.702L849.856,451.474L849.524,451.246L849.193,451.017L848.863,450.787L848.534,450.557L848.205,450.325L847.877,450.093L847.55,449.859L847.224,449.625L846.898,449.39L846.574,449.154L846.25,448.917L845.927,448.68L845.604,448.441L845.283,448.202L844.962,447.962L844.643,447.721L844.324,447.479L844.005,447.236L843.688,446.992L843.371,446.748L843.056,446.503L842.741,446.257L842.427,446.01L842.114,445.762L841.801,445.514L841.49,445.264L841.179,445.014L840.869,444.763L840.56,444.511L840.252,444.258L839.944,444.005L839.638,443.751L839.332,443.495L839.027,443.239L838.723,442.983L838.42,442.725L838.118,442.467L837.817,442.208L837.516,441.948L837.217,441.687L836.918,441.425L836.62,441.163L836.323,440.9L836.027,440.636L835.731,440.371L835.437,440.105L835.143,439.839L834.851,439.572L834.559,439.304L834.268,439.035L833.978,438.766L833.689,438.496L833.401,438.225L833.114,437.953L832.827,437.68L832.542,437.407L832.257,437.133L831.973,436.858L831.691,436.582L831.409,436.306L831.128,436.029L830.848,435.751L830.568,435.472L830.29,435.193L830.013,434.913L829.736,434.632L829.461,434.35L829.186,434.068L828.913,433.784L828.64,433.5L828.368,433.216L828.098,432.93L827.828,432.644L827.559,432.357L827.291,432.07L827.024,431.781L826.757,431.492L826.492,431.203L826.228,430.912L825.965,430.621L825.702,430.329L825.441,430.036L825.181,429.743L824.921,429.449L824.663,429.154L824.405,428.858L824.149,428.562L823.893,428.265L823.638,427.967L823.385,427.669L823.132,427.37L822.88,427.07L822.629,426.77L822.38,426.468L822.131,426.167L821.883,425.864L821.636,425.561L821.391,425.257L821.146,424.952L820.902,424.647L820.659,424.341L820.417,424.034L820.176,423.727L819.937,423.419L819.698,423.11L819.46,422.801L819.223,422.491L818.987,422.18L818.753,421.868L818.519,421.556L818.286,421.244L818.054,420.93L817.824,420.616L817.594,420.301L817.365,419.986L817.138,419.67L816.911,419.353L816.685,419.036L816.461,418.718L816.237,418.399L816.015,418.08L815.793,417.76L815.573,417.44L815.354,417.118L815.135,416.797L814.918,416.474L814.702,416.151L814.487,415.827L814.273,415.503L814.06,415.178L813.848,414.852L813.637,414.526L813.427,414.199L813.218,413.872L813.011,413.543L812.804,413.215L812.598,412.885L812.394,412.555L812.19,412.225L811.988,411.894L811.787,411.562L811.587,411.23L811.388,410.897L811.19,410.563L810.993,410.229L810.797,409.894L810.602,409.559L810.409,409.223L810.216,408.886L810.025,408.549L809.834,408.211L809.645,407.873L809.457,407.534L809.27,407.194L809.084,406.854L808.899,406.514L808.716,406.173L808.533,405.831L808.352,405.488L808.171,405.145L807.992,404.802L807.814,404.458L807.637,404.113L807.461,403.768L807.287,403.422L807.113,403.076L806.941,402.729L806.77,402.382L806.6,402.034L806.431,401.685L806.263,401.336L806.096,400.986L805.931,400.636L805.766,400.285L805.603,399.934L805.441,399.582L805.28,399.23L805.12,398.877L804.962,398.524L804.804,398.17L804.648,397.815L804.493,397.46L804.339,397.105L804.186,396.749L804.035,396.392L803.884,396.035L803.735,395.677L803.587,395.319L803.44,394.961L803.295,394.602L803.15,394.242L803.007,393.882L802.865,393.521L802.724,393.16L802.584,392.798L802.446,392.436L802.308,392.073L802.172,391.71L802.037,391.346L801.904,390.982L801.771,390.618L801.64,390.252L801.51,389.887L801.381,389.521L801.254,389.154L801.127,388.787L801.002,388.419L800.878,388.051L800.755,387.683L800.634,387.314L800.514,386.944L800.395,386.574L800.277,386.204L800.16,385.833L800.045,385.462L799.931,385.09L799.818,384.718L799.706,384.345L799.596,383.972L799.487,383.598L799.379,383.224L799.273,382.849L799.167,382.474L799.063,382.099L798.961,381.723L798.859,381.347L798.759,380.97L798.66,380.593L798.562,380.215L798.466,379.837L798.37,379.459L798.276,379.08L798.184,378.7L798.092,378.321L798.002,377.94L797.914,377.56L797.826,377.179L797.74,376.797L797.655,376.415L797.571,376.033L797.489,375.65L797.408,375.267L797.328,374.883L797.25,374.499L797.173,374.115L797.097,373.73L797.022,373.345L796.949,372.959L796.877,372.573L796.807,372.187L796.737,371.8L796.669,371.413L796.603,371.026L796.538,370.638L796.474,370.249L796.411,369.861L796.35,369.471L796.29,369.082L796.231,368.692L796.174,368.302L796.118,367.911L796.063,367.52L796.01,367.129L795.958,366.737L795.907,366.345L795.858,365.953L795.81,365.56L795.763,365.166L795.718,364.773L795.674,364.379L795.632,363.985L795.591,363.59L795.551,363.195L795.513,362.8L795.476,362.404L795.44,362.008L795.406,361.612L795.373,361.215L795.341,360.818L795.311,360.42L795.282,360.023L795.255,359.625L795.229,359.226L795.204,358.827L795.181,358.428L795.159,358.029L795.139,357.629L795.12,357.229L795.102,356.829L795.086,356.428L795.071,356.027L795.057,355.626L795.045,355.224L795.035,354.822L795.026,354.42L795.018,354.017L795.011,353.615L795.006,353.211L795.003,352.808L795.001,352.404L795,352L795.001,351.596L795.003,351.192L795.006,350.789L795.011,350.385L795.018,349.983L795.026,349.58L795.035,349.178L795.045,348.776L795.057,348.374L795.071,347.973L795.086,347.572L795.102,347.171L795.12,346.771L795.139,346.371L795.159,345.971L795.181,345.572L795.204,345.173L795.229,344.774L795.255,344.375L795.282,343.977L795.311,343.58L795.341,343.182L795.373,342.785L795.406,342.388L795.44,341.992L795.476,341.596L795.513,341.2L795.551,340.805L795.591,340.41L795.632,340.015L795.674,339.621L795.718,339.227L795.763,338.834L795.81,338.44L795.858,338.047L795.907,337.655L795.958,337.263L796.01,336.871L796.063,336.48L796.118,336.089L796.174,335.698L796.231,335.308L796.29,334.918L796.35,334.529L796.411,334.139L796.474,333.751L796.538,333.362L796.603,332.974L796.669,332.587L796.737,332.2L796.807,331.813L796.877,331.427L796.949,331.041L797.022,330.655L797.097,330.27L797.173,329.885L797.25,329.501L797.328,329.117L797.408,328.733L797.489,328.35L797.571,327.967L797.655,327.585L797.74,327.203L797.826,326.821L797.914,326.44L798.002,326.06L798.092,325.679L798.184,325.3L798.276,324.92L798.37,324.541L798.466,324.163L798.562,323.785L798.66,323.407L798.759,323.03L798.859,322.653L798.961,322.277L799.063,321.901L799.167,321.526L799.273,321.151L799.379,320.776L799.487,320.402L799.596,320.028L799.706,319.655L799.818,319.282L799.931,318.91L800.045,318.538L800.16,318.167L800.277,317.796L800.395,317.426L800.514,317.056L800.634,316.686L800.755,316.317L800.878,315.949L801.002,315.581L801.127,315.213L801.254,314.846L801.381,314.479L801.51,314.113L801.64,313.748L801.771,313.382L801.904,313.018L802.037,312.654L802.172,312.29L802.308,311.927L802.446,311.564L802.584,311.202L802.724,310.84L802.865,310.479L803.007,310.118L803.15,309.758L803.295,309.398L803.44,309.039L803.587,308.681L803.735,308.323L803.884,307.965L804.035,307.608L804.186,307.251L804.339,306.895L804.493,306.54L804.648,306.185L804.804,305.83L804.962,305.476L805.12,305.123L805.28,304.77L805.441,304.418L805.603,304.066L805.766,303.715L805.931,303.364L806.096,303.014L806.263,302.664L806.431,302.315L806.6,301.966L806.77,301.618L806.941,301.271L807.113,300.924L807.287,300.578L807.461,300.232L807.637,299.887L807.814,299.542L807.992,299.198L808.171,298.855L808.352,298.512L808.533,298.169L808.716,297.827L808.899,297.486L809.084,297.146L809.27,296.806L809.457,296.466L809.645,296.127L809.834,295.789L810.025,295.451L810.216,295.114L810.409,294.777L810.602,294.441L810.797,294.106L810.993,293.771L811.19,293.437L811.388,293.103L811.587,292.77L811.787,292.438L811.988,292.106L812.19,291.775L812.394,291.445L812.598,291.115L812.804,290.785L813.011,290.457L813.218,290.128L813.427,289.801L813.637,289.474L813.848,289.148L814.06,288.822L814.273,288.497L814.487,288.173L814.702,287.849L814.918,287.526L815.135,287.203L815.354,286.882L815.573,286.56L815.793,286.24L816.015,285.92L816.237,285.601L816.461,285.282L816.685,284.964L816.911,284.647L817.138,284.33L817.365,284.014L817.594,283.699L817.824,283.384L818.054,283.07L818.286,282.756L818.519,282.444L818.753,282.132L818.987,281.82L819.223,281.509L819.46,281.199L819.698,280.89L819.937,280.581L820.176,280.273L820.417,279.966L820.659,279.659L820.902,279.353L821.146,279.048L821.391,278.743L821.636,278.439L821.883,278.136L822.131,277.833L822.38,277.532L822.629,277.23L822.88,276.93L823.132,276.63L823.385,276.331L823.638,276.033L823.893,275.735L824.149,275.438L824.405,275.142L824.663,274.846L824.921,274.551L825.181,274.257L825.441,273.964L825.702,273.671L825.965,273.379L826.228,273.088L826.492,272.797L826.757,272.508L827.024,272.219L827.291,271.93L827.559,271.643L827.828,271.356L828.098,271.07L828.368,270.784L828.64,270.5L828.913,270.216L829.186,269.932L829.461,269.65L829.736,269.368L830.013,269.087L830.29,268.807L830.568,268.528L830.848,268.249L831.128,267.971L831.409,267.694L831.691,267.418L831.973,267.142L832.257,266.867L832.542,266.593L832.827,266.32L833.114,266.047L833.401,265.775L833.689,265.504L833.978,265.234L834.268,264.965L834.559,264.696L834.851,264.428L835.143,264.161L835.437,263.895L835.731,263.629L836.027,263.364L836.323,263.1L836.62,262.837L836.918,262.575L837.217,262.313L837.516,262.052L837.817,261.792L838.118,261.533L838.42,261.275L838.723,261.017L839.027,260.761L839.332,260.505L839.638,260.249L839.944,259.995L840.252,259.742L840.56,259.489L840.869,259.237L841.179,258.986L841.49,258.736L841.801,258.486L842.114,258.238L842.427,257.99L842.741,257.743L843.056,257.497L843.371,257.252L843.688,257.008L844.005,256.764L844.324,256.521L844.643,256.279L844.962,256.038L845.283,255.798L845.604,255.559L845.927,255.32L846.25,255.083L846.574,254.846L846.898,254.61L847.224,254.375L847.55,254.141L847.877,253.907L848.205,253.675L848.534,253.443L848.863,253.213L849.193,252.983L849.524,252.754L849.856,252.526L850.189,252.298L850.522,252.072L850.856,251.847L851.191,251.622L851.527,251.398L851.863,251.176L852.2,250.954L852.538,250.733L852.877,250.512L853.217,250.293L853.557,250.075L853.898,249.857L854.24,249.641L854.582,249.425L854.926,249.21L855.27,248.996L855.615,248.783L855.96,248.571L856.306,248.36L856.653,248.15L857.001,247.941L857.35,247.732L857.699,247.525L858.049,247.318L858.4,247.113L858.751,246.908L859.103,246.704L859.456,246.501L859.81,246.299L860.164,246.098L860.519,245.898L860.875,245.699L861.231,245.501L861.588,245.304L861.946,245.107L862.305,244.912L862.664,244.718L863.024,244.524L863.385,244.332L863.746,244.14L864.108,243.949L864.471,243.76L864.835,243.571L865.199,243.383L865.564,243.197L865.929,243.011L866.295,242.826L866.662,242.642L867.03,242.459L867.398,242.277L867.767,242.096L868.137,241.916L868.507,241.737L868.878,241.559L869.25,241.382L869.622,241.206L869.995,241.031L870.368,240.857L870.743,240.684L871.118,240.511L871.493,240.34L871.869,240.17L872.246,240.001L872.624,239.833L873.002,239.666L873.381,239.499L873.76,239.334L874.14,239.17L874.521,239.007L874.902,238.845L875.284,238.684L875.667,238.524L876.05,238.364L876.434,238.206L876.819,238.049L877.204,237.893L877.589,237.738L877.976,237.584L878.363,237.431L878.75,237.279L879.138,237.128L879.527,236.978L879.917,236.83L880.307,236.682L880.697,236.535L881.088,236.389L881.48,236.245L881.873,236.101L882.266,235.958L882.659,235.817L883.053,235.676L883.448,235.537L883.843,235.398L884.239,235.261L884.636,235.125L885.033,234.989L885.431,234.855L885.829,234.722L886.228,234.59L886.627,234.459L887.027,234.329L887.428,234.2L887.829,234.073L888.23,233.946L888.632,233.82L889.035,233.696L889.439,233.572L889.842,233.45L890.247,233.329L890.652,233.208L891.057,233.089L891.463,232.971L891.87,232.854L892.277,232.738L892.685,232.624L893.093,232.51L893.502,232.397L893.911,232.286L894.321,232.176L894.731,232.066L895.142,231.958L895.553,231.851L895.965,231.745L896.378,231.641L896.791,231.537L897.204,231.434L897.618,231.333L898.032,231.232L898.447,231.133L898.863,231.035L899.279,230.938L899.695,230.842L900.112,230.748L900.53,230.654L900.948,230.562L901.366,230.47L901.785,230.38L902.205,230.291L902.625,230.203L903.045,230.116L903.466,230.031L903.887,229.946L904.309,229.863L904.732,229.781L905.154,229.7L905.578,229.62L906.001,229.541L906.426,229.464L906.85,229.388L907.275,229.312L907.701,229.238L908.127,229.165L908.554,229.094L908.981,229.023L909.408,228.954L909.836,228.886L910.264,228.819L910.693,228.753L911.122,228.688L911.552,228.625L911.982,228.562L912.413,228.501L912.844,228.441L913.275,228.383L913.707,228.325L914.139,228.269L914.572,228.214L915.005,228.16L915.438,228.107L915.872,228.055L916.307,228.005L916.742,227.956L917.177,227.908L917.612,227.861L918.048,227.816L918.485,227.771L918.922,227.728L919.359,227.687L919.797,227.646L920.235,227.606L920.673,227.568L921.112,227.531L921.551,227.495L921.991,227.461L922.431,227.428L922.871,227.396L923.312,227.365L923.753,227.335L924.195,227.307L924.636,227.28L925.079,227.254L925.521,227.229L925.964,227.206L926.408,227.184L926.852,227.163L927.296,227.143L927.74,227.125L928.185,227.108L928.63,227.092L929.076,227.077L929.522,227.064L929.968,227.052L930.415,227.041L930.862,227.031L931.309,227.023L931.757,227.016L932.205,227.01L932.653,227.006L933.102,227.003L933.551,227.001L934,227L934.449,227.001ZM933.562,230.308L933.125,230.31L932.688,230.313L932.251,230.317L931.815,230.323L931.379,230.33L930.943,230.338L930.508,230.347L930.073,230.358L929.638,230.369L929.204,230.382L928.77,230.397L928.337,230.412L927.903,230.429L927.471,230.447L927.038,230.466L926.606,230.486L926.174,230.508L925.743,230.53L925.312,230.554L924.881,230.58L924.451,230.606L924.021,230.634L923.591,230.663L923.162,230.693L922.733,230.724L922.305,230.756L921.877,230.79L921.449,230.825L921.022,230.861L920.595,230.898L920.169,230.936L919.742,230.976L919.317,231.017L918.892,231.058L918.467,231.102L918.042,231.146L917.618,231.191L917.194,231.238L916.771,231.286L916.348,231.335L915.926,231.385L915.504,231.436L915.082,231.489L914.661,231.543L914.24,231.597L913.82,231.653L913.4,231.711L912.98,231.769L912.561,231.828L912.142,231.889L911.724,231.951L911.306,232.014L910.889,232.078L910.472,232.143L910.055,232.209L909.639,232.277L909.224,232.346L908.809,232.415L908.394,232.486L907.98,232.558L907.566,232.632L907.152,232.706L906.739,232.781L906.327,232.858L905.915,232.936L905.503,233.015L905.092,233.095L904.682,233.176L904.272,233.258L903.862,233.341L903.453,233.426L903.044,233.511L902.636,233.598L902.228,233.686L901.821,233.774L901.414,233.864L901.007,233.956L900.602,234.048L900.196,234.141L899.791,234.235L899.387,234.331L898.983,234.427L898.58,234.525L898.177,234.624L897.774,234.724L897.372,234.825L896.971,234.927L896.57,235.03L896.17,235.134L895.77,235.239L895.37,235.345L894.971,235.453L894.573,235.561L894.175,235.671L893.778,235.782L893.381,235.893L892.985,236.006L892.589,236.12L892.194,236.235L891.799,236.351L891.405,236.468L891.011,236.586L890.618,236.705L890.226,236.825L889.834,236.946L889.442,237.068L889.051,237.192L888.661,237.316L888.271,237.442L887.882,237.568L887.493,237.696L887.105,237.824L886.717,237.954L886.33,238.084L885.944,238.216L885.558,238.349L885.172,238.482L884.788,238.617L884.403,238.753L884.02,238.889L883.637,239.027L883.254,239.166L882.872,239.306L882.491,239.447L882.11,239.589L881.73,239.731L881.35,239.875L880.971,240.02L880.593,240.166L880.215,240.313L879.838,240.461L879.461,240.61L879.085,240.76L878.709,240.911L878.334,241.063L877.96,241.215L877.587,241.369L877.213,241.524L876.841,241.68L876.469,241.837L876.098,241.995L875.727,242.154L875.357,242.313L874.988,242.474L874.619,242.636L874.251,242.799L873.884,242.962L873.517,243.127L873.151,243.293L872.785,243.459L872.42,243.627L872.056,243.795L871.692,243.965L871.329,244.135L870.967,244.307L870.605,244.479L870.244,244.652L869.883,244.827L869.523,245.002L869.164,245.178L868.806,245.355L868.448,245.533L868.091,245.712L867.734,245.892L867.378,246.073L867.023,246.255L866.669,246.438L866.315,246.622L865.962,246.806L865.609,246.992L865.257,247.178L864.906,247.366L864.556,247.554L864.206,247.743L863.857,247.934L863.508,248.125L863.16,248.317L862.813,248.51L862.467,248.703L862.121,248.898L861.776,249.094L861.432,249.291L861.089,249.488L860.746,249.686L860.404,249.886L860.062,250.086L859.721,250.287L859.381,250.489L859.042,250.692L858.704,250.896L858.366,251.1L858.029,251.306L857.692,251.512L857.356,251.72L857.021,251.928L856.687,252.137L856.354,252.347L856.021,252.558L855.689,252.77L855.357,252.982L855.027,253.196L854.697,253.41L854.368,253.625L854.04,253.842L853.712,254.058L853.385,254.276L853.059,254.495L852.734,254.715L852.409,254.935L852.085,255.156L851.762,255.378L851.44,255.601L851.118,255.825L850.798,256.05L850.478,256.275L850.158,256.502L849.84,256.729L849.522,256.957L849.205,257.186L848.889,257.415L848.574,257.646L848.259,257.877L847.946,258.109L847.633,258.343L847.32,258.576L847.009,258.811L846.698,259.047L846.389,259.283L846.08,259.52L845.771,259.758L845.464,259.997L845.157,260.236L844.851,260.477L844.546,260.718L844.242,260.96L843.939,261.203L843.636,261.447L843.335,261.691L843.034,261.936L842.734,262.182L842.434,262.429L842.136,262.677L841.838,262.925L841.541,263.174L841.245,263.424L840.95,263.675L840.656,263.927L840.363,264.179L840.07,264.432L839.778,264.686L839.487,264.941L839.197,265.196L838.908,265.453L838.619,265.71L838.332,265.968L838.045,266.226L837.759,266.486L837.474,266.746L837.19,267.006L836.907,267.268L836.625,267.531L836.343,267.794L836.063,268.058L835.783,268.322L835.504,268.588L835.226,268.854L834.949,269.121L834.673,269.388L834.397,269.657L834.123,269.926L833.849,270.196L833.576,270.466L833.305,270.738L833.034,271.01L832.764,271.283L832.494,271.556L832.226,271.83L831.959,272.105L831.692,272.381L831.427,272.658L831.162,272.935L830.899,273.213L830.636,273.491L830.374,273.771L830.113,274.051L829.853,274.331L829.594,274.613L829.336,274.895L829.078,275.178L828.822,275.462L828.566,275.746L828.312,276.031L828.058,276.317L827.806,276.603L827.554,276.89L827.303,277.178L827.053,277.466L826.805,277.755L826.557,278.045L826.31,278.336L826.064,278.627L825.819,278.919L825.574,279.211L825.331,279.505L825.089,279.799L824.848,280.093L824.607,280.388L824.368,280.684L824.13,280.981L823.892,281.278L823.656,281.576L823.42,281.875L823.186,282.174L822.952,282.474L822.72,282.775L822.488,283.076L822.258,283.378L822.028,283.68L821.8,283.984L821.572,284.287L821.345,284.592L821.12,284.897L820.895,285.203L820.672,285.509L820.449,285.816L820.227,286.124L820.007,286.432L819.787,286.741L819.568,287.051L819.351,287.361L819.134,287.672L818.919,287.983L818.704,288.295L818.491,288.608L818.278,288.921L818.067,289.235L817.856,289.55L817.647,289.865L817.438,290.181L817.231,290.497L817.024,290.814L816.819,291.132L816.615,291.45L816.412,291.769L816.209,292.088L816.008,292.408L815.808,292.729L815.609,293.05L815.411,293.372L815.214,293.694L815.018,294.017L814.823,294.341L814.63,294.665L814.437,294.99L814.245,295.315L814.054,295.641L813.865,295.968L813.676,296.295L813.489,296.622L813.303,296.951L813.117,297.279L812.933,297.609L812.75,297.939L812.568,298.269L812.387,298.6L812.207,298.932L812.028,299.264L811.851,299.597L811.674,299.93L811.499,300.264L811.324,300.598L811.151,300.933L810.979,301.268L810.808,301.604L810.638,301.941L810.469,302.278L810.301,302.616L810.134,302.954L809.969,303.293L809.804,303.632L809.641,303.972L809.478,304.312L809.317,304.653L809.157,304.994L808.998,305.336L808.841,305.679L808.684,306.022L808.529,306.365L808.374,306.709L808.221,307.054L808.069,307.399L807.918,307.744L807.768,308.09L807.62,308.437L807.472,308.784L807.326,309.132L807.18,309.48L807.036,309.828L806.893,310.177L806.752,310.527L806.611,310.877L806.472,311.227L806.333,311.579L806.196,311.93L806.06,312.282L805.925,312.635L805.792,312.988L805.659,313.341L805.528,313.695L805.398,314.05L805.269,314.405L805.141,314.76L805.015,315.116L804.889,315.472L804.765,315.829L804.642,316.186L804.52,316.544L804.4,316.902L804.28,317.261L804.162,317.62L804.045,317.98L803.929,318.34L803.814,318.7L803.701,319.061L803.589,319.423L803.478,319.785L803.368,320.147L803.259,320.51L803.152,320.873L803.046,321.237L802.941,321.601L802.837,321.965L802.735,322.33L802.633,322.696L802.533,323.062L802.434,323.428L802.337,323.795L802.24,324.162L802.145,324.529L802.051,324.897L801.959,325.266L801.867,325.635L801.777,326.004L801.688,326.374L801.601,326.744L801.514,327.114L801.429,327.485L801.345,327.856L801.262,328.228L801.181,328.6L801.101,328.973L801.022,329.346L800.944,329.719L800.868,330.093L800.793,330.467L800.719,330.842L800.647,331.217L800.575,331.592L800.505,331.968L800.437,332.344L800.369,332.72L800.303,333.097L800.238,333.475L800.175,333.852L800.112,334.23L800.051,334.609L799.992,334.987L799.933,335.367L799.876,335.746L799.82,336.126L799.766,336.506L799.713,336.887L799.661,337.268L799.61,337.649L799.561,338.031L799.513,338.413L799.466,338.796L799.421,339.178L799.377,339.562L799.334,339.945L799.293,340.329L799.253,340.713L799.214,341.098L799.177,341.483L799.141,341.868L799.106,342.254L799.073,342.64L799.041,343.026L799.01,343.413L798.981,343.799L798.953,344.187L798.926,344.574L798.901,344.962L798.877,345.351L798.854,345.739L798.833,346.128L798.813,346.517L798.794,346.907L798.777,347.297L798.761,347.687L798.747,348.078L798.734,348.469L798.722,348.86L798.712,349.251L798.703,349.643L798.695,350.035L798.689,350.427L798.684,350.82L798.68,351.213L798.678,351.606L798.678,352L798.678,352.394L798.68,352.787L798.684,353.18L798.689,353.573L798.695,353.965L798.703,354.357L798.712,354.749L798.722,355.14L798.734,355.531L798.747,355.922L798.761,356.313L798.777,356.703L798.794,357.093L798.813,357.483L798.833,357.872L798.854,358.261L798.877,358.649L798.901,359.038L798.926,359.426L798.953,359.813L798.981,360.201L799.01,360.587L799.041,360.974L799.073,361.36L799.106,361.746L799.141,362.132L799.177,362.517L799.214,362.902L799.253,363.287L799.293,363.671L799.334,364.055L799.377,364.438L799.421,364.821L799.466,365.204L799.513,365.587L799.561,365.969L799.61,366.351L799.661,366.732L799.713,367.113L799.766,367.494L799.82,367.874L799.876,368.254L799.933,368.633L799.992,369.013L800.051,369.391L800.112,369.77L800.175,370.148L800.238,370.525L800.303,370.903L800.369,371.28L800.437,371.656L800.505,372.032L800.575,372.408L800.647,372.783L800.719,373.158L800.793,373.533L800.868,373.907L800.944,374.281L801.022,374.654L801.101,375.027L801.181,375.4L801.262,375.772L801.345,376.144L801.429,376.515L801.514,376.886L801.601,377.256L801.688,377.626L801.777,377.996L801.867,378.365L801.959,378.734L802.051,379.103L802.145,379.471L802.24,379.838L802.337,380.205L802.434,380.572L802.533,380.938L802.633,381.304L802.735,381.67L802.837,382.035L802.941,382.399L803.046,382.763L803.152,383.127L803.259,383.49L803.368,383.853L803.478,384.215L803.589,384.577L803.701,384.939L803.814,385.3L803.929,385.66L804.045,386.02L804.162,386.38L804.28,386.739L804.4,387.098L804.52,387.456L804.642,387.814L804.765,388.171L804.889,388.528L805.015,388.884L805.141,389.24L805.269,389.595L805.398,389.95L805.528,390.305L805.659,390.659L805.792,391.012L805.925,391.365L806.06,391.718L806.196,392.07L806.333,392.421L806.472,392.773L806.611,393.123L806.752,393.473L806.893,393.823L807.036,394.172L807.18,394.52L807.326,394.868L807.472,395.216L807.62,395.563L807.768,395.91L807.918,396.256L808.069,396.601L808.221,396.946L808.374,397.291L808.529,397.635L808.684,397.978L808.841,398.321L808.998,398.664L809.157,399.006L809.317,399.347L809.478,399.688L809.641,400.028L809.804,400.368L809.969,400.707L810.134,401.046L810.301,401.384L810.469,401.722L810.638,402.059L810.808,402.396L810.979,402.732L811.151,403.067L811.324,403.402L811.499,403.736L811.674,404.07L811.851,404.403L812.028,404.736L812.207,405.068L812.387,405.4L812.568,405.731L812.75,406.061L812.933,406.391L813.117,406.721L813.303,407.049L813.489,407.378L813.676,407.705L813.865,408.032L814.054,408.359L814.245,408.685L814.437,409.01L814.63,409.335L814.823,409.659L815.018,409.983L815.214,410.306L815.411,410.628L815.609,410.95L815.808,411.271L816.008,411.592L816.209,411.912L816.412,412.231L816.615,412.55L816.819,412.868L817.024,413.186L817.231,413.503L817.438,413.819L817.647,414.135L817.856,414.45L818.067,414.765L818.278,415.079L818.491,415.392L818.704,415.705L818.919,416.017L819.134,416.328L819.351,416.639L819.568,416.949L819.787,417.259L820.007,417.568L820.227,417.876L820.449,418.184L820.672,418.491L820.895,418.797L821.12,419.103L821.345,419.408L821.572,419.713L821.8,420.016L822.028,420.32L822.258,420.622L822.488,420.924L822.72,421.225L822.952,421.526L823.186,421.826L823.42,422.125L823.656,422.424L823.892,422.722L824.13,423.019L824.368,423.316L824.607,423.612L824.848,423.907L825.089,424.201L825.331,424.495L825.574,424.789L825.819,425.081L826.064,425.373L826.31,425.664L826.557,425.955L826.805,426.245L827.053,426.534L827.303,426.822L827.554,427.11L827.806,427.397L828.058,427.683L828.312,427.969L828.566,428.254L828.822,428.538L829.078,428.822L829.336,429.105L829.594,429.387L829.853,429.669L830.113,429.949L830.374,430.229L830.636,430.509L830.899,430.787L831.162,431.065L831.427,431.342L831.692,431.619L831.959,431.895L832.226,432.17L832.494,432.444L832.764,432.717L833.034,432.99L833.305,433.262L833.576,433.534L833.849,433.804L834.123,434.074L834.397,434.343L834.673,434.612L834.949,434.879L835.226,435.146L835.504,435.412L835.783,435.678L836.063,435.942L836.343,436.206L836.625,436.47L836.907,436.732L837.19,436.994L837.475,437.254L837.759,437.514L838.045,437.774L838.332,438.032L838.619,438.29L838.908,438.547L839.197,438.804L839.487,439.059L839.778,439.314L840.07,439.568L840.363,439.821L840.656,440.073L840.95,440.325L841.245,440.576L841.541,440.826L841.838,441.075L842.136,441.323L842.434,441.571L842.734,441.818L843.034,442.064L843.335,442.309L843.636,442.553L843.939,442.797L844.242,443.04L844.546,443.282L844.851,443.523L845.157,443.764L845.464,444.003L845.771,444.242L846.08,444.48L846.389,444.717L846.698,444.953L847.009,445.189L847.32,445.424L847.633,445.657L847.946,445.89L848.259,446.123L848.574,446.354L848.889,446.585L849.205,446.814L849.522,447.043L849.84,447.271L850.158,447.498L850.478,447.725L850.798,447.95L851.118,448.175L851.44,448.399L851.762,448.622L852.085,448.844L852.409,449.065L852.734,449.285L853.059,449.505L853.385,449.724L853.712,449.942L854.04,450.158L854.368,450.375L854.697,450.59L855.027,450.804L855.357,451.018L855.689,451.23L856.021,451.442L856.354,451.653L856.687,451.863L857.021,452.072L857.356,452.28L857.692,452.488L858.028,452.694L858.366,452.9L858.704,453.104L859.042,453.308L859.381,453.511L859.721,453.713L860.062,453.914L860.404,454.114L860.746,454.314L861.089,454.512L861.432,454.709L861.776,454.906L862.121,455.102L862.467,455.297L862.813,455.49L863.16,455.683L863.508,455.875L863.857,456.066L864.206,456.257L864.555,456.446L864.906,456.634L865.257,456.822L865.609,457.008L865.962,457.194L866.315,457.378L866.669,457.562L867.023,457.745L867.378,457.927L867.734,458.108L868.091,458.288L868.448,458.467L868.806,458.645L869.164,458.822L869.523,458.998L869.883,459.173L870.244,459.348L870.605,459.521L870.967,459.693L871.329,459.865L871.692,460.035L872.056,460.205L872.42,460.373L872.785,460.541L873.151,460.707L873.517,460.873L873.884,461.038L874.251,461.201L874.619,461.364L874.988,461.526L875.357,461.687L875.727,461.846L876.098,462.005L876.469,462.163L876.841,462.32L877.213,462.476L877.587,462.631L877.96,462.785L878.334,462.937L878.709,463.089L879.085,463.24L879.461,463.39L879.838,463.539L880.215,463.687L880.593,463.834L880.971,463.98L881.35,464.125L881.73,464.269L882.11,464.411L882.491,464.553L882.872,464.694L883.254,464.834L883.637,464.973L884.02,465.111L884.403,465.247L884.788,465.383L885.172,465.518L885.558,465.651L885.944,465.784L886.33,465.916L886.717,466.046L887.105,466.176L887.493,466.304L887.882,466.432L888.271,466.558L888.661,466.684L889.051,466.808L889.442,466.932L889.834,467.054L890.226,467.175L890.618,467.295L891.011,467.414L891.405,467.532L891.799,467.649L892.194,467.765L892.589,467.88L892.985,467.994L893.381,468.107L893.778,468.218L894.175,468.329L894.573,468.439L894.971,468.547L895.37,468.655L895.77,468.761L896.17,468.866L896.57,468.97L896.971,469.073L897.372,469.175L897.774,469.276L898.177,469.376L898.58,469.475L898.983,469.573L899.387,469.669L899.791,469.765L900.196,469.859L900.602,469.952L901.007,470.044L901.414,470.136L901.821,470.226L902.228,470.314L902.636,470.402L903.044,470.489L903.453,470.574L903.862,470.659L904.272,470.742L904.682,470.824L905.092,470.905L905.503,470.985L905.915,471.064L906.327,471.142L906.739,471.219L907.152,471.294L907.566,471.368L907.98,471.442L908.394,471.514L908.809,471.585L909.224,471.654L909.639,471.723L910.056,471.791L910.472,471.857L910.889,471.922L911.306,471.986L911.724,472.049L912.142,472.111L912.561,472.172L912.98,472.231L913.4,472.289L913.82,472.347L914.24,472.403L914.661,472.457L915.082,472.511L915.504,472.564L915.926,472.615L916.348,472.665L916.771,472.714L917.194,472.762L917.618,472.809L918.042,472.854L918.467,472.898L918.892,472.942L919.317,472.983L919.742,473.024L920.169,473.064L920.595,473.102L921.022,473.139L921.449,473.175L921.877,473.21L922.305,473.244L922.733,473.276L923.162,473.307L923.591,473.337L924.021,473.366L924.451,473.394L924.881,473.42L925.312,473.446L925.743,473.469L926.174,473.492L926.606,473.514L927.038,473.534L927.471,473.553L927.903,473.571L928.337,473.588L928.77,473.603L929.204,473.618L929.638,473.631L930.073,473.642L930.508,473.653L930.943,473.662L931.379,473.67L931.815,473.677L932.251,473.683L932.688,473.687L933.125,473.69L933.562,473.692L934,473.693L934.438,473.692L934.875,473.69L935.312,473.687L935.749,473.683L936.185,473.677L936.621,473.67L937.057,473.662L937.492,473.653L937.927,473.642L938.362,473.631L938.796,473.618L939.23,473.603L939.663,473.588L940.097,473.571L940.529,473.553L940.962,473.534L941.394,473.514L941.826,473.492L942.257,473.469L942.688,473.446L943.119,473.42L943.549,473.394L943.979,473.366L944.409,473.337L944.838,473.307L945.267,473.276L945.695,473.244L946.123,473.21L946.551,473.175L946.978,473.139L947.405,473.102L947.831,473.064L948.258,473.024L948.683,472.983L949.108,472.942L949.533,472.898L949.958,472.854L950.382,472.809L950.806,472.762L951.229,472.714L951.652,472.665L952.074,472.615L952.496,472.564L952.918,472.511L953.339,472.457L953.76,472.403L954.18,472.347L954.6,472.289L955.02,472.231L955.439,472.172L955.858,472.111L956.276,472.049L956.694,471.986L957.111,471.922L957.528,471.857L957.944,471.791L958.361,471.723L958.776,471.654L959.191,471.585L959.606,471.514L960.02,471.442L960.434,471.368L960.848,471.294L961.261,471.219L961.673,471.142L962.085,471.064L962.497,470.985L962.908,470.905L963.318,470.824L963.728,470.742L964.138,470.659L964.547,470.574L964.956,470.489L965.364,470.402L965.772,470.314L966.179,470.226L966.586,470.136L966.993,470.044L967.398,469.952L967.804,469.859L968.209,469.765L968.613,469.669L969.017,469.573L969.42,469.475L969.823,469.376L970.226,469.276L970.628,469.175L971.029,469.073L971.43,468.97L971.83,468.866L972.23,468.761L972.63,468.655L973.029,468.547L973.427,468.439L973.825,468.329L974.222,468.218L974.619,468.107L975.015,467.994L975.411,467.88L975.806,467.765L976.201,467.649L976.595,467.532L976.989,467.414L977.382,467.295L977.774,467.175L978.166,467.054L978.558,466.932L978.949,466.808L979.339,466.684L979.729,466.558L980.118,466.432L980.507,466.304L980.895,466.176L981.283,466.046L981.67,465.916L982.056,465.784L982.442,465.651L982.828,465.518L983.212,465.383L983.597,465.247L983.98,465.111L984.363,464.973L984.746,464.834L985.128,464.694L985.509,464.553L985.89,464.411L986.27,464.269L986.65,464.125L987.029,463.98L987.407,463.834L987.785,463.687L988.162,463.539L988.539,463.39L988.915,463.24L989.291,463.089L989.666,462.937L990.04,462.785L990.413,462.631L990.787,462.476L991.159,462.32L991.531,462.163L991.902,462.005L992.273,461.846L992.643,461.687L993.012,461.526L993.381,461.364L993.749,461.201L994.116,461.038L994.483,460.873L994.849,460.707L995.215,460.541L995.58,460.373L995.944,460.205L996.308,460.035L996.671,459.865L997.033,459.693L997.395,459.521L997.756,459.348L998.117,459.173L998.477,458.998L998.836,458.822L999.194,458.645L999.552,458.467L999.909,458.288L1000.27,458.108L1000.62,457.927L1000.98,457.745L1001.33,457.562L1001.69,457.378L1002.04,457.194L1002.39,457.008L1002.74,456.822L1003.09,456.634L1003.44,456.446L1003.79,456.257L1004.14,456.066L1004.49,455.875L1004.84,455.683L1005.19,455.49L1005.53,455.297L1005.88,455.102L1006.22,454.906L1006.57,454.709L1006.91,454.512L1007.25,454.314L1007.6,454.114L1007.94,453.914L1008.28,453.713L1008.62,453.511L1008.96,453.308L1009.3,453.104L1009.63,452.9L1009.97,452.694L1010.31,452.488L1010.64,452.28L1010.98,452.072L1011.31,451.863L1011.65,451.653L1011.98,451.442L1012.31,451.23L1012.64,451.018L1012.97,450.804L1013.3,450.59L1013.63,450.375L1013.96,450.159L1014.29,449.942L1014.62,449.724L1014.94,449.505L1015.27,449.285L1015.59,449.065L1015.92,448.844L1016.24,448.622L1016.56,448.399L1016.88,448.175L1017.2,447.95L1017.52,447.725L1017.84,447.498L1018.16,447.271L1018.48,447.043L1018.8,446.814L1019.11,446.585L1019.43,446.354L1019.74,446.123L1020.05,445.891L1020.37,445.657L1020.68,445.424L1020.99,445.189L1021.3,444.953L1021.61,444.717L1021.92,444.48L1022.23,444.242L1022.54,444.003L1022.84,443.764L1023.15,443.523L1023.45,443.282L1023.76,443.04L1024.06,442.797L1024.36,442.553L1024.66,442.309L1024.97,442.064L1025.27,441.818L1025.57,441.571L1025.86,441.323L1026.16,441.075L1026.46,440.826L1026.76,440.576L1027.05,440.325L1027.34,440.073L1027.64,439.821L1027.93,439.568L1028.22,439.314L1028.51,439.059L1028.8,438.803L1029.09,438.547L1029.38,438.29L1029.67,438.032L1029.95,437.774L1030.24,437.514L1030.53,437.254L1030.81,436.994L1031.09,436.732L1031.38,436.469L1031.66,436.206L1031.94,435.942L1032.22,435.678L1032.5,435.412L1032.77,435.146L1033.05,434.879L1033.33,434.612L1033.6,434.343L1033.88,434.074L1034.15,433.804L1034.42,433.534L1034.69,433.262L1034.97,432.99L1035.24,432.717L1035.51,432.444L1035.77,432.17L1036.04,431.895L1036.31,431.619L1036.57,431.342L1036.84,431.065L1037.1,430.787L1037.36,430.509L1037.63,430.229L1037.89,429.949L1038.15,429.669L1038.41,429.387L1038.66,429.105L1038.92,428.822L1039.18,428.538L1039.43,428.254L1039.69,427.969L1039.94,427.683L1040.19,427.397L1040.45,427.11L1040.7,426.822L1040.95,426.534L1041.19,426.245L1041.44,425.955L1041.69,425.664L1041.94,425.373L1042.18,425.081L1042.43,424.789L1042.67,424.495L1042.91,424.201L1043.15,423.907L1043.39,423.612L1043.63,423.316L1043.87,423.019L1044.11,422.722L1044.34,422.424L1044.58,422.125L1044.81,421.826L1045.05,421.526L1045.28,421.225L1045.51,420.924L1045.74,420.622L1045.97,420.32L1046.2,420.017L1046.43,419.713L1046.65,419.408L1046.88,419.103L1047.11,418.797L1047.33,418.491L1047.55,418.184L1047.77,417.876L1047.99,417.568L1048.21,417.259L1048.43,416.949L1048.65,416.639L1048.87,416.328L1049.08,416.017L1049.3,415.705L1049.51,415.392L1049.72,415.079L1049.93,414.765L1050.14,414.45L1050.35,414.135L1050.56,413.819L1050.77,413.503L1050.98,413.186L1051.18,412.868L1051.38,412.55L1051.59,412.231L1051.79,411.912L1051.99,411.592L1052.19,411.271L1052.39,410.95L1052.59,410.628L1052.79,410.306L1052.98,409.983L1053.18,409.659L1053.37,409.335L1053.56,409.01L1053.76,408.685L1053.95,408.359L1054.13,408.032L1054.32,407.705L1054.51,407.378L1054.7,407.049L1054.88,406.721L1055.07,406.391L1055.25,406.061L1055.43,405.731L1055.61,405.4L1055.79,405.068L1055.97,404.736L1056.15,404.403L1056.33,404.07L1056.5,403.736L1056.68,403.402L1056.85,403.067L1057.02,402.732L1057.19,402.396L1057.36,402.059L1057.53,401.722L1057.7,401.384L1057.87,401.046L1058.03,400.707L1058.2,400.368L1058.36,400.028L1058.52,399.688L1058.68,399.347L1058.84,399.006L1059,398.664L1059.16,398.321L1059.32,397.978L1059.47,397.635L1059.63,397.291L1059.78,396.946L1059.93,396.601L1060.08,396.256L1060.23,395.91L1060.38,395.563L1060.53,395.216L1060.67,394.868L1060.82,394.52L1060.96,394.172L1061.11,393.823L1061.25,393.473L1061.39,393.123L1061.53,392.772L1061.67,392.421L1061.8,392.07L1061.94,391.718L1062.08,391.365L1062.21,391.012L1062.34,390.659L1062.47,390.305L1062.6,389.95L1062.73,389.595L1062.86,389.24L1062.99,388.884L1063.11,388.528L1063.24,388.171L1063.36,387.814L1063.48,387.456L1063.6,387.098L1063.72,386.739L1063.84,386.38L1063.95,386.02L1064.07,385.66L1064.19,385.3L1064.3,384.939L1064.41,384.577L1064.52,384.215L1064.63,383.853L1064.74,383.49L1064.85,383.127L1064.95,382.763L1065.06,382.399L1065.16,382.035L1065.27,381.67L1065.37,381.304L1065.47,380.938L1065.57,380.572L1065.66,380.205L1065.76,379.838L1065.86,379.471L1065.95,379.103L1066.04,378.734L1066.13,378.365L1066.22,377.996L1066.31,377.626L1066.4,377.256L1066.49,376.886L1066.57,376.515L1066.65,376.144L1066.74,375.772L1066.82,375.4L1066.9,375.027L1066.98,374.654L1067.06,374.281L1067.13,373.907L1067.21,373.533L1067.28,373.158L1067.35,372.783L1067.42,372.408L1067.5,372.032L1067.56,371.656L1067.63,371.28L1067.7,370.903L1067.76,370.525L1067.83,370.148L1067.89,369.77L1067.95,369.391L1068.01,369.013L1068.07,368.633L1068.12,368.254L1068.18,367.874L1068.23,367.494L1068.29,367.113L1068.34,366.732L1068.39,366.351L1068.44,365.969L1068.49,365.587L1068.53,365.204L1068.58,364.822L1068.62,364.438L1068.67,364.055L1068.71,363.671L1068.75,363.287L1068.79,362.902L1068.82,362.517L1068.86,362.132L1068.89,361.746L1068.93,361.36L1068.96,360.974L1068.99,360.587L1069.02,360.2L1069.05,359.813L1069.07,359.426L1069.1,359.038L1069.12,358.649L1069.15,358.261L1069.17,357.872L1069.19,357.483L1069.21,357.093L1069.22,356.703L1069.24,356.313L1069.25,355.922L1069.27,355.531L1069.28,355.14L1069.29,354.749L1069.3,354.357L1069.31,353.965L1069.31,353.573L1069.32,353.18L1069.32,352.787L1069.32,352.394L1069.32,352L1069.32,351.606L1069.32,351.213L1069.32,350.82L1069.31,350.427L1069.31,350.035L1069.3,349.643L1069.29,349.251L1069.28,348.86L1069.27,348.469L1069.25,348.078L1069.24,347.687L1069.22,347.297L1069.21,346.907L1069.19,346.517L1069.17,346.128L1069.15,345.739L1069.12,345.351L1069.1,344.962L1069.07,344.574L1069.05,344.187L1069.02,343.8L1068.99,343.412L1068.96,343.026L1068.93,342.64L1068.89,342.254L1068.86,341.868L1068.82,341.483L1068.79,341.098L1068.75,340.713L1068.71,340.329L1068.67,339.945L1068.62,339.562L1068.58,339.178L1068.53,338.796L1068.49,338.413L1068.44,338.031L1068.39,337.649L1068.34,337.268L1068.29,336.887L1068.23,336.506L1068.18,336.126L1068.12,335.746L1068.07,335.367L1068.01,334.987L1067.95,334.609L1067.89,334.23L1067.83,333.852L1067.76,333.475L1067.7,333.097L1067.63,332.72L1067.56,332.344L1067.5,331.968L1067.42,331.592L1067.35,331.217L1067.28,330.842L1067.21,330.467L1067.13,330.093L1067.06,329.719L1066.98,329.346L1066.9,328.973L1066.82,328.6L1066.74,328.228L1066.65,327.856L1066.57,327.485L1066.49,327.114L1066.4,326.744L1066.31,326.374L1066.22,326.004L1066.13,325.635L1066.04,325.266L1065.95,324.897L1065.86,324.529L1065.76,324.162L1065.66,323.795L1065.57,323.428L1065.47,323.062L1065.37,322.696L1065.27,322.33L1065.16,321.965L1065.06,321.601L1064.95,321.237L1064.85,320.873L1064.74,320.51L1064.63,320.147L1064.52,319.785L1064.41,319.423L1064.3,319.061L1064.19,318.7L1064.07,318.34L1063.95,317.98L1063.84,317.62L1063.72,317.261L1063.6,316.902L1063.48,316.544L1063.36,316.186L1063.24,315.829L1063.11,315.472L1062.99,315.116L1062.86,314.76L1062.73,314.405L1062.6,314.05L1062.47,313.695L1062.34,313.341L1062.21,312.988L1062.08,312.635L1061.94,312.282L1061.8,311.93L1061.67,311.579L1061.53,311.227L1061.39,310.877L1061.25,310.527L1061.11,310.177L1060.96,309.828L1060.82,309.48L1060.67,309.132L1060.53,308.784L1060.38,308.437L1060.23,308.09L1060.08,307.744L1059.93,307.399L1059.78,307.054L1059.63,306.709L1059.47,306.365L1059.32,306.022L1059.16,305.679L1059,305.336L1058.84,304.994L1058.68,304.653L1058.52,304.312L1058.36,303.972L1058.2,303.632L1058.03,303.293L1057.87,302.954L1057.7,302.616L1057.53,302.278L1057.36,301.941L1057.19,301.605L1057.02,301.268L1056.85,300.933L1056.68,300.598L1056.5,300.264L1056.33,299.93L1056.15,299.597L1055.97,299.264L1055.79,298.932L1055.61,298.6L1055.43,298.269L1055.25,297.939L1055.07,297.609L1054.88,297.279L1054.7,296.951L1054.51,296.622L1054.32,296.295L1054.13,295.968L1053.95,295.641L1053.76,295.315L1053.56,294.99L1053.37,294.665L1053.18,294.341L1052.98,294.017L1052.79,293.694L1052.59,293.372L1052.39,293.05L1052.19,292.729L1051.99,292.408L1051.79,292.088L1051.59,291.769L1051.38,291.45L1051.18,291.132L1050.98,290.814L1050.77,290.497L1050.56,290.181L1050.35,289.865L1050.14,289.55L1049.93,289.235L1049.72,288.921L1049.51,288.608L1049.3,288.295L1049.08,287.983L1048.87,287.672L1048.65,287.361L1048.43,287.051L1048.21,286.741L1047.99,286.432L1047.77,286.124L1047.55,285.816L1047.33,285.509L1047.11,285.203L1046.88,284.897L1046.65,284.592L1046.43,284.287L1046.2,283.983L1045.97,283.68L1045.74,283.378L1045.51,283.076L1045.28,282.775L1045.05,282.474L1044.81,282.174L1044.58,281.875L1044.34,281.576L1044.11,281.278L1043.87,280.981L1043.63,280.684L1043.39,280.388L1043.15,280.093L1042.91,279.799L1042.67,279.505L1042.43,279.211L1042.18,278.919L1041.94,278.627L1041.69,278.336L1041.44,278.045L1041.19,277.755L1040.95,277.466L1040.7,277.178L1040.45,276.89L1040.19,276.603L1039.94,276.317L1039.69,276.031L1039.43,275.746L1039.18,275.462L1038.92,275.178L1038.66,274.895L1038.41,274.613L1038.15,274.331L1037.89,274.051L1037.63,273.771L1037.36,273.491L1037.1,273.213L1036.84,272.935L1036.57,272.658L1036.31,272.381L1036.04,272.105L1035.77,271.83L1035.51,271.556L1035.24,271.283L1034.97,271.01L1034.69,270.738L1034.42,270.466L1034.15,270.196L1033.88,269.926L1033.6,269.657L1033.33,269.388L1033.05,269.121L1032.77,268.854L1032.5,268.588L1032.22,268.322L1031.94,268.058L1031.66,267.794L1031.38,267.531L1031.09,267.268L1030.81,267.006L1030.53,266.746L1030.24,266.485L1029.95,266.226L1029.67,265.968L1029.38,265.71L1029.09,265.453L1028.8,265.197L1028.51,264.941L1028.22,264.686L1027.93,264.432L1027.64,264.179L1027.34,263.927L1027.05,263.675L1026.76,263.424L1026.46,263.174L1026.16,262.925L1025.86,262.677L1025.57,262.429L1025.27,262.182L1024.97,261.936L1024.66,261.691L1024.36,261.447L1024.06,261.203L1023.76,260.96L1023.45,260.718L1023.15,260.477L1022.84,260.236L1022.54,259.997L1022.23,259.758L1021.92,259.52L1021.61,259.283L1021.3,259.047L1020.99,258.811L1020.68,258.576L1020.37,258.343L1020.05,258.109L1019.74,257.877L1019.43,257.646L1019.11,257.415L1018.8,257.186L1018.48,256.957L1018.16,256.729L1017.84,256.502L1017.52,256.275L1017.2,256.05L1016.88,255.825L1016.56,255.601L1016.24,255.378L1015.92,255.156L1015.59,254.935L1015.27,254.715L1014.94,254.495L1014.62,254.276L1014.29,254.058L1013.96,253.841L1013.63,253.625L1013.3,253.41L1012.97,253.196L1012.64,252.982L1012.31,252.77L1011.98,252.558L1011.65,252.347L1011.31,252.137L1010.98,251.928L1010.64,251.72L1010.31,251.512L1009.97,251.306L1009.63,251.1L1009.3,250.896L1008.96,250.692L1008.62,250.489L1008.28,250.287L1007.94,250.086L1007.6,249.886L1007.25,249.686L1006.91,249.488L1006.57,249.291L1006.22,249.094L1005.88,248.898L1005.53,248.703L1005.19,248.51L1004.84,248.317L1004.49,248.125L1004.14,247.934L1003.79,247.743L1003.44,247.554L1003.09,247.366L1002.74,247.178L1002.39,246.992L1002.04,246.806L1001.69,246.622L1001.33,246.438L1000.98,246.255L1000.62,246.073L1000.27,245.892L999.909,245.712L999.552,245.533L999.194,245.355L998.836,245.178L998.477,245.002L998.117,244.827L997.756,244.652L997.395,244.479L997.033,244.307L996.671,244.135L996.308,243.965L995.944,243.795L995.58,243.627L995.215,243.459L994.849,243.293L994.483,243.127L994.116,242.962L993.749,242.799L993.381,242.636L993.012,242.474L992.643,242.313L992.273,242.154L991.902,241.995L991.531,241.837L991.159,241.68L990.787,241.524L990.413,241.369L990.04,241.215L989.666,241.063L989.291,240.911L988.915,240.76L988.539,240.61L988.162,240.461L987.785,240.313L987.407,240.166L987.029,240.02L986.65,239.875L986.27,239.731L985.89,239.589L985.509,239.447L985.128,239.306L984.746,239.166L984.363,239.027L983.98,238.889L983.597,238.753L983.212,238.617L982.828,238.482L982.442,238.349L982.056,238.216L981.67,238.084L981.283,237.954L980.895,237.824L980.507,237.696L980.118,237.568L979.729,237.442L979.339,237.316L978.949,237.192L978.558,237.068L978.166,236.946L977.774,236.825L977.382,236.705L976.989,236.586L976.595,236.468L976.201,236.351L975.806,236.235L975.411,236.12L975.015,236.006L974.619,235.893L974.222,235.782L973.825,235.671L973.427,235.561L973.029,235.453L972.63,235.345L972.23,235.239L971.83,235.134L971.43,235.03L971.029,234.927L970.628,234.825L970.226,234.724L969.823,234.624L969.42,234.525L969.017,234.427L968.613,234.331L968.209,234.235L967.804,234.141L967.398,234.048L966.993,233.956L966.586,233.864L966.179,233.774L965.772,233.686L965.364,233.598L964.956,233.511L964.547,233.426L964.138,233.341L963.728,233.258L963.318,233.176L962.908,233.095L962.497,233.015L962.085,232.936L961.673,232.858L961.261,232.781L960.848,232.706L960.434,232.632L960.02,232.558L959.606,232.486L959.191,232.415L958.776,232.346L958.361,232.277L957.945,232.209L957.528,232.143L957.111,232.078L956.694,232.014L956.276,231.951L955.858,231.889L955.439,231.828L955.02,231.769L954.6,231.711L954.18,231.653L953.76,231.597L953.339,231.543L952.918,231.489L952.496,231.436L952.074,231.385L951.652,231.335L951.229,231.286L950.806,231.238L950.382,231.191L949.958,231.146L949.533,231.102L949.108,231.058L948.683,231.017L948.258,230.976L947.831,230.936L947.405,230.898L946.978,230.861L946.551,230.825L946.123,230.79L945.695,230.756L945.267,230.724L944.838,230.693L944.409,230.663L943.979,230.634L943.549,230.606L943.119,230.58L942.688,230.554L942.257,230.53L941.826,230.508L941.394,230.486L940.962,230.466L940.529,230.447L940.097,230.429L939.663,230.412L939.23,230.397L938.796,230.382L938.362,230.369L937.927,230.358L937.492,230.347L937.057,230.338L936.621,230.33L936.185,230.323L935.749,230.317L935.312,230.313L934.875,230.31L934.438,230.308L934,230.307L933.562,230.308Z" style="fill:rgb(66,66,66);"/>
    </g>
    <g id="Logo" transform="matrix(0.544034,0,0,0.544034,-392.139,-345.352)">
        <g transform="matrix(1,0,0,1,1155,784.5)">
            <path d="M0,569C-75.993,569 -147.437,539.407 -201.172,485.672C-254.907,431.938 -284.5,360.493 -284.5,284.5C-284.5,208.507 -254.907,137.063 -201.172,83.328C-147.437,29.593 -75.993,0 0,0C75.993,0 147.437,29.593 201.172,83.328C254.907,137.063 284.5,208.507 284.5,284.5C284.5,360.493 254.907,431.938 201.172,485.672C147.437,539.407 75.993,569 0,569" style="fill:white;fill-rule:nonzero;"/>
        </g>
        <g transform="matrix(1,0,0,1,1155,1354)">
            <path d="M0,-570C-157.401,-570 -285,-442.401 -285,-285C-285,-127.599 -157.401,0 0,0C157.401,0 285,-127.599 285,-285C285,-442.401 157.401,-570 0,-570M0,-569C38.34,-569 75.533,-561.491 110.545,-546.682C144.363,-532.378 174.736,-511.901 200.818,-485.818C226.9,-459.736 247.378,-429.364 261.683,-395.545C276.491,-360.533 284,-323.34 284,-285C284,-246.66 276.491,-209.467 261.683,-174.455C247.378,-140.637 226.9,-110.264 200.818,-84.182C174.736,-58.1 144.363,-37.622 110.545,-23.317C75.533,-8.509 38.34,-1 0,-1C-38.34,-1 -75.533,-8.509 -110.545,-23.317C-144.364,-37.622 -174.736,-58.1 -200.818,-84.182C-226.901,-110.264 -247.378,-140.637 -261.682,-174.455C-276.491,-209.467 -284,-246.66 -284,-285C-284,-323.34 -276.491,-360.533 -261.682,-395.545C-247.378,-429.364 -226.901,-459.736 -200.818,-485.818C-174.736,-511.901 -144.364,-532.378 -110.545,-546.682C-75.533,-561.491 -38.34,-569 0,-569" style="fill:white;fill-rule:nonzero;"/>
        </g>
        <g transform="matrix(1,0,0,1,1370.61,1243.41)">
            <path d="M0,-348.826C-3.443,-344.948 -22.34,-327.191 -42.651,-309.708C-70.381,-285.839 -99.525,-263.252 -129.276,-242.573C-135.251,-238.099 -140.906,-233.139 -146.098,-227.818C-152.971,-220.775 -159.147,-212.988 -164.458,-204.675C-164.538,-204.556 -173.146,-191.656 -180.077,-177.081C-183.4,-170.094 -184.493,-166.78 -186.303,-161.29C-188.341,-155.11 -191.42,-145.771 -199.889,-124.727C-201.062,-121.816 -207.096,-106.238 -210.717,-85.382C-212.331,-76.092 -212.807,-69.827 -210.7,-63.34C-209.126,-58.489 -201.812,-49.741 -193.345,-39.611C-185.841,-30.635 -177.336,-20.461 -171.044,-10.893C-149.549,21.791 -132.559,61.201 -122.09,88.506C-121.649,89.583 -119.616,94.515 -119.616,94.515L-119.166,94.354C-6.083,53.774 69.895,-54.236 69.895,-174.413C69.895,-331.838 -58.181,-459.913 -215.605,-459.913C-373.031,-459.913 -501.105,-331.838 -501.105,-174.413C-501.105,-126.994 -489.233,-80.025 -466.772,-38.586L-466.281,-37.679L-465.874,-38.627C-464.82,-41.08 -463.813,-43.491 -462.879,-45.791C-441.901,-107.292 -435.869,-162.502 -435.623,-164.822C-435.314,-167.724 -435.041,-170.542 -434.772,-173.302C-433.2,-189.496 -431.842,-203.483 -424.854,-221.38C-416.565,-242.607 -405.355,-255.99 -397.937,-264.845C-368.562,-299.914 -334.731,-313.949 -317.179,-319.193C-309.684,-321.432 -297.139,-325.18 -281.337,-325.18C-275.344,-325.18 -269.314,-324.629 -263.415,-323.541C-260.164,-322.941 -258.841,-322.53 -256.649,-321.848C-254.776,-321.266 -252.211,-320.469 -247.249,-319.188C-236.774,-316.485 -212.246,-310.156 -187.663,-310.156C-184.59,-310.156 -181.571,-310.256 -178.691,-310.452C-159.852,-311.739 -146.17,-317.126 -137.117,-320.691L-135.345,-321.387C-100.533,-334.98 -55.001,-344.211 0,-348.826M-215.605,125.087C-233.523,125.087 -251.585,123.46 -269.29,120.25C-272.827,119.61 -275.9,119.008 -278.687,118.409C-284.064,117.257 -289.472,115.939 -294.761,114.493C-332.274,104.238 -367,86.965 -397.972,63.154C-428.564,39.636 -454.015,10.896 -473.617,-22.268C-500.759,-68.187 -515.105,-120.799 -515.105,-174.413C-515.105,-254.412 -483.952,-329.623 -427.384,-386.191C-370.816,-442.76 -295.605,-473.913 -215.605,-473.913C-135.606,-473.913 -60.395,-442.76 -3.827,-386.191C52.741,-329.623 83.895,-254.412 83.895,-174.413C83.895,-111.615 64.668,-51.503 28.293,-0.575C-7.299,49.257 -56.42,86.556 -113.758,107.288C-128.578,112.647 -143.897,116.848 -159.289,119.777C-163.388,120.557 -167.429,121.244 -171.3,121.819C-178.362,122.866 -185.588,123.674 -192.777,124.219C-200.371,124.795 -208.051,125.087 -215.605,125.087" style="fill:rgb(66,66,66);fill-rule:nonzero;"/>
        </g>
        <g transform="matrix(1,0,0,1,904.273,933.411)">
            <path d="M0,271.178C-21.854,230.857 -34.272,184.676 -34.272,135.589C-34.272,-21.812 93.326,-149.411 250.728,-149.411C408.129,-149.411 535.728,-21.812 535.728,135.589C535.728,259.199 457.021,364.403 346.998,403.885C346.237,402.033 345.467,400.179 344.71,398.329C334.542,371.807 317.434,331.871 295.707,298.834C282.306,278.455 259.026,255.497 256.108,246.508C254.092,240.296 254.46,234.196 256.108,224.706C259.9,202.866 266.333,186.889 266.908,185.461C282.771,146.041 279.603,148.076 286.707,133.136C293.703,118.426 302.297,105.596 302.297,105.596C306.699,98.704 312.653,90.67 320.593,82.533C326.407,76.574 332.143,71.733 337.342,67.84C360.148,51.988 390.282,29.703 424.008,0.673C445.889,-18.161 467.848,-38.827 467.341,-39.41C467.335,-39.417 467.325,-39.42 467.312,-39.42C467.29,-39.42 467.261,-39.412 467.226,-39.4C399.082,-33.758 357.166,-22.143 330.807,-11.85C321.748,-8.313 307.633,-2.317 287.607,-0.949C284.64,-0.746 281.651,-0.654 278.669,-0.654C254.15,-0.654 229.92,-6.906 219.209,-9.67C208.487,-12.437 209.103,-12.907 203.009,-14.03C196.641,-15.205 190.617,-15.679 184.996,-15.679C169.545,-15.679 157.143,-12.1 149.011,-9.67C133.694,-5.093 98.826,8.05 68.013,44.836C59.846,54.585 49.166,67.563 41.013,88.441C32.798,109.48 32.32,125.3 30.213,145.127C29.826,148.781 23.65,203.453 2.99,264.023C2.035,266.379 1.035,268.767 0,271.178M250.728,-164.411C85.042,-164.411 -49.272,-30.096 -49.272,135.589C-49.272,191.232 -34.114,243.325 -7.715,287.989C31.472,354.286 95.436,404.2 171.44,424.978C176.75,426.429 182.118,427.738 187.541,428.901C190.659,429.57 193.801,430.173 196.954,430.744C214.403,433.907 232.367,435.589 250.728,435.589C258.422,435.589 266.046,435.292 273.594,434.72C280.839,434.17 288.014,433.367 295.106,432.316C299.146,431.716 303.153,431.029 307.138,430.27C322.808,427.288 338.041,423.076 352.745,417.76C468.203,376.013 550.728,265.451 550.728,135.589C550.728,-30.096 416.413,-164.411 250.728,-164.411M0.104,273.469L0.919,271.573C1.975,269.113 2.984,266.699 3.917,264.399L3.928,264.372L3.937,264.346C24.926,202.812 30.961,147.555 31.208,145.233C31.517,142.327 31.792,139.492 32.058,136.75C33.626,120.592 34.981,106.636 41.945,88.804C50.204,67.654 61.382,54.309 68.779,45.478C98.071,10.509 131.799,-3.484 149.297,-8.712C156.766,-10.944 169.267,-14.679 184.996,-14.679C190.959,-14.679 196.958,-14.13 202.828,-13.047C206.049,-12.453 207.361,-12.045 209.534,-11.369C211.412,-10.785 213.984,-9.986 218.959,-8.702C229.452,-5.994 254.023,0.346 278.669,0.346C281.754,0.346 284.784,0.246 287.676,0.049C306.592,-1.243 320.316,-6.647 329.397,-10.223C330.009,-10.464 330.6,-10.696 331.17,-10.919C365.667,-24.389 410.716,-33.571 465.095,-38.217C460.131,-33.033 442.435,-16.507 423.355,-0.085C395.64,23.773 366.508,46.35 336.742,67.039C330.761,71.518 325.087,76.495 319.877,81.835C312.982,88.901 306.784,96.714 301.466,105.039C301.38,105.168 292.751,118.099 285.805,132.706C282.468,139.723 281.371,143.048 279.555,148.557C277.519,154.731 274.442,164.061 265.979,185.091C264.802,188.016 258.747,203.663 255.123,224.534C253.495,233.906 253.02,240.232 255.157,246.817C256.762,251.76 264.104,260.542 272.605,270.712C280.101,279.678 288.596,289.84 294.872,299.383C316.34,332.028 333.315,371.404 343.785,398.708C344.249,399.844 344.719,400.981 345.188,402.118L346.073,404.266L346.437,405.15L347.336,404.826C460.617,364.175 536.728,255.977 536.728,135.589C536.728,-22.112 408.429,-150.411 250.728,-150.411C93.026,-150.411 -35.272,-22.112 -35.272,135.589C-35.272,183.091 -23.379,230.142 -0.879,271.655L0.104,273.469M250.728,-163.411C291.093,-163.411 330.25,-155.506 367.111,-139.914C402.716,-124.855 434.692,-103.296 462.152,-75.836C489.612,-48.376 511.172,-16.4 526.231,19.205C541.822,56.067 549.728,95.224 549.728,135.589C549.728,198.282 530.533,258.294 494.22,309.136C476.732,333.619 455.726,355.282 431.782,373.525C407.594,391.954 380.887,406.521 352.404,416.82C337.61,422.169 322.317,426.364 306.951,429.287C302.839,430.071 298.804,430.756 294.96,431.326C287.906,432.372 280.692,433.179 273.519,433.723C265.937,434.298 258.27,434.589 250.728,434.589C232.837,434.589 214.806,432.964 197.133,429.76C193.548,429.111 190.566,428.527 187.75,427.923C182.39,426.774 176.991,425.458 171.704,424.013C134.253,413.776 99.586,396.532 68.666,372.76C38.124,349.281 12.716,320.588 -6.854,287.48C-33.95,241.637 -48.272,189.115 -48.272,135.589C-48.272,95.224 -40.367,56.067 -24.776,19.205C-9.716,-16.4 11.843,-48.376 39.303,-75.836C66.763,-103.296 98.739,-124.855 134.344,-139.914C171.205,-155.506 210.362,-163.411 250.728,-163.411" style="fill:rgb(66,66,66);fill-rule:nonzero;"/>
        </g>
        <g transform="matrix(1,0,0,1,1121.16,984.056)">
            <path d="M0,-16.295C-4.75,-11 -11.507,-7.674 -19.033,-7.674C-32.229,-7.674 -43.099,-17.855 -44.817,-31.05C-62.567,-22.852 -75.277,-3.75 -70.639,5.437C-65.935,14.755 -43.167,14.31 -27.566,7.802C-16.064,3.002 -3.672,-7.095 0,-16.295Z" style="fill:rgb(117,117,117);fill-rule:nonzero;stroke:rgb(117,117,117);stroke-width:1.84px;"/>
        </g>
        <g transform="matrix(1,0,0,1,1102.13,949.893)">
            <path d="M0,26.489C7.526,26.489 14.284,23.163 19.033,17.868C19.814,15.91 20.21,13.992 20.108,12.176C20.06,11.304 19.912,10.452 19.628,9.633C19.196,8.386 18.49,7.244 17.559,6.209C16.26,14.406 9.102,20.685 0.44,20.685C-9.141,20.685 -16.908,13.011 -16.908,3.544C-16.908,2.328 -16.776,1.144 -16.533,0C-17.511,0.211 -18.473,0.45 -19.413,0.72C-21.397,1.289 -23.34,2.009 -25.229,2.851C-25.416,2.935 -25.598,3.027 -25.784,3.113C-24.066,16.308 -13.195,26.489 0,26.489" style="fill:white;fill-rule:nonzero;"/>
        </g>
        <g transform="matrix(1,0,0,1,1102.13,949.893)">
            <path d="M0,26.489C7.526,26.489 14.284,23.163 19.033,17.868C19.814,15.91 20.21,13.992 20.108,12.176C20.06,11.304 19.912,10.452 19.628,9.633C19.196,8.386 18.49,7.244 17.559,6.209C16.26,14.406 9.102,20.685 0.44,20.685C-9.141,20.685 -16.908,13.011 -16.908,3.544C-16.908,2.328 -16.776,1.144 -16.533,0C-17.511,0.211 -18.473,0.45 -19.413,0.72C-21.397,1.289 -23.34,2.009 -25.229,2.851C-25.416,2.935 -25.598,3.027 -25.784,3.113C-24.066,16.308 -13.195,26.489 0,26.489Z" style="fill:none;stroke:white;stroke-width:1.84px;"/>
        </g>
        <g transform="matrix(1,0,0,1,1191.98,1264.39)">
            <path d="M0,6.896C-3.653,0.26 -3.518,1.387 -15.438,-17.047C-32.509,-43.447 -35.542,-50.016 -45.287,-59.233C-53.188,-66.706 -57.746,-71.017 -64.842,-71.774C-77.632,-73.139 -81.542,-61.512 -94.69,-58.092C-118.6,-51.874 -136.254,-82.719 -148.211,-75.195C-155.418,-70.66 -150.362,-58.597 -154.387,-33.009C-159.207,-2.361 -170.912,0.947 -179.089,43.38C-179.607,46.073 -180.052,48.563 -180.437,50.896C-149.27,69.087 -114.344,81.542 -77.1,86.791C-76.877,86.822 -76.653,86.853 -76.43,86.884C-72.296,87.457 -68.136,87.943 -63.948,88.336C-62.815,88.443 -61.681,88.544 -60.545,88.638C-59.656,88.711 -58.768,88.785 -57.877,88.849C-55.911,88.993 -53.94,89.121 -51.962,89.224C-51.505,89.248 -51.046,89.262 -50.589,89.284C-48.839,89.367 -47.086,89.433 -45.329,89.484C-44.715,89.501 -44.101,89.519 -43.486,89.533C-41.323,89.582 -39.156,89.615 -36.981,89.615C-13.685,89.615 8.951,86.797 30.624,81.52C24.407,66.231 23.436,62.212 16.469,44.52C9.355,26.458 5.684,17.215 0,6.896" style="fill:white;fill-rule:nonzero;"/>
        </g>
        <g transform="matrix(1,0,0,1,1191.98,1264.39)">
            <path d="M0,6.896C-3.653,0.26 -3.518,1.387 -15.438,-17.047C-32.509,-43.447 -35.542,-50.016 -45.287,-59.233C-53.188,-66.706 -57.746,-71.017 -64.842,-71.774C-77.632,-73.139 -81.542,-61.512 -94.69,-58.092C-118.6,-51.874 -136.254,-82.719 -148.211,-75.195C-155.418,-70.66 -150.362,-58.597 -154.387,-33.009C-159.207,-2.361 -170.912,0.947 -179.089,43.38C-179.607,46.073 -180.052,48.563 -180.437,50.896C-149.27,69.087 -114.344,81.542 -77.1,86.791C-76.877,86.822 -76.653,86.853 -76.43,86.884C-72.296,87.457 -68.136,87.943 -63.948,88.336C-62.815,88.443 -61.681,88.544 -60.545,88.638C-59.656,88.711 -58.768,88.785 -57.877,88.849C-55.911,88.993 -53.94,89.121 -51.962,89.224C-51.505,89.248 -51.046,89.262 -50.589,89.284C-48.839,89.367 -47.086,89.433 -45.329,89.484C-44.715,89.501 -44.101,89.519 -43.486,89.533C-41.323,89.582 -39.156,89.615 -36.981,89.615C-13.685,89.615 8.951,86.797 30.624,81.52C24.407,66.231 23.436,62.212 16.469,44.52C9.355,26.458 5.684,17.215 0,6.896Z" style="fill:none;stroke:white;stroke-width:1.84px;"/>
        </g>
        <g transform="matrix(1,0,0,1,1221.03,933.098)">
            <path d="M0,65.986C0,65.986 21.082,50.946 62.833,21.569C93.888,-0.282 116.702,-15.343 127.832,-23.931C129.908,-25.533 132.019,-27.089 134.145,-28.623C139.067,-32.174 79.679,-14.623 46.133,-2.653C11.226,9.804 -23.955,22.379 -58.851,34.87C-61.794,41.896 -66.301,50.671 -73.25,59.024C-105.81,98.16 -159.722,89.257 -159.648,91.961C-159.606,93.511 -141.895,95.635 -91.25,94.156C-63.61,93.349 -57.264,94.884 -46.251,91.961C-30.27,87.718 -20.748,80.787 0,65.986Z" style="fill:white;fill-rule:nonzero;stroke:white;stroke-width:1.84px;"/>
        </g>
    </g>
    <g transform="matrix(1,0,0,1,56,56)">
        <g id="Description">
            <g transform="matrix(-0.610905,-0.791704,0.791704,-0.610905,-165.466,516.412)">
                <text x="44.167px" y="298.867px" style="font-family:'OpenSansCondensed-Light', 'Open Sans Condensed', sans-serif;font-weight:300;font-stretch:condensed;font-size:54.167px;">L</text>
            </g>
            <g transform="matrix(-0.56676,-0.823883,0.823883,-0.56676,-181.851,477.179)">
                <text x="34.537px" y="286.403px" style="font-family:'OpenSansCondensed-Light', 'Open Sans Condensed', sans-serif;font-weight:300;font-stretch:condensed;font-size:54.167px;">i</text>
            </g>
            <g transform="matrix(-0.503238,-0.864148,0.864148,-0.503238,-197.199,448.057)">
                <text x="30.185px" y="280.709px" style="font-family:'OpenSansCondensed-Light', 'Open Sans Condensed', sans-serif;font-weight:300;font-stretch:condensed;font-size:54.167px;">n</text>
            </g>
            <g transform="matrix(-0.40523,-0.914215,0.914215,-0.40523,-212.847,388.684)">
                <text x="20.012px" y="263.579px" style="font-family:'OpenSansCondensed-Light', 'Open Sans Condensed', sans-serif;font-weight:300;font-stretch:condensed;font-size:54.167px;">u</text>
            </g>
            <g transform="matrix(-0.314193,-0.949359,0.949359,-0.314193,-217.257,333.665)">
                <text x="11.89px" y="245.304px" style="font-family:'OpenSansCondensed-Light', 'Open Sans Condensed', sans-serif;font-weight:300;font-stretch:condensed;font-size:54.167px;">x</text>
            </g>
            <g transform="matrix(-0.149663,-0.988737,0.988737,-0.149663,-214.115,258.632)">
                <text x="4.157px" y="221.388px" style="font-family:'OpenSansCondensed-Light', 'Open Sans Condensed', sans-serif;font-weight:300;font-stretch:condensed;font-size:54.167px;">G</text>
            </g>
            <g transform="matrix(-0.0384309,-0.999261,0.999261,-0.0384309,-195.673,204.348)">
                <text x="0.484px" y="196.32px" style="font-family:'OpenSansCondensed-Light', 'Open Sans Condensed', sans-serif;font-weight:300;font-stretch:condensed;font-size:54.167px;">r</text>
            </g>
            <g transform="matrix(0.0317005,-0.999497,0.999497,0.0317005,-185.812,179.5)">
                <text x="-0.264px" y="185.649px" style="font-family:'OpenSansCondensed-Light', 'Open Sans Condensed', sans-serif;font-weight:300;font-stretch:condensed;font-size:54.167px;">o</text>
            </g>
            <g transform="matrix(0.139535,-0.990217,0.990217,0.139535,-164.457,143.206)">
                <text x="0.172px" y="166.231px" style="font-family:'OpenSansCondensed-Light', 'Open Sans Condensed', sans-serif;font-weight:300;font-stretch:condensed;font-size:54.167px;">u</text>
            </g>
            <g transform="matrix(0.254307,-0.967123,0.967123,0.254307,-139.55,111.811)">
                <text x="2.731px" y="146.4px" style="font-family:'OpenSansCondensed-Light', 'Open Sans Condensed', sans-serif;font-weight:300;font-stretch:condensed;font-size:54.167px;">p</text>
            </g>
            <g transform="matrix(0.386966,-0.922094,0.922094,0.386966,-100.851,82.0981)">
                <text x="11.318px" y="116.896px" style="font-family:'OpenSansCondensed-Light', 'Open Sans Condensed', sans-serif;font-weight:300;font-stretch:condensed;font-size:54.167px;">-</text>
            </g>
            <g transform="matrix(0.546181,-0.837667,0.837667,0.546181,-72.9567,60.1882)">
                <text x="19.07px" y="97.426px" style="font-family:'OpenSansCondensed-Light', 'Open Sans Condensed', sans-serif;font-weight:300;font-stretch:condensed;font-size:54.167px;">M</text>
            </g>
            <g transform="matrix(0.66292,-0.74869,0.74869,0.66292,-39.1,51.6498)">
                <text x="37.81px" y="69.248px" style="font-family:'OpenSansCondensed-Light', 'Open Sans Condensed', sans-serif;font-weight:300;font-stretch:condensed;font-size:54.167px;">o</text>
            </g>
            <g transform="matrix(0.722206,-0.691678,0.691678,0.722206,-24.1488,50.1262)">
                <text x="50.33px" y="55.127px" style="font-family:'OpenSansCondensed-Light', 'Open Sans Condensed', sans-serif;font-weight:300;font-stretch:condensed;font-size:54.167px;">z</text>
            </g>
            <g transform="matrix(0.755809,-0.654792,0.654792,0.755809,-16.7151,49.8205)">
                <text x="58.439px" y="47.321px" style="font-family:'OpenSansCondensed-Light', 'Open Sans Condensed', sans-serif;font-weight:300;font-stretch:condensed;font-size:54.167px;">i</text>
            </g>
            <g transform="matrix(0.781095,-0.624413,0.624413,0.781095,-12.602,49.1795)">
                <text x="63.84px" y="42.563px" style="font-family:'OpenSansCondensed-Light', 'Open Sans Condensed', sans-serif;font-weight:300;font-stretch:condensed;font-size:54.167px;">l</text>
            </g>
            <g transform="matrix(0.804762,-0.593598,0.593598,0.804762,-9.09673,48.5794)">
                <text x="69.301px" y="38.118px" style="font-family:'OpenSansCondensed-Light', 'Open Sans Condensed', sans-serif;font-weight:300;font-stretch:condensed;font-size:54.167px;">l</text>
            </g>
            <g transform="matrix(0.841343,-0.540502,0.540502,0.841343,-6.28447,45.8616)">
                <text x="74.977px" y="33.636px" style="font-family:'OpenSansCondensed-Light', 'Open Sans Condensed', sans-serif;font-weight:300;font-stretch:condensed;font-size:54.167px;">a</text>
            </g>
            <g transform="matrix(0.920306,-0.391198,0.391198,0.920306,0.413868,40.1087)">
                <text x="98.649px" y="19.039px" style="font-family:'OpenSansCondensed-Light', 'Open Sans Condensed', sans-serif;font-weight:300;font-stretch:condensed;font-size:54.167px;">C</text>
            </g>
            <g transform="matrix(0.95341,-0.301677,0.301677,0.95341,2.05149,35.7502)">
                <text x="116.77px" y="11.233px" style="font-family:'OpenSansCondensed-Light', 'Open Sans Condensed', sans-serif;font-weight:300;font-stretch:condensed;font-size:54.167px;">a</text>
            </g>
            <g transform="matrix(0.986519,-0.163648,0.163648,0.986519,0.939177,21.9212)">
                <text x="133.52px" y="5.26px" style="font-family:'OpenSansCondensed-Light', 'Open Sans Condensed', sans-serif;font-weight:300;font-stretch:condensed;font-size:54.167px;">m</text>
            </g>
            <g transform="matrix(0.999848,-0.0174397,0.0174397,0.999848,0.0207407,2.86956)">
                <text x="164.54px" y="0.246px" style="font-family:'OpenSansCondensed-Light', 'Open Sans Condensed', sans-serif;font-weight:300;font-stretch:condensed;font-size:54.167px;">p</text>
            </g>
            <g transform="matrix(0.995963,0.0897603,-0.0897603,0.995963,0.721023,-16.622)">
                <text x="185.169px" y="-0.294px" style="font-family:'OpenSansCondensed-Light', 'Open Sans Condensed', sans-serif;font-weight:300;font-stretch:condensed;font-size:54.167px;">u</text>
            </g>
            <g transform="matrix(0.982971,0.183758,-0.183758,0.982971,3.76745,-37.6595)">
                <text x="205.079px" y="1.498px" style="font-family:'OpenSansCondensed-Light', 'Open Sans Condensed', sans-serif;font-weight:300;font-stretch:condensed;font-size:54.167px;">s</text>
            </g>
            <g transform="matrix(0.952235,0.305366,-0.305366,0.952235,12.9055,-69.5403)">
                <text x="228.742px" y="6.483px" style="font-family:'OpenSansCondensed-Light', 'Open Sans Condensed', sans-serif;font-weight:300;font-stretch:condensed;font-size:54.167px;">-</text>
            </g>
            <g transform="matrix(0.899938,0.436018,-0.436018,0.899938,30.5412,-107.044)">
                <text x="248.492px" y="13.019px" style="font-family:'OpenSansCondensed-Light', 'Open Sans Condensed', sans-serif;font-weight:300;font-stretch:condensed;font-size:54.167px;">F</text>
            </g>
            <g transform="matrix(0.863387,0.504542,-0.504542,0.863387,46.0008,-130.034)">
                <text x="263.123px" y="19.929px" style="font-family:'OpenSansCondensed-Light', 'Open Sans Condensed', sans-serif;font-weight:300;font-stretch:condensed;font-size:54.167px;">r</text>
            </g>
            <g transform="matrix(0.827269,0.561806,-0.561806,0.827269,61.1485,-148.767)">
                <text x="272.506px" y="25.059px" style="font-family:'OpenSansCondensed-Light', 'Open Sans Condensed', sans-serif;font-weight:300;font-stretch:condensed;font-size:54.167px;">e</text>
            </g>
            <g transform="matrix(0.766685,0.642023,-0.642023,0.766685,89.7049,-176.487)">
                <text x="287.676px" y="35.179px" style="font-family:'OpenSansCondensed-Light', 'Open Sans Condensed', sans-serif;font-weight:300;font-stretch:condensed;font-size:54.167px;">e</text>
            </g>
            <g transform="matrix(0.657042,0.753854,-0.753854,0.657042,146.607,-214.55)">
                <text x="309.105px" y="53.853px" style="font-family:'OpenSansCondensed-Light', 'Open Sans Condensed', sans-serif;font-weight:300;font-stretch:condensed;font-size:54.167px;">S</text>
            </g>
            <g transform="matrix(0.575068,0.818106,-0.818106,0.575068,191.797,-234.147)">
                <text x="321.295px" y="67.556px" style="font-family:'OpenSansCondensed-Light', 'Open Sans Condensed', sans-serif;font-weight:300;font-stretch:condensed;font-size:54.167px;">o</text>
            </g>
            <g transform="matrix(0.504542,0.863387,-0.863387,0.504542,236.804,-245.652)">
                <text x="332.439px" y="83.502px" style="font-family:'OpenSansCondensed-Light', 'Open Sans Condensed', sans-serif;font-weight:300;font-stretch:condensed;font-size:54.167px;">f</text>
            </g>
            <g transform="matrix(0.46518,0.885216,-0.885216,0.46518,260.903,-249.585)">
                <text x="337.004px" y="91.126px" style="font-family:'OpenSansCondensed-Light', 'Open Sans Condensed', sans-serif;font-weight:300;font-stretch:condensed;font-size:54.167px;">t</text>
            </g>
            <g transform="matrix(0.376338,0.926483,-0.926483,0.376338,304.566,-254.977)">
                <text x="341.674px" y="98.736px" style="font-family:'OpenSansCondensed-Light', 'Open Sans Condensed', sans-serif;font-weight:300;font-stretch:condensed;font-size:54.167px;">w</text>
            </g>
            <g transform="matrix(0.263706,0.964603,-0.964603,0.263706,377.939,-248.231)">
                <text x="351.57px" y="123.45px" style="font-family:'OpenSansCondensed-Light', 'Open Sans Condensed', sans-serif;font-weight:300;font-stretch:condensed;font-size:54.167px;">a</text>
            </g>
            <g transform="matrix(0.169847,0.98547,-0.98547,0.169847,434.23,-234.46)">
                <text x="356.278px" y="140.506px" style="font-family:'OpenSansCondensed-Light', 'Open Sans Condensed', sans-serif;font-weight:300;font-stretch:condensed;font-size:54.167px;">r</text>
            </g>
            <g transform="matrix(0.102736,0.994709,-0.994709,0.102736,471.73,-221.044)">
                <text x="358.39px" y="150.958px" style="font-family:'OpenSansCondensed-Light', 'Open Sans Condensed', sans-serif;font-weight:300;font-stretch:condensed;font-size:54.167px;">e</text>
            </g>
            <g transform="matrix(-0.0320965,0.999485,-0.999485,-0.0320965,551.325,-175.347)">
                <text x="360.566px" y="179.279px" style="font-family:'OpenSansCondensed-Light', 'Open Sans Condensed', sans-serif;font-weight:300;font-stretch:condensed;font-size:54.167px;">-</text>
            </g>
            <g transform="matrix(-0.180672,0.983543,-0.983543,-0.180672,621.649,-117.659)">
                <text x="359.832px" y="200.099px" style="font-family:'OpenSansCondensed-Light', 'Open Sans Condensed', sans-serif;font-weight:300;font-stretch:condensed;font-size:54.167px;">B</text>
            </g>
            <g transform="matrix(-0.251669,0.967813,-0.967813,-0.251669,659.113,-68.2591)">
                <text x="355.946px" y="220.69px" style="font-family:'OpenSansCondensed-Light', 'Open Sans Condensed', sans-serif;font-weight:300;font-stretch:condensed;font-size:54.167px;">i</text>
            </g>
            <g transform="matrix(-0.311255,0.950327,-0.950327,-0.311255,680.987,-38.3014)">
                <text x="354.373px" y="227.621px" style="font-family:'OpenSansCondensed-Light', 'Open Sans Condensed', sans-serif;font-weight:300;font-stretch:condensed;font-size:54.167px;">c</text>
            </g>
            <g transform="matrix(-0.394014,0.919104,-0.919104,-0.394014,709.719,13.6024)">
                <text x="350.375px" y="240.768px" style="font-family:'OpenSansCondensed-Light', 'Open Sans Condensed', sans-serif;font-weight:300;font-stretch:condensed;font-size:54.167px;">o</text>
            </g>
            <g transform="matrix(-0.480866,0.876794,-0.876794,-0.480866,734.368,82.5779)">
                <text x="342.737px" y="258.692px" style="font-family:'OpenSansCondensed-Light', 'Open Sans Condensed', sans-serif;font-weight:300;font-stretch:condensed;font-size:54.167px;">c</text>
            </g>
            <g transform="matrix(-0.546181,0.837667,-0.837667,-0.546181,746.809,137.053)">
                <text x="336.279px" y="270.824px" style="font-family:'OpenSansCondensed-Light', 'Open Sans Condensed', sans-serif;font-weight:300;font-stretch:condensed;font-size:54.167px;">c</text>
            </g>
            <g transform="matrix(-0.609721,0.792616,-0.792616,-0.609721,753.37,193.855)">
                <text x="328.959px" y="282.405px" style="font-family:'OpenSansCondensed-Light', 'Open Sans Condensed', sans-serif;font-weight:300;font-stretch:condensed;font-size:54.167px;">a</text>
            </g>
        </g>
    </g>
    <g transform="matrix(1,0,0,1,56,56)">
        <g id="Typography">
            <g transform="matrix(0.849777,0.527143,-0.527143,0.849777,194.301,28.5568)">
                <text x="47.047px" y="355.185px" style="font-family:'NotoSerif', 'Noto Serif', serif;font-size:66.667px;">u</text>
            </g>
            <g transform="matrix(0.940524,0.339727,-0.339727,0.940524,133.8,-6.5827)">
                <text x="85.7px" y="378.843px" style="font-family:'NotoSerif', 'Noto Serif', serif;font-size:66.667px;">n</text>
            </g>
            <g transform="matrix(0.981274,0.192617,-0.192617,0.981274,78.0579,-17.1282)">
                <text x="127.12px" y="392.89px" style="font-family:'NotoSerif', 'Noto Serif', serif;font-size:66.667px;">i</text>
            </g>
            <g transform="matrix(0.998281,0.0586012,-0.0586012,0.998281,23.5541,-7.99034)">
                <text x="148.011px" y="397.599px" style="font-family:'NotoSerif', 'Noto Serif', serif;font-size:66.667px;">x</text>
            </g>
            <g transform="matrix(0.9815,-0.191463,0.191463,0.9815,-73.2498,44.071)">
                <text x="191.426px" y="401.076px" style="font-family:'NotoSans-Bold', 'Noto Sans', sans-serif;font-weight:700;font-size:66.667px;fill:rgb(0,166,80);">M</text>
            </g>
            <g transform="matrix(0.922686,-0.385552,0.385552,0.922686,-129.176,128.209)">
                <text x="255.09px" y="386.194px" style="font-family:'NotoSans-Bold', 'Noto Sans', sans-serif;font-weight:700;font-size:66.667px;fill:rgb(0,166,80);">i</text>
            </g>
            <g transform="matrix(0.849777,-0.527143,0.527143,0.849777,-158.319,202.043)">
                <text x="275.331px" y="378.797px" style="font-family:'NotoSans-Bold', 'Noto Sans', sans-serif;font-weight:700;font-size:66.667px;fill:rgb(0,166,80);">B</text>
            </g>
        </g>
    </g>
</svg>
