<svg xmlns="http://www.w3.org/2000/svg" viewBox="0 0 600 600"><defs><style>.cls-1,.cls-5{fill:#fff;}.cls-2{fill:none;}.cls-3{fill:#424242;}.cls-4{fill:#757575;stroke:#757575;}.cls-4,.cls-5{stroke-miterlimit:10;}.cls-5{stroke:#fff;}</style></defs><title>logo</title><g id="Background"><path class="cls-1" d="M300,584.5A284.5,284.5,0,0,1,98.83,98.83,284.5,284.5,0,1,1,501.17,501.17,282.63,282.63,0,0,1,300,584.5Z"/><path class="cls-1" d="M300,16A284.08,284.08,0,0,1,410.55,561.68,284.07,284.07,0,0,1,189.45,38.32,282.22,282.22,0,0,1,300,16m0-1C142.6,15,15,142.6,15,300S142.6,585,300,585,585,457.4,585,300,457.4,15,300,15Z"/></g><g id="Border"><path class="cls-2" d="M300,15C142.6,15,15,142.6,15,300A283.68,283.68,0,0,0,49.27,435.59q1.55-3.62,3-7.16c20.66-60.57,26.84-115.24,27.22-118.9,2.11-19.83,2.58-35.65,10.8-56.69,8.15-20.88,18.83-33.86,27-43.6,30.81-36.79,65.68-49.93,81-54.51,11.09-3.31,30.12-8.76,54-4.36,6.09,1.12,5.48,1.59,16.2,4.36,12,3.1,41,10.59,68.4,8.72,20-1.37,34.14-7.36,43.2-10.9,26.36-10.29,68.28-21.91,136.42-27.55.06,0,.1,0,.12,0,.51.58-21.45,21.25-43.33,40.08a1061.76,1061.76,0,0,1-86.67,67.17,143.85,143.85,0,0,0-35,37.76A245.74,245.74,0,0,0,336,297.55c-7.11,14.94-3.94,12.91-19.8,52.33a205.15,205.15,0,0,0-10.8,39.24c-1.65,9.49-2,15.59,0,21.8,2.92,9,26.2,31.95,39.6,52.33,21.73,33,38.83,73,49,99.5.76,1.85,1.53,3.7,2.29,5.56C506.29,528.81,585,423.61,585,300,585,142.6,457.4,15,300,15Z"/><path class="cls-3" d="M300,599.5a301.72,301.72,0,0,1-53.68-4.84c-3.54-.64-6.61-1.24-9.4-1.84-5.38-1.15-10.78-2.47-16.07-3.92A299.49,299.49,0,0,1,.5,300,299.5,299.5,0,0,1,511.78,88.22a299.45,299.45,0,0,1-155.46,506c-4.1.78-8.14,1.47-12,2-7.06,1-14.29,1.86-21.48,2.4C315.23,599.21,307.55,599.5,300,599.5ZM515.61,125.59c-3.44,3.88-22.34,21.63-42.65,39.12a1065.59,1065.59,0,0,1-86.62,67.13,144.36,144.36,0,0,0-35.18,37.9,248.48,248.48,0,0,0-15.62,27.59,111.15,111.15,0,0,0-6.23,15.79c-2,6.18-5.12,15.52-13.59,36.56A206.58,206.58,0,0,0,304.89,389c-1.61,9.29-2.09,15.55,0,22,1.57,4.85,8.89,13.6,17.36,23.73,7.5,9,16,19.15,22.3,28.72,21.5,32.68,38.49,72.09,49,99.4l2.47,6,.45-.16C509.52,528.19,585.5,420.18,585.5,300,585.5,142.57,457.42,14.5,300,14.5S14.5,142.57,14.5,300A285.86,285.86,0,0,0,48.83,435.83l.49.91.41-.95c1.05-2.45,2.06-4.86,3-7.16,21-61.5,27-116.71,27.26-119,.31-2.9.58-5.72.85-8.48,1.57-16.19,2.93-30.18,9.92-48.08,8.29-21.23,19.5-34.61,26.92-43.47,29.37-35.07,63.21-49.1,80.76-54.35,7.5-2.24,20-6,35.84-6a99,99,0,0,1,17.92,1.64,47.68,47.68,0,0,1,6.77,1.69c1.87.58,4.44,1.38,9.4,2.66,10.47,2.7,35,9,59.59,9,3.07,0,6.09-.1,9-.3,18.84-1.29,32.52-6.67,41.57-10.24l1.77-.7C415.07,139.43,460.6,130.2,515.61,125.59Z"/><path class="cls-3" d="M300,1A299,299,0,0,1,543.49,473.55,298.64,298.64,0,0,1,356.22,593.7c-4.11.78-8.15,1.47-12,2-7.05,1-14.27,1.85-21.44,2.4-7.58.57-15.25.87-22.79.87a301.24,301.24,0,0,1-53.59-4.83c-3.59-.65-6.57-1.23-9.38-1.84-5.36-1.15-10.76-2.46-16-3.91A298.91,298.91,0,0,1,88.58,88.58,298.06,298.06,0,0,1,300,1M49.38,437.88l.81-1.9c1.06-2.46,2.07-4.87,3-7.17v-.05c21-61.53,27-116.79,27.27-119.11.31-2.91.58-5.74.85-8.48C82.9,285,84.25,271,91.22,253.22c8.26-21.15,19.44-34.5,26.83-43.33,29.29-35,63-49,80.52-54.19,7.47-2.23,20-6,35.7-6a98.58,98.58,0,0,1,17.83,1.63,47.27,47.27,0,0,1,6.71,1.68c1.88.58,4.45,1.38,9.43,2.67,10.49,2.71,35.06,9,59.71,9,3.09,0,6.12-.1,9-.3,18.92-1.29,32.64-6.7,41.72-10.27l1.77-.7c34.5-13.47,79.55-22.65,133.92-27.3-5,5.18-22.66,21.71-41.74,38.13A1065.38,1065.38,0,0,1,386,231.45a144.84,144.84,0,0,0-35.28,38,249,249,0,0,0-15.66,27.67A111.68,111.68,0,0,0,328.83,313c-2,6.17-5.11,15.5-13.58,36.53a207.59,207.59,0,0,0-10.86,39.44c-1.63,9.37-2.1,15.7,0,22.28,1.6,4.94,8.95,13.73,17.45,23.89,7.5,9,16,19.13,22.27,28.67,21.47,32.64,38.44,72,48.91,99.32l1.4,3.41.89,2.15.36.88.9-.32C509.89,528.59,586,420.39,586,300,586,142.3,457.7,14,300,14S14,142.3,14,300A286.36,286.36,0,0,0,48.39,436.07l1,1.81M300,0C134.31,0,0,134.31,0,300A300,300,0,0,0,220.71,589.39q8,2.18,16.1,3.92c3.12.67,6.26,1.27,9.41,1.84A301.19,301.19,0,0,0,300,600q11.54,0,22.87-.87,10.87-.82,21.51-2.4,6.06-.9,12-2A297.8,297.8,0,0,0,402,582.17C517.48,540.42,600,429.86,600,300,600,134.31,465.69,0,300,0ZM49.27,435.59A283.68,283.68,0,0,1,15,300C15,142.6,142.6,15,300,15S585,142.6,585,300c0,123.61-78.71,228.81-188.73,268.3-.76-1.85-1.53-3.71-2.29-5.56-10.17-26.52-27.28-66.46-49-99.5-13.4-20.38-36.68-43.34-39.6-52.33-2-6.21-1.65-12.31,0-21.8a205.15,205.15,0,0,1,10.8-39.24c15.86-39.42,12.69-37.39,19.8-52.33A245.74,245.74,0,0,1,351.57,270a143.85,143.85,0,0,1,35-37.76,1061.77,1061.77,0,0,0,86.67-67.17c21.88-18.83,43.84-39.5,43.33-40.08h0l-.09,0c-68.14,5.64-110.06,17.26-136.42,27.55-9.06,3.54-23.17,9.53-43.2,10.9-3,.2-6,.3-8.94.3-24.52,0-48.75-6.25-59.46-9s-10.11-3.24-16.2-4.36a99.09,99.09,0,0,0-18-1.65c-15.45,0-27.85,3.58-36,6-15.32,4.58-50.18,17.72-81,54.51-8.17,9.75-18.85,22.73-27,43.6-8.22,21-8.69,36.86-10.8,56.69-.39,3.65-6.56,58.33-27.22,118.9q-1.43,3.53-3,7.15Z"/></g><g id="Eye"><path class="cls-4" d="M266.16,198.76a25.49,25.49,0,0,1-19,8.62c-13.2,0-24.07-10.18-25.78-23.38-17.75,8.2-30.46,27.3-25.82,36.49s27.47,8.87,43.07,2.36C250.1,218.06,262.49,208,266.16,198.76Z"/><path class="cls-5" d="M247.13,207.38a25.49,25.49,0,0,0,19-8.62,13.43,13.43,0,0,0,1.08-5.69,9.3,9.3,0,0,0-.48-2.54,10.05,10.05,0,0,0-2.07-3.42,17.35,17.35,0,0,1-34.47-2.66,17,17,0,0,1,.38-3.54q-1.47.32-2.88.72a44.18,44.18,0,0,0-5.82,2.13l-.56.26C223.07,197.2,233.94,207.38,247.13,207.38Z"/></g><g id="Chest"><path class="cls-5" d="M337,502.28c-3.65-6.64-3.52-5.51-15.44-23.94-17.07-26.4-20.1-33-29.85-42.19-7.9-7.47-12.46-11.78-19.56-12.54-12.79-1.37-16.7,10.26-29.85,13.68-23.91,6.22-41.56-24.63-53.52-17.1-7.21,4.54-2.15,16.6-6.18,42.19-4.82,30.65-16.53,34-24.7,76.39-.52,2.69-1,5.18-1.35,7.52a283.16,283.16,0,0,0,103.34,35.89l.67.09q6.2.86,12.48,1.45l3.4.3,2.67.21q3,.22,5.92.37l1.37.06q2.62.12,5.26.2l1.84,0c2.16,0,4.33.08,6.5.08a285.44,285.44,0,0,0,67.61-8.09c-6.22-15.29-7.19-19.31-14.16-37C346.34,521.84,342.66,512.6,337,502.28Z"/></g><g id="Beak"><path class="cls-5" d="M366,230.08s21.08-15,62.83-44.42c31.06-21.85,53.87-36.91,65-45.5,2.08-1.6,4.19-3.16,6.31-4.69,4.92-3.55-54.47,14-88,26-34.91,12.46-70.09,25-105,37.52a95.29,95.29,0,0,1-14.4,24.15c-32.56,39.14-86.47,30.23-86.4,32.94,0,1.55,17.75,3.67,68.4,2.2,27.64-.81,34,.73,45-2.2C335.76,251.82,345.28,244.88,366,230.08Z"/></g></svg>