<?xml version="1.0" encoding="UTF-8" standalone="no"?><!DOCTYPE svg PUBLIC "-//W3C//DTD SVG 1.1//EN" "http://www.w3.org/Graphics/SVG/1.1/DTD/svg11.dtd"><svg width="100%" height="100%" viewBox="0 0 10892 4167" version="1.1" xmlns="http://www.w3.org/2000/svg" xmlns:xlink="http://www.w3.org/1999/xlink" xml:space="preserve" xmlns:serif="http://www.serif.com/" style="fill-rule:evenodd;clip-rule:evenodd;stroke-miterlimit:10;"><rect id="Combination-Mark-Margin-Inverted" serif:id="Combination Mark Margin Inverted" x="2.12" y="2.004" width="10885.8" height="4166.67" style="fill:none;"/><g><g><path d="M2085.62,3304.44c-325.635,0 -631.778,-126.808 -862.036,-357.066c-230.258,-230.254 -357.066,-536.401 -357.066,-862.036c0,-325.635 126.808,-631.778 357.066,-862.036c230.258,-230.259 536.401,-357.067 862.036,-357.067c325.636,0 631.778,126.808 862.036,357.067c230.259,230.258 357.067,536.401 357.067,862.036c0,325.635 -126.808,631.782 -357.067,862.036c-230.258,230.258 -536.4,357.066 -862.036,357.066" style="fill:white;"/><path d="M2085.62,835.337c-690.358,0 -1250,559.646 -1250,1250c0,231.846 63.159,448.9 173.154,635c163.28,276.238 429.796,484.213 746.48,570.788c22.125,6.046 44.491,11.5 67.087,16.346c12.992,2.787 26.083,5.3 39.221,7.679c72.704,13.179 147.554,20.187 224.058,20.187c32.059,0 63.825,-1.237 95.275,-3.62c30.188,-2.292 60.084,-5.638 89.634,-10.017c16.833,-2.5 33.529,-5.363 50.133,-8.525c65.292,-12.425 128.762,-29.975 190.029,-52.125c481.075,-173.946 824.929,-634.621 824.929,-1175.71c0,-690.354 -559.646,-1250 -1250,-1250Zm-1044.7,1814.95c-91.058,-168.005 -142.8,-360.425 -142.8,-564.955c0,-655.837 531.659,-1187.5 1187.5,-1187.5c655.838,0 1187.5,531.663 1187.5,1187.5c0,515.042 -327.946,953.392 -786.375,1117.9c-3.171,-7.716 -6.379,-15.441 -9.533,-23.15c-42.367,-110.508 -113.65,-276.908 -204.179,-414.562c-55.838,-84.913 -152.838,-180.571 -164.996,-218.025c-8.4,-25.883 -6.867,-51.3 0,-90.842c15.8,-91 42.604,-157.571 45,-163.521c66.096,-164.25 52.896,-155.77 82.496,-218.02c29.15,-61.292 64.958,-114.75 64.958,-114.75c18.342,-28.717 43.15,-62.192 76.233,-96.096c24.225,-24.829 48.125,-45 69.788,-61.221c95.025,-66.05 220.583,-158.904 361.108,-279.863c91.171,-78.475 182.667,-164.583 180.554,-167.012c-0.025,-0.029 -0.066,-0.042 -0.12,-0.042c-0.092,0 -0.213,0.034 -0.359,0.084c-283.933,23.508 -458.583,71.904 -568.412,114.791c-37.746,14.738 -96.559,39.721 -180,45.421c-12.363,0.846 -24.817,1.229 -37.242,1.229c-102.162,0 -203.121,-26.05 -247.75,-37.566c-44.675,-11.53 -42.108,-13.488 -67.5,-18.167c-26.533,-4.896 -51.633,-6.871 -75.054,-6.871c-64.379,0 -116.054,14.913 -149.938,25.038c-63.82,19.07 -209.104,73.833 -337.491,227.108c-34.029,40.621 -78.529,94.696 -112.5,181.687c-34.229,87.663 -36.221,153.58 -45,236.192c-1.613,15.225 -27.346,243.025 -113.429,495.4c-3.98,9.817 -8.146,19.767 -12.459,29.813Z" style="fill:rgb(66,66,66);"/><path d="M1944.64,1663.51c-19.791,22.063 -47.945,35.921 -79.304,35.921c-54.983,0 -100.275,-42.421 -107.433,-97.4c-73.958,34.159 -126.917,113.75 -107.592,152.029c19.6,38.825 114.467,36.971 179.471,9.855c47.925,-20 99.558,-62.071 114.858,-100.405Z" style="fill:rgb(117,117,117);"/><path d="M1796.35,1589.51c-0.953,4.628 -1.469,9.411 -1.469,14.32c0,39.445 32.362,71.42 72.283,71.42l0.423,-0.001c35.901,-0.203 65.515,-26.294 70.906,-60.315l0.361,0.405c3.701,4.205 6.517,8.828 8.26,13.861c1.184,3.413 1.8,6.963 2,10.596c0.425,7.567 -1.225,15.559 -4.479,23.717c-19.633,21.89 -47.506,35.704 -78.57,35.918l-0.734,0.003c-54.979,0 -100.275,-42.421 -107.433,-97.4c0.775,-0.359 1.533,-0.742 2.312,-1.092c7.871,-3.508 15.967,-6.508 24.233,-8.879c3.917,-1.125 7.925,-2.121 12,-3l-0.093,0.447Z" style="fill:white;"/><path d="M1640.01,2581.17c43.797,0.667 102.683,79.468 177.822,79.693l1.111,-0.003c8.532,-0.062 17.272,-1.143 26.223,-3.471c51.787,-13.471 69.178,-57.5 115.943,-57.47l1.165,0.009c2.345,0.038 4.761,0.186 7.258,0.453c29.567,3.154 48.559,21.116 81.48,52.254c40.604,38.404 53.241,65.775 124.37,175.775c49.667,76.808 49.105,72.112 64.325,99.762c23.684,42.996 38.98,81.509 68.621,156.767c29.029,73.717 33.075,90.462 58.979,154.167c-88.893,21.644 -181.675,33.359 -277.139,33.72l-4.548,0.009c-9.063,0 -18.092,-0.138 -27.104,-0.342c-2.563,-0.058 -5.121,-0.133 -7.679,-0.204c-7.321,-0.213 -14.625,-0.488 -21.917,-0.833c-1.904,-0.092 -3.817,-0.15 -5.721,-0.25c-8.242,-0.43 -16.454,-0.963 -24.646,-1.563c-3.712,-0.267 -7.412,-0.575 -11.116,-0.879c-4.734,-0.392 -9.459,-0.813 -14.18,-1.258c-17.45,-1.638 -34.783,-3.663 -52.008,-6.05c-0.929,-0.13 -1.862,-0.259 -2.792,-0.388c-155.183,-21.871 -300.708,-73.767 -430.57,-149.562c1.604,-9.721 3.458,-20.096 5.616,-31.317c34.071,-176.804 82.842,-190.588 102.925,-318.288c16.771,-106.616 -4.296,-156.879 25.734,-175.775c5.449,-3.428 11.181,-4.945 17.202,-4.96l0.646,0.004Z" style="fill:white;"/><path d="M2360.75,1794.02c0,0 87.842,-62.666 261.804,-185.071c129.396,-91.045 224.455,-153.8 270.83,-189.583c8.65,-6.675 17.445,-13.158 26.304,-19.55c20.508,-14.796 -226.942,58.333 -366.717,108.208c-145.446,51.905 -292.033,104.3 -437.433,156.346c-12.263,29.275 -31.042,65.838 -59.996,100.642c-135.667,163.067 -360.3,125.971 -359.992,137.237c0.175,6.459 73.971,15.309 284.992,9.146c115.167,-3.362 141.608,3.034 187.496,-9.146c66.587,-17.679 106.262,-46.558 192.712,-108.229Z" style="fill:white;stroke:white;stroke-width:4.17px;"/></g><g><g transform="matrix(5.43541,0,0,5.63109,-2951.05,966.199)"><path d="M1305.34,309.734c-15.183,0 -26.906,-4.469 -35.171,-13.406c-8.264,-8.937 -12.396,-23.303 -12.396,-43.099l0,-69.189c0,-8.456 -2.354,-13.838 -7.063,-16.144c-4.709,-2.306 -10.234,-3.46 -16.577,-3.46l-0.865,0l0,-12.108l51.604,0l0,99.46c0,12.492 2.114,22.198 6.342,29.117c4.229,6.919 12.205,10.378 23.928,10.378c12.685,0 21.91,-4.276 27.676,-12.829c5.766,-8.552 8.649,-19.843 8.649,-33.873l0,-59.388c0,-9.033 -2.307,-14.751 -6.919,-17.153c-4.613,-2.402 -10.187,-3.604 -16.721,-3.604l-0.865,0l0,-12.108l51.604,0l0,123.099c0,8.457 2.354,13.79 7.063,16c4.708,2.211 10.234,3.316 16.576,3.316l0.865,0l0,12.108l-45.838,0l-3.747,-23.352l-1.442,0c-5.958,10.763 -12.877,17.826 -20.757,21.19c-7.879,3.363 -16.528,5.045 -25.946,5.045Z" style="fill:rgb(189,189,189);fill-rule:nonzero;"/><path d="M1417.78,306.851l0,-12.108l2.306,0c6.535,0 12.108,-1.202 16.721,-3.604c4.612,-2.402 6.919,-8.12 6.919,-17.153l0,-89.946c0,-8.456 -2.259,-13.838 -6.775,-16.144c-4.517,-2.306 -9.946,-3.46 -16.288,-3.46l-1.442,0l0,-12.108l46.703,0l3.748,23.352l1.441,0c5.958,-10.763 12.637,-17.826 20.036,-21.189c7.4,-3.364 15.712,-5.046 24.937,-5.046c15.183,0 27.051,4.469 35.604,13.406c8.552,8.937 12.828,23.303 12.828,43.099l0,68.036c0,9.033 1.97,14.751 5.91,17.153c3.94,2.402 9.177,3.604 15.712,3.604l1.441,0l0,12.108l-50.162,0l0,-99.46c0,-12.492 -2.354,-22.198 -7.063,-29.117c-4.708,-6.919 -12.925,-10.378 -24.648,-10.378c-8.649,0 -15.52,2.162 -20.613,6.486c-5.093,4.325 -8.745,10.042 -10.955,17.154c-2.21,7.111 -3.315,14.798 -3.315,23.063l0,60.828c0,8.457 2.258,13.79 6.775,16c4.516,2.211 9.946,3.316 16.288,3.316l1.441,0l0,12.108l-77.549,0Z" style="fill:rgb(189,189,189);fill-rule:nonzero;"/><path d="M1642.06,123.5c-4.613,0 -8.505,-1.346 -11.676,-4.036c-3.171,-2.691 -4.757,-7.304 -4.757,-13.838c0,-6.727 1.586,-11.388 4.757,-13.982c3.171,-2.595 7.063,-3.892 11.676,-3.892c4.42,0 8.264,1.297 11.531,3.892c3.268,2.594 4.901,7.255 4.901,13.982c0,6.534 -1.633,11.147 -4.901,13.838c-3.267,2.69 -7.111,4.036 -11.531,4.036Zm-39.784,183.351l0,-12.108l3.748,0c6.342,0 11.868,-1.105 16.576,-3.316c4.709,-2.21 7.063,-7.543 7.063,-16l0,-91.387c0,-8.456 -2.354,-13.838 -7.063,-16.144c-4.708,-2.306 -10.234,-3.46 -16.576,-3.46l-0.865,0l0,-12.108l51.604,0l0,121.658c0,9.033 2.306,14.751 6.918,17.153c4.613,2.402 10.187,3.604 16.721,3.604l3.748,0l0,12.108l-81.874,0Z" style="fill:rgb(189,189,189);fill-rule:nonzero;"/><path d="M1689.34,306.851l0,-12.108l2.595,0c6.919,0 12.492,-1.25 16.72,-3.748c4.229,-2.499 9.13,-7.4 14.703,-14.703l36.324,-46.991l-36.324,-49.585c-4.228,-4.805 -8.312,-8.553 -12.252,-11.244c-3.94,-2.69 -8.12,-4.036 -12.541,-4.036l-3.747,0l0,-12.108l73.225,0l0,12.108l-0.865,0c-6.727,0 -11.147,0.817 -13.261,2.451c-2.114,1.634 -3.172,3.604 -3.172,5.91c0,2.114 0.577,4.084 1.73,5.91c1.153,1.826 2.787,4.276 4.901,7.351l19.027,25.946l14.991,-21.622c2.114,-3.267 3.844,-6.39 5.189,-9.369c1.346,-2.979 2.018,-5.718 2.018,-8.216c0,-3.46 -1.489,-5.718 -4.468,-6.775c-2.979,-1.057 -6.679,-1.586 -11.099,-1.586l-0.865,0l0,-12.108l63.135,0l0,12.108l-2.595,0c-5.573,0 -10.378,1.154 -14.414,3.46c-4.036,2.306 -8.937,7.303 -14.703,14.991l-29.693,39.495l42.378,57.081c4.228,5.574 8.216,9.514 11.964,11.82c3.748,2.306 7.447,3.46 11.099,3.46l3.748,0l0,12.108l-74.379,0l0,-12.108l1.442,0c11.531,0 17.297,-3.172 17.297,-9.514c0,-2.114 -0.721,-4.42 -2.162,-6.919c-1.441,-2.498 -4.372,-6.823 -8.793,-12.973l-19.315,-25.946l-20.18,28.253c-1.73,2.306 -3.46,5.141 -5.189,8.504c-1.73,3.363 -2.595,6.583 -2.595,9.658c0,3.267 1.393,5.573 4.18,6.919c2.787,1.345 7.351,2.018 13.694,2.018l0.865,0l0,12.108l-68.613,0Z" style="fill:rgb(189,189,189);fill-rule:nonzero;"/><path d="M1967.54,306.851l-49.586,-161.442l-1.153,0c0.193,3.844 0.481,9.61 0.865,17.298c0.385,7.687 0.769,15.952 1.153,24.793c0.385,8.84 0.577,16.72 0.577,23.639l0,95.712l-38.919,0l0,-205.838l59.387,0l48.721,157.405l0.865,0l51.603,-157.405l59.388,0l0,205.838l-40.649,0l0,-97.442c0,-6.534 0.144,-14.03 0.433,-22.486c0.288,-8.457 0.576,-16.481 0.864,-24.072c0.289,-7.592 0.529,-13.309 0.721,-17.153l-1.153,0l-53.045,161.153l-40.072,0Z" style="fill:rgb(45,162,53);fill-rule:nonzero;"/><path d="M2170.5,87.752c6.342,0 11.82,1.489 16.432,4.468c4.613,2.979 6.919,8.505 6.919,16.577c0,7.88 -2.306,13.357 -6.919,16.432c-4.612,3.075 -10.09,4.613 -16.432,4.613c-6.535,0 -12.06,-1.538 -16.577,-4.613c-4.516,-3.075 -6.775,-8.552 -6.775,-16.432c0,-8.072 2.259,-13.598 6.775,-16.577c4.517,-2.979 10.042,-4.468 16.577,-4.468Zm21.333,61.693l0,157.406l-42.955,0l0,-157.406l42.955,0Z" style="fill:rgb(45,162,53);fill-rule:nonzero;"/><path d="M2240.26,101.013l64,0c27.292,0 48,3.844 62.126,11.532c14.127,7.687 21.19,21.237 21.19,40.648c0,11.724 -2.739,21.622 -8.217,29.694c-5.477,8.072 -13.309,12.973 -23.495,14.703l0,1.441c6.727,1.538 12.925,3.988 18.595,7.351c5.669,3.364 10.138,8.313 13.405,14.847c3.267,6.535 4.901,15.183 4.901,25.946c0,18.643 -6.775,33.249 -20.324,43.82c-13.55,10.57 -31.952,15.856 -55.208,15.856l-76.973,0l0,-205.838Zm43.532,81.586l25.369,0c12.685,0 21.478,-1.97 26.379,-5.91c4.901,-3.94 7.351,-9.85 7.351,-17.73c0,-7.88 -2.883,-13.55 -8.649,-17.009c-5.765,-3.459 -14.895,-5.189 -27.387,-5.189l-23.063,0l0,45.838Zm0,34.594l0,53.622l28.54,0c13.07,0 22.199,-2.547 27.388,-7.64c5.189,-5.093 7.784,-11.868 7.784,-20.324c0,-7.688 -2.643,-13.886 -7.928,-18.595c-5.286,-4.708 -14.847,-7.063 -28.685,-7.063l-27.099,0Z" style="fill:rgb(45,162,53);fill-rule:nonzero;"/></g></g></g></svg>