<?xml version="1.0" encoding="UTF-8" standalone="no"?><!DOCTYPE svg PUBLIC "-//W3C//DTD SVG 1.1//EN" "http://www.w3.org/Graphics/SVG/1.1/DTD/svg11.dtd"><svg width="100%" height="100%" viewBox="0 0 10888 4171" version="1.1" xmlns="http://www.w3.org/2000/svg" xmlns:xlink="http://www.w3.org/1999/xlink" xml:space="preserve" xmlns:serif="http://www.serif.com/" style="fill-rule:evenodd;clip-rule:evenodd;stroke-miterlimit:10;"><rect id="Combination-Mark" serif:id="Combination Mark" x="0" y="1.524" width="10885.8" height="4166.67" style="fill:none;"/><g><path d="M2083.5,3270.28c-316.638,0 -614.321,-123.304 -838.217,-347.2c-223.896,-223.892 -347.2,-521.579 -347.2,-838.217c0,-316.637 123.304,-614.321 347.2,-838.217c223.896,-223.895 521.579,-347.2 838.217,-347.2c316.637,0 614.321,123.305 838.217,347.2c223.895,223.896 347.2,521.58 347.2,838.217c0,316.638 -123.305,614.325 -347.2,838.217c-223.896,223.896 -521.58,347.2 -838.217,347.2" style="fill:white;fill-rule:nonzero;"/><path d="M2083.5,897.358c-655.838,0 -1187.5,531.663 -1187.5,1187.5c0,655.838 531.662,1187.5 1187.5,1187.5c655.837,0 1187.5,-531.662 1187.5,-1187.5c0,-655.837 -531.663,-1187.5 -1187.5,-1187.5m0,4.167c159.75,0 314.721,31.287 460.604,92.991c140.908,59.6 267.463,144.921 376.138,253.6c108.675,108.675 194,235.225 253.604,376.138c61.7,145.883 92.987,300.854 92.987,460.604c0,159.75 -31.287,314.721 -92.987,460.604c-59.604,140.909 -144.929,267.463 -253.604,376.138c-108.675,108.675 -235.23,194 -376.138,253.604c-145.883,61.7 -300.854,92.987 -460.604,92.987c-159.75,0 -314.721,-31.287 -460.604,-92.987c-140.913,-59.604 -267.463,-144.929 -376.138,-253.604c-108.679,-108.675 -194,-235.229 -253.6,-376.138c-61.704,-145.883 -92.991,-300.854 -92.991,-460.604c0,-159.75 31.287,-314.721 92.991,-460.604c59.6,-140.913 144.921,-267.463 253.6,-376.138c108.675,-108.679 235.225,-194 376.138,-253.6c145.883,-61.704 300.854,-92.991 460.604,-92.991" style="fill:white;fill-rule:nonzero;"/><path d="M2981.86,1358.14c-14.346,16.158 -93.083,90.146 -177.712,162.992c-115.542,99.454 -236.975,193.566 -360.938,279.729c-24.896,18.641 -48.458,39.308 -70.092,61.479c-28.637,29.346 -54.37,61.792 -76.5,96.429c-0.333,0.496 -36.2,54.246 -65.079,114.975c-13.846,29.113 -18.4,42.921 -25.941,65.796c-8.492,25.75 -21.321,64.662 -56.609,152.346c-4.887,12.129 -30.029,77.037 -45.116,163.937c-6.725,38.709 -8.709,64.813 0.07,91.842c6.559,20.212 37.034,56.662 72.313,98.871c31.267,37.4 66.704,79.791 92.921,119.658c89.562,136.183 160.354,300.392 203.975,414.163c1.837,4.487 10.308,25.037 10.308,25.037l1.875,-0.671c471.179,-169.083 787.754,-619.125 787.754,-1119.86c0,-655.938 -533.65,-1189.58 -1189.58,-1189.58c-655.942,0 -1189.58,533.646 -1189.58,1189.58c0,197.579 49.466,393.283 143.054,565.946l2.046,3.779l1.695,-3.95c4.392,-10.221 8.588,-20.267 12.48,-29.85c87.408,-256.254 112.541,-486.296 113.566,-495.963c1.288,-12.091 2.425,-23.833 3.546,-35.333c6.55,-67.475 12.208,-125.754 41.325,-200.325c34.538,-88.446 81.246,-144.208 112.154,-181.104c122.396,-146.121 263.359,-204.6 336.492,-226.45c31.229,-9.329 83.5,-24.946 149.342,-24.946c24.97,0 50.095,2.296 74.675,6.829c13.545,2.5 19.058,4.213 28.191,7.054c7.804,2.425 18.492,5.746 39.167,11.084c43.646,11.262 145.846,37.633 248.275,37.633c12.804,0 25.383,-0.417 37.383,-1.233c78.496,-5.363 135.504,-27.809 173.225,-42.663l7.384,-2.9c145.05,-56.637 334.766,-95.1 563.937,-114.329m-898.354,1974.64c-74.658,0 -149.917,-6.779 -223.688,-20.154c-14.737,-2.666 -27.541,-5.175 -39.154,-7.671c-22.404,-4.8 -44.937,-10.291 -66.975,-16.316c-156.304,-42.729 -300.996,-114.7 -430.046,-213.913c-127.466,-97.991 -233.512,-217.741 -315.187,-355.925c-113.092,-191.329 -172.867,-410.546 -172.867,-633.937c0,-333.329 129.804,-646.709 365.504,-882.409c235.7,-235.704 549.08,-365.508 882.413,-365.508c333.329,0 646.708,129.804 882.408,365.508c235.7,235.7 365.509,549.08 365.509,882.409c0,261.658 -80.113,512.125 -231.675,724.325c-148.3,207.633 -352.971,363.046 -591.88,449.429c-61.75,22.329 -125.579,39.833 -189.712,52.037c-17.079,3.25 -33.917,6.113 -50.046,8.509c-29.425,4.362 -59.533,7.729 -89.487,10c-31.642,2.4 -63.642,3.616 -95.117,3.616" style="fill:rgb(66,66,66);fill-rule:nonzero;"/><path d="M1038.8,2649.81c-91.058,-168.004 -142.8,-360.425 -142.8,-564.954c0,-655.838 531.658,-1187.5 1187.5,-1187.5c655.837,0 1187.5,531.662 1187.5,1187.5c0,515.041 -327.946,953.391 -786.375,1117.9c-3.171,-7.717 -6.379,-15.442 -9.533,-23.15c-42.367,-110.509 -113.65,-276.909 -204.18,-414.563c-55.837,-84.912 -152.837,-180.571 -164.995,-218.025c-8.4,-25.883 -6.867,-51.3 0,-90.841c15.8,-91 42.604,-157.571 45,-163.521c66.095,-164.25 52.895,-155.771 82.495,-218.021c29.15,-61.292 64.959,-114.75 64.959,-114.75c18.341,-28.717 43.15,-62.192 76.233,-96.096c24.225,-24.829 48.125,-45 69.788,-61.221c95.025,-66.05 220.583,-158.904 361.108,-279.862c91.171,-78.475 182.667,-164.584 180.554,-167.013c-0.025,-0.029 -0.067,-0.041 -0.121,-0.041c-0.091,0 -0.212,0.033 -0.358,0.083c-283.933,23.508 -458.583,71.904 -568.413,114.792c-37.745,14.737 -96.558,39.72 -180,45.42c-12.362,0.846 -24.816,1.23 -37.241,1.23c-102.163,0 -203.121,-26.05 -247.75,-37.567c-44.675,-11.529 -42.109,-13.488 -67.5,-18.167c-26.534,-4.896 -51.634,-6.871 -75.054,-6.871c-64.38,0 -116.055,14.913 -149.938,25.038c-63.821,19.071 -209.104,73.833 -337.492,227.108c-34.029,40.621 -78.529,94.696 -112.5,181.688c-34.229,87.662 -36.22,153.579 -45,236.191c-1.612,15.225 -27.345,243.025 -113.429,495.4c-3.979,9.817 -8.146,19.767 -12.458,29.813m1044.7,-1814.95c-690.358,0 -1250,559.646 -1250,1250c0,231.846 63.158,448.9 173.154,635c163.279,276.237 429.796,484.212 746.479,570.787c22.125,6.046 44.492,11.5 67.088,16.346c12.991,2.788 26.083,5.3 39.221,7.679c72.704,13.179 147.554,20.188 224.058,20.188c32.058,0 63.825,-1.238 95.275,-3.621c30.187,-2.292 60.083,-5.638 89.633,-10.017c16.834,-2.5 33.529,-5.362 50.134,-8.525c65.291,-12.425 128.762,-29.975 190.029,-52.125c481.075,-173.946 824.929,-634.621 824.929,-1175.71c0,-690.354 -559.646,-1250 -1250,-1250m-1044.27,1824.5l3.396,-7.9c4.4,-10.25 8.604,-20.309 12.492,-29.892l0.046,-0.112l0.037,-0.109c87.454,-256.391 112.6,-486.629 113.629,-496.304c1.288,-12.108 2.434,-23.921 3.542,-35.346c6.533,-67.325 12.179,-125.475 41.196,-199.775c34.412,-88.125 80.987,-143.729 111.808,-180.525c122.05,-145.704 262.583,-204.008 335.492,-225.791c31.121,-9.3 83.208,-24.863 148.746,-24.863c24.845,0 49.841,2.288 74.3,6.8c13.42,2.475 18.887,4.175 27.941,6.992c7.825,2.433 18.542,5.762 39.271,11.112c43.721,11.284 146.1,37.7 248.792,37.7c12.854,0 25.479,-0.416 37.529,-1.237c78.817,-5.384 136,-27.9 173.837,-42.8c2.55,-1.004 5.013,-1.971 7.388,-2.9c143.737,-56.125 331.442,-94.384 558.021,-113.742c-20.684,21.6 -94.417,90.458 -173.917,158.883c-115.479,99.409 -236.862,193.48 -360.887,279.684c-24.921,18.662 -48.563,39.4 -70.271,61.65c-28.729,29.441 -54.554,61.996 -76.713,96.683c-0.358,0.538 -36.312,54.417 -65.254,115.279c-13.904,29.238 -18.475,43.092 -26.042,66.046c-8.483,25.725 -21.304,64.6 -56.566,152.225c-4.904,12.188 -30.134,77.383 -45.234,164.346c-6.783,39.05 -8.762,65.408 0.142,92.846c6.688,20.596 37.279,57.187 72.7,99.562c31.233,37.359 66.629,79.7 92.779,119.463c89.45,136.021 160.179,300.087 203.804,413.854c1.934,4.733 3.892,9.471 5.846,14.208l3.688,8.95l1.516,3.684l3.746,-1.35c472.004,-169.38 789.134,-620.205 789.134,-1121.82c0,-657.088 -534.58,-1191.67 -1191.67,-1191.67c-657.092,0 -1191.67,534.579 -1191.67,1191.67c0,197.925 49.554,393.971 143.304,566.941l4.096,7.559m1044.27,-1820.33c168.187,0 331.342,32.938 484.929,97.905c148.354,62.745 281.588,152.575 396.004,266.991c114.417,114.417 204.25,247.65 266.996,396.004c64.963,153.592 97.904,316.746 97.904,484.934c0,261.221 -79.979,511.271 -231.283,723.112c-72.867,102.013 -160.392,192.275 -260.158,268.288c-100.784,76.787 -212.063,137.483 -330.742,180.396c-61.642,22.287 -125.363,39.766 -189.388,51.945c-17.133,3.267 -33.945,6.121 -49.962,8.496c-29.392,4.359 -59.45,7.721 -89.338,9.988c-31.591,2.396 -63.537,3.608 -94.962,3.608c-74.546,0 -149.675,-6.771 -223.313,-20.121c-14.937,-2.704 -27.362,-5.137 -39.095,-7.654c-22.334,-4.787 -44.83,-10.271 -66.859,-16.292c-156.046,-42.654 -300.491,-114.504 -429.325,-213.554c-127.258,-97.829 -233.125,-217.383 -314.666,-355.333c-112.9,-191.013 -172.575,-409.854 -172.575,-632.879c0,-168.188 32.937,-331.342 97.9,-484.934c62.75,-148.354 152.579,-281.587 266.995,-396.004c114.417,-114.416 247.65,-204.246 396.005,-266.991c153.587,-64.967 316.741,-97.905 484.933,-97.905" style="fill:rgb(66,66,66);fill-rule:nonzero;"/><path d="M1942.52,1663.03c-19.792,22.062 -47.946,35.921 -79.304,35.921c-54.983,0 -100.275,-42.421 -107.433,-97.4c-73.959,34.158 -126.917,113.75 -107.592,152.029c19.6,38.825 114.467,36.971 179.471,9.854c47.925,-20 99.558,-62.071 114.858,-100.404Z" style="fill:rgb(117,117,117);fill-rule:nonzero;stroke:rgb(117,117,117);stroke-width:4.17px;"/><path d="M1863.22,1698.95c31.358,0 59.516,-13.858 79.304,-35.921c3.254,-8.158 4.904,-16.15 4.479,-23.717c-0.2,-3.633 -0.817,-7.183 -2,-10.595c-1.8,-5.196 -4.742,-9.955 -8.621,-14.267c-5.412,34.154 -35.237,60.317 -71.329,60.317c-39.921,0 -72.283,-31.975 -72.283,-71.421c0,-5.067 0.55,-10 1.562,-14.767c-4.075,0.879 -8.083,1.875 -12,3c-8.267,2.371 -16.362,5.371 -24.233,8.879c-0.779,0.35 -1.538,0.734 -2.313,1.092c7.159,54.979 52.454,97.4 107.434,97.4" style="fill:white;fill-rule:nonzero;"/><path d="M1863.22,1698.95c31.358,0 59.516,-13.858 79.304,-35.921c3.254,-8.158 4.904,-16.15 4.479,-23.717c-0.2,-3.633 -0.817,-7.183 -2,-10.595c-1.8,-5.196 -4.742,-9.955 -8.621,-14.267c-5.412,34.154 -35.237,60.317 -71.329,60.317c-39.921,0 -72.283,-31.975 -72.283,-71.421c0,-5.067 0.55,-10 1.562,-14.767c-4.075,0.879 -8.083,1.875 -12,3c-8.267,2.371 -16.362,5.371 -24.233,8.879c-0.779,0.35 -1.538,0.734 -2.313,1.092c7.159,54.979 52.454,97.4 107.434,97.4Z" style="fill:none;stroke:white;stroke-width:4.17px;"/><path d="M2237.59,2927.7c-15.221,-27.65 -14.658,-22.954 -64.325,-99.762c-71.129,-110 -83.767,-137.371 -124.371,-175.775c-32.921,-31.138 -51.912,-49.1 -81.479,-52.254c-53.292,-5.688 -69.583,42.758 -124.367,57.008c-99.625,25.908 -173.183,-102.612 -223.004,-71.262c-30.029,18.895 -8.962,69.158 -25.733,175.775c-20.083,127.7 -68.854,141.483 -102.925,318.287c-2.158,11.221 -4.013,21.596 -5.617,31.317c129.863,75.796 275.388,127.691 430.571,149.562c0.929,0.129 1.863,0.259 2.792,0.388c17.225,2.387 34.558,4.412 52.008,6.05c4.721,0.446 9.446,0.866 14.179,1.258c3.704,0.304 7.404,0.613 11.117,0.879c8.192,0.6 16.404,1.134 24.646,1.563c1.904,0.1 3.816,0.158 5.721,0.25c7.291,0.346 14.595,0.621 21.916,0.833c2.559,0.071 5.117,0.146 7.679,0.204c9.013,0.204 18.042,0.342 27.105,0.342c97.066,0 191.383,-11.742 281.687,-33.729c-25.904,-63.704 -29.95,-80.45 -58.979,-154.167c-29.642,-75.258 -44.938,-113.771 -68.621,-156.767" style="fill:white;fill-rule:nonzero;"/><path d="M2237.59,2927.7c-15.221,-27.65 -14.658,-22.954 -64.325,-99.762c-71.129,-110 -83.767,-137.371 -124.371,-175.775c-32.921,-31.138 -51.912,-49.1 -81.479,-52.254c-53.292,-5.688 -69.583,42.758 -124.367,57.008c-99.625,25.908 -173.183,-102.612 -223.004,-71.262c-30.029,18.895 -8.962,69.158 -25.733,175.775c-20.083,127.7 -68.854,141.483 -102.925,318.287c-2.158,11.221 -4.013,21.596 -5.617,31.317c129.863,75.796 275.388,127.691 430.571,149.562c0.929,0.129 1.863,0.259 2.792,0.388c17.225,2.387 34.558,4.412 52.008,6.05c4.721,0.446 9.446,0.866 14.179,1.258c3.704,0.304 7.404,0.613 11.117,0.879c8.192,0.6 16.404,1.134 24.646,1.563c1.904,0.1 3.816,0.158 5.721,0.25c7.291,0.346 14.595,0.621 21.916,0.833c2.559,0.071 5.117,0.146 7.679,0.204c9.013,0.204 18.042,0.342 27.105,0.342c97.066,0 191.383,-11.742 281.687,-33.729c-25.904,-63.704 -29.95,-80.45 -58.979,-154.167c-29.642,-75.258 -44.938,-113.771 -68.621,-156.767Z" style="fill:none;stroke:white;stroke-width:4.17px;"/><path d="M2358.63,1793.54c0,0 87.842,-62.666 261.804,-185.07c129.396,-91.046 224.454,-153.8 270.829,-189.584c8.65,-6.675 17.446,-13.158 26.304,-19.55c20.509,-14.796 -226.941,58.334 -366.716,108.209c-145.446,51.904 -292.034,104.3 -437.434,156.345c-12.262,29.275 -31.041,65.838 -59.995,100.642c-135.667,163.067 -360.3,125.971 -359.992,137.238c0.175,6.458 73.971,15.308 284.992,9.145c115.166,-3.362 141.608,3.034 187.495,-9.145c66.588,-17.68 106.263,-46.559 192.713,-108.23Z" style="fill:white;fill-rule:nonzero;stroke:white;stroke-width:4.17px;"/></g><g><g transform="matrix(5.43541,0,0,5.63109,-2953.17,965.719)"><path d="M1305.34,309.734c-15.183,0 -26.906,-4.469 -35.171,-13.406c-8.264,-8.937 -12.396,-23.303 -12.396,-43.099l0,-69.189c0,-8.456 -2.354,-13.838 -7.063,-16.144c-4.709,-2.306 -10.234,-3.46 -16.577,-3.46l-0.865,0l0,-12.108l51.604,0l0,99.46c0,12.492 2.114,22.198 6.342,29.117c4.229,6.919 12.205,10.378 23.928,10.378c12.685,0 21.91,-4.276 27.676,-12.829c5.766,-8.552 8.649,-19.843 8.649,-33.873l0,-59.388c0,-9.033 -2.307,-14.751 -6.919,-17.153c-4.613,-2.402 -10.187,-3.604 -16.721,-3.604l-0.865,0l0,-12.108l51.604,0l0,123.099c0,8.457 2.354,13.79 7.063,16c4.708,2.211 10.234,3.316 16.576,3.316l0.865,0l0,12.108l-45.838,0l-3.747,-23.352l-1.442,0c-5.958,10.763 -12.877,17.826 -20.757,21.19c-7.879,3.363 -16.528,5.045 -25.946,5.045Z" style="fill:rgb(66,66,66);fill-rule:nonzero;"/><path d="M1417.78,306.851l0,-12.108l2.306,0c6.535,0 12.108,-1.202 16.721,-3.604c4.612,-2.402 6.919,-8.12 6.919,-17.153l0,-89.946c0,-8.456 -2.259,-13.838 -6.775,-16.144c-4.517,-2.306 -9.946,-3.46 -16.288,-3.46l-1.442,0l0,-12.108l46.703,0l3.748,23.352l1.441,0c5.958,-10.763 12.637,-17.826 20.036,-21.189c7.4,-3.364 15.712,-5.046 24.937,-5.046c15.183,0 27.051,4.469 35.604,13.406c8.552,8.937 12.828,23.303 12.828,43.099l0,68.036c0,9.033 1.97,14.751 5.91,17.153c3.94,2.402 9.177,3.604 15.712,3.604l1.441,0l0,12.108l-50.162,0l0,-99.46c0,-12.492 -2.354,-22.198 -7.063,-29.117c-4.708,-6.919 -12.925,-10.378 -24.648,-10.378c-8.649,0 -15.52,2.162 -20.613,6.486c-5.093,4.325 -8.745,10.042 -10.955,17.154c-2.21,7.111 -3.315,14.798 -3.315,23.063l0,60.828c0,8.457 2.258,13.79 6.775,16c4.516,2.211 9.946,3.316 16.288,3.316l1.441,0l0,12.108l-77.549,0Z" style="fill:rgb(66,66,66);fill-rule:nonzero;"/><path d="M1642.06,123.5c-4.613,0 -8.505,-1.346 -11.676,-4.036c-3.171,-2.691 -4.757,-7.304 -4.757,-13.838c0,-6.727 1.586,-11.388 4.757,-13.982c3.171,-2.595 7.063,-3.892 11.676,-3.892c4.42,0 8.264,1.297 11.531,3.892c3.268,2.594 4.901,7.255 4.901,13.982c0,6.534 -1.633,11.147 -4.901,13.838c-3.267,2.69 -7.111,4.036 -11.531,4.036Zm-39.784,183.351l0,-12.108l3.748,0c6.342,0 11.868,-1.105 16.576,-3.316c4.709,-2.21 7.063,-7.543 7.063,-16l0,-91.387c0,-8.456 -2.354,-13.838 -7.063,-16.144c-4.708,-2.306 -10.234,-3.46 -16.576,-3.46l-0.865,0l0,-12.108l51.604,0l0,121.658c0,9.033 2.306,14.751 6.918,17.153c4.613,2.402 10.187,3.604 16.721,3.604l3.748,0l0,12.108l-81.874,0Z" style="fill:rgb(66,66,66);fill-rule:nonzero;"/><path d="M1689.34,306.851l0,-12.108l2.595,0c6.919,0 12.492,-1.25 16.72,-3.748c4.229,-2.499 9.13,-7.4 14.703,-14.703l36.324,-46.991l-36.324,-49.585c-4.228,-4.805 -8.312,-8.553 -12.252,-11.244c-3.94,-2.69 -8.12,-4.036 -12.541,-4.036l-3.747,0l0,-12.108l73.225,0l0,12.108l-0.865,0c-6.727,0 -11.147,0.817 -13.261,2.451c-2.114,1.634 -3.172,3.604 -3.172,5.91c0,2.114 0.577,4.084 1.73,5.91c1.153,1.826 2.787,4.276 4.901,7.351l19.027,25.946l14.991,-21.622c2.114,-3.267 3.844,-6.39 5.189,-9.369c1.346,-2.979 2.018,-5.718 2.018,-8.216c0,-3.46 -1.489,-5.718 -4.468,-6.775c-2.979,-1.057 -6.679,-1.586 -11.099,-1.586l-0.865,0l0,-12.108l63.135,0l0,12.108l-2.595,0c-5.573,0 -10.378,1.154 -14.414,3.46c-4.036,2.306 -8.937,7.303 -14.703,14.991l-29.693,39.495l42.378,57.081c4.228,5.574 8.216,9.514 11.964,11.82c3.748,2.306 7.447,3.46 11.099,3.46l3.748,0l0,12.108l-74.379,0l0,-12.108l1.442,0c11.531,0 17.297,-3.172 17.297,-9.514c0,-2.114 -0.721,-4.42 -2.162,-6.919c-1.441,-2.498 -4.372,-6.823 -8.793,-12.973l-19.315,-25.946l-20.18,28.253c-1.73,2.306 -3.46,5.141 -5.189,8.504c-1.73,3.363 -2.595,6.583 -2.595,9.658c0,3.267 1.393,5.573 4.18,6.919c2.787,1.345 7.351,2.018 13.694,2.018l0.865,0l0,12.108l-68.613,0Z" style="fill:rgb(66,66,66);fill-rule:nonzero;"/><path d="M1967.54,306.851l-49.586,-161.442l-1.153,0c0.193,3.844 0.481,9.61 0.865,17.298c0.385,7.687 0.769,15.952 1.153,24.793c0.385,8.84 0.577,16.72 0.577,23.639l0,95.712l-38.919,0l0,-205.838l59.387,0l48.721,157.405l0.865,0l51.603,-157.405l59.388,0l0,205.838l-40.649,0l0,-97.442c0,-6.534 0.144,-14.03 0.433,-22.486c0.288,-8.457 0.576,-16.481 0.864,-24.072c0.289,-7.592 0.529,-13.309 0.721,-17.153l-1.153,0l-53.045,161.153l-40.072,0Z" style="fill:rgb(45,162,53);fill-rule:nonzero;"/><path d="M2170.5,87.752c6.342,0 11.82,1.489 16.432,4.468c4.613,2.979 6.919,8.505 6.919,16.577c0,7.88 -2.306,13.357 -6.919,16.432c-4.612,3.075 -10.09,4.613 -16.432,4.613c-6.535,0 -12.06,-1.538 -16.577,-4.613c-4.516,-3.075 -6.775,-8.552 -6.775,-16.432c0,-8.072 2.259,-13.598 6.775,-16.577c4.517,-2.979 10.042,-4.468 16.577,-4.468Zm21.333,61.693l0,157.406l-42.955,0l0,-157.406l42.955,0Z" style="fill:rgb(45,162,53);fill-rule:nonzero;"/><path d="M2240.26,101.013l64,0c27.292,0 48,3.844 62.126,11.532c14.127,7.687 21.19,21.237 21.19,40.648c0,11.724 -2.739,21.622 -8.217,29.694c-5.477,8.072 -13.309,12.973 -23.495,14.703l0,1.441c6.727,1.538 12.925,3.988 18.595,7.351c5.669,3.364 10.138,8.313 13.405,14.847c3.267,6.535 4.901,15.183 4.901,25.946c0,18.643 -6.775,33.249 -20.324,43.82c-13.55,10.57 -31.952,15.856 -55.208,15.856l-76.973,0l0,-205.838Zm43.532,81.586l25.369,0c12.685,0 21.478,-1.97 26.379,-5.91c4.901,-3.94 7.351,-9.85 7.351,-17.73c0,-7.88 -2.883,-13.55 -8.649,-17.009c-5.765,-3.459 -14.895,-5.189 -27.387,-5.189l-23.063,0l0,45.838Zm0,34.594l0,53.622l28.54,0c13.07,0 22.199,-2.547 27.388,-7.64c5.189,-5.093 7.784,-11.868 7.784,-20.324c0,-7.688 -2.643,-13.886 -7.928,-18.595c-5.286,-4.708 -14.847,-7.063 -28.685,-7.063l-27.099,0Z" style="fill:rgb(45,162,53);fill-rule:nonzero;"/></g></g></svg>