<?xml version="1.0" encoding="UTF-8" standalone="no"?><!DOCTYPE svg PUBLIC "-//W3C//DTD SVG 1.1//EN" "http://www.w3.org/Graphics/SVG/1.1/DTD/svg11.dtd"><svg width="100%" height="100%" viewBox="0 0 9221 2500" version="1.1" xmlns="http://www.w3.org/2000/svg" xmlns:xlink="http://www.w3.org/1999/xlink" xml:space="preserve" xmlns:serif="http://www.serif.com/" style="fill-rule:evenodd;clip-rule:evenodd;stroke-miterlimit:10;"><rect id="Combination-Mark" serif:id="Combination Mark" x="0" y="3.295" width="9219.17" height="2500" style="fill:none;"/><clipPath id="_clip1"><rect x="0" y="3.295" width="9219.17" height="2500"/></clipPath><g clip-path="url(#_clip1)"><g><g><path d="M1250.08,2473.49c-325.926,0 -632.342,-126.922 -862.806,-357.385c-230.464,-230.46 -357.385,-536.88 -357.385,-862.806c0,-325.926 126.921,-632.342 357.385,-862.806c230.464,-230.464 536.88,-357.385 862.806,-357.385c325.926,0 632.342,126.921 862.806,357.385c230.463,230.464 357.385,536.88 357.385,862.806c0,325.926 -126.922,632.346 -357.385,862.806c-230.464,230.463 -536.88,357.385 -862.806,357.385" style="fill:#fff;"/><path d="M1250.09,3.295c-690.359,0 -1250,559.646 -1250,1250c0,231.846 63.158,448.9 173.154,635c163.279,276.238 429.796,484.213 746.479,570.788c22.125,6.046 44.492,11.5 67.088,16.346c12.991,2.787 26.083,5.3 39.22,7.679c72.705,13.179 147.555,20.187 224.059,20.187c32.058,0 63.825,-1.237 95.275,-3.621c30.187,-2.291 60.083,-5.637 89.633,-10.016c16.833,-2.5 33.529,-5.363 50.133,-8.525c65.292,-12.425 128.763,-29.975 190.03,-52.125c481.075,-173.946 824.929,-634.621 824.929,-1175.71c0,-690.354 -559.646,-1250 -1250,-1250Zm-1044.7,1814.95c-91.059,-168.004 -142.8,-360.425 -142.8,-564.954c0,-655.837 531.658,-1187.5 1187.5,-1187.5c655.837,0 1187.5,531.663 1187.5,1187.5c0,515.042 -327.946,953.392 -786.375,1117.9c-3.171,-7.716 -6.379,-15.441 -9.534,-23.15c-42.366,-110.508 -113.65,-276.908 -204.179,-414.562c-55.837,-84.913 -152.837,-180.571 -164.996,-218.025c-8.4,-25.884 -6.866,-51.3 0,-90.842c15.8,-91 42.605,-157.571 45,-163.521c66.096,-164.25 52.896,-155.771 82.496,-218.021c29.15,-61.291 64.959,-114.75 64.959,-114.75c18.341,-28.716 43.15,-62.191 76.233,-96.095c24.225,-24.83 48.125,-45 69.787,-61.221c95.025,-66.05 220.584,-158.904 361.109,-279.863c91.171,-78.475 182.666,-164.583 180.554,-167.012c-0.025,-0.029 -0.067,-0.042 -0.121,-0.042c-0.092,0 -0.212,0.033 -0.358,0.083c-283.934,23.509 -458.584,71.905 -568.413,114.792c-37.746,14.738 -96.558,39.721 -180,45.421c-12.362,0.846 -24.816,1.229 -37.241,1.229c-102.163,0 -203.121,-26.05 -247.75,-37.567c-44.675,-11.529 -42.109,-13.487 -67.5,-18.166c-26.534,-4.896 -51.634,-6.871 -75.055,-6.871c-64.379,0 -116.054,14.912 -149.937,25.037c-63.821,19.071 -209.104,73.834 -337.492,227.109c-34.029,40.621 -78.529,94.696 -112.5,181.687c-34.229,87.663 -36.221,153.579 -45,236.192c-1.612,15.225 -27.346,243.025 -113.429,495.4c-3.979,9.817 -8.146,19.767 -12.458,29.812Z" style="fill:#545454;"/><path d="M1109.1,831.465c-19.792,22.063 -47.946,35.921 -79.304,35.921c-54.984,0 -100.275,-42.421 -107.434,-97.4c-73.958,34.158 -126.916,113.75 -107.591,152.029c19.6,38.825 114.466,36.971 179.471,9.854c47.925,-20 99.558,-62.07 114.858,-100.404Z" style="fill:#757575;stroke:#757575;stroke-width:4.17px;"/><path d="M960.815,757.463c-0.952,4.628 -1.469,9.411 -1.469,14.319c0,39.446 32.363,71.421 72.284,71.421l0.422,-0.001c35.902,-0.203 65.516,-26.295 70.907,-60.315l0.361,0.405c3.701,4.205 6.516,8.828 8.26,13.861c1.183,3.413 1.8,6.963 2,10.596c0.425,7.567 -1.225,15.558 -4.479,23.717c-19.633,21.89 -47.507,35.703 -78.57,35.918l-0.735,0.003c-54.979,0 -100.275,-42.421 -107.433,-97.4c0.775,-0.359 1.533,-0.742 2.313,-1.092c7.87,-3.508 15.966,-6.508 24.233,-8.879c3.917,-1.125 7.925,-2.121 12,-3l-0.094,0.447Z" style="fill:#fff;"/><path d="M804.475,1749.13c43.796,0.666 102.683,79.468 177.821,79.693l1.112,-0.003c8.531,-0.062 17.272,-1.144 26.222,-3.471c51.788,-13.471 69.178,-57.5 115.943,-57.47l1.166,0.009c2.344,0.038 4.76,0.186 7.258,0.452c29.567,3.155 48.558,21.117 81.479,52.255c40.604,38.404 53.242,65.775 124.371,175.775c49.667,76.808 49.104,72.112 64.325,99.762c23.683,42.996 38.979,81.508 68.621,156.767c29.029,73.716 33.075,90.462 58.979,154.166c-88.894,21.644 -181.675,33.36 -277.14,33.721l-4.548,0.009c-9.062,0 -18.091,-0.138 -27.104,-0.342c-2.562,-0.058 -5.121,-0.133 -7.679,-0.204c-7.321,-0.213 -14.625,-0.488 -21.917,-0.834c-1.904,-0.091 -3.816,-0.15 -5.72,-0.25c-8.242,-0.429 -16.455,-0.962 -24.646,-1.562c-3.713,-0.267 -7.413,-0.575 -11.117,-0.879c-4.733,-0.392 -9.458,-0.813 -14.179,-1.259c-17.45,-1.637 -34.783,-3.662 -52.008,-6.05c-0.93,-0.129 -1.863,-0.258 -2.792,-0.387c-155.183,-21.871 -300.708,-73.767 -430.571,-149.563c1.604,-9.72 3.458,-20.095 5.617,-31.316c34.071,-176.804 82.841,-190.588 102.925,-318.288c16.771,-106.616 -4.296,-156.879 25.733,-175.775c5.449,-3.429 11.182,-4.945 17.202,-4.96l0.647,0.004Z" style="fill:#fff;"/><path d="M1525.21,961.979c0,0 87.841,-62.667 261.804,-185.071c129.396,-91.046 224.454,-153.8 270.829,-189.583c8.65,-6.675 17.446,-13.158 26.304,-19.55c20.509,-14.796 -226.941,58.333 -366.716,108.208c-145.446,51.904 -292.034,104.3 -437.434,156.346c-12.262,29.275 -31.041,65.838 -59.996,100.642c-135.666,163.066 -360.3,125.971 -359.991,137.237c0.175,6.459 73.971,15.309 284.991,9.146c115.167,-3.362 141.609,3.033 187.496,-9.146c66.588,-17.679 106.263,-46.558 192.713,-108.229Z" style="fill:#fff;stroke:#fff;stroke-width:4.17px;"/></g><g><g transform="matrix(5.43541,0,0,5.63109,-3786.59,134.156)"><path d="M1305.34,309.734c-15.183,0 -26.906,-4.469 -35.171,-13.406c-8.264,-8.937 -12.396,-23.303 -12.396,-43.099l0,-69.189c0,-8.456 -2.354,-13.838 -7.063,-16.144c-4.709,-2.306 -10.234,-3.46 -16.577,-3.46l-0.865,0l0,-12.108l51.604,0l0,99.46c0,12.492 2.114,22.198 6.342,29.117c4.229,6.919 12.205,10.378 23.928,10.378c12.685,0 21.91,-4.276 27.676,-12.829c5.766,-8.552 8.649,-19.843 8.649,-33.873l0,-59.388c0,-9.033 -2.307,-14.751 -6.919,-17.153c-4.613,-2.402 -10.187,-3.604 -16.721,-3.604l-0.865,0l0,-12.108l51.604,0l0,123.099c0,8.457 2.354,13.79 7.063,16c4.708,2.211 10.234,3.316 16.576,3.316l0.865,0l0,12.108l-45.838,0l-3.747,-23.352l-1.442,0c-5.958,10.763 -12.877,17.826 -20.757,21.19c-7.879,3.363 -16.528,5.045 -25.946,5.045Z" style="fill:#545454;fill-rule:nonzero;"/><path d="M1417.78,306.851l0,-12.108l2.306,0c6.535,0 12.108,-1.202 16.721,-3.604c4.612,-2.402 6.919,-8.12 6.919,-17.153l0,-89.946c0,-8.456 -2.259,-13.838 -6.775,-16.144c-4.517,-2.306 -9.946,-3.46 -16.288,-3.46l-1.442,0l0,-12.108l46.703,0l3.748,23.352l1.441,0c5.958,-10.763 12.637,-17.826 20.036,-21.189c7.4,-3.364 15.712,-5.046 24.937,-5.046c15.183,0 27.051,4.469 35.604,13.406c8.552,8.937 12.828,23.303 12.828,43.099l0,68.036c0,9.033 1.97,14.751 5.91,17.153c3.94,2.402 9.177,3.604 15.712,3.604l1.441,0l0,12.108l-50.162,0l0,-99.46c0,-12.492 -2.354,-22.198 -7.063,-29.117c-4.708,-6.919 -12.925,-10.378 -24.648,-10.378c-8.649,0 -15.52,2.162 -20.613,6.486c-5.093,4.325 -8.745,10.042 -10.955,17.154c-2.21,7.111 -3.315,14.798 -3.315,23.063l0,60.828c0,8.457 2.258,13.79 6.775,16c4.516,2.211 9.946,3.316 16.288,3.316l1.441,0l0,12.108l-77.549,0Z" style="fill:#545454;fill-rule:nonzero;"/><path d="M1642.06,123.5c-4.613,0 -8.505,-1.346 -11.676,-4.036c-3.171,-2.691 -4.757,-7.304 -4.757,-13.838c0,-6.727 1.586,-11.388 4.757,-13.982c3.171,-2.595 7.063,-3.892 11.676,-3.892c4.42,0 8.264,1.297 11.531,3.892c3.268,2.594 4.901,7.255 4.901,13.982c0,6.534 -1.633,11.147 -4.901,13.838c-3.267,2.69 -7.111,4.036 -11.531,4.036Zm-39.784,183.351l0,-12.108l3.748,0c6.342,0 11.868,-1.105 16.576,-3.316c4.709,-2.21 7.063,-7.543 7.063,-16l0,-91.387c0,-8.456 -2.354,-13.838 -7.063,-16.144c-4.708,-2.306 -10.234,-3.46 -16.576,-3.46l-0.865,0l0,-12.108l51.604,0l0,121.658c0,9.033 2.306,14.751 6.918,17.153c4.613,2.402 10.187,3.604 16.721,3.604l3.748,0l0,12.108l-81.874,0Z" style="fill:#545454;fill-rule:nonzero;"/><path d="M1689.34,306.851l0,-12.108l2.595,0c6.919,0 12.492,-1.25 16.72,-3.748c4.229,-2.499 9.13,-7.4 14.703,-14.703l36.324,-46.991l-36.324,-49.585c-4.228,-4.805 -8.312,-8.553 -12.252,-11.244c-3.94,-2.69 -8.12,-4.036 -12.541,-4.036l-3.747,0l0,-12.108l73.225,0l0,12.108l-0.865,0c-6.727,0 -11.147,0.817 -13.261,2.451c-2.114,1.634 -3.172,3.604 -3.172,5.91c0,2.114 0.577,4.084 1.73,5.91c1.153,1.826 2.787,4.276 4.901,7.351l19.027,25.946l14.991,-21.622c2.114,-3.267 3.844,-6.39 5.189,-9.369c1.346,-2.979 2.018,-5.718 2.018,-8.216c0,-3.46 -1.489,-5.718 -4.468,-6.775c-2.979,-1.057 -6.679,-1.586 -11.099,-1.586l-0.865,0l0,-12.108l63.135,0l0,12.108l-2.595,0c-5.573,0 -10.378,1.154 -14.414,3.46c-4.036,2.306 -8.937,7.303 -14.703,14.991l-29.693,39.495l42.378,57.081c4.228,5.574 8.216,9.514 11.964,11.82c3.748,2.306 7.447,3.46 11.099,3.46l3.748,0l0,12.108l-74.379,0l0,-12.108l1.442,0c11.531,0 17.297,-3.172 17.297,-9.514c0,-2.114 -0.721,-4.42 -2.162,-6.919c-1.441,-2.498 -4.372,-6.823 -8.793,-12.973l-19.315,-25.946l-20.18,28.253c-1.73,2.306 -3.46,5.141 -5.189,8.504c-1.73,3.363 -2.595,6.583 -2.595,9.658c0,3.267 1.393,5.573 4.18,6.919c2.787,1.345 7.351,2.018 13.694,2.018l0.865,0l0,12.108l-68.613,0Z" style="fill:#545454;fill-rule:nonzero;"/><path d="M1967.54,306.851l-49.586,-161.442l-1.153,0c0.193,3.844 0.481,9.61 0.865,17.298c0.385,7.687 0.769,15.952 1.153,24.793c0.385,8.84 0.577,16.72 0.577,23.639l0,95.712l-38.919,0l0,-205.838l59.387,0l48.721,157.405l0.865,0l51.603,-157.405l59.388,0l0,205.838l-40.649,0l0,-97.442c0,-6.534 0.144,-14.03 0.433,-22.486c0.288,-8.457 0.576,-16.481 0.864,-24.072c0.289,-7.592 0.529,-13.309 0.721,-17.153l-1.153,0l-53.045,161.153l-40.072,0Z" style="fill:#2da235;fill-rule:nonzero;"/><path d="M2170.5,87.752c6.342,0 11.82,1.489 16.432,4.468c4.613,2.979 6.919,8.505 6.919,16.577c0,7.88 -2.306,13.357 -6.919,16.432c-4.612,3.075 -10.09,4.613 -16.432,4.613c-6.535,0 -12.06,-1.538 -16.577,-4.613c-4.516,-3.075 -6.775,-8.552 -6.775,-16.432c0,-8.072 2.259,-13.598 6.775,-16.577c4.517,-2.979 10.042,-4.468 16.577,-4.468Zm21.333,61.693l0,157.406l-42.955,0l0,-157.406l42.955,0Z" style="fill:#2da235;fill-rule:nonzero;"/><path d="M2240.26,101.013l64,0c27.292,0 48,3.844 62.126,11.532c14.127,7.687 21.19,21.237 21.19,40.648c0,11.724 -2.739,21.622 -8.217,29.694c-5.477,8.072 -13.309,12.973 -23.495,14.703l0,1.441c6.727,1.538 12.925,3.988 18.595,7.351c5.669,3.364 10.138,8.313 13.405,14.847c3.267,6.535 4.901,15.183 4.901,25.946c0,18.643 -6.775,33.249 -20.324,43.82c-13.55,10.57 -31.952,15.856 -55.208,15.856l-76.973,0l0,-205.838Zm43.532,81.586l25.369,0c12.685,0 21.478,-1.97 26.379,-5.91c4.901,-3.94 7.351,-9.85 7.351,-17.73c0,-7.88 -2.883,-13.55 -8.649,-17.009c-5.765,-3.459 -14.895,-5.189 -27.387,-5.189l-23.063,0l0,45.838Zm0,34.594l0,53.622l28.54,0c13.07,0 22.199,-2.547 27.388,-7.64c5.189,-5.093 7.784,-11.868 7.784,-20.324c0,-7.688 -2.643,-13.886 -7.928,-18.595c-5.286,-4.708 -14.847,-7.063 -28.685,-7.063l-27.099,0Z" style="fill:#2da235;fill-rule:nonzero;"/></g></g></g></g></svg>