<?xml version="1.0" encoding="UTF-8" standalone="no"?><!DOCTYPE svg PUBLIC "-//W3C//DTD SVG 1.1//EN" "http://www.w3.org/Graphics/SVG/1.1/DTD/svg11.dtd"><svg width="100%" height="100%" viewBox="0 0 2500 2500" version="1.1" xmlns="http://www.w3.org/2000/svg" xmlns:xlink="http://www.w3.org/1999/xlink" xml:space="preserve" xmlns:serif="http://www.serif.com/" style="fill-rule:evenodd;clip-rule:evenodd;stroke-miterlimit:10;"><rect id="Logo" x="0.085" y="0" width="2500" height="2500" style="fill:none;"/><g><path d="M1250.08,2470.19c-325.926,0 -632.342,-126.921 -862.806,-357.385c-230.464,-230.459 -357.385,-536.88 -357.385,-862.806c0,-325.926 126.921,-632.342 357.385,-862.805c230.464,-230.464 536.88,-357.385 862.806,-357.385c325.926,0 632.342,126.921 862.806,357.385c230.463,230.463 357.385,536.879 357.385,862.805c0,325.926 -126.922,632.347 -357.385,862.806c-230.464,230.464 -536.88,357.385 -862.806,357.385" style="fill:white;fill-rule:nonzero;"/><path d="M1250.09,0c-690.359,0 -1250,559.646 -1250,1250c0,231.846 63.158,448.9 173.154,635c163.279,276.238 429.796,484.213 746.479,570.788c22.125,6.045 44.492,11.5 67.088,16.345c12.991,2.788 26.083,5.3 39.22,7.68c72.705,13.179 147.555,20.187 224.059,20.187c32.058,0 63.825,-1.237 95.275,-3.621c30.187,-2.291 60.083,-5.637 89.633,-10.016c16.833,-2.5 33.529,-5.363 50.133,-8.525c65.292,-12.425 128.763,-29.975 190.03,-52.125c481.075,-173.946 824.929,-634.621 824.929,-1175.71c0,-690.354 -559.646,-1250 -1250,-1250Zm-1044.7,1814.95c-91.059,-168.004 -142.8,-360.425 -142.8,-564.954c0,-655.837 531.658,-1187.5 1187.5,-1187.5c655.837,0 1187.5,531.663 1187.5,1187.5c0,515.042 -327.946,953.392 -786.375,1117.9c-3.171,-7.717 -6.379,-15.442 -9.534,-23.15c-42.366,-110.508 -113.65,-276.908 -204.179,-414.562c-55.837,-84.913 -152.837,-180.571 -164.996,-218.025c-8.4,-25.884 -6.866,-51.3 0,-90.842c15.8,-91 42.605,-157.571 45,-163.521c66.096,-164.25 52.896,-155.771 82.496,-218.021c29.15,-61.291 64.959,-114.75 64.959,-114.75c18.341,-28.716 43.15,-62.191 76.233,-96.096c24.225,-24.829 48.125,-45 69.787,-61.22c95.025,-66.05 220.584,-158.905 361.109,-279.863c91.171,-78.475 182.666,-164.583 180.554,-167.012c-0.025,-0.03 -0.067,-0.042 -0.121,-0.042c-0.092,0 -0.212,0.033 -0.358,0.083c-283.934,23.509 -458.584,71.904 -568.413,114.792c-37.746,14.737 -96.558,39.721 -180,45.421c-12.362,0.846 -24.816,1.229 -37.241,1.229c-102.163,0 -203.121,-26.05 -247.75,-37.567c-44.675,-11.529 -42.109,-13.487 -67.5,-18.166c-26.534,-4.896 -51.634,-6.871 -75.055,-6.871c-64.379,0 -116.054,14.912 -149.937,25.037c-63.821,19.071 -209.104,73.834 -337.492,227.109c-34.029,40.62 -78.529,94.695 -112.5,181.687c-34.229,87.663 -36.221,153.579 -45,236.192c-1.612,15.225 -27.346,243.025 -113.429,495.4c-3.979,9.816 -8.146,19.766 -12.458,29.812Z" style="fill:rgb(84,84,84);fill-rule:nonzero;"/><path d="M1109.1,828.17c-19.792,22.063 -47.946,35.921 -79.304,35.921c-54.984,0 -100.275,-42.421 -107.434,-97.4c-73.958,34.158 -126.916,113.75 -107.591,152.029c19.6,38.825 114.466,36.971 179.471,9.854c47.925,-20 99.558,-62.071 114.858,-100.404Z" style="fill:rgb(117,117,117);stroke:rgb(117,117,117);stroke-width:4.17px;"/><path d="M960.815,754.168c-0.952,4.628 -1.469,9.411 -1.469,14.319c0,39.446 32.363,71.421 72.284,71.421l0.422,-0.001c35.902,-0.203 65.516,-26.295 70.907,-60.316l0.361,0.406c3.701,4.205 6.516,8.827 8.26,13.861c1.183,3.412 1.8,6.962 2,10.596c0.425,7.566 -1.225,15.558 -4.479,23.716c-19.633,21.89 -47.507,35.704 -78.57,35.919l-0.735,0.002c-54.979,0 -100.275,-42.421 -107.433,-97.4c0.775,-0.358 1.533,-0.741 2.313,-1.091c7.87,-3.509 15.966,-6.509 24.233,-8.88c3.917,-1.125 7.925,-2.12 12,-3l-0.094,0.448Z" style="fill:white;fill-rule:nonzero;"/><path d="M804.475,1745.84c43.796,0.666 102.683,79.468 177.821,79.692l1.112,-0.002c8.531,-0.063 17.272,-1.144 26.222,-3.472c51.788,-13.47 69.178,-57.499 115.943,-57.47l1.166,0.01c2.344,0.038 4.76,0.186 7.258,0.452c29.567,3.154 48.558,21.117 81.479,52.254c40.604,38.404 53.242,65.775 124.371,175.775c49.667,76.809 49.104,72.113 64.325,99.763c23.683,42.996 38.979,81.508 68.621,156.766c29.029,73.717 33.075,90.463 58.979,154.167c-88.894,21.644 -181.675,33.36 -277.14,33.721l-4.548,0.008c-9.062,0 -18.091,-0.137 -27.104,-0.341c-2.562,-0.059 -5.121,-0.134 -7.679,-0.205c-7.321,-0.212 -14.625,-0.487 -21.917,-0.833c-1.904,-0.092 -3.816,-0.15 -5.72,-0.25c-8.242,-0.429 -16.455,-0.962 -24.646,-1.562c-3.713,-0.267 -7.413,-0.575 -11.117,-0.88c-4.733,-0.391 -9.458,-0.812 -14.179,-1.258c-17.45,-1.637 -34.783,-3.662 -52.008,-6.05c-0.93,-0.129 -1.863,-0.258 -2.792,-0.387c-155.183,-21.871 -300.708,-73.767 -430.571,-149.563c1.604,-9.721 3.458,-20.096 5.617,-31.317c34.071,-176.804 82.841,-190.587 102.925,-318.287c16.771,-106.617 -4.296,-156.879 25.733,-175.775c5.449,-3.429 11.182,-4.945 17.202,-4.96l0.647,0.004Z" style="fill:white;fill-rule:nonzero;"/><path d="M1525.21,958.684c0,0 87.841,-62.667 261.804,-185.071c129.396,-91.046 224.454,-153.8 270.829,-189.583c8.65,-6.675 17.446,-13.159 26.304,-19.55c20.509,-14.796 -226.941,58.333 -366.716,108.208c-145.446,51.904 -292.034,104.3 -437.434,156.346c-12.262,29.275 -31.041,65.837 -59.996,100.641c-135.666,163.067 -360.3,125.971 -359.991,137.238c0.175,6.458 73.971,15.308 284.991,9.146c115.167,-3.363 141.609,3.033 187.496,-9.146c66.588,-17.679 106.263,-46.558 192.713,-108.229Z" style="fill:white;stroke:white;stroke-width:4.17px;"/></g></svg>