<?xml version="1.0" encoding="UTF-8" standalone="no"?>
<!DOCTYPE svg PUBLIC "-//W3C//DTD SVG 1.1//EN" "http://www.w3.org/Graphics/SVG/1.1/DTD/svg11.dtd">
<svg width="100%" height="100%" viewBox="0 0 600 600" version="1.1" xmlns="http://www.w3.org/2000/svg" xmlns:xlink="http://www.w3.org/1999/xlink" xml:space="preserve" xmlns:serif="http://www.serif.com/" style="fill-rule:evenodd;clip-rule:evenodd;stroke-linejoin:round;stroke-miterlimit:2;">
    <g id="Logo" transform="matrix(0.840653,0,0,0.883398,112.644,718.514)">
        <rect x="-133.972" y="-813.352" width="713.731" height="679.195" style="fill:none;"/>
        <g transform="matrix(1.18955,0,0,1.13199,-328.89,-870.596)">
            <g transform="matrix(1,0,0,1,163.838,50.5688)">
                <circle cx="300.02" cy="300" r="292" style="fill:white;"/>
                <clipPath id="_clip1">
                    <circle cx="300.02" cy="300" r="292"/>
                </clipPath>
                <g clip-path="url(#_clip1)">
                    <g id="Mascotte" transform="matrix(1,0,0,1,299.995,300.004)">
                        <g transform="matrix(1,0,0,1,-300.026,-300.004)">
                            <g transform="matrix(1,0,0,1,-163.935,-50.5688)">
                                <g transform="matrix(1,0,0,1,163.823,50.5688)">
                                    <path d="M405.361,600.008C403.21,590.87 399.125,575.194 396.29,568.296C395.529,566.444 394.759,564.59 394.002,562.74C381.183,529.302 365.716,492.998 344.999,463.245C337.649,452.688 329.231,442.914 321.269,432.811C313.472,422.918 304.026,414.699 304.026,401.247C304.026,372.714 319.612,340.356 329.384,314.53C336.509,295.701 336.465,295.842 346.418,278.261C348.017,275.435 349.805,272.719 351.589,270.007C360.887,255.451 372.792,242.616 386.634,232.251C418.528,210.082 443.233,190.573 473.3,165.084C488.309,152.361 504.139,140.201 516.633,125.001C500.281,127.713 483.926,130.426 467.646,133.541C426.285,141.455 426.596,142.023 385.881,153.349C360.456,160.422 336.212,165.36 309.833,162.737C290.084,160.773 271.646,153.779 252.301,150.381C229.175,146.319 204.897,150.663 183.519,160.015C165.295,167.988 157.191,173.255 140.807,185.855C114.734,205.905 93.937,236.012 85.448,267.797C78.573,293.541 78.468,321.485 73.496,347.643C68.432,374.285 60.994,402.895 52.282,428.434C51.327,430.79 50.327,433.178 49.292,435.589C34.891,469.137 20.866,543.743 17.112,600.008" style="fill:rgb(66,66,66);"/>
                                </g>
                                <g transform="matrix(1,0,0,1,430.008,265.625)">
                                    <path d="M0,-16.295C-14.685,0.075 -41.973,-9.207 -44.817,-31.05C-49.204,-29.024 -53.29,-26.288 -56.992,-23.182C-64.246,-17.097 -67.852,-11.635 -71.057,-2.987C-73.147,2.652 -69.935,9.061 -64.118,10.653C-60.551,11.629 -56.884,12.425 -53.189,12.554C-37.783,13.093 -22.467,7.397 -10.847,-2.597C-6.701,-6.162 -2.093,-11.052 0,-16.295" style="fill:rgb(117,117,117);"/>
                                </g>
                                <g transform="matrix(1,0,0,1,163.844,50.5688)">
                                    <path d="M230.575,181C229.421,186.608 231.187,192.49 235.304,196.558C237.707,198.932 240.792,200.575 244.075,201.23C245.256,201.465 247.672,201.578 247.672,201.578C256.289,201.529 263.396,195.267 264.69,187.102L264.776,187.199C266.31,188.941 267.115,190.812 267.239,193.069C267.341,194.885 266.945,196.803 266.164,198.761C261.452,204.015 254.762,207.33 247.307,207.381L247.131,207.382C233.936,207.382 223.065,197.201 221.347,184.006C221.533,183.92 221.715,183.828 221.902,183.744C224.803,182.451 227.557,181.549 230.598,180.893L230.575,181" style="fill:white;"/>
                                </g>
                                <g transform="matrix(1,0,0,1,163.844,50.5688)">
                                    <path d="M193.054,419.001C203.565,419.161 217.698,438.073 235.731,438.127L235.997,438.126C249.739,438.026 257.026,423.492 270.117,423.5L270.397,423.503C284.321,423.728 297.053,441.166 303.871,450.802C315.656,467.457 326.737,484.637 336.981,502.281C350.302,525.226 357.729,552.618 367.605,576.905C370.875,584.947 373.246,595.513 374.494,600.008L145.697,600.008C147.459,592.042 152.035,573.605 156.544,546.281C162.344,511.136 181.906,481.394 184.243,445.628C184.654,439.354 181.182,419.029 192.898,419L193.054,419.001" style="fill:white;fill-rule:nonzero;"/>
                                </g>
                                <g transform="matrix(1,0,0,1,529.874,214.667)">
                                    <path d="M0,65.986C20.987,51.241 41.975,36.496 62.833,21.569C73.182,14.163 83.461,6.658 93.616,-1.012C99.005,-5.083 104.177,-9.432 109.455,-13.647C115.313,-18.325 121.167,-23.008 127.021,-27.691C116.146,-25.215 105.27,-22.74 94.446,-20.05C84.585,-17.6 74.738,-15.082 64.974,-12.272C22.32,0.005 -17.166,19.949 -58.851,34.87C-71.135,64.197 -97.114,84.533 -128.687,89.155C-135.997,90.224 -143.4,90.51 -150.758,91.177C-153.721,91.446 -156.862,90.917 -159.648,91.961C-160.828,92.403 -157.312,92.983 -156.065,93.166C-152.211,93.731 -148.32,94.135 -144.425,94.194C-126.702,94.465 -108.975,94.23 -91.25,94.156C-81.671,94.116 -72.083,94.319 -62.515,93.852C-36.907,92.603 -20.673,80.733 0,65.986" style="fill:white;fill-rule:nonzero;"/>
                                </g>
                            </g>
                        </g>
                    </g>
                </g>
            </g>
            <g transform="matrix(1,0,0,1,163.838,50.5688)">
                <path d="M300.02,0.015C465.587,0.015 600.006,134.434 600.006,300C600.006,465.566 465.587,599.985 300.02,599.985C134.454,599.985 0.035,465.566 0.035,300C0.035,134.434 134.454,0.015 300.02,0.015ZM300.095,15.155C457.305,15.155 584.94,142.79 584.94,300C584.94,457.21 457.305,584.845 300.095,584.845C142.884,584.845 15.249,457.21 15.249,300C15.249,142.79 142.884,15.155 300.095,15.155Z" style="fill:rgb(66,66,66);"/>
            </g>
        </g>
    </g>
</svg>
