<?xml version="1.0" encoding="UTF-8" standalone="no"?><!DOCTYPE svg PUBLIC "-//W3C//DTD SVG 1.1//EN" "http://www.w3.org/Graphics/SVG/1.1/DTD/svg11.dtd"><svg width="100%" height="100%" viewBox="0 0 2500 2500" version="1.1" xmlns="http://www.w3.org/2000/svg" xmlns:xlink="http://www.w3.org/1999/xlink" xml:space="preserve" xmlns:serif="http://www.serif.com/" style="fill-rule:evenodd;clip-rule:evenodd;stroke-miterlimit:10;"><rect id="Logo" x="0" y="0" width="2500" height="2500" style="fill:none;"/><clipPath id="_clip1"><rect x="0" y="0" width="2500" height="2500"/></clipPath><g clip-path="url(#_clip1)"><g><path d="M1250,2435.42c-316.638,0 -614.321,-123.304 -838.217,-347.2c-223.896,-223.892 -347.2,-521.579 -347.2,-838.217c0,-316.637 123.304,-614.32 347.2,-838.216c223.896,-223.896 521.579,-347.2 838.217,-347.2c316.637,0 614.321,123.304 838.217,347.2c223.895,223.896 347.2,521.579 347.2,838.216c0,316.638 -123.305,614.325 -347.2,838.217c-223.896,223.896 -521.58,347.2 -838.217,347.2" style="fill:#fff;fill-rule:nonzero;"/><path d="M1250,62.5c-655.838,0 -1187.5,531.663 -1187.5,1187.5c0,655.838 531.662,1187.5 1187.5,1187.5c655.837,0 1187.5,-531.662 1187.5,-1187.5c0,-655.837 -531.663,-1187.5 -1187.5,-1187.5m0,4.167c159.75,0 314.721,31.288 460.604,92.992c140.908,59.6 267.463,144.921 376.138,253.6c108.675,108.675 194,235.225 253.604,376.137c61.7,145.884 92.987,300.854 92.987,460.604c0,159.75 -31.287,314.721 -92.987,460.605c-59.604,140.908 -144.929,267.462 -253.604,376.137c-108.675,108.675 -235.23,194 -376.138,253.604c-145.883,61.7 -300.854,92.988 -460.604,92.988c-159.75,0 -314.721,-31.288 -460.604,-92.988c-140.913,-59.604 -267.463,-144.929 -376.138,-253.604c-108.679,-108.675 -194,-235.229 -253.6,-376.137c-61.704,-145.884 -92.991,-300.855 -92.991,-460.605c0,-159.75 31.287,-314.72 92.991,-460.604c59.6,-140.912 144.921,-267.462 253.6,-376.137c108.675,-108.679 235.225,-194 376.138,-253.6c145.883,-61.704 300.854,-92.992 460.604,-92.992" style="fill:#fff;fill-rule:nonzero;"/><path d="M2148.35,523.279c-14.346,16.159 -93.083,90.146 -177.712,162.992c-115.542,99.454 -236.975,193.567 -360.938,279.729c-24.896,18.642 -48.458,39.308 -70.092,61.479c-28.637,29.346 -54.37,61.792 -76.499,96.429c-0.334,0.496 -36.2,54.246 -65.08,114.975c-13.845,29.113 -18.4,42.921 -25.941,65.796c-8.492,25.75 -21.321,64.663 -56.609,152.346c-4.887,12.129 -30.029,77.038 -45.116,163.938c-6.725,38.708 -8.709,64.812 0.071,91.841c6.558,20.213 37.033,56.663 72.312,98.871c31.267,37.4 66.704,79.792 92.921,119.658c89.562,136.184 160.354,300.392 203.975,414.163c1.837,4.487 10.308,25.037 10.308,25.037l1.875,-0.67c471.179,-169.084 787.754,-619.125 787.754,-1119.86c0,-655.937 -533.65,-1189.58 -1189.58,-1189.58c-655.942,0 -1189.58,533.646 -1189.58,1189.58c0,197.579 49.466,393.283 143.054,565.946l2.046,3.779l1.696,-3.95c4.391,-10.221 8.587,-20.267 12.479,-29.85c87.408,-256.254 112.541,-486.296 113.566,-495.962c1.288,-12.092 2.425,-23.834 3.546,-35.334c6.55,-67.475 12.209,-125.754 41.325,-200.325c34.538,-88.446 81.246,-144.208 112.154,-181.104c122.396,-146.121 263.359,-204.6 336.492,-226.45c31.229,-9.329 83.5,-24.946 149.342,-24.946c24.971,0 50.096,2.296 74.675,6.829c13.546,2.5 19.058,4.213 28.191,7.055c7.805,2.425 18.492,5.745 39.167,11.083c43.646,11.262 145.846,37.633 248.275,37.633c12.804,0 25.383,-0.416 37.383,-1.233c78.496,-5.363 135.505,-27.808 173.225,-42.663l7.384,-2.9c145.05,-56.637 334.766,-95.1 563.937,-114.329m-898.354,1974.64c-74.658,0 -149.917,-6.779 -223.687,-20.154c-14.738,-2.667 -27.542,-5.175 -39.155,-7.671c-22.404,-4.8 -44.937,-10.292 -66.975,-16.317c-156.304,-42.729 -300.995,-114.7 -430.045,-213.912c-127.467,-97.992 -233.513,-217.742 -315.188,-355.925c-113.092,-191.33 -172.867,-410.546 -172.867,-633.938c0,-333.329 129.805,-646.708 365.505,-882.408c235.7,-235.704 549.079,-365.509 882.412,-365.509c333.329,0 646.708,129.805 882.408,365.509c235.7,235.7 365.509,549.079 365.509,882.408c0,261.658 -80.113,512.125 -231.675,724.325c-148.3,207.633 -352.971,363.046 -591.879,449.429c-61.75,22.329 -125.58,39.834 -189.713,52.038c-17.079,3.25 -33.917,6.112 -50.046,8.508c-29.425,4.363 -59.533,7.729 -89.487,10c-31.642,2.4 -63.642,3.617 -95.117,3.617" style="fill:#424242;fill-rule:nonzero;"/><path d="M205.3,1814.95c-91.058,-168.004 -142.8,-360.425 -142.8,-564.954c0,-655.837 531.658,-1187.5 1187.5,-1187.5c655.838,0 1187.5,531.663 1187.5,1187.5c0,515.042 -327.946,953.392 -786.375,1117.9c-3.171,-7.717 -6.379,-15.442 -9.533,-23.15c-42.367,-110.508 -113.65,-276.908 -204.179,-414.563c-55.838,-84.912 -152.838,-180.57 -164.996,-218.024c-8.4,-25.884 -6.867,-51.301 0,-90.842c15.8,-91 42.604,-157.571 45,-163.521c66.096,-164.25 52.896,-155.771 82.496,-218.021c29.15,-61.292 64.958,-114.75 64.958,-114.75c18.342,-28.716 43.15,-62.191 76.233,-96.096c24.225,-24.829 48.125,-45 69.788,-61.221c95.025,-66.049 220.583,-158.904 361.108,-279.862c91.171,-78.475 182.667,-164.583 180.554,-167.012c-0.025,-0.03 -0.066,-0.042 -0.121,-0.042c-0.091,0 -0.212,0.033 -0.358,0.083c-283.933,23.509 -458.583,71.904 -568.412,114.792c-37.746,14.737 -96.559,39.721 -180,45.421c-12.363,0.846 -24.817,1.229 -37.242,1.229c-102.163,0 -203.121,-26.05 -247.75,-37.567c-44.675,-11.529 -42.108,-13.487 -67.5,-18.166c-26.533,-4.896 -51.633,-6.871 -75.054,-6.871c-64.379,0 -116.054,14.912 -149.938,25.037c-63.821,19.071 -209.104,73.834 -337.491,227.109c-34.03,40.62 -78.53,94.695 -112.5,181.687c-34.23,87.662 -36.221,153.579 -45,236.192c-1.613,15.225 -27.346,243.025 -113.43,495.4c-3.979,9.816 -8.145,19.766 -12.458,29.812m1044.7,-1814.95c-690.358,0 -1250,559.646 -1250,1250c0,231.846 63.158,448.9 173.154,635c163.279,276.237 429.796,484.212 746.479,570.787c22.125,6.046 44.492,11.5 67.088,16.346c12.992,2.788 26.083,5.3 39.221,7.679c72.704,13.18 147.554,20.188 224.058,20.188c32.058,0 63.825,-1.238 95.275,-3.621c30.188,-2.292 60.083,-5.637 89.633,-10.017c16.834,-2.5 33.53,-5.362 50.134,-8.525c65.291,-12.425 128.762,-29.975 190.029,-52.125c481.075,-173.945 824.929,-634.62 824.929,-1175.71c0,-690.354 -559.646,-1250 -1250,-1250m-1044.27,1824.5l3.396,-7.9c4.4,-10.25 8.604,-20.308 12.492,-29.892l0.046,-0.112l0.037,-0.109c87.454,-256.391 112.6,-486.629 113.629,-496.304c1.288,-12.108 2.434,-23.921 3.542,-35.346c6.533,-67.325 12.179,-125.475 41.196,-199.775c34.412,-88.125 80.987,-143.729 111.808,-180.524c122.05,-145.705 262.584,-204.009 335.492,-225.792c31.121,-9.3 83.208,-24.863 148.746,-24.863c24.846,0 49.841,2.288 74.3,6.8c13.421,2.475 18.887,4.175 27.941,6.992c7.825,2.433 18.542,5.762 39.271,11.113c43.721,11.283 146.1,37.7 248.792,37.7c12.854,0 25.479,-0.417 37.529,-1.238c78.817,-5.383 136,-27.9 173.838,-42.8c2.55,-1.004 5.012,-1.971 7.387,-2.9c143.738,-56.125 331.442,-94.383 558.021,-113.742c-20.684,21.6 -94.417,90.459 -173.917,158.884c-115.479,99.408 -236.862,193.479 -360.887,279.683c-24.921,18.663 -48.563,39.4 -70.271,61.65c-28.729,29.442 -54.554,61.996 -76.713,96.683c-0.358,0.538 -36.312,54.417 -65.254,115.279c-13.904,29.238 -18.475,43.092 -26.042,66.046c-8.483,25.725 -21.304,64.6 -56.566,152.225c-4.904,12.188 -30.133,77.384 -45.234,164.346c-6.783,39.05 -8.762,65.408 0.142,92.846c6.688,20.596 37.279,57.187 72.7,99.562c31.233,37.359 66.629,79.7 92.779,119.463c89.45,136.021 160.179,300.088 203.804,413.854c1.934,4.734 3.892,9.471 5.846,14.209l3.688,8.95l1.516,3.683l3.746,-1.35c472.004,-169.379 789.134,-620.204 789.134,-1121.82c0,-657.087 -534.58,-1191.67 -1191.67,-1191.67c-657.092,0 -1191.67,534.58 -1191.67,1191.67c0,197.925 49.554,393.971 143.304,566.942l4.096,7.558m1044.27,-1820.33c168.187,0 331.342,32.937 484.929,97.904c148.354,62.746 281.588,152.575 396.004,266.992c114.417,114.416 204.25,247.65 266.996,396.004c64.963,153.591 97.904,316.746 97.904,484.933c0,261.221 -79.979,511.271 -231.283,723.113c-72.867,102.012 -160.392,192.275 -260.158,268.287c-100.784,76.788 -212.063,137.483 -330.742,180.396c-61.642,22.287 -125.363,39.767 -189.388,51.946c-17.133,3.266 -33.945,6.12 -49.962,8.496c-29.392,4.358 -59.45,7.72 -89.338,9.987c-31.591,2.396 -63.537,3.608 -94.962,3.608c-74.546,0 -149.675,-6.771 -223.313,-20.121c-14.937,-2.704 -27.362,-5.137 -39.095,-7.654c-22.334,-4.787 -44.83,-10.271 -66.859,-16.291c-156.046,-42.655 -300.491,-114.505 -429.325,-213.554c-127.258,-97.83 -233.125,-217.384 -314.666,-355.334c-112.9,-191.012 -172.575,-409.854 -172.575,-632.879c0,-168.187 32.937,-331.342 97.9,-484.933c62.75,-148.354 152.579,-281.588 266.995,-396.004c114.417,-114.417 247.65,-204.246 396.005,-266.992c153.587,-64.967 316.741,-97.904 484.933,-97.904" style="fill:#424242;fill-rule:nonzero;"/><path d="M1109.02,828.17c-19.792,22.063 -47.946,35.921 -79.304,35.921c-54.983,0 -100.275,-42.421 -107.433,-97.4c-73.959,34.158 -126.917,113.75 -107.592,152.029c19.6,38.825 114.467,36.971 179.471,9.854c47.925,-20 99.558,-62.071 114.858,-100.404Z" style="fill:#757575;fill-rule:nonzero;stroke:#757575;stroke-width:4.17px;"/><path d="M1029.71,864.091c31.358,0 59.516,-13.858 79.304,-35.921c3.254,-8.158 4.904,-16.15 4.479,-23.716c-0.2,-3.634 -0.817,-7.184 -2,-10.596c-1.8,-5.196 -4.742,-9.954 -8.621,-14.267c-5.412,34.154 -35.237,60.317 -71.329,60.317c-39.921,0 -72.283,-31.975 -72.283,-71.421c0,-5.067 0.55,-10 1.562,-14.767c-4.075,0.88 -8.083,1.875 -12,3c-8.266,2.371 -16.362,5.371 -24.233,8.88c-0.779,0.35 -1.538,0.733 -2.313,1.091c7.159,54.979 52.455,97.4 107.434,97.4" style="fill:#fff;fill-rule:nonzero;"/><path d="M1029.71,864.091c31.358,0 59.516,-13.858 79.304,-35.921c3.254,-8.158 4.904,-16.15 4.479,-23.716c-0.2,-3.634 -0.817,-7.184 -2,-10.596c-1.8,-5.196 -4.742,-9.954 -8.621,-14.267c-5.412,34.154 -35.237,60.317 -71.329,60.317c-39.921,0 -72.283,-31.975 -72.283,-71.421c0,-5.067 0.55,-10 1.562,-14.767c-4.075,0.88 -8.083,1.875 -12,3c-8.266,2.371 -16.362,5.371 -24.233,8.88c-0.779,0.35 -1.538,0.733 -2.313,1.091c7.159,54.979 52.455,97.4 107.434,97.4Z" style="fill:none;stroke:#fff;stroke-width:4.17px;"/><path d="M1404.09,2092.84c-15.221,-27.65 -14.658,-22.954 -64.325,-99.763c-71.129,-110 -83.767,-137.371 -124.371,-175.775c-32.921,-31.137 -51.912,-49.1 -81.479,-52.254c-53.292,-5.687 -69.583,42.758 -124.367,57.008c-99.625,25.909 -173.183,-102.612 -223.004,-71.262c-30.029,18.896 -8.962,69.158 -25.733,175.775c-20.083,127.7 -68.854,141.483 -102.925,318.287c-2.158,11.221 -4.013,21.596 -5.617,31.317c129.863,75.796 275.388,127.692 430.571,149.563c0.929,0.129 1.863,0.258 2.792,0.387c17.225,2.388 34.558,4.413 52.008,6.05c4.721,0.446 9.446,0.867 14.179,1.258c3.704,0.305 7.404,0.613 11.117,0.88c8.192,0.6 16.404,1.133 24.646,1.562c1.904,0.1 3.816,0.158 5.721,0.25c7.291,0.346 14.595,0.621 21.916,0.833c2.559,0.071 5.117,0.146 7.679,0.205c9.013,0.204 18.042,0.341 27.105,0.341c97.066,0 191.383,-11.741 281.687,-33.729c-25.904,-63.704 -29.95,-80.45 -58.979,-154.167c-29.642,-75.258 -44.938,-113.77 -68.621,-156.766" style="fill:#fff;fill-rule:nonzero;"/><path d="M1404.09,2092.84c-15.221,-27.65 -14.658,-22.954 -64.325,-99.763c-71.129,-110 -83.767,-137.371 -124.371,-175.775c-32.921,-31.137 -51.912,-49.1 -81.479,-52.254c-53.292,-5.687 -69.583,42.758 -124.367,57.008c-99.625,25.909 -173.183,-102.612 -223.004,-71.262c-30.029,18.896 -8.962,69.158 -25.733,175.775c-20.083,127.7 -68.854,141.483 -102.925,318.287c-2.158,11.221 -4.013,21.596 -5.617,31.317c129.863,75.796 275.388,127.692 430.571,149.563c0.929,0.129 1.863,0.258 2.792,0.387c17.225,2.388 34.558,4.413 52.008,6.05c4.721,0.446 9.446,0.867 14.179,1.258c3.704,0.305 7.404,0.613 11.117,0.88c8.192,0.6 16.404,1.133 24.646,1.562c1.904,0.1 3.816,0.158 5.721,0.25c7.291,0.346 14.595,0.621 21.916,0.833c2.559,0.071 5.117,0.146 7.679,0.205c9.013,0.204 18.042,0.341 27.105,0.341c97.066,0 191.383,-11.741 281.687,-33.729c-25.904,-63.704 -29.95,-80.45 -58.979,-154.167c-29.642,-75.258 -44.938,-113.77 -68.621,-156.766Z" style="fill:none;stroke:#fff;stroke-width:4.17px;"/><path d="M1525.13,958.684c0,0 87.842,-62.667 261.804,-185.071c129.396,-91.046 224.454,-153.8 270.829,-189.583c8.65,-6.675 17.446,-13.159 26.304,-19.55c20.509,-14.796 -226.941,58.333 -366.716,108.208c-145.446,51.904 -292.034,104.3 -437.434,156.346c-12.262,29.275 -31.041,65.837 -59.995,100.641c-135.667,163.067 -360.3,125.971 -359.992,137.238c0.175,6.458 73.971,15.308 284.992,9.146c115.166,-3.363 141.608,3.033 187.495,-9.146c66.588,-17.679 106.263,-46.558 192.713,-108.229Z" style="fill:#fff;fill-rule:nonzero;stroke:#fff;stroke-width:4.17px;"/></g></g></svg>