<?xml version="1.0" encoding="UTF-8" standalone="no"?><!DOCTYPE svg PUBLIC "-//W3C//DTD SVG 1.1//EN" "http://www.w3.org/Graphics/SVG/1.1/DTD/svg11.dtd"><svg width="100%" height="100%" viewBox="0 0 10888 4167" version="1.1" xmlns="http://www.w3.org/2000/svg" xmlns:xlink="http://www.w3.org/1999/xlink" xml:space="preserve" xmlns:serif="http://www.serif.com/" style="fill-rule:evenodd;clip-rule:evenodd;stroke-linejoin:round;stroke-miterlimit:2;"><rect id="Combination-Mark-Margin" serif:id="Combination Mark Margin" x="0.085" y="2.004" width="10887.5" height="4166.67" style="fill:none;"/><g><g><circle cx="2083.65" cy="2085.34" r="1216.67" style="fill:white;"/><clipPath id="_clip1"><circle cx="2083.65" cy="2085.34" r="1216.67"/></clipPath><g clip-path="url(#_clip1)"><clipPath id="_clip2"><rect id="Mascotte" x="833.434" y="835.337" width="2500.22" height="2500.03"/></clipPath><g clip-path="url(#_clip2)"><g><path d="M2521.97,3335.37c-8.961,-38.075 -25.983,-103.391 -37.792,-132.132c-3.171,-7.716 -6.38,-15.441 -9.534,-23.15c-53.414,-139.325 -117.859,-290.592 -204.179,-414.562c-30.628,-43.988 -65.699,-84.711 -98.877,-126.809c-32.488,-41.222 -71.844,-75.468 -71.844,-131.515c0,-118.89 64.941,-253.715 105.659,-361.324c29.685,-78.452 29.504,-77.865 70.973,-151.12c6.664,-11.772 14.111,-23.09 21.547,-34.39c38.739,-60.651 88.343,-114.128 146.021,-157.317c132.892,-92.371 235.827,-173.658 361.109,-279.863c62.537,-53.014 128.492,-103.679 180.554,-167.012c-68.134,11.302 -136.281,22.606 -204.115,35.585c-172.339,32.975 -171.042,35.338 -340.688,82.533c-105.935,29.471 -206.954,50.045 -316.865,39.115c-82.288,-8.183 -159.112,-37.326 -239.716,-51.483c-96.357,-16.924 -197.516,1.175 -286.594,40.144c-75.933,33.217 -109.698,55.166 -177.967,107.664c-108.637,83.541 -195.291,208.987 -230.659,341.425c-28.646,107.268 -29.086,223.702 -49.801,332.69c-21.099,111.01 -52.094,230.217 -88.391,336.631c-3.979,9.817 -8.146,19.767 -12.458,29.813c-60.008,139.785 -118.444,450.643 -134.085,685.077" style="fill:rgb(66,66,66);"/><path d="M1942.07,1663.51c-61.187,68.208 -174.888,29.534 -186.738,-61.479c-18.278,8.442 -35.305,19.843 -50.73,32.782c-30.225,25.354 -45.247,48.114 -58.603,84.147c-8.71,23.496 4.673,50.201 28.911,56.833c14.862,4.066 30.141,7.384 45.539,7.923c64.191,2.244 128.01,-21.488 176.426,-63.128c17.275,-14.858 36.475,-35.231 45.195,-57.078" style="fill:rgb(117,117,117);"/><path d="M1793.78,1589.51c-4.81,23.364 2.55,47.875 19.703,64.822c10.011,9.892 22.867,16.739 36.544,19.467c4.923,0.982 14.99,1.45 14.99,1.45c35.902,-0.203 65.515,-26.294 70.907,-60.315l0.361,0.405c6.389,7.259 9.742,15.052 10.26,24.457c0.425,7.567 -1.225,15.559 -4.48,23.717c-19.632,21.89 -47.506,35.704 -78.569,35.918l-0.735,0.003c-54.979,0 -100.275,-42.421 -107.433,-97.4c0.775,-0.359 1.533,-0.742 2.312,-1.092c12.088,-5.388 23.564,-9.146 36.234,-11.879l-0.094,0.447" style="fill:white;"/><path d="M1637.44,2581.17c43.797,0.667 102.684,79.468 177.822,79.693l1.112,-0.003c57.255,-0.42 87.616,-60.976 142.165,-60.941l1.166,0.009c58.015,0.938 111.067,73.596 139.475,113.746c49.102,69.396 95.275,140.979 137.958,214.498c55.502,95.601 86.45,209.737 127.6,310.934c13.624,33.505 23.504,77.532 28.705,96.259l-953.32,0c7.339,-33.188 26.406,-110.009 45.194,-223.859c24.166,-146.439 105.674,-270.366 115.415,-419.391c1.708,-26.14 -12.755,-110.826 36.062,-110.949l0.646,0.004" style="fill:white;fill-rule:nonzero;"/><path d="M2358.18,1794.02c87.447,-61.436 174.896,-122.873 261.804,-185.071c43.119,-30.859 85.951,-62.13 128.261,-94.089c22.454,-16.961 44.007,-35.082 65.995,-52.642c24.409,-19.493 48.802,-39.005 73.195,-58.517c-45.313,10.314 -90.631,20.629 -135.731,31.836c-41.085,10.21 -82.117,20.698 -122.799,32.408c-177.727,51.156 -342.248,134.253 -515.938,196.425c-51.185,122.197 -159.427,206.93 -290.982,226.186c-30.459,4.458 -61.307,5.649 -91.965,8.428c-12.344,1.119 -25.434,-1.084 -37.04,3.265c-4.917,1.843 9.734,4.259 14.929,5.021c16.057,2.355 32.272,4.037 48.499,4.285c73.846,1.128 147.709,0.149 221.563,-0.16c39.911,-0.167 79.864,0.678 119.728,-1.266c106.702,-5.205 174.344,-54.662 260.481,-116.109" style="fill:white;fill-rule:nonzero;"/></g></g></g><path d="M2083.65,835.399c689.859,0 1249.94,560.079 1249.94,1249.94c0,689.86 -560.079,1249.94 -1249.94,1249.94c-689.86,0 -1249.94,-560.079 -1249.94,-1249.94c0,-689.859 560.078,-1249.94 1249.94,-1249.94Zm0.309,63.083c655.043,0 1186.86,531.812 1186.86,1186.86c0,655.044 -531.812,1186.86 -1186.86,1186.86c-655.043,0 -1186.86,-531.811 -1186.86,-1186.86c0,-655.043 531.812,-1186.86 1186.86,-1186.86Z" style="fill:rgb(66,66,66);"/></g><g><g transform="matrix(5.43541,0,0,5.63109,-2953.09,966.199)"><g transform="matrix(288.288,0,0,288.288,1226.64,306.851)"><path d="M0.273,0.01c-0.053,0 -0.093,-0.016 -0.122,-0.047c-0.029,-0.031 -0.043,-0.08 -0.043,-0.149l0,-0.24c0,-0.029 -0.008,-0.048 -0.025,-0.056c-0.016,-0.008 -0.035,-0.012 -0.057,-0.012l-0.003,0l0,-0.042l0.179,0l0,0.345c0,0.043 0.007,0.077 0.022,0.101c0.015,0.024 0.042,0.036 0.083,0.036c0.044,0 0.076,-0.015 0.096,-0.045c0.02,-0.029 0.03,-0.068 0.03,-0.117l0,-0.206c0,-0.031 -0.008,-0.051 -0.024,-0.059c-0.016,-0.009 -0.035,-0.013 -0.058,-0.013l-0.003,0l0,-0.042l0.179,0l0,0.427c0,0.029 0.008,0.048 0.024,0.056c0.017,0.007 0.036,0.011 0.058,0.011l0.003,0l0,0.042l-0.159,0l-0.013,-0.081l-0.005,0c-0.021,0.037 -0.045,0.062 -0.072,0.074c-0.027,0.011 -0.057,0.017 -0.09,0.017Z" style="fill:rgb(66,66,66);fill-rule:nonzero;"/></g><g transform="matrix(288.288,0,0,288.288,1409.7,306.851)"><path d="M0.028,0l0,-0.042l0.008,0c0.023,0 0.042,-0.004 0.058,-0.012c0.016,-0.009 0.024,-0.029 0.024,-0.06l0,-0.312c0,-0.029 -0.008,-0.048 -0.023,-0.056c-0.016,-0.008 -0.035,-0.012 -0.057,-0.012l-0.005,0l0,-0.042l0.162,0l0.013,0.081l0.005,0c0.021,-0.037 0.044,-0.062 0.069,-0.073c0.026,-0.012 0.055,-0.018 0.087,-0.018c0.053,0 0.094,0.016 0.123,0.047c0.03,0.031 0.045,0.08 0.045,0.149l0,0.236c0,0.031 0.007,0.051 0.02,0.06c0.014,0.008 0.032,0.012 0.055,0.012l0.005,0l0,0.042l-0.174,0l0,-0.345c0,-0.043 -0.008,-0.077 -0.025,-0.101c-0.016,-0.024 -0.044,-0.036 -0.085,-0.036c-0.03,0 -0.054,0.008 -0.072,0.023c-0.017,0.015 -0.03,0.034 -0.038,0.059c-0.007,0.025 -0.011,0.051 -0.011,0.08l0,0.211c0,0.029 0.008,0.048 0.023,0.056c0.016,0.007 0.035,0.011 0.057,0.011l0.005,0l0,0.042l-0.269,0Z" style="fill:rgb(66,66,66);fill-rule:nonzero;"/></g><g transform="matrix(288.288,0,0,288.288,1595.65,306.851)"><path d="M0.161,-0.636c-0.016,0 -0.029,-0.005 -0.041,-0.014c-0.01,-0.009 -0.016,-0.025 -0.016,-0.048c0,-0.023 0.006,-0.039 0.017,-0.048c0.011,-0.009 0.024,-0.014 0.04,-0.014c0.015,0 0.029,0.005 0.04,0.014c0.011,0.009 0.017,0.025 0.017,0.048c0,0.023 -0.006,0.039 -0.017,0.048c-0.011,0.009 -0.025,0.014 -0.04,0.014Zm-0.138,0.636l0,-0.042l0.013,0c0.022,0 0.041,-0.004 0.058,-0.011c0.016,-0.008 0.024,-0.027 0.024,-0.056l0,-0.317c0,-0.029 -0.008,-0.048 -0.024,-0.056c-0.017,-0.008 -0.036,-0.012 -0.058,-0.012l-0.003,0l0,-0.042l0.179,0l0,0.422c0,0.031 0.008,0.051 0.024,0.06c0.016,0.008 0.035,0.012 0.058,0.012l0.013,0l0,0.042l-0.284,0Z" style="fill:rgb(66,66,66);fill-rule:nonzero;"/></g><g transform="matrix(288.288,0,0,288.288,1687.9,306.851)"><path d="M0.005,0l0,-0.042l0.009,0c0.024,0 0.043,-0.004 0.058,-0.013c0.015,-0.009 0.032,-0.026 0.051,-0.051l0.126,-0.163l-0.126,-0.172c-0.015,-0.017 -0.029,-0.03 -0.042,-0.039c-0.014,-0.009 -0.029,-0.014 -0.044,-0.014l-0.013,0l0,-0.042l0.254,0l0,0.042l-0.003,0c-0.023,0 -0.039,0.003 -0.046,0.009c-0.007,0.005 -0.011,0.012 -0.011,0.02c0,0.007 0.002,0.014 0.006,0.021c0.004,0.006 0.01,0.014 0.017,0.025l0.066,0.09l0.052,-0.075c0.007,-0.011 0.013,-0.022 0.018,-0.033c0.005,-0.01 0.007,-0.019 0.007,-0.028c0,-0.012 -0.005,-0.02 -0.016,-0.024c-0.01,-0.003 -0.023,-0.005 -0.038,-0.005l-0.003,0l0,-0.042l0.219,0l0,0.042l-0.009,0c-0.019,0 -0.036,0.004 -0.05,0.012c-0.014,0.008 -0.031,0.025 -0.051,0.052l-0.103,0.137l0.147,0.198c0.015,0.019 0.028,0.033 0.041,0.041c0.013,0.008 0.026,0.012 0.039,0.012l0.013,0l0,0.042l-0.258,0l0,-0.042l0.005,0c0.04,0 0.06,-0.011 0.06,-0.033c0,-0.007 -0.003,-0.015 -0.008,-0.024c-0.005,-0.009 -0.015,-0.024 -0.03,-0.045l-0.067,-0.09l-0.07,0.098c-0.006,0.008 -0.012,0.018 -0.018,0.03c-0.006,0.011 -0.009,0.022 -0.009,0.033c0,0.011 0.005,0.019 0.014,0.024c0.01,0.005 0.026,0.007 0.048,0.007l0.003,0l0,0.042l-0.238,0Z" style="fill:rgb(66,66,66);fill-rule:nonzero;"/></g><g transform="matrix(288.288,0,0,288.288,1854.53,306.851)"><path d="M0.392,0l-0.172,-0.56l-0.004,0c0.001,0.013 0.002,0.033 0.003,0.06c0.001,0.027 0.003,0.055 0.004,0.086c0.001,0.031 0.002,0.058 0.002,0.082l0,0.332l-0.135,0l0,-0.714l0.206,0l0.169,0.546l0.003,0l0.179,-0.546l0.206,0l0,0.714l-0.141,0l0,-0.338c0,-0.023 0.001,-0.049 0.002,-0.078c0.001,-0.029 0.002,-0.057 0.003,-0.083c0.001,-0.027 0.001,-0.047 0.002,-0.06l-0.004,0l-0.184,0.559l-0.139,0Z" style="fill:rgb(45,162,53);fill-rule:nonzero;"/></g><g transform="matrix(288.288,0,0,288.288,2126.39,306.851)"><path d="M0.153,-0.76c0.022,0 0.041,0.005 0.057,0.015c0.016,0.011 0.024,0.03 0.024,0.058c0,0.027 -0.008,0.046 -0.024,0.057c-0.016,0.011 -0.035,0.016 -0.057,0.016c-0.023,0 -0.042,-0.005 -0.057,-0.016c-0.016,-0.011 -0.024,-0.03 -0.024,-0.057c0,-0.028 0.008,-0.047 0.023,-0.058c0.016,-0.01 0.035,-0.015 0.058,-0.015Zm0.074,0.214l0,0.546l-0.149,0l0,-0.546l0.149,0Z" style="fill:rgb(45,162,53);fill-rule:nonzero;"/></g><g transform="matrix(288.288,0,0,288.288,2214.32,306.851)"><path d="M0.09,-0.714l0.222,0c0.095,0 0.166,0.013 0.215,0.04c0.049,0.027 0.074,0.074 0.074,0.141c0,0.041 -0.009,0.075 -0.028,0.103c-0.019,0.028 -0.047,0.045 -0.082,0.051l0,0.005c0.023,0.005 0.045,0.014 0.065,0.025c0.019,0.012 0.035,0.029 0.046,0.052c0.011,0.023 0.017,0.053 0.017,0.09c0,0.065 -0.023,0.115 -0.071,0.152c-0.047,0.037 -0.11,0.055 -0.191,0.055l-0.267,0l0,-0.714Zm0.151,0.283l0.088,0c0.044,0 0.075,-0.007 0.091,-0.021c0.017,-0.013 0.026,-0.034 0.026,-0.061c0,-0.027 -0.01,-0.047 -0.03,-0.059c-0.02,-0.012 -0.052,-0.018 -0.095,-0.018l-0.08,0l0,0.159Zm0,0.12l0,0.186l0.099,0c0.045,0 0.077,-0.009 0.095,-0.027c0.018,-0.017 0.027,-0.041 0.027,-0.07c0,-0.027 -0.009,-0.048 -0.028,-0.065c-0.018,-0.016 -0.051,-0.024 -0.099,-0.024l-0.094,0Z" style="fill:rgb(45,162,53);fill-rule:nonzero;"/></g></g></g></g></svg>