<?xml version="1.0" encoding="UTF-8" standalone="no"?><!DOCTYPE svg PUBLIC "-//W3C//DTD SVG 1.1//EN" "http://www.w3.org/Graphics/SVG/1.1/DTD/svg11.dtd"><svg width="100%" height="100%" viewBox="0 0 4167 4167" version="1.1" xmlns="http://www.w3.org/2000/svg" xmlns:xlink="http://www.w3.org/1999/xlink" xml:space="preserve" xmlns:serif="http://www.serif.com/" style="fill-rule:evenodd;clip-rule:evenodd;stroke-linejoin:round;stroke-miterlimit:2;"><rect id="Logo-Margin" serif:id="Logo Margin" x="0" y="0.42" width="4166.67" height="4166.67" style="fill:none;"/><g><circle cx="2083.39" cy="2083.75" r="1216.67" style="fill:#fff;"/><clipPath id="_clip1"><circle cx="2083.39" cy="2083.75" r="1216.67"/></clipPath><g clip-path="url(#_clip1)"><clipPath id="_clip2"><rect id="Mascotte" x="833.18" y="833.753" width="2500.22" height="2500.03"/></clipPath><g clip-path="url(#_clip2)"><g><path d="M2521.72,3333.78c-8.961,-38.075 -25.983,-103.391 -37.793,-132.132c-3.171,-7.717 -6.379,-15.442 -9.533,-23.15c-53.415,-139.325 -117.859,-290.592 -204.179,-414.562c-30.629,-43.988 -65.7,-84.712 -98.878,-126.81c-32.487,-41.221 -71.843,-75.467 -71.843,-131.514c0,-118.891 64.941,-253.715 105.659,-361.324c29.685,-78.452 29.503,-77.865 70.972,-151.12c6.664,-11.773 14.112,-23.09 21.548,-34.391c38.738,-60.651 88.343,-114.127 146.021,-157.316c132.892,-92.371 235.826,-173.658 361.108,-279.863c62.537,-53.014 128.493,-103.68 180.554,-167.012c-68.133,11.302 -136.281,22.606 -204.115,35.585c-172.338,32.975 -171.041,35.338 -340.687,82.533c-105.935,29.47 -206.954,50.045 -316.866,39.115c-82.287,-8.184 -159.111,-37.326 -239.715,-51.483c-96.358,-16.924 -197.517,1.175 -286.595,40.143c-75.933,33.218 -109.697,55.167 -177.967,107.665c-108.637,83.54 -195.29,208.987 -230.658,341.424c-28.647,107.268 -29.087,223.703 -49.801,332.691c-21.099,111.009 -52.095,230.217 -88.392,336.631c-3.979,9.816 -8.145,19.766 -12.458,29.812c-60.007,139.785 -118.443,450.644 -134.085,685.078" style="fill:#424242;"/><path d="M1941.82,1661.92c-61.187,68.208 -174.887,29.534 -186.737,-61.479c-18.278,8.442 -35.305,19.843 -50.73,32.782c-30.225,25.354 -45.247,48.114 -58.604,84.147c-8.709,23.496 4.674,50.201 28.912,56.832c14.861,4.066 30.141,7.385 45.539,7.923c64.19,2.244 128.01,-21.487 176.425,-63.128c17.275,-14.857 36.476,-35.23 45.195,-57.077" style="fill:#757575;"/><path d="M1793.53,1587.92c-4.81,23.364 2.55,47.874 19.702,64.822c10.011,9.892 22.867,16.739 36.545,19.467c4.923,0.982 14.99,1.45 14.99,1.45c35.901,-0.203 65.515,-26.295 70.906,-60.316l0.361,0.406c6.389,7.259 9.742,15.052 10.26,24.457c0.425,7.567 -1.225,15.558 -4.479,23.717c-19.633,21.89 -47.506,35.703 -78.57,35.918l-0.734,0.002c-54.979,0 -100.275,-42.42 -107.434,-97.4c0.775,-0.358 1.534,-0.741 2.313,-1.091c12.087,-5.388 23.564,-9.146 36.233,-11.879l-0.093,0.447" style="fill:#fff;"/><path d="M1637.19,2579.59c43.796,0.666 102.683,79.468 177.821,79.692l1.112,-0.002c57.256,-0.42 87.617,-60.976 142.166,-60.942l1.165,0.01c58.015,0.938 111.068,73.596 139.476,113.745c49.102,69.397 95.275,140.98 137.957,214.499c55.503,95.601 86.451,209.737 127.6,310.933c13.625,33.506 23.505,77.533 28.705,96.26l-953.32,0c7.34,-33.189 26.406,-110.009 45.194,-223.86c24.166,-146.438 105.674,-270.365 115.415,-419.39c1.709,-26.14 -12.754,-110.826 36.063,-110.949l0.646,0.004" style="fill:#fff;fill-rule:nonzero;"/><path d="M2357.93,1792.44c87.447,-61.436 174.897,-122.873 261.804,-185.071c43.119,-30.859 85.951,-62.13 128.261,-94.089c22.454,-16.961 44.008,-35.082 65.996,-52.643c24.408,-19.492 48.801,-39.004 73.194,-58.516c-45.312,10.313 -90.631,20.629 -135.731,31.836c-41.085,10.209 -82.116,20.698 -122.799,32.408c-177.726,51.156 -342.248,134.253 -515.937,196.425c-51.185,122.197 -159.428,206.93 -290.983,226.185c-30.459,4.459 -61.307,5.65 -91.964,8.429c-12.345,1.119 -25.434,-1.084 -37.041,3.265c-4.916,1.842 9.734,4.258 14.929,5.02c16.058,2.356 32.272,4.038 48.5,4.286c73.845,1.128 147.709,0.149 221.563,-0.16c39.911,-0.167 79.863,0.678 119.727,-1.267c106.702,-5.205 174.345,-54.661 260.481,-116.108" style="fill:#fff;fill-rule:nonzero;"/></g></g></g><path d="M2083.39,833.815c689.86,0 1249.94,560.079 1249.94,1249.94c0,689.86 -560.078,1249.94 -1249.94,1249.94c-689.859,0 -1249.94,-560.078 -1249.94,-1249.94c0,-689.859 560.079,-1249.94 1249.94,-1249.94Zm0.309,63.083c655.043,0 1186.86,531.812 1186.86,1186.86c0,655.043 -531.812,1186.86 -1186.86,1186.86c-655.043,0 -1186.86,-531.812 -1186.86,-1186.86c0,-655.043 531.812,-1186.86 1186.86,-1186.86Z" style="fill:#424242;"/></g></svg>