<?xml version="1.0" encoding="UTF-8" standalone="no"?><!DOCTYPE svg PUBLIC "-//W3C//DTD SVG 1.1//EN" "http://www.w3.org/Graphics/SVG/1.1/DTD/svg11.dtd"><svg width="100%" height="100%" viewBox="0 0 8809 3755" version="1.1" xmlns="http://www.w3.org/2000/svg" xmlns:xlink="http://www.w3.org/1999/xlink" xml:space="preserve" xmlns:serif="http://www.serif.com/" style="fill-rule:evenodd;clip-rule:evenodd;stroke-linejoin:round;stroke-miterlimit:2;"><rect id="Logotype-Margin" serif:id="Logotype Margin" x="0.521" y="0.42" width="8804.17" height="3750" style="fill:none;"/><g><g transform="matrix(5.43541,0,0,5.63109,-5452.82,756.281)"><g transform="matrix(288.288,0,0,288.288,1226.64,306.851)"><path d="M0.273,0.01c-0.053,0 -0.093,-0.016 -0.122,-0.047c-0.029,-0.031 -0.043,-0.08 -0.043,-0.149l0,-0.24c0,-0.029 -0.008,-0.048 -0.025,-0.056c-0.016,-0.008 -0.035,-0.012 -0.057,-0.012l-0.003,0l0,-0.042l0.179,0l0,0.345c0,0.043 0.007,0.077 0.022,0.101c0.015,0.024 0.042,0.036 0.083,0.036c0.044,0 0.076,-0.015 0.096,-0.045c0.02,-0.029 0.03,-0.068 0.03,-0.117l0,-0.206c0,-0.031 -0.008,-0.051 -0.024,-0.059c-0.016,-0.009 -0.035,-0.013 -0.058,-0.013l-0.003,0l0,-0.042l0.179,0l0,0.427c0,0.029 0.008,0.048 0.024,0.056c0.017,0.007 0.036,0.011 0.058,0.011l0.003,0l0,0.042l-0.159,0l-0.013,-0.081l-0.005,0c-0.021,0.037 -0.045,0.062 -0.072,0.074c-0.027,0.011 -0.057,0.017 -0.09,0.017Z" style="fill:rgb(66,66,66);fill-rule:nonzero;"/></g><g transform="matrix(288.288,0,0,288.288,1409.7,306.851)"><path d="M0.028,0l0,-0.042l0.008,0c0.023,0 0.042,-0.004 0.058,-0.012c0.016,-0.009 0.024,-0.029 0.024,-0.06l0,-0.312c0,-0.029 -0.008,-0.048 -0.023,-0.056c-0.016,-0.008 -0.035,-0.012 -0.057,-0.012l-0.005,0l0,-0.042l0.162,0l0.013,0.081l0.005,0c0.021,-0.037 0.044,-0.062 0.069,-0.073c0.026,-0.012 0.055,-0.018 0.087,-0.018c0.053,0 0.094,0.016 0.123,0.047c0.03,0.031 0.045,0.08 0.045,0.149l0,0.236c0,0.031 0.007,0.051 0.02,0.06c0.014,0.008 0.032,0.012 0.055,0.012l0.005,0l0,0.042l-0.174,0l0,-0.345c0,-0.043 -0.008,-0.077 -0.025,-0.101c-0.016,-0.024 -0.044,-0.036 -0.085,-0.036c-0.03,0 -0.054,0.008 -0.072,0.023c-0.017,0.015 -0.03,0.034 -0.038,0.059c-0.007,0.025 -0.011,0.051 -0.011,0.08l0,0.211c0,0.029 0.008,0.048 0.023,0.056c0.016,0.007 0.035,0.011 0.057,0.011l0.005,0l0,0.042l-0.269,0Z" style="fill:rgb(66,66,66);fill-rule:nonzero;"/></g><g transform="matrix(288.288,0,0,288.288,1595.65,306.851)"><path d="M0.161,-0.636c-0.016,0 -0.029,-0.005 -0.041,-0.014c-0.01,-0.009 -0.016,-0.025 -0.016,-0.048c0,-0.023 0.006,-0.039 0.017,-0.048c0.011,-0.009 0.024,-0.014 0.04,-0.014c0.015,0 0.029,0.005 0.04,0.014c0.011,0.009 0.017,0.025 0.017,0.048c0,0.023 -0.006,0.039 -0.017,0.048c-0.011,0.009 -0.025,0.014 -0.04,0.014Zm-0.138,0.636l0,-0.042l0.013,0c0.022,0 0.041,-0.004 0.058,-0.011c0.016,-0.008 0.024,-0.027 0.024,-0.056l0,-0.317c0,-0.029 -0.008,-0.048 -0.024,-0.056c-0.017,-0.008 -0.036,-0.012 -0.058,-0.012l-0.003,0l0,-0.042l0.179,0l0,0.422c0,0.031 0.008,0.051 0.024,0.06c0.016,0.008 0.035,0.012 0.058,0.012l0.013,0l0,0.042l-0.284,0Z" style="fill:rgb(66,66,66);fill-rule:nonzero;"/></g><g transform="matrix(288.288,0,0,288.288,1687.9,306.851)"><path d="M0.005,0l0,-0.042l0.009,0c0.024,0 0.043,-0.004 0.058,-0.013c0.015,-0.009 0.032,-0.026 0.051,-0.051l0.126,-0.163l-0.126,-0.172c-0.015,-0.017 -0.029,-0.03 -0.042,-0.039c-0.014,-0.009 -0.029,-0.014 -0.044,-0.014l-0.013,0l0,-0.042l0.254,0l0,0.042l-0.003,0c-0.023,0 -0.039,0.003 -0.046,0.009c-0.007,0.005 -0.011,0.012 -0.011,0.02c0,0.007 0.002,0.014 0.006,0.021c0.004,0.006 0.01,0.014 0.017,0.025l0.066,0.09l0.052,-0.075c0.007,-0.011 0.013,-0.022 0.018,-0.033c0.005,-0.01 0.007,-0.019 0.007,-0.028c0,-0.012 -0.005,-0.02 -0.016,-0.024c-0.01,-0.003 -0.023,-0.005 -0.038,-0.005l-0.003,0l0,-0.042l0.219,0l0,0.042l-0.009,0c-0.019,0 -0.036,0.004 -0.05,0.012c-0.014,0.008 -0.031,0.025 -0.051,0.052l-0.103,0.137l0.147,0.198c0.015,0.019 0.028,0.033 0.041,0.041c0.013,0.008 0.026,0.012 0.039,0.012l0.013,0l0,0.042l-0.258,0l0,-0.042l0.005,0c0.04,0 0.06,-0.011 0.06,-0.033c0,-0.007 -0.003,-0.015 -0.008,-0.024c-0.005,-0.009 -0.015,-0.024 -0.03,-0.045l-0.067,-0.09l-0.07,0.098c-0.006,0.008 -0.012,0.018 -0.018,0.03c-0.006,0.011 -0.009,0.022 -0.009,0.033c0,0.011 0.005,0.019 0.014,0.024c0.01,0.005 0.026,0.007 0.048,0.007l0.003,0l0,0.042l-0.238,0Z" style="fill:rgb(66,66,66);fill-rule:nonzero;"/></g><g transform="matrix(288.288,0,0,288.288,1854.53,306.851)"><path d="M0.392,0l-0.172,-0.56l-0.004,0c0.001,0.013 0.002,0.033 0.003,0.06c0.001,0.027 0.003,0.055 0.004,0.086c0.001,0.031 0.002,0.058 0.002,0.082l0,0.332l-0.135,0l0,-0.714l0.206,0l0.169,0.546l0.003,0l0.179,-0.546l0.206,0l0,0.714l-0.141,0l0,-0.338c0,-0.023 0.001,-0.049 0.002,-0.078c0.001,-0.029 0.002,-0.057 0.003,-0.083c0.001,-0.027 0.001,-0.047 0.002,-0.06l-0.004,0l-0.184,0.559l-0.139,0Z" style="fill:rgb(45,162,53);fill-rule:nonzero;"/></g><g transform="matrix(288.288,0,0,288.288,2126.39,306.851)"><path d="M0.153,-0.76c0.022,0 0.041,0.005 0.057,0.015c0.016,0.011 0.024,0.03 0.024,0.058c0,0.027 -0.008,0.046 -0.024,0.057c-0.016,0.011 -0.035,0.016 -0.057,0.016c-0.023,0 -0.042,-0.005 -0.057,-0.016c-0.016,-0.011 -0.024,-0.03 -0.024,-0.057c0,-0.028 0.008,-0.047 0.023,-0.058c0.016,-0.01 0.035,-0.015 0.058,-0.015Zm0.074,0.214l0,0.546l-0.149,0l0,-0.546l0.149,0Z" style="fill:rgb(45,162,53);fill-rule:nonzero;"/></g><g transform="matrix(288.288,0,0,288.288,2214.32,306.851)"><path d="M0.09,-0.714l0.222,0c0.095,0 0.166,0.013 0.215,0.04c0.049,0.027 0.074,0.074 0.074,0.141c0,0.041 -0.009,0.075 -0.028,0.103c-0.019,0.028 -0.047,0.045 -0.082,0.051l0,0.005c0.023,0.005 0.045,0.014 0.065,0.025c0.019,0.012 0.035,0.029 0.046,0.052c0.011,0.023 0.017,0.053 0.017,0.09c0,0.065 -0.023,0.115 -0.071,0.152c-0.047,0.037 -0.11,0.055 -0.191,0.055l-0.267,0l0,-0.714Zm0.151,0.283l0.088,0c0.044,0 0.075,-0.007 0.091,-0.021c0.017,-0.013 0.026,-0.034 0.026,-0.061c0,-0.027 -0.01,-0.047 -0.03,-0.059c-0.02,-0.012 -0.052,-0.018 -0.095,-0.018l-0.08,0l0,0.159Zm0,0.12l0,0.186l0.099,0c0.045,0 0.077,-0.009 0.095,-0.027c0.018,-0.017 0.027,-0.041 0.027,-0.07c0,-0.027 -0.009,-0.048 -0.028,-0.065c-0.018,-0.016 -0.051,-0.024 -0.099,-0.024l-0.094,0Z" style="fill:rgb(45,162,53);fill-rule:nonzero;"/></g></g></g></svg>