<?xml version="1.0" encoding="UTF-8" standalone="no"?><!DOCTYPE svg PUBLIC "-//W3C//DTD SVG 1.1//EN" "http://www.w3.org/Graphics/SVG/1.1/DTD/svg11.dtd"><svg width="100%" height="100%" viewBox="0 0 4167 4171" version="1.1" xmlns="http://www.w3.org/2000/svg" xmlns:xlink="http://www.w3.org/1999/xlink" xml:space="preserve" xmlns:serif="http://www.serif.com/" style="fill-rule:evenodd;clip-rule:evenodd;stroke-miterlimit:10;"><rect id="Logo-Margin" serif:id="Logo Margin" x="0" y="2.319" width="4166.67" height="4166.67" style="fill:none;"/><g><path d="M2083.33,3271.07c-316.637,0 -614.321,-123.304 -838.216,-347.2c-223.896,-223.892 -347.2,-521.579 -347.2,-838.217c0,-316.637 123.304,-614.321 347.2,-838.216c223.895,-223.896 521.579,-347.2 838.216,-347.2c316.638,0 614.321,123.304 838.217,347.2c223.896,223.895 347.2,521.579 347.2,838.216c0,316.638 -123.304,614.325 -347.2,838.217c-223.896,223.896 -521.579,347.2 -838.217,347.2" style="fill:#fff;fill-rule:nonzero;"/><path d="M2083.33,898.153c-655.837,0 -1187.5,531.663 -1187.5,1187.5c0,655.838 531.663,1187.5 1187.5,1187.5c655.838,0 1187.5,-531.662 1187.5,-1187.5c0,-655.837 -531.662,-1187.5 -1187.5,-1187.5m0,4.167c159.75,0 314.721,31.287 460.604,92.992c140.909,59.6 267.463,144.92 376.138,253.6c108.675,108.675 194,235.225 253.604,376.137c61.7,145.883 92.988,300.854 92.988,460.604c0,159.75 -31.288,314.721 -92.988,460.604c-59.604,140.909 -144.929,267.463 -253.604,376.138c-108.675,108.675 -235.229,194 -376.138,253.604c-145.883,61.7 -300.854,92.988 -460.604,92.988c-159.75,0 -314.721,-31.288 -460.604,-92.988c-140.912,-59.604 -267.462,-144.929 -376.137,-253.604c-108.68,-108.675 -194,-235.229 -253.6,-376.138c-61.705,-145.883 -92.992,-300.854 -92.992,-460.604c0,-159.75 31.287,-314.721 92.992,-460.604c59.6,-140.912 144.92,-267.462 253.6,-376.137c108.675,-108.68 235.225,-194 376.137,-253.6c145.883,-61.705 300.854,-92.992 460.604,-92.992" style="fill:#fff;fill-rule:nonzero;"/><path d="M2981.69,1358.93c-14.346,16.158 -93.084,90.146 -177.713,162.992c-115.542,99.454 -236.975,193.566 -360.937,279.729c-24.896,18.641 -48.459,39.308 -70.092,61.479c-28.638,29.346 -54.371,61.792 -76.5,96.429c-0.333,0.496 -36.2,54.246 -65.079,114.975c-13.846,29.113 -18.4,42.921 -25.942,65.796c-8.492,25.75 -21.321,64.662 -56.608,152.346c-4.888,12.129 -30.029,77.037 -45.117,163.937c-6.725,38.709 -8.708,64.813 0.071,91.842c6.558,20.212 37.033,56.662 72.312,98.871c31.267,37.4 66.705,79.791 92.921,119.658c89.563,136.183 160.354,300.392 203.975,414.163c1.838,4.487 10.309,25.037 10.309,25.037l1.875,-0.671c471.179,-169.083 787.754,-619.125 787.754,-1119.86c0,-655.938 -533.65,-1189.58 -1189.58,-1189.58c-655.941,0 -1189.58,533.646 -1189.58,1189.58c0,197.579 49.467,393.283 143.054,565.946l2.046,3.779l1.696,-3.95c4.392,-10.221 8.587,-20.267 12.479,-29.85c87.408,-256.254 112.542,-486.296 113.567,-495.963c1.287,-12.091 2.425,-23.833 3.546,-35.333c6.55,-67.475 12.208,-125.754 41.325,-200.325c34.537,-88.446 81.245,-144.208 112.154,-181.104c122.396,-146.121 263.358,-204.6 336.491,-226.45c31.23,-9.329 83.5,-24.946 149.342,-24.946c24.971,0 50.096,2.296 74.675,6.829c13.546,2.5 19.058,4.213 28.192,7.054c7.804,2.425 18.491,5.746 39.166,11.084c43.646,11.262 145.846,37.633 248.275,37.633c12.805,0 25.384,-0.417 37.384,-1.233c78.496,-5.363 135.504,-27.809 173.225,-42.663l7.383,-2.9c145.05,-56.637 334.767,-95.1 563.938,-114.329m-898.355,1974.64c-74.658,0 -149.916,-6.779 -223.687,-20.154c-14.738,-2.666 -27.542,-5.175 -39.154,-7.671c-22.404,-4.8 -44.938,-10.291 -66.975,-16.316c-156.304,-42.729 -300.996,-114.7 -430.046,-213.913c-127.467,-97.991 -233.513,-217.741 -315.188,-355.925c-113.091,-191.329 -172.866,-410.546 -172.866,-633.937c0,-333.329 129.804,-646.709 365.504,-882.409c235.7,-235.704 549.079,-365.508 882.412,-365.508c333.33,0 646.709,129.804 882.409,365.508c235.7,235.7 365.508,549.08 365.508,882.409c0,261.658 -80.112,512.125 -231.675,724.325c-148.3,207.633 -352.971,363.046 -591.879,449.429c-61.75,22.329 -125.579,39.833 -189.713,52.037c-17.079,3.25 -33.916,6.113 -50.045,8.509c-29.425,4.362 -59.534,7.729 -89.488,10c-31.642,2.4 -63.642,3.616 -95.117,3.616" style="fill:#424242;fill-rule:nonzero;"/><path d="M1038.63,2650.61c-91.058,-168.004 -142.8,-360.425 -142.8,-564.954c0,-655.838 531.659,-1187.5 1187.5,-1187.5c655.838,0 1187.5,531.662 1187.5,1187.5c0,515.041 -327.946,953.391 -786.375,1117.9c-3.17,-7.717 -6.379,-15.442 -9.533,-23.15c-42.367,-110.509 -113.65,-276.909 -204.179,-414.563c-55.838,-84.912 -152.838,-180.571 -164.996,-218.025c-8.4,-25.883 -6.867,-51.3 0,-90.841c15.8,-91 42.604,-157.571 45,-163.521c66.096,-164.25 52.896,-155.771 82.496,-218.021c29.15,-61.292 64.958,-114.75 64.958,-114.75c18.342,-28.717 43.15,-62.192 76.233,-96.096c24.226,-24.829 48.125,-45 69.788,-61.221c95.025,-66.05 220.583,-158.904 361.108,-279.862c91.171,-78.475 182.667,-164.584 180.554,-167.013c-0.025,-0.029 -0.066,-0.041 -0.12,-0.041c-0.092,0 -0.213,0.033 -0.359,0.083c-283.933,23.508 -458.583,71.904 -568.412,114.792c-37.746,14.737 -96.559,39.72 -180,45.42c-12.363,0.846 -24.817,1.23 -37.242,1.23c-102.162,0 -203.121,-26.05 -247.75,-37.567c-44.675,-11.529 -42.108,-13.488 -67.5,-18.167c-26.533,-4.896 -51.633,-6.871 -75.054,-6.871c-64.379,0 -116.054,14.913 -149.938,25.038c-63.82,19.071 -209.104,73.833 -337.491,227.108c-34.029,40.621 -78.529,94.696 -112.5,181.688c-34.229,87.662 -36.221,153.579 -45,236.191c-1.613,15.225 -27.346,243.025 -113.429,495.4c-3.98,9.817 -8.146,19.767 -12.459,29.813m1044.7,-1814.95c-690.358,0 -1250,559.646 -1250,1250c0,231.846 63.159,448.9 173.154,635c163.28,276.237 429.796,484.212 746.48,570.787c22.125,6.046 44.491,11.5 67.087,16.346c12.992,2.788 26.083,5.3 39.221,7.679c72.704,13.179 147.554,20.188 224.058,20.188c32.059,0 63.825,-1.238 95.275,-3.621c30.188,-2.292 60.084,-5.638 89.634,-10.017c16.833,-2.5 33.529,-5.362 50.133,-8.525c65.292,-12.425 128.762,-29.975 190.029,-52.125c481.075,-173.946 824.929,-634.621 824.929,-1175.71c0,-690.354 -559.646,-1250 -1250,-1250m-1044.27,1824.5l3.395,-7.9c4.4,-10.25 8.605,-20.309 12.492,-29.892l0.046,-0.112l0.037,-0.109c87.455,-256.391 112.6,-486.629 113.63,-496.304c1.287,-12.108 2.433,-23.921 3.541,-35.346c6.534,-67.325 12.179,-125.475 41.196,-199.775c34.413,-88.125 80.988,-143.729 111.808,-180.525c122.05,-145.704 262.584,-204.008 335.492,-225.791c31.121,-9.3 83.208,-24.863 148.746,-24.863c24.846,0 49.842,2.288 74.3,6.8c13.421,2.475 18.888,4.175 27.942,6.992c7.825,2.433 18.541,5.762 39.27,11.112c43.721,11.284 146.1,37.7 248.792,37.7c12.854,0 25.479,-0.416 37.529,-1.237c78.817,-5.384 136,-27.9 173.838,-42.8c2.55,-1.004 5.012,-1.971 7.387,-2.9c143.738,-56.125 331.442,-94.384 558.021,-113.742c-20.683,21.6 -94.417,90.458 -173.917,158.883c-115.479,99.409 -236.862,193.48 -360.887,279.684c-24.921,18.662 -48.563,39.4 -70.271,61.65c-28.729,29.441 -54.554,61.996 -76.712,96.683c-0.359,0.538 -36.313,54.417 -65.255,115.279c-13.904,29.238 -18.475,43.092 -26.041,66.046c-8.483,25.725 -21.304,64.6 -56.567,152.225c-4.904,12.188 -30.133,77.383 -45.233,164.346c-6.783,39.05 -8.763,65.408 0.142,92.846c6.687,20.596 37.279,57.187 72.7,99.562c31.233,37.359 66.629,79.7 92.779,119.463c89.45,136.021 160.179,300.087 203.804,413.854c1.933,4.733 3.892,9.471 5.846,14.208l3.687,8.95l1.517,3.684l3.746,-1.35c472.004,-169.38 789.133,-620.205 789.133,-1121.82c0,-657.088 -534.579,-1191.67 -1191.67,-1191.67c-657.091,0 -1191.67,534.579 -1191.67,1191.67c0,197.925 49.554,393.971 143.304,566.941l4.096,7.559m1044.27,-1820.33c168.188,0 331.342,32.938 484.93,97.905c148.354,62.745 281.587,152.575 396.004,266.991c114.416,114.417 204.25,247.65 266.996,396.004c64.962,153.592 97.904,316.746 97.904,484.934c0,261.221 -79.979,511.271 -231.284,723.112c-72.866,102.013 -160.391,192.275 -260.158,268.288c-100.783,76.787 -212.062,137.483 -330.742,180.396c-61.641,22.287 -125.362,39.766 -189.387,51.945c-17.133,3.267 -33.946,6.121 -49.963,8.496c-29.391,4.359 -59.45,7.721 -89.337,9.988c-31.592,2.396 -63.538,3.608 -94.963,3.608c-74.545,0 -149.675,-6.771 -223.312,-20.121c-14.938,-2.704 -27.363,-5.137 -39.096,-7.654c-22.333,-4.787 -44.829,-10.271 -66.858,-16.292c-156.046,-42.654 -300.492,-114.504 -429.325,-213.554c-127.259,-97.829 -233.125,-217.383 -314.667,-355.333c-112.9,-191.013 -172.575,-409.854 -172.575,-632.879c0,-168.188 32.938,-331.342 97.9,-484.934c62.75,-148.354 152.579,-281.587 266.996,-396.004c114.417,-114.416 247.65,-204.246 396.004,-266.991c153.588,-64.967 316.742,-97.905 484.933,-97.905" style="fill:#424242;fill-rule:nonzero;"/><path d="M1942.35,1663.82c-19.791,22.062 -47.945,35.921 -79.304,35.921c-54.983,0 -100.275,-42.421 -107.433,-97.4c-73.958,34.158 -126.917,113.75 -107.592,152.029c19.6,38.825 114.467,36.971 179.471,9.854c47.925,-20 99.558,-62.071 114.858,-100.404Z" style="fill:#757575;fill-rule:nonzero;stroke:#757575;stroke-width:4.17px;"/><path d="M1863.05,1699.74c31.358,0 59.517,-13.858 79.304,-35.921c3.254,-8.158 4.904,-16.15 4.479,-23.716c-0.2,-3.634 -0.816,-7.184 -2,-10.596c-1.8,-5.196 -4.741,-9.954 -8.62,-14.267c-5.413,34.154 -35.238,60.317 -71.33,60.317c-39.921,0 -72.283,-31.975 -72.283,-71.421c0,-5.067 0.55,-10 1.562,-14.767c-4.075,0.879 -8.083,1.875 -12,3c-8.266,2.371 -16.362,5.371 -24.233,8.879c-0.779,0.35 -1.537,0.734 -2.312,1.092c7.158,54.979 52.454,97.4 107.433,97.4" style="fill:#fff;fill-rule:nonzero;"/><path d="M1863.05,1699.74c31.358,0 59.517,-13.858 79.304,-35.921c3.254,-8.158 4.904,-16.15 4.479,-23.716c-0.2,-3.634 -0.816,-7.184 -2,-10.596c-1.8,-5.196 -4.741,-9.954 -8.62,-14.267c-5.413,34.154 -35.238,60.317 -71.33,60.317c-39.921,0 -72.283,-31.975 -72.283,-71.421c0,-5.067 0.55,-10 1.562,-14.767c-4.075,0.879 -8.083,1.875 -12,3c-8.266,2.371 -16.362,5.371 -24.233,8.879c-0.779,0.35 -1.537,0.734 -2.312,1.092c7.158,54.979 52.454,97.4 107.433,97.4Z" style="fill:none;stroke:#fff;stroke-width:4.17px;"/><path d="M2237.42,2928.49c-15.22,-27.65 -14.658,-22.955 -64.325,-99.763c-71.129,-110 -83.766,-137.371 -124.37,-175.775c-32.921,-31.137 -51.913,-49.1 -81.48,-52.254c-53.291,-5.688 -69.583,42.758 -124.366,57.008c-99.625,25.909 -173.184,-102.612 -223.004,-71.262c-30.03,18.896 -8.963,69.158 -25.734,175.775c-20.083,127.7 -68.854,141.483 -102.925,318.287c-2.158,11.221 -4.012,21.596 -5.616,31.317c129.862,75.796 275.387,127.692 430.57,149.562c0.93,0.13 1.863,0.259 2.792,0.388c17.225,2.387 34.558,4.412 52.008,6.05c4.721,0.446 9.446,0.867 14.18,1.258c3.704,0.304 7.404,0.613 11.116,0.879c8.192,0.6 16.404,1.134 24.646,1.563c1.904,0.1 3.817,0.158 5.721,0.25c7.292,0.346 14.596,0.621 21.917,0.833c2.558,0.071 5.116,0.146 7.679,0.204c9.012,0.205 18.041,0.342 27.104,0.342c97.067,0 191.383,-11.742 281.687,-33.729c-25.904,-63.704 -29.95,-80.45 -58.979,-154.167c-29.641,-75.258 -44.937,-113.771 -68.621,-156.766" style="fill:#fff;fill-rule:nonzero;"/><path d="M2237.42,2928.49c-15.22,-27.65 -14.658,-22.955 -64.325,-99.763c-71.129,-110 -83.766,-137.371 -124.37,-175.775c-32.921,-31.137 -51.913,-49.1 -81.48,-52.254c-53.291,-5.688 -69.583,42.758 -124.366,57.008c-99.625,25.909 -173.184,-102.612 -223.004,-71.262c-30.03,18.896 -8.963,69.158 -25.734,175.775c-20.083,127.7 -68.854,141.483 -102.925,318.287c-2.158,11.221 -4.012,21.596 -5.616,31.317c129.862,75.796 275.387,127.692 430.57,149.562c0.93,0.13 1.863,0.259 2.792,0.388c17.225,2.387 34.558,4.412 52.008,6.05c4.721,0.446 9.446,0.867 14.18,1.258c3.704,0.304 7.404,0.613 11.116,0.879c8.192,0.6 16.404,1.134 24.646,1.563c1.904,0.1 3.817,0.158 5.721,0.25c7.292,0.346 14.596,0.621 21.917,0.833c2.558,0.071 5.116,0.146 7.679,0.204c9.012,0.205 18.041,0.342 27.104,0.342c97.067,0 191.383,-11.742 281.687,-33.729c-25.904,-63.704 -29.95,-80.45 -58.979,-154.167c-29.641,-75.258 -44.937,-113.771 -68.621,-156.766Z" style="fill:none;stroke:#fff;stroke-width:4.17px;"/><path d="M2358.46,1794.34c0,0 87.842,-62.667 261.804,-185.071c129.396,-91.046 224.455,-153.8 270.83,-189.584c8.65,-6.675 17.445,-13.158 26.304,-19.55c20.508,-14.795 -226.942,58.334 -366.717,108.209c-145.446,51.904 -292.033,104.3 -437.433,156.346c-12.263,29.275 -31.042,65.837 -59.996,100.641c-135.667,163.067 -360.3,125.971 -359.992,137.238c0.175,6.458 73.971,15.308 284.992,9.146c115.167,-3.363 141.608,3.033 187.496,-9.146c66.587,-17.679 106.262,-46.559 192.712,-108.229Z" style="fill:#fff;fill-rule:nonzero;stroke:#fff;stroke-width:4.17px;"/></g></svg>