<?xml version="1.0" encoding="UTF-8" standalone="no"?><!DOCTYPE svg PUBLIC "-//W3C//DTD SVG 1.1//EN" "http://www.w3.org/Graphics/SVG/1.1/DTD/svg11.dtd"><svg width="100%" height="100%" viewBox="0 0 4167 4167" version="1.1" xmlns="http://www.w3.org/2000/svg" xmlns:xlink="http://www.w3.org/1999/xlink" xml:space="preserve" xmlns:serif="http://www.serif.com/" style="fill-rule:evenodd;clip-rule:evenodd;stroke-miterlimit:10;"><rect id="Logo-Margin" serif:id="Logo Margin" x="0" y="0.42" width="4166.67" height="4166.67" style="fill:none;"/><g><path d="M2083.33,3302.86c-325.635,0 -631.778,-126.808 -862.036,-357.066c-230.258,-230.254 -357.066,-536.401 -357.066,-862.036c0,-325.636 126.808,-631.778 357.066,-862.037c230.258,-230.258 536.401,-357.066 862.036,-357.066c325.636,0 631.778,126.808 862.036,357.066c230.259,230.259 357.067,536.401 357.067,862.037c0,325.635 -126.808,631.782 -357.067,862.036c-230.258,230.258 -536.4,357.066 -862.036,357.066" style="fill:#fff;"/><path d="M2083.33,833.753c-690.358,0 -1250,559.646 -1250,1250c0,231.846 63.159,448.9 173.154,635c163.28,276.238 429.796,484.213 746.48,570.788c22.125,6.045 44.491,11.5 67.087,16.345c12.992,2.788 26.083,5.3 39.221,7.68c72.704,13.179 147.554,20.187 224.058,20.187c32.059,0 63.825,-1.237 95.275,-3.621c30.188,-2.291 60.084,-5.637 89.634,-10.016c16.833,-2.5 33.529,-5.363 50.133,-8.525c65.292,-12.425 128.762,-29.975 190.029,-52.125c481.075,-173.946 824.929,-634.621 824.929,-1175.71c0,-690.354 -559.646,-1250 -1250,-1250Zm-1044.7,1814.95c-91.058,-168.004 -142.8,-360.425 -142.8,-564.954c0,-655.837 531.659,-1187.5 1187.5,-1187.5c655.838,0 1187.5,531.663 1187.5,1187.5c0,515.042 -327.946,953.392 -786.375,1117.9c-3.171,-7.717 -6.379,-15.442 -9.533,-23.15c-42.367,-110.508 -113.65,-276.908 -204.179,-414.562c-55.838,-84.913 -152.838,-180.571 -164.996,-218.025c-8.4,-25.884 -6.867,-51.3 0,-90.842c15.8,-91 42.604,-157.571 45,-163.521c66.096,-164.25 52.896,-155.771 82.496,-218.021c29.15,-61.291 64.958,-114.75 64.958,-114.75c18.342,-28.716 43.15,-62.191 76.233,-96.096c24.225,-24.829 48.125,-45 69.788,-61.22c95.025,-66.05 220.583,-158.905 361.108,-279.863c91.171,-78.475 182.667,-164.583 180.554,-167.012c-0.025,-0.03 -0.066,-0.042 -0.12,-0.042c-0.092,0 -0.213,0.033 -0.359,0.083c-283.933,23.509 -458.583,71.904 -568.412,114.792c-37.746,14.737 -96.559,39.721 -180,45.421c-12.363,0.846 -24.817,1.229 -37.242,1.229c-102.162,0 -203.121,-26.05 -247.75,-37.567c-44.675,-11.529 -42.108,-13.487 -67.5,-18.166c-26.533,-4.896 -51.633,-6.871 -75.054,-6.871c-64.379,0 -116.054,14.912 -149.938,25.037c-63.82,19.071 -209.104,73.834 -337.491,227.109c-34.029,40.62 -78.529,94.695 -112.5,181.687c-34.229,87.663 -36.221,153.579 -45,236.192c-1.613,15.225 -27.346,243.025 -113.429,495.4c-3.98,9.816 -8.146,19.766 -12.459,29.812Z" style="fill:#424242;"/><path d="M1942.35,1661.92c-19.791,22.063 -47.945,35.921 -79.304,35.921c-54.983,0 -100.275,-42.421 -107.433,-97.4c-73.958,34.158 -126.917,113.75 -107.592,152.029c19.6,38.825 114.467,36.971 179.471,9.854c47.925,-20 99.558,-62.071 114.858,-100.404Z" style="fill:#757575;"/><path d="M1794.06,1587.92c-0.953,4.628 -1.469,9.411 -1.469,14.319c0,39.446 32.362,71.421 72.283,71.421l0.423,-0.001c35.902,-0.203 65.515,-26.295 70.906,-60.316l0.361,0.406c3.701,4.205 6.517,8.828 8.26,13.861c1.184,3.413 1.8,6.963 2,10.596c0.425,7.567 -1.225,15.558 -4.479,23.717c-19.633,21.89 -47.506,35.703 -78.57,35.918l-0.734,0.002c-54.979,0 -100.275,-42.42 -107.433,-97.4c0.775,-0.358 1.533,-0.741 2.312,-1.091c7.871,-3.509 15.967,-6.509 24.233,-8.879c3.917,-1.125 7.925,-2.121 12,-3l-0.093,0.447Z" style="fill:#fff;"/><path d="M1637.72,2579.59c43.797,0.666 102.683,79.468 177.822,79.692l1.111,-0.002c8.532,-0.063 17.272,-1.144 26.223,-3.471c51.787,-13.471 69.178,-57.5 115.943,-57.471l1.165,0.01c2.345,0.038 4.761,0.186 7.258,0.452c29.567,3.154 48.559,21.117 81.48,52.254c40.604,38.405 53.241,65.775 124.37,175.775c49.667,76.809 49.105,72.113 64.325,99.763c23.684,42.996 38.98,81.508 68.621,156.767c29.029,73.716 33.075,90.462 58.979,154.166c-88.893,21.644 -181.675,33.36 -277.139,33.721l-4.548,0.008c-9.063,0 -18.092,-0.137 -27.104,-0.341c-2.563,-0.059 -5.121,-0.134 -7.679,-0.204c-7.321,-0.213 -14.625,-0.488 -21.917,-0.834c-1.904,-0.091 -3.817,-0.15 -5.721,-0.25c-8.242,-0.429 -16.454,-0.962 -24.646,-1.562c-3.712,-0.267 -7.412,-0.575 -11.116,-0.879c-4.734,-0.392 -9.459,-0.813 -14.18,-1.259c-17.45,-1.637 -34.783,-3.662 -52.008,-6.05c-0.929,-0.129 -1.862,-0.258 -2.792,-0.387c-155.183,-21.871 -300.708,-73.767 -430.57,-149.563c1.604,-9.721 3.458,-20.096 5.616,-31.316c34.071,-176.805 82.842,-190.588 102.925,-318.288c16.771,-106.617 -4.296,-156.879 25.734,-175.775c5.449,-3.429 11.181,-4.945 17.202,-4.96l0.646,0.004Z" style="fill:#fff;"/><path d="M2358.46,1792.44c0,0 87.842,-62.667 261.804,-185.071c129.396,-91.046 224.455,-153.8 270.83,-189.583c8.65,-6.675 17.445,-13.159 26.304,-19.55c20.508,-14.796 -226.942,58.333 -366.717,108.208c-145.446,51.904 -292.033,104.3 -437.433,156.346c-12.263,29.275 -31.042,65.837 -59.996,100.642c-135.667,163.066 -360.3,125.97 -359.992,137.237c0.175,6.458 73.971,15.308 284.992,9.146c115.167,-3.363 141.608,3.033 187.496,-9.146c66.587,-17.679 106.262,-46.558 192.712,-108.229Z" style="fill:#fff;stroke:#fff;stroke-width:4.17px;"/></g></svg>