<?xml version="1.0" encoding="UTF-8"?>
<svg id="Layer_2" data-name="Layer 2" xmlns="http://www.w3.org/2000/svg" viewBox="0 0 572.37 572.37">
  <defs>
    <style>
      .cls-1, .cls-2, .cls-3 {
        fill: #fff;
      }

      .cls-4 {
        fill: #2da235;
      }

      .cls-5 {
        fill: #424242;
      }

      .cls-5, .cls-2, .cls-3 {
        fill-rule: evenodd;
      }

      .cls-6 {
        stroke-width: 4px;
      }

      .cls-6, .cls-3 {
        stroke: #fff;
      }

      .cls-6, .cls-7 {
        fill: none;
      }

      .cls-3 {
        stroke-miterlimit: 10;
      }
    </style>
  </defs>
  <g id="Layer_1-2" data-name="Layer 1">
    <rect class="cls-7" width="572.37" height="572.37"/>
    <path class="cls-1" d="M466.88,103.04l-12.32-3.98h-.01s-197.72-63.91-197.72-63.91l-11.75-3.79-14.11-4.57-11.02,9.95-9.02,8.15L57.6,183.36l-10.62,9.59-11,9.94,3.11,14.53,2.69,12.53v.02s44.74,208.99,44.74,208.99l1.36,6.34,1.08,5v.02s2.03,9.5,2.03,9.5l9.26,3,4.86,1.57,18.02,5.82,190.35,61.51h.01s13.28,4.3,13.28,4.3l.09,.03,12.45,4.04,1.68,.54,11.02-9.95,9.63-8.69,154.34-139.4,8.98-8.1,11.02-9.96-3.11-14.5-3.73-17.41-42.36-197.91-2.7-12.59-3.1-14.52-14.09-4.56Z"/>
    <g>
      <path class="cls-4" d="M122.05,435.33l-36.54-11.73L204.03,54.4l36.54,11.73L122.05,435.33Zm-32.77-13.67l30.83,9.9L236.79,68.07l-30.83-9.9L89.28,421.66Z"/>
      <path class="cls-4" d="M498.85,355.74L238.76,68.15l28.46-25.74,1.01,1.11,259.09,286.47-28.46,25.74ZM242.99,68.36L499.07,351.5l24.01-21.72L267.01,46.65l-24.01,21.72Z"/>
      <path class="cls-4" d="M127.62,469.86l-8.12-37.51,378.98-82.05,8.12,37.51L127.62,469.86Zm-4.55-35.21l6.85,31.64,373.11-80.78-6.85-31.64L123.06,434.65Z"/>
    </g>
    <g>
      <g>
        <path class="cls-6" d="M466.62,102.95l-12.32-3.98h-.01s-197.72-63.91-197.72-63.91l-11.75-3.79-14.11-4.57-11.02,9.95-9.02,8.15L57.34,183.27l-10.62,9.59-11,9.94,3.11,14.53,2.69,12.53v.02s44.74,208.99,44.74,208.99l1.36,6.34,1.08,5v.02s2.03,9.5,2.03,9.5l9.26,3,4.86,1.57,18.02,5.82,190.35,61.51h.01s13.28,4.3,13.28,4.3l.09,.03,12.45,4.04,1.68,.54,11.02-9.95,9.63-8.69,154.34-139.4,8.98-8.1,11.02-9.96-3.11-14.5-3.73-17.41-42.36-197.91-2.7-12.59-3.1-14.52-14.09-4.56Zm15.43,178.42l3.53,16.49,10.99,51.37,.33,1.5,.26,1.24-41.11,37.12-9.88,8.93-63.21,57.1h0s-9.62,8.69-9.62,8.69l-41.09,37.11-52.69-17.04-13.17-4.26-75.97-24.56-16.91-5.47-52.71-17.04-11.6-54.13-1.55-7.28-19.06-89-2.73-12.74-11.59-54.14,41.09-37.11,10.45-9.42h.02s63.96-57.78,63.96-57.78l8.33-7.52,41.09-37.11,52.67,17.03,12.65,4.09,80.88,26.16,12.56,4.06,52.68,17.03,11.59,54.14,2.7,12.61,17.12,79.93Z"/>
        <path class="cls-6" d="M466.62,102.95l-12.32-3.98h-.01s-68.89,14.63-68.89,14.63l-47.67,10.13-39.84,8.46-84.61,17.96-38.44,8.17-49.01,10.41h-.02s-68.47,14.54-68.47,14.54l-10.62,9.59-11,9.94,3.11,14.53,2.69,12.53v.02s47.07,52.27,47.07,52.27l34.91,38.78,24.82,27.57,58.33,64.78,28.6,31.77,31.13,34.57,46.83,52.02h.01s13.28,4.3,13.28,4.3l.09,.03,12.45,4.04,1.68,.54,11.02-9.95,9.63-8.69,21.58-66.78h0s14.96-46.35,14.96-46.35l12.76-39.47,27.21-84.2,12.42-38.43,14.62-45.25,21.59-66.82-2.7-12.59-3.1-14.52-14.09-4.56Zm-43.59,113.96l-12.41,38.41-39.6,122.54-12.85,39.78-26.51,82.03-57.07-63.39-28.39-31.52-85.29-94.73-25.16-27.95-60.15-66.8,87.08-18.49,37.95-8.06,124.75-26.5,39.84-8.46,83.97-17.83-26.16,80.98Z"/>
      </g>
      <g>
        <path class="cls-4" d="M466.62,102.95l-12.32-3.98h-.01s-197.72-63.91-197.72-63.91l-11.75-3.79-14.11-4.57-11.02,9.95-9.02,8.15L57.34,183.27l-10.62,9.59-11,9.94,3.11,14.53,2.69,12.53v.02s44.74,208.99,44.74,208.99l1.36,6.34,1.08,5v.02s2.03,9.5,2.03,9.5l9.26,3,4.86,1.57,18.02,5.82,190.35,61.51h.01s13.28,4.3,13.28,4.3l.09,.03,12.45,4.04,1.68,.54,11.02-9.95,9.63-8.69,154.34-139.4,8.98-8.1,11.02-9.96-3.11-14.5-3.73-17.41-42.36-197.91-2.7-12.59-3.1-14.52-14.09-4.56Zm15.43,178.42l3.53,16.49,10.99,51.37,.33,1.5,.26,1.24-41.11,37.12-9.88,8.93-63.21,57.1h0s-9.62,8.69-9.62,8.69l-41.09,37.11-52.69-17.04-13.17-4.26-75.97-24.56-16.91-5.47-52.71-17.04-11.6-54.13-1.55-7.28-19.06-89-2.73-12.74-11.59-54.14,41.09-37.11,10.45-9.42h.02s63.96-57.78,63.96-57.78l8.33-7.52,41.09-37.11,52.67,17.03,12.65,4.09,80.88,26.16,12.56,4.06,52.68,17.03,11.59,54.14,2.7,12.61,17.12,79.93Z"/>
        <path class="cls-4" d="M466.62,102.95l-12.32-3.98h-.01s-68.89,14.63-68.89,14.63l-47.67,10.13-39.84,8.46-84.61,17.96-38.44,8.17-49.01,10.41h-.02s-68.47,14.54-68.47,14.54l-10.62,9.59-11,9.94,3.11,14.53,2.69,12.53v.02s47.07,52.27,47.07,52.27l34.91,38.78,24.82,27.57,58.33,64.78,28.6,31.77,31.13,34.57,46.83,52.02h.01s13.28,4.3,13.28,4.3l.09,.03,12.45,4.04,1.68,.54,11.02-9.95,9.63-8.69,21.58-66.78h0s14.96-46.35,14.96-46.35l12.76-39.47,27.21-84.2,12.42-38.43,14.62-45.25,21.59-66.82-2.7-12.59-3.1-14.52-14.09-4.56Zm-43.59,113.96l-12.41,38.41-39.6,122.54-12.85,39.78-26.51,82.03-57.07-63.39-28.39-31.52-85.29-94.73-25.16-27.95-60.15-66.8,87.08-18.49,37.95-8.06,124.75-26.5,39.84-8.46,83.97-17.83-26.16,80.98Z"/>
      </g>
    </g>
    <g>
      <g>
        <path class="cls-6" d="M390.94,196.84c-5.85,7.11-13.26,12.8-20.29,18.76-14.07,11.92-25.63,21.06-40.56,31.43-6.48,4.85-12.05,10.86-16.4,17.67-.83,1.27-1.67,2.54-2.42,3.86-4.66,8.23-4.64,8.17-7.97,16.98-4.58,12.09-11.87,27.23-11.87,40.59,0,6.29,4.42,10.14,8.07,14.77,3.73,4.73,7.64,9.32,11.11,14.24h0c5.96,7.45,28.42,46.27,35.57,93,0,0-12.9,46.57-14.51,51.54l-176.42-58.31s-3.51-46.33,10.49-84.33c.42-1.15,8.26-19.59,8.71-20.69,4.08-11.95,6.72-22.84,9.09-35.31,2.32-12.25,2.37-25.32,5.59-37.37,3.97-14.88,13.71-28.97,25.91-38.35,7.67-5.9,11.46-8.37,19.99-12.1,10.01-4.37,21.37-6.41,32.19-4.51,9.06,1.59,17.69,4.87,26.93,5.79,12.34,1.22,23.69-1.09,35.59-4.4,19.06-5.3,18.91-5.56,38.27-9.27,7.62-1.46,15.27-2.73,22.93-3.99Z"/>
        <g>
          <ellipse class="cls-6" cx="268.29" cy="229.66" rx="3.38" ry="2.39" transform="translate(-73.21 139.67) rotate(-25.8)"/>
          <path class="cls-6" d="M371.69,208.75c-2.47,1.97-4.89,4.01-7.41,5.91-4.75,3.59-9.56,7.1-14.41,10.57-9.76,6.99-19.58,13.89-29.41,20.79-9.68,6.9-17.27,12.46-29.26,13.04-4.48,.22-8.97,.12-13.45,.14-8.3,.03-16.59,.14-24.89,.02-1.82-.03-3.64-.22-5.45-.48-.58-.09-2.23-.36-1.68-.56,1.3-.49,2.77-.24,4.16-.37,3.44-.31,6.91-.45,10.33-.95,14.78-2.16,26.94-11.68,32.68-25.41,19.51-6.98,37.99-16.32,57.95-22.06,4.57-1.32,9.18-2.49,13.79-3.64,5.07-1.26,10.16-2.42,15.25-3.58-2.74,2.19-5.48,4.38-8.22,6.57Z"/>
          <path class="cls-6" d="M240.3,237.95c1.5-4.05,3.19-6.6,6.58-9.45,1.73-1.45,4.23-3.44,8.16-4.38-6.91,12.87,11.64,15.27,18.51,7.6-.98,2.45-3.14,4.74-5.08,6.41-5.44,4.68-12.61,7.34-19.82,7.09-1.73-.06-3.45-.43-5.12-.89-2.72-.75-4.23-3.74-3.25-6.38Z"/>
          <path class="cls-6" d="M331.67,499.68l-132.51-43.94c-3-48,31.84-97.39,32.66-109.89,.2-2.93,.7-14.08,6.19-14.09h.07c1.81,.02,3.85,1.25,6.12,2.76,3.92,2.63,8.53,6.17,13.86,6.19h.13c6.43-.05,9.84-6.85,15.96-6.85h.13c6.51,.11,13.98,8.05,17.51,12.3,5.95,7.23,8.7,13.1,13.49,21.36,6.23,10.74,12,23.67,15.39,35.48,3.34,11.71,13.14,35.92,15.62,80.7l-4.62,15.98Z"/>
        </g>
      </g>
      <g>
        <path class="cls-5" d="M390.94,196.84c-5.85,7.11-13.26,12.8-20.29,18.76-14.07,11.92-25.63,21.06-40.56,31.43-6.48,4.85-12.05,10.86-16.4,17.67-.83,1.27-1.67,2.54-2.42,3.86-4.66,8.23-4.64,8.17-7.97,16.98-4.58,12.09-11.87,27.23-11.87,40.59,0,6.29,4.42,10.14,8.07,14.77,3.73,4.73,7.64,9.32,11.11,14.24h0c5.96,7.45,28.42,46.27,35.57,93,0,0-12.9,46.57-14.51,51.54l-176.42-58.31s-3.51-46.33,10.49-84.33c.42-1.15,8.26-19.59,8.71-20.69,4.08-11.95,6.72-22.84,9.09-35.31,2.32-12.25,2.37-25.32,5.59-37.37,3.97-14.88,13.71-28.97,25.91-38.35,7.67-5.9,11.46-8.37,19.99-12.1,10.01-4.37,21.37-6.41,32.19-4.51,9.06,1.59,17.69,4.87,26.93,5.79,12.34,1.22,23.69-1.09,35.59-4.4,19.06-5.3,18.91-5.56,38.27-9.27,7.62-1.46,15.27-2.73,22.93-3.99Z"/>
        <g>
          <ellipse class="cls-1" cx="268.29" cy="229.66" rx="3.38" ry="2.39" transform="translate(-73.21 139.67) rotate(-25.8)"/>
          <path class="cls-2" d="M371.69,208.75c-2.47,1.97-4.89,4.01-7.41,5.91-4.75,3.59-9.56,7.1-14.41,10.57-9.76,6.99-19.58,13.89-29.41,20.79-9.68,6.9-17.27,12.46-29.26,13.04-4.48,.22-8.97,.12-13.45,.14-8.3,.03-16.59,.14-24.89,.02-1.82-.03-3.64-.22-5.45-.48-.58-.09-2.23-.36-1.68-.56,1.3-.49,2.77-.24,4.16-.37,3.44-.31,6.91-.45,10.33-.95,14.78-2.16,26.94-11.68,32.68-25.41,19.51-6.98,37.99-16.32,57.95-22.06,4.57-1.32,9.18-2.49,13.79-3.64,5.07-1.26,10.16-2.42,15.25-3.58-2.74,2.19-5.48,4.38-8.22,6.57Z"/>
          <path class="cls-2" d="M240.3,237.95c1.5-4.05,3.19-6.6,6.58-9.45,1.73-1.45,4.23-3.44,8.16-4.38-6.91,12.87,11.64,15.27,18.51,7.6-.98,2.45-3.14,4.74-5.08,6.41-5.44,4.68-12.61,7.34-19.82,7.09-1.73-.06-3.45-.43-5.12-.89-2.72-.75-4.23-3.74-3.25-6.38Z"/>
          <path class="cls-3" d="M331.67,499.68l-132.51-43.94c-3-48,31.84-97.39,32.66-109.89,.2-2.93,.7-14.08,6.19-14.09h.07c1.81,.02,3.85,1.25,6.12,2.76,3.92,2.63,8.53,6.17,13.86,6.19h.13c6.43-.05,9.84-6.85,15.96-6.85h.13c6.51,.11,13.98,8.05,17.51,12.3,5.95,7.23,8.7,13.1,13.49,21.36,6.23,10.74,12,23.67,15.39,35.48,3.34,11.71,13.14,35.92,15.62,80.7l-4.62,15.98Z"/>
        </g>
      </g>
    </g>
  </g>
</svg>